<?xml version="1.0" encoding="UTF-8" standalone="no"?>
<!DOCTYPE svg PUBLIC "-//W3C//DTD SVG 1.1//EN"
 "http://www.w3.org/Graphics/SVG/1.1/DTD/svg11.dtd">
<!-- Generated by graphviz version 2.28.0 (20160728.0200)
 -->
<!-- Title: f Pages: 1 -->
<svg width="545pt" height="373pt"
 viewBox="0.00 0.00 545.21 373.00" xmlns="http://www.w3.org/2000/svg" xmlns:xlink="http://www.w3.org/1999/xlink">
<g id="graph1" class="graph" transform="scale(0.2129 0.2129) rotate(0) translate(4 1748)">
<title>f</title>
<!-- fcall_joQOG3 -->
<g id="node1" class="node"><title>fcall_joQOG3</title>
<ellipse fill="orange" stroke="black" cx="1508.25" cy="-1636" rx="32.2385" ry="18"/>
<text text-anchor="middle" x="1508.25" y="-1631.8" font-family="Times,serif" font-size="14.00">demo</text>
</g>
<!-- crs -->
<g id="node5" class="node"><title>crs</title>
<ellipse fill="white" stroke="black" cx="1329.25" cy="-1550" rx="27" ry="29.5"/>
<text text-anchor="middle" x="1329.25" y="-1554.2" font-family="Times,serif" font-size="14.00">crs </text>
<text text-anchor="middle" x="1329.25" y="-1537.4" font-family="Times,serif" font-size="14.00">[&#39;a]</text>
</g>
<!-- fcall_joQOG3&#45;&gt;crs -->
<g id="edge1" class="edge"><title>fcall_joQOG3&#45;&gt;crs:center</title>
<path fill="none" stroke="red" stroke-dasharray="5,2" d="M1478.81,-1628.28C1456.09,-1622.48 1424.25,-1612.97 1398.25,-1600 1384.5,-1593.14 1370.46,-1583.7 1358.67,-1574.94"/>
<polygon fill="red" stroke="red" points="1360.59,-1572.01 1350.52,-1568.73 1356.35,-1577.57 1360.59,-1572.01"/>
</g>
<!-- meuse -->
<g id="node6" class="node"><title>meuse</title>
<ellipse fill="white" stroke="black" cx="1630.25" cy="-1550" rx="53.1588" ry="29.5"/>
<text text-anchor="middle" x="1630.25" y="-1554.2" font-family="Times,serif" font-size="14.00">meuse </text>
<text text-anchor="middle" x="1630.25" y="-1537.4" font-family="Times,serif" font-size="14.00">[S x Q set]</text>
</g>
<!-- fcall_joQOG3&#45;&gt;meuse -->
<g id="edge2" class="edge"><title>fcall_joQOG3&#45;&gt;meuse:center</title>
<path fill="none" stroke="red" stroke-dasharray="5,2" d="M1527.85,-1621.5C1544.31,-1610.17 1568.38,-1593.6 1589.05,-1579.37"/>
<polygon fill="red" stroke="red" points="1591.12,-1582.19 1597.37,-1573.64 1587.15,-1576.43 1591.12,-1582.19"/>
</g>
<!-- meuse.area -->
<g id="node7" class="node"><title>meuse.area</title>
<ellipse fill="white" stroke="black" cx="1521.25" cy="-1472" rx="57.5" ry="29.5"/>
<text text-anchor="middle" x="1521.25" y="-1476.2" font-family="Times,serif" font-size="14.00">meuse.area </text>
<text text-anchor="middle" x="1521.25" y="-1459.4" font-family="Times,serif" font-size="14.00">[R set]</text>
</g>
<!-- fcall_joQOG3&#45;&gt;meuse.area -->
<g id="edge3" class="edge"><title>fcall_joQOG3&#45;&gt;meuse.area:center</title>
<path fill="none" stroke="red" stroke-dasharray="5,2" d="M1509.62,-1617.97C1511.62,-1592.94 1515.43,-1545.53 1518.14,-1511.75"/>
<polygon fill="red" stroke="red" points="1521.63,-1511.99 1518.94,-1501.74 1514.65,-1511.43 1521.63,-1511.99"/>
</g>
<!-- meuse.grid -->
<g id="node8" class="node"><title>meuse.grid</title>
<ellipse fill="white" stroke="black" cx="1335.25" cy="-1394" rx="57.25" ry="29.5"/>
<text text-anchor="middle" x="1335.25" y="-1398.2" font-family="Times,serif" font-size="14.00">meuse.grid </text>
<text text-anchor="middle" x="1335.25" y="-1381.4" font-family="Times,serif" font-size="14.00">[S x Q set]</text>
</g>
<!-- fcall_joQOG3&#45;&gt;meuse.grid -->
<g id="edge4" class="edge"><title>fcall_joQOG3&#45;&gt;meuse.grid:center</title>
<path fill="none" stroke="red" stroke-dasharray="5,2" d="M1496.63,-1618.88C1469,-1580.55 1398.85,-1483.24 1360.78,-1430.41"/>
<polygon fill="red" stroke="red" points="1363.41,-1428.09 1354.73,-1422.02 1357.74,-1432.18 1363.41,-1428.09"/>
</g>
<!-- meuse.riv -->
<g id="node9" class="node"><title>meuse.riv</title>
<ellipse fill="white" stroke="black" cx="1816.25" cy="-1550" rx="52.25" ry="29.5"/>
<text text-anchor="middle" x="1816.25" y="-1554.2" font-family="Times,serif" font-size="14.00">meuse.riv </text>
<text text-anchor="middle" x="1816.25" y="-1537.4" font-family="Times,serif" font-size="14.00">[R set]</text>
</g>
<!-- fcall_joQOG3&#45;&gt;meuse.riv -->
<g id="edge5" class="edge"><title>fcall_joQOG3&#45;&gt;meuse.riv:center</title>
<path fill="none" stroke="red" stroke-dasharray="5,2" d="M1536.67,-1627.25C1587.31,-1613.44 1694.01,-1584.34 1759.96,-1566.35"/>
<polygon fill="red" stroke="red" points="1761.06,-1569.68 1769.78,-1563.67 1759.22,-1562.93 1761.06,-1569.68"/>
</g>
<!-- lt_h6CLi2 -->
<g id="node2" class="node"><title>lt_h6CLi2</title>
<ellipse fill="white" stroke="black" cx="1367.25" cy="-1726" rx="35.5584" ry="18"/>
<text text-anchor="middle" x="1367.25" y="-1721.8" font-family="Times,serif" font-size="14.00">meuse</text>
</g>
<!-- lt_h6CLi2&#45;&gt;fcall_joQOG3 -->
<g id="edge6" class="edge"><title>lt_h6CLi2&#45;&gt;fcall_joQOG3:center</title>
<path fill="none" stroke="black" d="M1388.66,-1711.63C1412.75,-1696.6 1452.01,-1672.1 1478.94,-1655.29"/>
<polygon fill="none" stroke="black" points="1480.92,-1658.18 1487.55,-1649.92 1477.22,-1652.24 1480.92,-1658.18"/>
<text text-anchor="middle" x="1465.25" y="-1676.8" font-family="Times,serif" font-size="14.00">topic</text>
</g>
<!-- lt_JXLx14 -->
<g id="node3" class="node"><title>lt_JXLx14</title>
<ellipse fill="white" stroke="black" cx="1508.25" cy="-1726" rx="40.3147" ry="18"/>
<text text-anchor="middle" x="1508.25" y="-1721.8" font-family="Times,serif" font-size="14.00">FALSE</text>
</g>
<!-- lt_JXLx14&#45;&gt;fcall_joQOG3 -->
<g id="edge7" class="edge"><title>lt_JXLx14&#45;&gt;fcall_joQOG3:center</title>
<path fill="none" stroke="black" d="M1508.25,-1707.61C1508.25,-1695.24 1508.25,-1678.37 1508.25,-1664.22"/>
<polygon fill="none" stroke="black" points="1511.75,-1664.05 1508.25,-1654.05 1504.75,-1664.05 1511.75,-1664.05"/>
<text text-anchor="middle" x="1521.46" y="-1676.8" font-family="Times,serif" font-size="14.00">echo</text>
</g>
<!-- lt_A5PAtF -->
<g id="node4" class="node"><title>lt_A5PAtF</title>
<ellipse fill="white" stroke="black" cx="1656.25" cy="-1726" rx="40.3147" ry="18"/>
<text text-anchor="middle" x="1656.25" y="-1721.8" font-family="Times,serif" font-size="14.00">FALSE</text>
</g>
<!-- lt_A5PAtF&#45;&gt;fcall_joQOG3 -->
<g id="edge8" class="edge"><title>lt_A5PAtF&#45;&gt;fcall_joQOG3:center</title>
<path fill="none" stroke="black" d="M1633.12,-1711.25C1607.6,-1696.07 1566.41,-1671.58 1538.37,-1654.91"/>
<polygon fill="none" stroke="black" points="1540.15,-1651.9 1529.77,-1649.8 1536.58,-1657.92 1540.15,-1651.9"/>
<text text-anchor="middle" x="1605.58" y="-1676.8" font-family="Times,serif" font-size="14.00">ask</text>
</g>
<!-- meuse~2 -->
<g id="node10" class="node"><title>meuse~2</title>
<ellipse fill="white" stroke="black" cx="1761.25" cy="-1166" rx="53.1588" ry="29.5"/>
<text text-anchor="middle" x="1761.25" y="-1170.2" font-family="Times,serif" font-size="14.00">meuse~2 </text>
<text text-anchor="middle" x="1761.25" y="-1153.4" font-family="Times,serif" font-size="14.00">[S x Q set]</text>
</g>
<!-- meuse&#45;&gt;meuse~2 -->
<g id="edge9" class="edge"><title>meuse&#45;&gt;meuse~2:center</title>
<path fill="none" stroke="black" stroke-dasharray="5,2" d="M1633.29,-1520.17C1639.89,-1465.39 1658.48,-1343.38 1701.25,-1250 1709.17,-1232.7 1720.95,-1215.37 1731.98,-1201.04"/>
<polygon fill="black" stroke="black" points="1734.9,-1203 1738.36,-1192.98 1729.41,-1198.66 1734.9,-1203"/>
</g>
<!-- fcall_DPXVdT -->
<g id="node12" class="node"><title>fcall_DPXVdT</title>
<ellipse fill="orange" stroke="black" cx="1785.25" cy="-1394" rx="75.086" ry="18"/>
<text text-anchor="middle" x="1785.25" y="-1389.8" font-family="Times,serif" font-size="14.00">log(meuse$zinc)</text>
</g>
<!-- meuse&#45;&gt;fcall_DPXVdT -->
<g id="edge10" class="edge"><title>meuse&#45;&gt;fcall_DPXVdT:center</title>
<path fill="none" stroke="black" d="M1655.5,-1523.91C1684.63,-1494.97 1732.21,-1447.69 1760.94,-1419.15"/>
<polygon fill="none" stroke="black" points="1763.54,-1421.5 1768.17,-1411.97 1758.61,-1416.54 1763.54,-1421.5"/>
</g>
<!-- fcall_Ite0PZ -->
<g id="node14" class="node"><title>fcall_Ite0PZ</title>
<ellipse fill="orange" stroke="black" cx="1678.25" cy="-896" rx="212.25" ry="29.5"/>
<text text-anchor="middle" x="1678.25" y="-900.2" font-family="Times,serif" font-size="14.00">SField</text>
<text text-anchor="middle" x="1678.25" y="-883.4" font-family="Times,serif" font-size="14.00">[bool &#45;&gt; R set &#45;&gt; S x Q set &#45;&gt; S x Q x SExtend set]</text>
</g>
<!-- meuse.area&#45;&gt;fcall_Ite0PZ -->
<g id="edge11" class="edge"><title>meuse.area&#45;&gt;fcall_Ite0PZ:center</title>
<path fill="none" stroke="black" d="M1526.33,-1442.57C1530.68,-1415.71 1536.25,-1374.25 1536.25,-1338 1536.25,-1338 1536.25,-1338 1536.25,-1051 1536.25,-999.27 1580.09,-957.482 1619.05,-930.558"/>
<polygon fill="none" stroke="black" points="1621.43,-933.18 1627.79,-924.706 1617.53,-927.364 1621.43,-933.18"/>
<text text-anchor="middle" x="1557.25" y="-1218.8" font-family="Times,serif" font-size="14.00">domain</text>
</g>
<!-- fcall_MrVlR7 -->
<g id="node26" class="node"><title>fcall_MrVlR7</title>
<ellipse fill="orange" stroke="black" cx="763.249" cy="-1280" rx="86.25" ry="29.5"/>
<text text-anchor="middle" x="763.249" y="-1284.2" font-family="Times,serif" font-size="14.00">geometry</text>
<text text-anchor="middle" x="763.249" y="-1267.4" font-family="Times,serif" font-size="14.00">[S x Q set &#45;&gt; S set]</text>
</g>
<!-- meuse.grid&#45;&gt;fcall_MrVlR7 -->
<g id="edge12" class="edge"><title>meuse.grid&#45;&gt;fcall_MrVlR7:center</title>
<path fill="none" stroke="black" d="M1282.21,-1382.61C1182.53,-1363.1 966.583,-1320.81 847.061,-1297.41"/>
<polygon fill="none" stroke="black" points="847.701,-1293.97 837.214,-1295.48 846.356,-1300.84 847.701,-1293.97"/>
<text text-anchor="middle" x="1093.19" y="-1332.8" font-family="Times,serif" font-size="14.00">obj</text>
</g>
<!-- fcall_XGqk67 -->
<g id="node27" class="node"><title>fcall_XGqk67</title>
<ellipse fill="orange" stroke="black" cx="1049.25" cy="-1280" rx="86.25" ry="29.5"/>
<text text-anchor="middle" x="1049.25" y="-1284.2" font-family="Times,serif" font-size="14.00">geometry</text>
<text text-anchor="middle" x="1049.25" y="-1267.4" font-family="Times,serif" font-size="14.00">[S x Q set &#45;&gt; S set]</text>
</g>
<!-- meuse.grid&#45;&gt;fcall_XGqk67 -->
<g id="edge13" class="edge"><title>meuse.grid&#45;&gt;fcall_XGqk67:center</title>
<path fill="none" stroke="black" d="M1290.56,-1375.5C1243.21,-1356.96 1167.98,-1327.5 1114.11,-1306.4"/>
<polygon fill="none" stroke="black" points="1115.23,-1303.08 1104.65,-1302.69 1112.68,-1309.6 1115.23,-1303.08"/>
<text text-anchor="middle" x="1219.19" y="-1332.8" font-family="Times,serif" font-size="14.00">obj</text>
</g>
<!-- fcall_0rjYDF -->
<g id="node36" class="node"><title>fcall_0rjYDF</title>
<ellipse fill="orange" stroke="black" cx="1335.25" cy="-1280" rx="86.25" ry="29.5"/>
<text text-anchor="middle" x="1335.25" y="-1284.2" font-family="Times,serif" font-size="14.00">geometry</text>
<text text-anchor="middle" x="1335.25" y="-1267.4" font-family="Times,serif" font-size="14.00">[S x Q set &#45;&gt; S set]</text>
</g>
<!-- meuse.grid&#45;&gt;fcall_0rjYDF -->
<g id="edge14" class="edge"><title>meuse.grid&#45;&gt;fcall_0rjYDF:center</title>
<path fill="none" stroke="black" d="M1335.25,-1364.45C1335.25,-1350.99 1335.25,-1334.73 1335.25,-1320.15"/>
<polygon fill="none" stroke="black" points="1338.75,-1319.89 1335.25,-1309.89 1331.75,-1319.89 1338.75,-1319.89"/>
<text text-anchor="middle" x="1344.19" y="-1332.8" font-family="Times,serif" font-size="14.00">obj</text>
</g>
<!-- fcall_lOQfqO -->
<g id="node41" class="node"><title>fcall_lOQfqO</title>
<ellipse fill="orange" stroke="black" cx="2247.25" cy="-1280" rx="204.554" ry="18"/>
<text text-anchor="middle" x="2247.25" y="-1275.8" font-family="Times,serif" font-size="14.00">gridparameters(meuse.grid)$cellcentre.offset + 20</text>
</g>
<!-- meuse.grid&#45;&gt;fcall_lOQfqO -->
<g id="edge15" class="edge"><title>meuse.grid&#45;&gt;fcall_lOQfqO:center</title>
<path fill="none" stroke="black" d="M1390.59,-1386.2C1534.42,-1368.54 1922.8,-1320.84 2123.47,-1296.2"/>
<polygon fill="none" stroke="black" points="2123.97,-1299.67 2133.47,-1294.97 2123.12,-1292.72 2123.97,-1299.67"/>
</g>
<!-- meuse[&quot;lzinc&quot;] -->
<g id="node15" class="node"><title>meuse[&quot;lzinc&quot;]</title>
<ellipse fill="white" stroke="black" cx="1690.25" cy="-1052" rx="72.1689" ry="29.5"/>
<text text-anchor="middle" x="1690.25" y="-1056.2" font-family="Times,serif" font-size="14.00">meuse[&quot;lzinc&quot;] </text>
<text text-anchor="middle" x="1690.25" y="-1039.4" font-family="Times,serif" font-size="14.00">[S x Q set]</text>
</g>
<!-- meuse~2&#45;&gt;meuse[&quot;lzinc&quot;] -->
<g id="edge16" class="edge"><title>meuse~2&#45;&gt;meuse[&quot;lzinc&quot;]:center</title>
<path fill="none" stroke="black" d="M1744.06,-1137.89C1734.78,-1123.25 1723.2,-1104.98 1713.16,-1089.15"/>
<polygon fill="none" stroke="black" points="1716.08,-1087.21 1707.77,-1080.64 1710.17,-1090.96 1716.08,-1087.21"/>
</g>
<!-- fcall_ODaotR -->
<g id="node51" class="node"><title>fcall_ODaotR</title>
<ellipse fill="orange" stroke="black" cx="1907.25" cy="-1052" rx="53.123" ry="18"/>
<text text-anchor="middle" x="1907.25" y="-1047.8" font-family="Times,serif" font-size="14.00">proj4string</text>
</g>
<!-- meuse~2&#45;&gt;fcall_ODaotR -->
<g id="edge17" class="edge"><title>meuse~2&#45;&gt;fcall_ODaotR:center</title>
<path fill="none" stroke="black" d="M1791.86,-1141.52C1817.4,-1121.93 1853.54,-1094.2 1878.54,-1075.03"/>
<polygon fill="none" stroke="black" points="1880.75,-1077.74 1886.56,-1068.87 1876.49,-1072.18 1880.75,-1077.74"/>
<text text-anchor="middle" x="1852.19" y="-1104.8" font-family="Times,serif" font-size="14.00">obj</text>
</g>
<!-- meuse$lzinc -->
<g id="node11" class="node"><title>meuse$lzinc</title>
<ellipse fill="white" stroke="black" cx="1773.25" cy="-1280" rx="63.1326" ry="29.5"/>
<text text-anchor="middle" x="1773.25" y="-1284.2" font-family="Times,serif" font-size="14.00">meuse$lzinc </text>
<text text-anchor="middle" x="1773.25" y="-1267.4" font-family="Times,serif" font-size="14.00">[Q set]</text>
</g>
<!-- meuse$lzinc&#45;&gt;meuse~2 -->
<g id="edge18" class="edge"><title>meuse$lzinc&#45;&gt;meuse~2:center</title>
<path fill="none" stroke="red" d="M1770.19,-1250.45C1768.74,-1236.89 1766.98,-1220.48 1765.41,-1205.81"/>
<polygon fill="red" stroke="red" points="1768.85,-1205.07 1764.3,-1195.5 1761.89,-1205.82 1768.85,-1205.07"/>
</g>
<!-- fcall_DPXVdT&#45;&gt;meuse$lzinc -->
<g id="edge19" class="edge"><title>fcall_DPXVdT&#45;&gt;meuse$lzinc:center</title>
<path fill="none" stroke="red" d="M1783.43,-1375.99C1781.83,-1361.05 1779.44,-1338.76 1777.38,-1319.53"/>
<polygon fill="red" stroke="red" points="1780.85,-1319.09 1776.3,-1309.52 1773.89,-1319.83 1780.85,-1319.09"/>
</g>
<!-- zincPointData -->
<g id="node13" class="node"><title>zincPointData</title>
<ellipse fill="white" stroke="black" cx="1678.25" cy="-740" rx="97.1383" ry="29.5"/>
<text text-anchor="middle" x="1678.25" y="-744.2" font-family="Times,serif" font-size="14.00">zincPointData </text>
<text text-anchor="middle" x="1678.25" y="-727.4" font-family="Times,serif" font-size="14.00">[S x Q x SExtend set]</text>
</g>
<!-- fcall_C6DIWy -->
<g id="node16" class="node"><title>fcall_C6DIWy</title>
<ellipse fill="orange" stroke="black" cx="1692.25" cy="-626" rx="90.4118" ry="18"/>
<text text-anchor="middle" x="1692.25" y="-621.8" font-family="Times,serif" font-size="14.00">class(zincPointData)</text>
</g>
<!-- zincPointData&#45;&gt;fcall_C6DIWy -->
<g id="edge20" class="edge"><title>zincPointData&#45;&gt;fcall_C6DIWy:center</title>
<path fill="none" stroke="black" d="M1681.82,-710.448C1683.97,-693.223 1686.7,-671.394 1688.83,-654.383"/>
<polygon fill="none" stroke="black" points="1692.36,-654.354 1690.12,-643.997 1685.41,-653.486 1692.36,-654.354"/>
</g>
<!-- fcall_rTONIo -->
<g id="node17" class="node"><title>fcall_rTONIo</title>
<ellipse fill="orange" stroke="black" cx="1186.25" cy="-626" rx="27" ry="18"/>
<text text-anchor="middle" x="1186.25" y="-621.8" font-family="Times,serif" font-size="14.00">plot</text>
</g>
<!-- zincPointData&#45;&gt;fcall_rTONIo -->
<g id="edge21" class="edge"><title>zincPointData&#45;&gt;fcall_rTONIo:center</title>
<path fill="none" stroke="black" d="M1598.04,-723.333C1519.35,-707.613 1396.1,-682.054 1290.25,-656 1266.74,-650.213 1240.47,-642.882 1220.22,-637.039"/>
<polygon fill="none" stroke="black" points="1221.09,-633.648 1210.51,-634.22 1219.14,-640.37 1221.09,-633.648"/>
<text text-anchor="middle" x="1442.75" y="-678.8" font-family="Times,serif" font-size="14.00">x</text>
</g>
<!-- fcall_ZwOGM4 -->
<g id="node19" class="node"><title>fcall_ZwOGM4</title>
<ellipse fill="orange" stroke="black" cx="1368.25" cy="-512" rx="171.009" ry="29.5"/>
<text text-anchor="middle" x="1368.25" y="-516.2" font-family="Times,serif" font-size="14.00">getInterpolator</text>
<text text-anchor="middle" x="1368.25" y="-499.4" font-family="Times,serif" font-size="14.00">[Q set &#45;&gt; S x Q x SExtend set &#45;&gt; SField]</text>
</g>
<!-- zincPointData&#45;&gt;fcall_ZwOGM4 -->
<g id="edge23" class="edge"><title>zincPointData&#45;&gt;fcall_ZwOGM4:center</title>
<path fill="none" stroke="black" d="M1730.05,-714.987C1753.25,-701.263 1778.28,-681.626 1791.25,-656 1803.29,-632.208 1808.19,-616.592 1791.25,-596 1758.66,-556.392 1639.69,-535.404 1536.19,-524.451"/>
<polygon fill="none" stroke="black" points="1536.53,-520.968 1526.22,-523.422 1535.81,-527.931 1536.53,-520.968"/>
<text text-anchor="middle" x="1829.85" y="-621.8" font-family="Times,serif" font-size="14.00">pointData</text>
</g>
<!-- fcall_J6gWRh -->
<g id="node20" class="node"><title>fcall_J6gWRh</title>
<ellipse fill="orange" stroke="black" cx="921.249" cy="-626" rx="131.25" ry="29.5"/>
<text text-anchor="middle" x="921.249" y="-630.2" font-family="Times,serif" font-size="14.00">modelSemivariogram</text>
<text text-anchor="middle" x="921.249" y="-613.4" font-family="Times,serif" font-size="14.00">[S x Q x SExtend set &#45;&gt; Q set]</text>
</g>
<!-- zincPointData&#45;&gt;fcall_J6gWRh -->
<g id="edge22" class="edge"><title>zincPointData&#45;&gt;fcall_J6gWRh:center</title>
<path fill="none" stroke="black" d="M1588.82,-728.258C1515.44,-719.237 1408.89,-705.663 1316.04,-692 1220.32,-677.913 1111.88,-659.912 1032.91,-646.427"/>
<polygon fill="none" stroke="black" points="1033.38,-642.958 1022.94,-644.722 1032.2,-649.858 1033.38,-642.958"/>
<text text-anchor="middle" x="1343.85" y="-678.8" font-family="Times,serif" font-size="14.00">pointData</text>
</g>
<!-- fcall_aCCCNs -->
<g id="node54" class="node"><title>fcall_aCCCNs</title>
<ellipse fill="orange" stroke="black" cx="1773.25" cy="-316" rx="190.25" ry="29.5"/>
<text text-anchor="middle" x="1773.25" y="-320.2" font-family="Times,serif" font-size="14.00">interpolator</text>
<text text-anchor="middle" x="1773.25" y="-303.4" font-family="Times,serif" font-size="14.00">[S x Q x SExtend set &#45;&gt; S x Q x SExtend set]</text>
</g>
<!-- zincPointData&#45;&gt;fcall_aCCCNs -->
<g id="edge24" class="edge"><title>zincPointData&#45;&gt;fcall_aCCCNs:center</title>
<path fill="none" stroke="black" d="M1765.29,-726.747C1862.46,-710.562 2006.25,-677.996 2006.25,-627 2006.25,-627 2006.25,-627 2006.25,-413 2006.25,-373.575 1977.38,-350.011 1939.96,-336.026"/>
<polygon fill="none" stroke="black" points="1940.87,-332.637 1930.28,-332.673 1938.58,-339.252 1940.87,-332.637"/>
<text text-anchor="middle" x="2043.17" y="-507.8" font-family="Times,serif" font-size="14.00">locOfInterest</text>
</g>
<!-- fcall_Ite0PZ&#45;&gt;zincPointData -->
<g id="edge25" class="edge"><title>fcall_Ite0PZ&#45;&gt;zincPointData:center</title>
<path fill="none" stroke="red" d="M1678.25,-866.395C1678.25,-842.052 1678.25,-806.858 1678.25,-779.947"/>
<polygon fill="red" stroke="red" points="1681.75,-779.713 1678.25,-769.713 1674.75,-779.713 1681.75,-779.713"/>
</g>
<!-- meuse[&quot;lzinc&quot;]&#45;&gt;fcall_Ite0PZ -->
<g id="edge26" class="edge"><title>meuse[&quot;lzinc&quot;]&#45;&gt;fcall_Ite0PZ:center</title>
<path fill="none" stroke="black" d="M1688.02,-1022.39C1686.12,-998.052 1683.38,-962.858 1681.28,-935.947"/>
<polygon fill="none" stroke="black" points="1684.75,-935.411 1680.49,-925.713 1677.77,-935.955 1684.75,-935.411"/>
<text text-anchor="middle" x="1722.63" y="-969.8" font-family="Times,serif" font-size="14.00">observations</text>
</g>
<!-- interpolator -->
<g id="node18" class="node"><title>interpolator</title>
<ellipse fill="white" stroke="black" cx="1320.25" cy="-414" rx="59.2038" ry="29.5"/>
<text text-anchor="middle" x="1320.25" y="-418.2" font-family="Times,serif" font-size="14.00">interpolator </text>
<text text-anchor="middle" x="1320.25" y="-401.4" font-family="Times,serif" font-size="14.00">[SField]</text>
</g>
<!-- fcall_8hfojl -->
<g id="node23" class="node"><title>fcall_8hfojl</title>
<ellipse fill="orange" stroke="black" cx="1320.25" cy="-316" rx="80.9299" ry="18"/>
<text text-anchor="middle" x="1320.25" y="-311.8" font-family="Times,serif" font-size="14.00">class(interpolator)</text>
</g>
<!-- interpolator&#45;&gt;fcall_8hfojl -->
<g id="edge27" class="edge"><title>interpolator&#45;&gt;fcall_8hfojl:center</title>
<path fill="none" stroke="black" d="M1320.25,-384.457C1320.25,-371.803 1320.25,-356.979 1320.25,-344.454"/>
<polygon fill="none" stroke="black" points="1323.75,-344.152 1320.25,-334.152 1316.75,-344.153 1323.75,-344.152"/>
</g>
<!-- fcall_NK1x9Q -->
<g id="node30" class="node"><title>fcall_NK1x9Q</title>
<ellipse fill="orange" stroke="black" cx="539.249" cy="-316" rx="173.25" ry="29.5"/>
<text text-anchor="middle" x="539.249" y="-320.2" font-family="Times,serif" font-size="14.00">interpolator</text>
<text text-anchor="middle" x="539.249" y="-303.4" font-family="Times,serif" font-size="14.00">[S x SExtend set &#45;&gt; S x Q x SExtend set]</text>
</g>
<!-- interpolator&#45;&gt;fcall_NK1x9Q -->
<g id="edge28" class="edge"><title>interpolator&#45;&gt;fcall_NK1x9Q:center</title>
<path fill="none" stroke="blue" d="M1262.82,-405.941C1142.65,-391.17 861.411,-356.6 687.076,-335.171"/>
<polygon fill="blue" stroke="blue" points="687.399,-331.684 677.046,-333.938 686.544,-338.632 687.399,-331.684"/>
</g>
<!-- fcall_DfH7Ob -->
<g id="node38" class="node"><title>fcall_DfH7Ob</title>
<ellipse fill="orange" stroke="black" cx="1006.25" cy="-316" rx="97.25" ry="29.5"/>
<text text-anchor="middle" x="1006.25" y="-320.2" font-family="Times,serif" font-size="14.00">interpolator</text>
<text text-anchor="middle" x="1006.25" y="-303.4" font-family="Times,serif" font-size="14.00">[SLattice &#45;&gt; SLattice]</text>
</g>
<!-- interpolator&#45;&gt;fcall_DfH7Ob -->
<g id="edge29" class="edge"><title>interpolator&#45;&gt;fcall_DfH7Ob:center</title>
<path fill="none" stroke="blue" d="M1270.5,-397.789C1220.15,-382.395 1141.61,-358.384 1083.22,-340.534"/>
<polygon fill="blue" stroke="blue" points="1083.89,-337.077 1073.3,-337.501 1081.84,-343.771 1083.89,-337.077"/>
</g>
<!-- interpolator&#45;&gt;fcall_aCCCNs -->
<g id="edge30" class="edge"><title>interpolator&#45;&gt;fcall_aCCCNs:center</title>
<path fill="none" stroke="blue" d="M1374.44,-401.516C1443.03,-386.981 1563.13,-361.528 1653.66,-342.343"/>
<polygon fill="blue" stroke="blue" points="1654.66,-345.71 1663.71,-340.213 1653.21,-338.862 1654.66,-345.71"/>
</g>
<!-- fcall_ZwOGM4&#45;&gt;interpolator -->
<g id="edge31" class="edge"><title>fcall_ZwOGM4&#45;&gt;interpolator:center</title>
<path fill="none" stroke="red" d="M1353.98,-482.457C1349.2,-472.893 1343.79,-462.09 1338.74,-451.976"/>
<polygon fill="red" stroke="red" points="1341.82,-450.316 1334.22,-442.937 1335.56,-453.447 1341.82,-450.316"/>
</g>
<!-- fcall_J6gWRh&#45;&gt;fcall_ZwOGM4 -->
<g id="edge32" class="edge"><title>fcall_J6gWRh&#45;&gt;fcall_ZwOGM4:center</title>
<path fill="none" stroke="black" d="M1006.91,-603.538C1080.2,-585.173 1185.95,-558.677 1264.12,-539.09"/>
<polygon fill="none" stroke="black" points="1265.15,-542.442 1274,-536.616 1263.44,-535.652 1265.15,-542.442"/>
<text text-anchor="middle" x="1192.46" y="-564.8" font-family="Times,serif" font-size="14.00">params</text>
</g>
<!-- init_model -->
<g id="node21" class="node"><title>init_model</title>
<ellipse fill="white" stroke="black" cx="921.249" cy="-740" rx="56.2887" ry="29.5"/>
<text text-anchor="middle" x="921.249" y="-744.2" font-family="Times,serif" font-size="14.00">init_model </text>
<text text-anchor="middle" x="921.249" y="-727.4" font-family="Times,serif" font-size="14.00">[function]</text>
</g>
<!-- init_model&#45;&gt;fcall_J6gWRh -->
<g id="edge33" class="edge"><title>init_model&#45;&gt;fcall_J6gWRh:center</title>
<path fill="none" stroke="blue" stroke-dasharray="5,2" d="M921.249,-710.448C921.249,-696.993 921.249,-680.729 921.249,-666.146"/>
<polygon fill="blue" stroke="blue" points="924.749,-665.889 921.249,-655.889 917.749,-665.889 924.749,-665.889"/>
</g>
<!-- captureSemantics&lt;&#45; -->
<g id="node22" class="node"><title>captureSemantics&lt;&#45;</title>
<ellipse fill="white" stroke="black" cx="1391.25" cy="-626" rx="92.3327" ry="29.5"/>
<text text-anchor="middle" x="1391.25" y="-630.2" font-family="Times,serif" font-size="14.00">captureSemantics&lt;&#45; </text>
<text text-anchor="middle" x="1391.25" y="-613.4" font-family="Times,serif" font-size="14.00">[function]</text>
</g>
<!-- captureSemantics&lt;&#45;&#45;&gt;fcall_ZwOGM4 -->
<g id="edge34" class="edge"><title>captureSemantics&lt;&#45;&#45;&gt;fcall_ZwOGM4:center</title>
<path fill="none" stroke="blue" stroke-dasharray="5,2" d="M1385.39,-596.448C1382.57,-582.757 1379.17,-566.158 1376.13,-551.381"/>
<polygon fill="blue" stroke="blue" points="1379.54,-550.591 1374.1,-541.5 1372.69,-552 1379.54,-550.591"/>
</g>
<!-- locInterest -->
<g id="node24" class="node"><title>locInterest</title>
<ellipse fill="white" stroke="black" cx="545.249" cy="-974" rx="80.1421" ry="29.5"/>
<text text-anchor="middle" x="545.249" y="-978.2" font-family="Times,serif" font-size="14.00">locInterest </text>
<text text-anchor="middle" x="545.249" y="-961.4" font-family="Times,serif" font-size="14.00">[S x SExtend set]</text>
</g>
<!-- locInterest&#45;&gt;fcall_NK1x9Q -->
<g id="edge35" class="edge"><title>locInterest&#45;&gt;fcall_NK1x9Q:center</title>
<path fill="none" stroke="black" d="M540.195,-944.437C535.184,-913.599 528.249,-862.979 528.249,-819 528.249,-819 528.249,-819 528.249,-413 528.249,-394.245 530.347,-373.563 532.711,-356.213"/>
<polygon fill="none" stroke="black" points="536.236,-356.285 534.2,-345.888 529.308,-355.286 536.236,-356.285"/>
<text text-anchor="middle" x="565.174" y="-621.8" font-family="Times,serif" font-size="14.00">locOfInterest</text>
</g>
<!-- fcall_jO6Iwc -->
<g id="node25" class="node"><title>fcall_jO6Iwc</title>
<ellipse fill="orange" stroke="black" cx="742.249" cy="-1166" rx="176.5" ry="29.5"/>
<text text-anchor="middle" x="742.249" y="-1170.2" font-family="Times,serif" font-size="14.00">SField</text>
<text text-anchor="middle" x="742.249" y="-1153.4" font-family="Times,serif" font-size="14.00">[bool &#45;&gt; S set &#45;&gt; S set &#45;&gt; S x SExtend set]</text>
</g>
<!-- fcall_jO6Iwc&#45;&gt;locInterest -->
<g id="edge36" class="edge"><title>fcall_jO6Iwc&#45;&gt;locInterest:center</title>
<path fill="none" stroke="red" d="M712.756,-1136.56C677.335,-1102.39 617.988,-1045.15 580.272,-1008.78"/>
<polygon fill="red" stroke="red" points="582.658,-1006.22 573.031,-1001.79 577.799,-1011.26 582.658,-1006.22"/>
</g>
<!-- fcall_MrVlR7&#45;&gt;fcall_jO6Iwc -->
<g id="edge37" class="edge"><title>fcall_MrVlR7&#45;&gt;fcall_jO6Iwc:center</title>
<path fill="none" stroke="black" d="M757.896,-1250.45C755.329,-1236.76 752.216,-1220.16 749.446,-1205.38"/>
<polygon fill="none" stroke="black" points="752.876,-1204.68 747.593,-1195.5 745.996,-1205.97 752.876,-1204.68"/>
<text text-anchor="middle" x="789.629" y="-1218.8" font-family="Times,serif" font-size="14.00">observations</text>
</g>
<!-- fcall_XGqk67&#45;&gt;fcall_jO6Iwc -->
<g id="edge38" class="edge"><title>fcall_XGqk67&#45;&gt;fcall_jO6Iwc:center</title>
<path fill="none" stroke="black" d="M991.505,-1257.93C944.004,-1240.6 876.134,-1215.84 823.206,-1196.53"/>
<polygon fill="none" stroke="black" points="824.1,-1193.14 813.506,-1193 821.701,-1199.71 824.1,-1193.14"/>
<text text-anchor="middle" x="935.247" y="-1218.8" font-family="Times,serif" font-size="14.00">domain</text>
</g>
<!-- lt_ZgZIE7 -->
<g id="node28" class="node"><title>lt_ZgZIE7</title>
<ellipse fill="white" stroke="black" cx="552.249" cy="-1280" rx="36.3712" ry="18"/>
<text text-anchor="middle" x="552.249" y="-1275.8" font-family="Times,serif" font-size="14.00">TRUE</text>
</g>
<!-- lt_ZgZIE7&#45;&gt;fcall_jO6Iwc -->
<g id="edge39" class="edge"><title>lt_ZgZIE7&#45;&gt;fcall_jO6Iwc:center</title>
<path fill="none" stroke="black" d="M574.791,-1265.71C602.183,-1249.57 649.362,-1221.75 686.676,-1199.76"/>
<polygon fill="none" stroke="black" points="688.608,-1202.68 695.445,-1194.59 685.053,-1196.65 688.608,-1202.68"/>
<text text-anchor="middle" x="700.072" y="-1218.8" font-family="Times,serif" font-size="14.00">cellsArePoints</text>
</g>
<!-- intZincPointData -->
<g id="node29" class="node"><title>intZincPointData</title>
<ellipse fill="white" stroke="black" cx="539.249" cy="-218" rx="97.1383" ry="29.5"/>
<text text-anchor="middle" x="539.249" y="-222.2" font-family="Times,serif" font-size="14.00">intZincPointData </text>
<text text-anchor="middle" x="539.249" y="-205.4" font-family="Times,serif" font-size="14.00">[S x Q x SExtend set]</text>
</g>
<!-- fcall_vOeejL -->
<g id="node31" class="node"><title>fcall_vOeejL</title>
<ellipse fill="orange" stroke="black" cx="152.249" cy="-120" rx="102.624" ry="18"/>
<text text-anchor="middle" x="152.249" y="-115.8" font-family="Times,serif" font-size="14.00">class(intZincPointData)</text>
</g>
<!-- intZincPointData&#45;&gt;fcall_vOeejL -->
<g id="edge40" class="edge"><title>intZincPointData&#45;&gt;fcall_vOeejL:center</title>
<path fill="none" stroke="black" d="M465.547,-198.717C394.373,-181.062 287.55,-154.563 218.868,-137.526"/>
<polygon fill="none" stroke="black" points="219.569,-134.093 209.02,-135.083 217.884,-140.888 219.569,-134.093"/>
</g>
<!-- intZincPointData@observations[1] -->
<g id="node33" class="node"><title>intZincPointData@observations[1]</title>
<ellipse fill="white" stroke="black" cx="561.249" cy="-120" rx="152.25" ry="29.5"/>
<text text-anchor="middle" x="561.249" y="-124.2" font-family="Times,serif" font-size="14.00">intZincPointData@observations[1] </text>
<text text-anchor="middle" x="561.249" y="-107.4" font-family="Times,serif" font-size="14.00">[S x Q set]</text>
</g>
<!-- intZincPointData&#45;&gt;intZincPointData@observations[1] -->
<g id="edge41" class="edge"><title>intZincPointData&#45;&gt;intZincPointData@observations[1]:center</title>
<path fill="none" stroke="black" d="M545.79,-188.457C547.877,-179.35 550.222,-169.119 552.442,-159.43"/>
<polygon fill="none" stroke="black" points="555.873,-160.128 554.695,-149.599 549.05,-158.565 555.873,-160.128"/>
</g>
<!-- fcall_NK1x9Q&#45;&gt;intZincPointData -->
<g id="edge42" class="edge"><title>fcall_NK1x9Q&#45;&gt;intZincPointData:center</title>
<path fill="none" stroke="red" d="M539.249,-286.457C539.249,-277.446 539.249,-267.334 539.249,-257.736"/>
<polygon fill="red" stroke="red" points="542.749,-257.599 539.249,-247.599 535.749,-257.599 542.749,-257.599"/>
</g>
<!-- fcall_Yc3m36 -->
<g id="node32" class="node"><title>fcall_Yc3m36</title>
<ellipse fill="orange" stroke="black" cx="561.249" cy="-18" rx="34.4665" ry="18"/>
<text text-anchor="middle" x="561.249" y="-13.8" font-family="Times,serif" font-size="14.00">spplot</text>
</g>
<!-- intZincPointData@observations[1]&#45;&gt;fcall_Yc3m36 -->
<g id="edge43" class="edge"><title>intZincPointData@observations[1]&#45;&gt;fcall_Yc3m36:center</title>
<path fill="none" stroke="black" d="M561.249,-90.344C561.249,-76.4998 561.249,-59.9679 561.249,-46.3055"/>
<polygon fill="none" stroke="black" points="564.749,-46.0699 561.249,-36.0699 557.749,-46.0699 564.749,-46.0699"/>
<text text-anchor="middle" x="570.195" y="-58.8" font-family="Times,serif" font-size="14.00">obj</text>
</g>
<!-- blockInterest -->
<g id="node34" class="node"><title>blockInterest</title>
<ellipse fill="white" stroke="black" cx="693.249" cy="-818" rx="64.9194" ry="29.5"/>
<text text-anchor="middle" x="693.249" y="-822.2" font-family="Times,serif" font-size="14.00">blockInterest </text>
<text text-anchor="middle" x="693.249" y="-805.4" font-family="Times,serif" font-size="14.00">[SLattice]</text>
</g>
<!-- blockInterest&#45;&gt;fcall_DfH7Ob -->
<g id="edge44" class="edge"><title>blockInterest&#45;&gt;fcall_DfH7Ob:center</title>
<path fill="none" stroke="black" d="M689.187,-788.528C685.705,-761.644 681.249,-720.167 681.249,-684 681.249,-684 681.249,-684 681.249,-413 681.249,-365.766 809.105,-340.017 904.429,-327.384"/>
<polygon fill="none" stroke="black" points="904.952,-330.846 914.42,-326.092 904.054,-323.904 904.952,-330.846"/>
<text text-anchor="middle" x="718.174" y="-564.8" font-family="Times,serif" font-size="14.00">locOfInterest</text>
</g>
<!-- fcall_edF8n2 -->
<g id="node35" class="node"><title>fcall_edF8n2</title>
<ellipse fill="orange" stroke="black" cx="1204.25" cy="-1166" rx="83.25" ry="29.5"/>
<text text-anchor="middle" x="1204.25" y="-1170.2" font-family="Times,serif" font-size="14.00">SLattice</text>
<text text-anchor="middle" x="1204.25" y="-1153.4" font-family="Times,serif" font-size="14.00">[S set &#45;&gt; SLattice]</text>
</g>
<!-- fcall_edF8n2&#45;&gt;blockInterest -->
<g id="edge45" class="edge"><title>fcall_edF8n2&#45;&gt;blockInterest:center</title>
<path fill="none" stroke="red" d="M1166.67,-1139.56C1074.16,-1076.92 835.739,-915.48 737.038,-848.65"/>
<polygon fill="red" stroke="red" points="738.734,-845.571 728.491,-842.862 734.809,-851.367 738.734,-845.571"/>
</g>
<!-- fcall_0rjYDF&#45;&gt;fcall_edF8n2 -->
<g id="edge46" class="edge"><title>fcall_0rjYDF&#45;&gt;fcall_edF8n2:center</title>
<path fill="none" stroke="black" d="M1304.2,-1252.46C1285.98,-1236.88 1262.79,-1217.05 1243.33,-1200.41"/>
<polygon fill="none" stroke="black" points="1245.4,-1197.58 1235.53,-1193.74 1240.85,-1202.9 1245.4,-1197.58"/>
<text text-anchor="middle" x="1313.63" y="-1218.8" font-family="Times,serif" font-size="14.00">observations</text>
</g>
<!-- blockIntZincPointData -->
<g id="node37" class="node"><title>blockIntZincPointData</title>
<ellipse fill="white" stroke="black" cx="1006.25" cy="-218" rx="104.25" ry="29.5"/>
<text text-anchor="middle" x="1006.25" y="-222.2" font-family="Times,serif" font-size="14.00">blockIntZincPointData </text>
<text text-anchor="middle" x="1006.25" y="-205.4" font-family="Times,serif" font-size="14.00">[SLattice]</text>
</g>
<!-- fcall_7j6Qcv -->
<g id="node39" class="node"><title>fcall_7j6Qcv</title>
<ellipse fill="orange" stroke="black" cx="1006.25" cy="-120" rx="124.604" ry="18"/>
<text text-anchor="middle" x="1006.25" y="-115.8" font-family="Times,serif" font-size="14.00">class(blockIntZincPointData)</text>
</g>
<!-- blockIntZincPointData&#45;&gt;fcall_7j6Qcv -->
<g id="edge47" class="edge"><title>blockIntZincPointData&#45;&gt;fcall_7j6Qcv:center</title>
<path fill="none" stroke="black" d="M1006.25,-188.457C1006.25,-175.803 1006.25,-160.979 1006.25,-148.454"/>
<polygon fill="none" stroke="black" points="1009.75,-148.152 1006.25,-138.152 1002.75,-148.153 1009.75,-148.152"/>
</g>
<!-- fcall_DfH7Ob&#45;&gt;blockIntZincPointData -->
<g id="edge48" class="edge"><title>fcall_DfH7Ob&#45;&gt;blockIntZincPointData:center</title>
<path fill="none" stroke="red" d="M1006.25,-286.457C1006.25,-277.446 1006.25,-267.334 1006.25,-257.736"/>
<polygon fill="red" stroke="red" points="1009.75,-257.599 1006.25,-247.599 1002.75,-257.599 1009.75,-257.599"/>
</g>
<!-- off -->
<g id="node40" class="node"><title>off</title>
<ellipse fill="white" stroke="black" cx="2288.25" cy="-1166" rx="38.25" ry="29.5"/>
<text text-anchor="middle" x="2288.25" y="-1170.2" font-family="Times,serif" font-size="14.00">off </text>
<text text-anchor="middle" x="2288.25" y="-1153.4" font-family="Times,serif" font-size="14.00">[Q set]</text>
</g>
<!-- fcall_tgfVBO -->
<g id="node44" class="node"><title>fcall_tgfVBO</title>
<ellipse fill="orange" stroke="black" cx="2282.25" cy="-1052" rx="177.25" ry="29.5"/>
<text text-anchor="middle" x="2282.25" y="-1056.2" font-family="Times,serif" font-size="14.00">GridTopology</text>
<text text-anchor="middle" x="2282.25" y="-1039.4" font-family="Times,serif" font-size="14.00">[Q set &#45;&gt; Q set &#45;&gt; Q set &#45;&gt; GridTopology]</text>
</g>
<!-- off&#45;&gt;fcall_tgfVBO -->
<g id="edge49" class="edge"><title>off&#45;&gt;fcall_tgfVBO:center</title>
<path fill="none" stroke="black" d="M2286.72,-1136.45C2285.99,-1122.89 2285.11,-1106.48 2284.33,-1091.81"/>
<polygon fill="none" stroke="black" points="2287.81,-1091.3 2283.78,-1081.5 2280.82,-1091.67 2287.81,-1091.3"/>
<text text-anchor="middle" x="2330.14" y="-1104.8" font-family="Times,serif" font-size="14.00">cellcentre.offset</text>
</g>
<!-- fcall_lOQfqO&#45;&gt;off -->
<g id="edge50" class="edge"><title>fcall_lOQfqO&#45;&gt;off:center</title>
<path fill="none" stroke="red" d="M2253.48,-1261.99C2259.07,-1246.7 2267.48,-1223.72 2274.63,-1204.19"/>
<polygon fill="red" stroke="red" points="2277.98,-1205.24 2278.13,-1194.64 2271.4,-1202.83 2277.98,-1205.24"/>
</g>
<!-- gridparameters -->
<g id="node42" class="node"><title>gridparameters</title>
<ellipse fill="white" stroke="black" cx="2247.25" cy="-1394" rx="73" ry="29.5"/>
<text text-anchor="middle" x="2247.25" y="-1398.2" font-family="Times,serif" font-size="14.00">gridparameters </text>
<text text-anchor="middle" x="2247.25" y="-1381.4" font-family="Times,serif" font-size="14.00">[function]</text>
</g>
<!-- gridparameters&#45;&gt;fcall_lOQfqO -->
<g id="edge51" class="edge"><title>gridparameters&#45;&gt;fcall_lOQfqO:center</title>
<path fill="none" stroke="black" d="M2247.25,-1364.45C2247.25,-1347.33 2247.25,-1325.66 2247.25,-1308.7"/>
<polygon fill="none" stroke="black" points="2250.75,-1308.32 2247.25,-1298.32 2243.75,-1308.32 2250.75,-1308.32"/>
</g>
<!-- gt -->
<g id="node43" class="node"><title>gt</title>
<ellipse fill="white" stroke="black" cx="2291.25" cy="-896" rx="74.25" ry="29.5"/>
<text text-anchor="middle" x="2291.25" y="-900.2" font-family="Times,serif" font-size="14.00">gt </text>
<text text-anchor="middle" x="2291.25" y="-883.4" font-family="Times,serif" font-size="14.00">[GridTopology]</text>
</g>
<!-- fcall_4rLNRR -->
<g id="node49" class="node"><title>fcall_4rLNRR</title>
<ellipse fill="orange" stroke="black" cx="2292.25" cy="-740" rx="129.389" ry="29.5"/>
<text text-anchor="middle" x="2292.25" y="-744.2" font-family="Times,serif" font-size="14.00">SpatialGrid</text>
<text text-anchor="middle" x="2292.25" y="-727.4" font-family="Times,serif" font-size="14.00">[GridTopology &#45;&gt; &#39;a &#45;&gt; R set]</text>
</g>
<!-- gt&#45;&gt;fcall_4rLNRR -->
<g id="edge52" class="edge"><title>gt&#45;&gt;fcall_4rLNRR:center</title>
<path fill="none" stroke="black" d="M2291.44,-866.395C2291.59,-842.052 2291.82,-806.858 2292,-779.947"/>
<polygon fill="none" stroke="black" points="2295.5,-779.736 2292.06,-769.713 2288.5,-779.69 2295.5,-779.736"/>
<text text-anchor="middle" x="2302.52" y="-813.8" font-family="Times,serif" font-size="14.00">grid</text>
</g>
<!-- fcall_tgfVBO&#45;&gt;gt -->
<g id="edge53" class="edge"><title>fcall_tgfVBO&#45;&gt;gt:center</title>
<path fill="none" stroke="red" d="M2283.92,-1022.39C2285.34,-998.052 2287.4,-962.858 2288.97,-935.947"/>
<polygon fill="red" stroke="red" points="2292.48,-935.9 2289.57,-925.713 2285.49,-935.492 2292.48,-935.9"/>
</g>
<!-- fcall_23ia4T -->
<g id="node45" class="node"><title>fcall_23ia4T</title>
<ellipse fill="orange" stroke="black" cx="1970.25" cy="-1166" rx="65.3139" ry="18"/>
<text text-anchor="middle" x="1970.25" y="-1161.8" font-family="Times,serif" font-size="14.00">c(1000, 1000)</text>
</g>
<!-- fcall_23ia4T&#45;&gt;fcall_tgfVBO -->
<g id="edge54" class="edge"><title>fcall_23ia4T&#45;&gt;fcall_tgfVBO:center</title>
<path fill="none" stroke="black" d="M2008.51,-1151.27C2055.93,-1134.24 2138.04,-1104.77 2200,-1082.53"/>
<polygon fill="none" stroke="black" points="2201.53,-1085.69 2209.76,-1079.02 2199.17,-1079.11 2201.53,-1085.69"/>
<text text-anchor="middle" x="2165.24" y="-1104.8" font-family="Times,serif" font-size="14.00">cellsize</text>
</g>
<!-- fcall_DOfHqw -->
<g id="node46" class="node"><title>fcall_DOfHqw</title>
<ellipse fill="orange" stroke="black" cx="2148.25" cy="-1166" rx="36.3581" ry="18"/>
<text text-anchor="middle" x="2148.25" y="-1161.8" font-family="Times,serif" font-size="14.00">c(4, 6)</text>
</g>
<!-- fcall_DOfHqw&#45;&gt;fcall_tgfVBO -->
<g id="edge55" class="edge"><title>fcall_DOfHqw&#45;&gt;fcall_tgfVBO:center</title>
<path fill="none" stroke="black" d="M2166.04,-1150.13C2184.99,-1134.29 2215.65,-1108.66 2240.72,-1087.71"/>
<polygon fill="none" stroke="black" points="2243.21,-1090.19 2248.64,-1081.09 2238.72,-1084.82 2243.21,-1090.19"/>
<text text-anchor="middle" x="2248.72" y="-1104.8" font-family="Times,serif" font-size="14.00">cells.dim</text>
</g>
<!-- SG -->
<g id="node47" class="node"><title>SG</title>
<ellipse fill="white" stroke="black" cx="2214.25" cy="-512" rx="37.3055" ry="29.5"/>
<text text-anchor="middle" x="2214.25" y="-516.2" font-family="Times,serif" font-size="14.00">SG </text>
<text text-anchor="middle" x="2214.25" y="-499.4" font-family="Times,serif" font-size="14.00">[R set]</text>
</g>
<!-- fcall_o8XqEQ -->
<g id="node48" class="node"><title>fcall_o8XqEQ</title>
<ellipse fill="orange" stroke="black" cx="2214.25" cy="-626" rx="27" ry="18"/>
<text text-anchor="middle" x="2214.25" y="-621.8" font-family="Times,serif" font-size="14.00">as</text>
</g>
<!-- fcall_o8XqEQ&#45;&gt;SG -->
<g id="edge56" class="edge"><title>fcall_o8XqEQ&#45;&gt;SG:center</title>
<path fill="none" stroke="red" d="M2214.25,-607.99C2214.25,-593.05 2214.25,-570.762 2214.25,-551.529"/>
<polygon fill="red" stroke="red" points="2217.75,-551.516 2214.25,-541.516 2210.75,-551.516 2217.75,-551.516"/>
</g>
<!-- fcall_4rLNRR&#45;&gt;fcall_o8XqEQ -->
<g id="edge57" class="edge"><title>fcall_4rLNRR&#45;&gt;fcall_o8XqEQ:center</title>
<path fill="none" stroke="black" d="M2272.57,-710.738C2259.81,-692.417 2243.36,-668.797 2231.18,-651.316"/>
<polygon fill="none" stroke="black" points="2233.84,-649 2225.25,-642.795 2228.09,-653.001 2233.84,-649"/>
<text text-anchor="middle" x="2274.35" y="-678.8" font-family="Times,serif" font-size="14.00">object</text>
</g>
<!-- fcall_Wm15Ai -->
<g id="node50" class="node"><title>fcall_Wm15Ai</title>
<ellipse fill="orange" stroke="black" cx="2088.25" cy="-896" rx="28.9305" ry="18"/>
<text text-anchor="middle" x="2088.25" y="-891.8" font-family="Times,serif" font-size="14.00">CRS</text>
</g>
<!-- fcall_Wm15Ai&#45;&gt;fcall_4rLNRR -->
<g id="edge58" class="edge"><title>fcall_Wm15Ai&#45;&gt;fcall_4rLNRR:center</title>
<path fill="none" stroke="black" d="M2105.43,-881.232C2131.28,-860.61 2181.83,-820.634 2225.81,-788 2231.82,-783.543 2238.18,-778.92 2244.5,-774.389"/>
<polygon fill="none" stroke="black" points="2246.93,-776.95 2253.04,-768.293 2242.87,-771.252 2246.93,-776.95"/>
<text text-anchor="middle" x="2255.97" y="-813.8" font-family="Times,serif" font-size="14.00">proj4string</text>
</g>
<!-- fcall_ODaotR&#45;&gt;fcall_Wm15Ai -->
<g id="edge59" class="edge"><title>fcall_ODaotR&#45;&gt;fcall_Wm15Ai:center</title>
<path fill="none" stroke="black" d="M1925.94,-1035.1C1958.94,-1007.02 2027.5,-948.691 2064.06,-917.584"/>
<polygon fill="none" stroke="black" points="2066.43,-920.164 2071.77,-911.018 2061.89,-914.833 2066.43,-920.164"/>
<text text-anchor="middle" x="2053.18" y="-969.8" font-family="Times,serif" font-size="14.00">projargs</text>
</g>
<!-- lt_4edO6R -->
<g id="node52" class="node"><title>lt_4edO6R</title>
<ellipse fill="white" stroke="black" cx="1961.25" cy="-740" rx="73.213" ry="18"/>
<text text-anchor="middle" x="1961.25" y="-735.8" font-family="Times,serif" font-size="14.00">SpatialPolygons</text>
</g>
<!-- lt_4edO6R&#45;&gt;fcall_o8XqEQ -->
<g id="edge60" class="edge"><title>lt_4edO6R&#45;&gt;fcall_o8XqEQ:center</title>
<path fill="none" stroke="black" d="M1995.11,-724.011C2044.36,-702.207 2135.1,-662.04 2182.9,-640.879"/>
<polygon fill="none" stroke="black" points="2184.41,-644.037 2192.14,-636.789 2181.58,-637.636 2184.41,-644.037"/>
<text text-anchor="middle" x="2117.41" y="-678.8" font-family="Times,serif" font-size="14.00">Class</text>
</g>
<!-- pointFromBlock -->
<g id="node53" class="node"><title>pointFromBlock</title>
<ellipse fill="white" stroke="black" cx="1773.25" cy="-218" rx="97.1383" ry="29.5"/>
<text text-anchor="middle" x="1773.25" y="-222.2" font-family="Times,serif" font-size="14.00">pointFromBlock </text>
<text text-anchor="middle" x="1773.25" y="-205.4" font-family="Times,serif" font-size="14.00">[S x Q x SExtend set]</text>
</g>
<!-- fcall_5pVfCM -->
<g id="node55" class="node"><title>fcall_5pVfCM</title>
<ellipse fill="orange" stroke="black" cx="1371.25" cy="-120" rx="100.118" ry="18"/>
<text text-anchor="middle" x="1371.25" y="-115.8" font-family="Times,serif" font-size="14.00">class(pointFromBlock)</text>
</g>
<!-- pointFromBlock&#45;&gt;fcall_5pVfCM -->
<g id="edge61" class="edge"><title>pointFromBlock&#45;&gt;fcall_5pVfCM:center</title>
<path fill="none" stroke="black" d="M1698.11,-199.056C1623.55,-181.252 1510.34,-154.216 1438.62,-137.09"/>
<polygon fill="none" stroke="black" points="1439.33,-133.659 1428.79,-134.741 1437.7,-140.468 1439.33,-133.659"/>
</g>
<!-- pointFromBlock@observations[1] -->
<g id="node57" class="node"><title>pointFromBlock@observations[1]</title>
<ellipse fill="white" stroke="black" cx="1773.25" cy="-120" rx="149.253" ry="29.5"/>
<text text-anchor="middle" x="1773.25" y="-124.2" font-family="Times,serif" font-size="14.00">pointFromBlock@observations[1] </text>
<text text-anchor="middle" x="1773.25" y="-107.4" font-family="Times,serif" font-size="14.00">[S x Q set]</text>
</g>
<!-- pointFromBlock&#45;&gt;pointFromBlock@observations[1] -->
<g id="edge62" class="edge"><title>pointFromBlock&#45;&gt;pointFromBlock@observations[1]:center</title>
<path fill="none" stroke="black" d="M1773.25,-188.457C1773.25,-179.446 1773.25,-169.334 1773.25,-159.736"/>
<polygon fill="none" stroke="black" points="1776.75,-159.599 1773.25,-149.599 1769.75,-159.599 1776.75,-159.599"/>
</g>
<!-- fcall_iOj76H -->
<g id="node58" class="node"><title>fcall_iOj76H</title>
<ellipse fill="orange" stroke="black" cx="2174.25" cy="-120" rx="100.118" ry="18"/>
<text text-anchor="middle" x="2174.25" y="-115.8" font-family="Times,serif" font-size="14.00">class(pointFromBlock)</text>
</g>
<!-- pointFromBlock&#45;&gt;fcall_iOj76H -->
<g id="edge63" class="edge"><title>pointFromBlock&#45;&gt;fcall_iOj76H:center</title>
<path fill="none" stroke="black" d="M1848.2,-199.056C1922.46,-181.278 2035.17,-154.295 2106.73,-137.164"/>
<polygon fill="none" stroke="black" points="2107.63,-140.547 2116.54,-134.815 2106,-133.739 2107.63,-140.547"/>
</g>
<!-- fcall_aCCCNs&#45;&gt;pointFromBlock -->
<g id="edge64" class="edge"><title>fcall_aCCCNs&#45;&gt;pointFromBlock:center</title>
<path fill="none" stroke="red" d="M1773.25,-286.457C1773.25,-277.446 1773.25,-267.334 1773.25,-257.736"/>
<polygon fill="red" stroke="red" points="1776.75,-257.599 1773.25,-247.599 1769.75,-257.599 1776.75,-257.599"/>
</g>
<!-- fcall_kQIuNR -->
<g id="node56" class="node"><title>fcall_kQIuNR</title>
<ellipse fill="orange" stroke="black" cx="1773.25" cy="-18" rx="34.4665" ry="18"/>
<text text-anchor="middle" x="1773.25" y="-13.8" font-family="Times,serif" font-size="14.00">spplot</text>
</g>
<!-- pointFromBlock@observations[1]&#45;&gt;fcall_kQIuNR -->
<g id="edge65" class="edge"><title>pointFromBlock@observations[1]&#45;&gt;fcall_kQIuNR:center</title>
<path fill="none" stroke="black" d="M1773.25,-90.344C1773.25,-76.4998 1773.25,-59.9679 1773.25,-46.3055"/>
<polygon fill="none" stroke="black" points="1776.75,-46.0699 1773.25,-36.0699 1769.75,-46.0699 1776.75,-46.0699"/>
<text text-anchor="middle" x="1782.19" y="-58.8" font-family="Times,serif" font-size="14.00">obj</text>
</g>
</g>
</svg>
