<?xml version="1.0" encoding="UTF-8" standalone="no"?>
<!DOCTYPE svg PUBLIC "-//W3C//DTD SVG 1.1//EN"
 "http://www.w3.org/Graphics/SVG/1.1/DTD/svg11.dtd">
<!-- Generated by graphviz version 2.28.0 (20160728.0200)
 -->
<!-- Title: f Pages: 1 -->
<svg width="290pt" height="444pt"
 viewBox="0.00 0.00 290.00 444.44" xmlns="http://www.w3.org/2000/svg" xmlns:xlink="http://www.w3.org/1999/xlink">
<g id="graph1" class="graph" transform="scale(0.361924 0.361924) rotate(0) translate(4 1224)">
<title>f</title>
<!-- init_model -->
<g id="node1" class="node"><title>init_model</title>
<ellipse fill="white" stroke="black" cx="321.347" cy="-584" rx="52.3271" ry="18"/>
<text text-anchor="middle" x="321.347" y="-579.8" font-family="Times,serif" font-size="14.00">init_model</text>
</g>
<!-- 483 -->
<g id="node23" class="node"><title>483</title>
<ellipse fill="orange" stroke="black" cx="512.347" cy="-494" rx="94.5662" ry="18"/>
<text text-anchor="middle" x="512.347" y="-489.8" font-family="Times,serif" font-size="14.00">modelSemivariogram</text>
</g>
<!-- init_model&#45;&gt;483 -->
<g id="edge1" class="edge"><title>init_model&#45;&gt;483:center</title>
<path fill="none" stroke="blue" stroke-dasharray="5,2" d="M351.611,-569.056C383.187,-554.508 432.987,-531.564 468.789,-515.069"/>
<polygon fill="blue" stroke="blue" points="470.411,-518.175 478.028,-510.812 467.481,-511.817 470.411,-518.175"/>
</g>
<!-- def748 -->
<g id="node2" class="node"><title>def748</title>
<ellipse fill="orange" stroke="black" cx="321.347" cy="-658" rx="37.2801" ry="18"/>
<text text-anchor="middle" x="321.347" y="-653.8" font-family="Times,serif" font-size="14.00">def748</text>
</g>
<!-- def748&#45;&gt;init_model -->
<g id="edge2" class="edge"><title>def748&#45;&gt;init_model:center</title>
<path fill="none" stroke="red" d="M321.347,-639.937C321.347,-631.807 321.347,-621.876 321.347,-612.705"/>
<polygon fill="red" stroke="red" points="324.847,-612.441 321.347,-602.441 317.847,-612.441 324.847,-612.441"/>
</g>
<!-- modelSemivariogram -->
<g id="node3" class="node"><title>modelSemivariogram</title>
<ellipse fill="white" stroke="black" cx="512.347" cy="-584" rx="94.5662" ry="18"/>
<text text-anchor="middle" x="512.347" y="-579.8" font-family="Times,serif" font-size="14.00">modelSemivariogram</text>
</g>
<!-- modelSemivariogram&#45;&gt;483 -->
<g id="edge3" class="edge"><title>modelSemivariogram&#45;&gt;483:center</title>
<path fill="none" stroke="blue" d="M512.347,-565.614C512.347,-553.24 512.347,-536.369 512.347,-522.22"/>
<polygon fill="blue" stroke="blue" points="515.847,-522.05 512.347,-512.05 508.847,-522.05 515.847,-522.05"/>
</g>
<!-- def379 -->
<g id="node4" class="node"><title>def379</title>
<ellipse fill="orange" stroke="black" cx="512.347" cy="-658" rx="37.2801" ry="18"/>
<text text-anchor="middle" x="512.347" y="-653.8" font-family="Times,serif" font-size="14.00">def379</text>
</g>
<!-- def379&#45;&gt;modelSemivariogram -->
<g id="edge4" class="edge"><title>def379&#45;&gt;modelSemivariogram:center</title>
<path fill="none" stroke="red" d="M512.347,-639.937C512.347,-631.807 512.347,-621.876 512.347,-612.705"/>
<polygon fill="red" stroke="red" points="515.847,-612.441 512.347,-602.441 508.847,-612.441 515.847,-612.441"/>
</g>
<!-- getInterpolator -->
<g id="node5" class="node"><title>getInterpolator</title>
<ellipse fill="white" stroke="black" cx="303.347" cy="-494" rx="68.1275" ry="18"/>
<text text-anchor="middle" x="303.347" y="-489.8" font-family="Times,serif" font-size="14.00">getInterpolator</text>
</g>
<!-- 176 -->
<g id="node22" class="node"><title>176</title>
<ellipse fill="orange" stroke="black" cx="396.347" cy="-404" rx="68.1275" ry="18"/>
<text text-anchor="middle" x="396.347" y="-399.8" font-family="Times,serif" font-size="14.00">getInterpolator</text>
</g>
<!-- getInterpolator&#45;&gt;176 -->
<g id="edge5" class="edge"><title>getInterpolator&#45;&gt;176:center</title>
<path fill="none" stroke="blue" d="M320.839,-476.448C335.128,-462.927 355.501,-443.65 371.485,-428.525"/>
<polygon fill="blue" stroke="blue" points="374.075,-430.893 378.933,-421.478 369.263,-425.809 374.075,-430.893"/>
</g>
<!-- def241 -->
<g id="node6" class="node"><title>def241</title>
<ellipse fill="orange" stroke="black" cx="195.347" cy="-584" rx="37.2801" ry="18"/>
<text text-anchor="middle" x="195.347" y="-579.8" font-family="Times,serif" font-size="14.00">def241</text>
</g>
<!-- def241&#45;&gt;getInterpolator -->
<g id="edge6" class="edge"><title>def241&#45;&gt;getInterpolator:center</title>
<path fill="none" stroke="red" d="M213.668,-568.072C230.518,-554.342 255.759,-533.775 275.174,-517.956"/>
<polygon fill="red" stroke="red" points="277.555,-520.531 283.096,-511.5 273.133,-515.104 277.555,-520.531"/>
</g>
<!-- 865 -->
<g id="node7" class="node"><title>865</title>
<ellipse fill="orange" stroke="black" cx="526.347" cy="-1112" rx="32.2385" ry="18"/>
<text text-anchor="middle" x="526.347" y="-1107.8" font-family="Times,serif" font-size="14.00">demo</text>
</g>
<!-- crs -->
<g id="node11" class="node"><title>crs</title>
<ellipse fill="white" stroke="black" cx="261.347" cy="-1038" rx="27" ry="18"/>
<text text-anchor="middle" x="261.347" y="-1033.8" font-family="Times,serif" font-size="14.00">crs</text>
</g>
<!-- 865&#45;&gt;crs -->
<g id="edge7" class="edge"><title>865&#45;&gt;crs:center</title>
<path fill="none" stroke="red" stroke-dasharray="5,2" d="M497.094,-1104.17C455.718,-1094.36 377.842,-1075.31 312.347,-1056 306.554,-1054.29 300.432,-1052.36 294.517,-1050.43"/>
<polygon fill="red" stroke="red" points="295.445,-1047.05 284.852,-1047.22 293.237,-1053.69 295.445,-1047.05"/>
</g>
<!-- meuse -->
<g id="node12" class="node"><title>meuse</title>
<ellipse fill="white" stroke="black" cx="608.347" cy="-1038" rx="35.5584" ry="18"/>
<text text-anchor="middle" x="608.347" y="-1033.8" font-family="Times,serif" font-size="14.00">meuse</text>
</g>
<!-- 865&#45;&gt;meuse -->
<g id="edge8" class="edge"><title>865&#45;&gt;meuse:center</title>
<path fill="none" stroke="red" stroke-dasharray="5,2" d="M542.941,-1096.43C554.567,-1086.22 570.31,-1072.4 583.438,-1060.87"/>
<polygon fill="red" stroke="red" points="586.008,-1063.27 591.213,-1054.04 581.389,-1058.01 586.008,-1063.27"/>
</g>
<!-- meuse.area -->
<g id="node13" class="node"><title>meuse.area</title>
<ellipse fill="white" stroke="black" cx="526.347" cy="-984" rx="54.2933" ry="18"/>
<text text-anchor="middle" x="526.347" y="-979.8" font-family="Times,serif" font-size="14.00">meuse.area</text>
</g>
<!-- 865&#45;&gt;meuse.area -->
<g id="edge9" class="edge"><title>865&#45;&gt;meuse.area:center</title>
<path fill="none" stroke="red" stroke-dasharray="5,2" d="M526.347,-1093.74C526.347,-1072.73 526.347,-1036.97 526.347,-1012.23"/>
<polygon fill="red" stroke="red" points="529.847,-1012.05 526.347,-1002.05 522.847,-1012.05 529.847,-1012.05"/>
</g>
<!-- meuse.grid -->
<g id="node14" class="node"><title>meuse.grid</title>
<ellipse fill="white" stroke="black" cx="375.347" cy="-1038" rx="53.5131" ry="18"/>
<text text-anchor="middle" x="375.347" y="-1033.8" font-family="Times,serif" font-size="14.00">meuse.grid</text>
</g>
<!-- 865&#45;&gt;meuse.grid -->
<g id="edge10" class="edge"><title>865&#45;&gt;meuse.grid:center</title>
<path fill="none" stroke="red" stroke-dasharray="5,2" d="M502.42,-1099.59C478.661,-1088.26 441.85,-1070.71 413.951,-1057.41"/>
<polygon fill="red" stroke="red" points="415.396,-1054.22 404.863,-1053.07 412.383,-1060.54 415.396,-1054.22"/>
</g>
<!-- meuse.riv -->
<g id="node15" class="node"><title>meuse.riv</title>
<ellipse fill="white" stroke="black" cx="727.347" cy="-1038" rx="48.2728" ry="18"/>
<text text-anchor="middle" x="727.347" y="-1033.8" font-family="Times,serif" font-size="14.00">meuse.riv</text>
</g>
<!-- 865&#45;&gt;meuse.riv -->
<g id="edge11" class="edge"><title>865&#45;&gt;meuse.riv:center</title>
<path fill="none" stroke="red" stroke-dasharray="5,2" d="M553.038,-1101.44C586.581,-1089.42 644.57,-1068.65 684.387,-1054.39"/>
<polygon fill="red" stroke="red" points="685.608,-1057.67 693.842,-1051 683.247,-1051.08 685.608,-1057.67"/>
</g>
<!-- 975 -->
<g id="node8" class="node"><title>975</title>
<ellipse fill="white" stroke="black" cx="418.347" cy="-1202" rx="35.5584" ry="18"/>
<text text-anchor="middle" x="418.347" y="-1197.8" font-family="Times,serif" font-size="14.00">meuse</text>
</g>
<!-- 975&#45;&gt;865 -->
<g id="edge12" class="edge"><title>975&#45;&gt;865:center</title>
<path fill="none" stroke="black" d="M436.668,-1186.07C454.256,-1171.74 480.984,-1149.96 500.687,-1133.91"/>
<polygon fill="none" stroke="black" points="503.113,-1136.45 508.655,-1127.42 498.691,-1131.02 503.113,-1136.45"/>
<text text-anchor="middle" x="495.345" y="-1152.8" font-family="Times,serif" font-size="14.00">topic</text>
</g>
<!-- 255 -->
<g id="node9" class="node"><title>255</title>
<ellipse fill="white" stroke="black" cx="526.347" cy="-1202" rx="40.3147" ry="18"/>
<text text-anchor="middle" x="526.347" y="-1197.8" font-family="Times,serif" font-size="14.00">FALSE</text>
</g>
<!-- 255&#45;&gt;865 -->
<g id="edge13" class="edge"><title>255&#45;&gt;865:center</title>
<path fill="none" stroke="black" d="M526.347,-1183.61C526.347,-1171.24 526.347,-1154.37 526.347,-1140.22"/>
<polygon fill="none" stroke="black" points="529.847,-1140.05 526.347,-1130.05 522.847,-1140.05 529.847,-1140.05"/>
<text text-anchor="middle" x="539.561" y="-1152.8" font-family="Times,serif" font-size="14.00">echo</text>
</g>
<!-- 977 -->
<g id="node10" class="node"><title>977</title>
<ellipse fill="white" stroke="black" cx="641.347" cy="-1202" rx="40.3147" ry="18"/>
<text text-anchor="middle" x="641.347" y="-1197.8" font-family="Times,serif" font-size="14.00">FALSE</text>
</g>
<!-- 977&#45;&gt;865 -->
<g id="edge14" class="edge"><title>977&#45;&gt;865:center</title>
<path fill="none" stroke="black" d="M621.839,-1186.07C602.914,-1171.59 574.052,-1149.51 553.012,-1133.4"/>
<polygon fill="none" stroke="black" points="554.876,-1130.42 544.808,-1127.13 550.622,-1135.98 554.876,-1130.42"/>
<text text-anchor="middle" x="602.676" y="-1152.8" font-family="Times,serif" font-size="14.00">ask</text>
</g>
<!-- meuse_lzinc -->
<g id="node16" class="node"><title>meuse_lzinc</title>
<ellipse fill="white" stroke="black" cx="643.347" cy="-766" rx="58.9569" ry="18"/>
<text text-anchor="middle" x="643.347" y="-761.8" font-family="Times,serif" font-size="14.00">meuse_lzinc</text>
</g>
<!-- meuse&#45;&gt;meuse_lzinc -->
<g id="edge15" class="edge"><title>meuse&#45;&gt;meuse_lzinc:center</title>
<path fill="none" stroke="black" d="M627.784,-1022.87C647.58,-1007.16 677.058,-979.76 689.347,-948 710.075,-894.428 680.081,-828.316 659.643,-792.68"/>
<polygon fill="none" stroke="black" points="662.543,-790.708 654.436,-783.887 656.52,-794.275 662.543,-790.708"/>
</g>
<!-- meuse_zinc -->
<g id="node18" class="node"><title>meuse_zinc</title>
<ellipse fill="white" stroke="black" cx="624.347" cy="-930" rx="56.4299" ry="18"/>
<text text-anchor="middle" x="624.347" y="-925.8" font-family="Times,serif" font-size="14.00">meuse_zinc</text>
</g>
<!-- meuse&#45;&gt;meuse_zinc -->
<g id="edge16" class="edge"><title>meuse&#45;&gt;meuse_zinc:center</title>
<path fill="none" stroke="black" d="M610.917,-1019.97C613.437,-1003.28 617.316,-977.579 620.259,-958.084"/>
<polygon fill="none" stroke="black" points="623.751,-958.399 621.783,-947.988 616.829,-957.354 623.751,-958.399"/>
</g>
<!-- 471 -->
<g id="node20" class="node"><title>471</title>
<ellipse fill="orange" stroke="black" cx="643.347" cy="-658" rx="35.8859" ry="18"/>
<text text-anchor="middle" x="643.347" y="-653.8" font-family="Times,serif" font-size="14.00">SField</text>
</g>
<!-- meuse.area&#45;&gt;471 -->
<g id="edge17" class="edge"><title>meuse.area&#45;&gt;471:center</title>
<path fill="none" stroke="black" d="M526.347,-965.828C526.347,-946.441 526.347,-913.955 526.347,-886 526.347,-886 526.347,-886 526.347,-765 526.347,-721.156 572.028,-690.718 606.302,-674.05"/>
<polygon fill="none" stroke="black" points="608.03,-677.107 615.619,-669.714 605.076,-670.76 608.03,-677.107"/>
<text text-anchor="middle" x="547.345" y="-835.8" font-family="Times,serif" font-size="14.00">domain</text>
</g>
<!-- 492 -->
<g id="node26" class="node"><title>492</title>
<ellipse fill="orange" stroke="black" cx="317.347" cy="-930" rx="47.2589" ry="18"/>
<text text-anchor="middle" x="317.347" y="-925.8" font-family="Times,serif" font-size="14.00">geometry</text>
</g>
<!-- meuse.grid&#45;&gt;492 -->
<g id="edge18" class="edge"><title>meuse.grid&#45;&gt;492:center</title>
<path fill="none" stroke="black" d="M366.028,-1019.97C356.727,-1002.97 342.311,-976.624 331.577,-957.007"/>
<polygon fill="none" stroke="black" points="334.513,-955.081 326.642,-947.988 328.372,-958.441 334.513,-955.081"/>
<text text-anchor="middle" x="364.292" y="-979.8" font-family="Times,serif" font-size="14.00">obj</text>
</g>
<!-- 90 -->
<g id="node27" class="node"><title>90</title>
<ellipse fill="orange" stroke="black" cx="187.347" cy="-930" rx="47.2589" ry="18"/>
<text text-anchor="middle" x="187.347" y="-925.8" font-family="Times,serif" font-size="14.00">geometry</text>
</g>
<!-- meuse.grid&#45;&gt;90 -->
<g id="edge19" class="edge"><title>meuse.grid&#45;&gt;90:center</title>
<path fill="none" stroke="black" d="M349.206,-1022.26C315.908,-1003.49 258.285,-970.997 221.532,-950.274"/>
<polygon fill="none" stroke="black" points="223.095,-947.138 212.665,-945.275 219.657,-953.235 223.095,-947.138"/>
<text text-anchor="middle" x="318.292" y="-979.8" font-family="Times,serif" font-size="14.00">obj</text>
</g>
<!-- meuse_lzinc&#45;&gt;471 -->
<g id="edge20" class="edge"><title>meuse_lzinc&#45;&gt;471:center</title>
<path fill="none" stroke="black" d="M643.347,-747.969C643.347,-731.378 643.347,-705.883 643.347,-686.431"/>
<polygon fill="none" stroke="black" points="646.847,-686.341 643.347,-676.341 639.847,-686.341 646.847,-686.341"/>
<text text-anchor="middle" x="678.727" y="-707.8" font-family="Times,serif" font-size="14.00">observations</text>
</g>
<!-- 145 -->
<g id="node17" class="node"><title>145</title>
<ellipse fill="orange" stroke="black" cx="631.347" cy="-840" rx="27" ry="18"/>
<text text-anchor="middle" x="631.347" y="-835.8" font-family="Times,serif" font-size="14.00">log</text>
</g>
<!-- 145&#45;&gt;meuse_lzinc -->
<g id="edge21" class="edge"><title>145&#45;&gt;meuse_lzinc:center</title>
<path fill="none" stroke="red" d="M634.191,-821.937C635.56,-813.719 637.237,-803.66 638.779,-794.406"/>
<polygon fill="red" stroke="red" points="642.248,-794.88 640.44,-784.441 635.344,-793.729 642.248,-794.88"/>
</g>
<!-- meuse_zinc&#45;&gt;145 -->
<g id="edge22" class="edge"><title>meuse_zinc&#45;&gt;145:center</title>
<path fill="none" stroke="black" d="M625.73,-911.614C626.714,-899.24 628.056,-882.369 629.182,-868.22"/>
<polygon fill="none" stroke="black" points="632.686,-868.296 629.991,-858.05 625.709,-867.741 632.686,-868.296"/>
</g>
<!-- zincPointData -->
<g id="node19" class="node"><title>zincPointData</title>
<ellipse fill="white" stroke="black" cx="718.347" cy="-584" rx="65.6142" ry="18"/>
<text text-anchor="middle" x="718.347" y="-579.8" font-family="Times,serif" font-size="14.00">zincPointData</text>
</g>
<!-- zincPointData&#45;&gt;176 -->
<g id="edge24" class="edge"><title>zincPointData&#45;&gt;176:center</title>
<path fill="none" stroke="black" d="M706.84,-566.057C689.736,-542.219 655.295,-499.116 615.347,-476 566.358,-447.652 504.555,-428.941 459.105,-417.879"/>
<polygon fill="none" stroke="black" points="459.914,-414.474 449.376,-415.567 458.295,-421.285 459.914,-414.474"/>
<text text-anchor="middle" x="686.951" y="-489.8" font-family="Times,serif" font-size="14.00">pointData</text>
</g>
<!-- zincPointData&#45;&gt;483 -->
<g id="edge23" class="edge"><title>zincPointData&#45;&gt;483:center</title>
<path fill="none" stroke="black" d="M678.245,-569.652C660.566,-563.489 639.647,-555.813 621.139,-548 597.976,-538.221 572.695,-526.003 552.338,-515.763"/>
<polygon fill="none" stroke="black" points="553.859,-512.61 543.356,-511.213 550.695,-518.855 553.859,-512.61"/>
<text text-anchor="middle" x="647.951" y="-534.8" font-family="Times,serif" font-size="14.00">pointData</text>
</g>
<!-- 471&#45;&gt;zincPointData -->
<g id="edge25" class="edge"><title>471&#45;&gt;zincPointData:center</title>
<path fill="none" stroke="red" d="M659.252,-641.731C669.244,-632.138 682.339,-619.567 693.662,-608.697"/>
<polygon fill="red" stroke="red" points="696.368,-610.952 701.158,-601.501 691.52,-605.902 696.368,-610.952"/>
</g>
<!-- interpolator -->
<g id="node21" class="node"><title>interpolator</title>
<ellipse fill="white" stroke="black" cx="261.347" cy="-330" rx="56.1322" ry="18"/>
<text text-anchor="middle" x="261.347" y="-325.8" font-family="Times,serif" font-size="14.00">interpolator</text>
</g>
<!-- 547 -->
<g id="node30" class="node"><title>547</title>
<ellipse fill="orange" stroke="black" cx="161.347" cy="-256" rx="56.1322" ry="18"/>
<text text-anchor="middle" x="161.347" y="-251.8" font-family="Times,serif" font-size="14.00">interpolator</text>
</g>
<!-- interpolator&#45;&gt;547 -->
<g id="edge26" class="edge"><title>interpolator&#45;&gt;547:center</title>
<path fill="none" stroke="blue" d="M239.648,-313.377C225.593,-303.257 207.088,-289.934 191.597,-278.78"/>
<polygon fill="blue" stroke="blue" points="193.509,-275.844 183.348,-272.841 189.419,-281.525 193.509,-275.844"/>
</g>
<!-- 176&#45;&gt;interpolator -->
<g id="edge27" class="edge"><title>176&#45;&gt;interpolator:center</title>
<path fill="none" stroke="red" d="M367.386,-387.554C347.049,-376.708 319.692,-362.117 297.859,-350.473"/>
<polygon fill="red" stroke="red" points="299.348,-347.301 288.877,-345.683 296.054,-353.477 299.348,-347.301"/>
</g>
<!-- 483&#45;&gt;176 -->
<g id="edge28" class="edge"><title>483&#45;&gt;176:center</title>
<path fill="none" stroke="black" d="M490.528,-476.448C472.267,-462.594 446.038,-442.697 425.895,-427.416"/>
<polygon fill="none" stroke="black" points="427.758,-424.436 417.676,-421.181 423.527,-430.013 427.758,-424.436"/>
<text text-anchor="middle" x="484.559" y="-444.8" font-family="Times,serif" font-size="14.00">params</text>
</g>
<!-- locInterest -->
<g id="node24" class="node"><title>locInterest</title>
<ellipse fill="white" stroke="black" cx="132.347" cy="-712" rx="51.1871" ry="18"/>
<text text-anchor="middle" x="132.347" y="-707.8" font-family="Times,serif" font-size="14.00">locInterest</text>
</g>
<!-- locInterest&#45;&gt;547 -->
<g id="edge29" class="edge"><title>locInterest&#45;&gt;547:center</title>
<path fill="none" stroke="black" d="M128.376,-694.046C124.553,-676.218 119.347,-647.297 119.347,-622 119.347,-622 119.347,-622 119.347,-329 119.347,-311.55 128.666,-294.564 138.524,-281.476"/>
<polygon fill="none" stroke="black" points="141.428,-283.452 144.988,-273.474 135.982,-279.054 141.428,-283.452"/>
<text text-anchor="middle" x="156.271" y="-489.8" font-family="Times,serif" font-size="14.00">locOfInterest</text>
</g>
<!-- 103 -->
<g id="node25" class="node"><title>103</title>
<ellipse fill="orange" stroke="black" cx="248.347" cy="-840" rx="35.8859" ry="18"/>
<text text-anchor="middle" x="248.347" y="-835.8" font-family="Times,serif" font-size="14.00">SField</text>
</g>
<!-- 103&#45;&gt;locInterest -->
<g id="edge30" class="edge"><title>103&#45;&gt;locInterest:center</title>
<path fill="none" stroke="red" d="M233.89,-823.297C213.855,-801.535 177.486,-762.03 154.146,-736.679"/>
<polygon fill="red" stroke="red" points="156.702,-734.287 147.354,-729.301 151.552,-739.028 156.702,-734.287"/>
</g>
<!-- 492&#45;&gt;103 -->
<g id="edge31" class="edge"><title>492&#45;&gt;103:center</title>
<path fill="none" stroke="black" d="M304.368,-912.448C293.894,-899.089 279.013,-880.11 267.22,-865.07"/>
<polygon fill="none" stroke="black" points="269.959,-862.89 261.034,-857.181 264.45,-867.21 269.959,-862.89"/>
<text text-anchor="middle" x="324.727" y="-880.8" font-family="Times,serif" font-size="14.00">observations</text>
</g>
<!-- 90&#45;&gt;103 -->
<g id="edge32" class="edge"><title>90&#45;&gt;103:center</title>
<path fill="none" stroke="black" d="M198.82,-912.448C207.995,-899.213 220.993,-880.461 231.372,-865.489"/>
<polygon fill="none" stroke="black" points="234.31,-867.393 237.131,-857.181 228.557,-863.405 234.31,-867.393"/>
<text text-anchor="middle" x="244.345" y="-880.8" font-family="Times,serif" font-size="14.00">domain</text>
</g>
<!-- 690 -->
<g id="node28" class="node"><title>690</title>
<ellipse fill="white" stroke="black" cx="435.347" cy="-930" rx="36.3712" ry="18"/>
<text text-anchor="middle" x="435.347" y="-925.8" font-family="Times,serif" font-size="14.00">TRUE</text>
</g>
<!-- 690&#45;&gt;103 -->
<g id="edge33" class="edge"><title>690&#45;&gt;103:center</title>
<path fill="none" stroke="black" d="M418.395,-913.922C404.454,-902.188 383.741,-886.231 363.347,-876 340.458,-864.517 313.09,-856.001 290.795,-850.245"/>
<polygon fill="none" stroke="black" points="291.492,-846.812 280.943,-847.795 289.803,-853.605 291.492,-846.812"/>
<text text-anchor="middle" x="433.169" y="-880.8" font-family="Times,serif" font-size="14.00">cellsArePoints</text>
</g>
<!-- intZincPointData -->
<g id="node29" class="node"><title>intZincPointData</title>
<ellipse fill="white" stroke="black" cx="161.347" cy="-182" rx="77.3273" ry="18"/>
<text text-anchor="middle" x="161.347" y="-177.8" font-family="Times,serif" font-size="14.00">intZincPointData</text>
</g>
<!-- intZincPointData_observations_1 -->
<g id="node32" class="node"><title>intZincPointData_observations_1</title>
<ellipse fill="white" stroke="black" cx="161.347" cy="-108" rx="140.27" ry="18"/>
<text text-anchor="middle" x="161.347" y="-103.8" font-family="Times,serif" font-size="14.00">intZincPointData_observations_1</text>
</g>
<!-- intZincPointData&#45;&gt;intZincPointData_observations_1 -->
<g id="edge34" class="edge"><title>intZincPointData&#45;&gt;intZincPointData_observations_1:center</title>
<path fill="none" stroke="black" d="M161.347,-163.937C161.347,-155.807 161.347,-145.876 161.347,-136.705"/>
<polygon fill="none" stroke="black" points="164.847,-136.441 161.347,-126.441 157.847,-136.441 164.847,-136.441"/>
</g>
<!-- 547&#45;&gt;intZincPointData -->
<g id="edge35" class="edge"><title>547&#45;&gt;intZincPointData:center</title>
<path fill="none" stroke="red" d="M161.347,-237.937C161.347,-229.807 161.347,-219.876 161.347,-210.705"/>
<polygon fill="red" stroke="red" points="164.847,-210.441 161.347,-200.441 157.847,-210.441 164.847,-210.441"/>
</g>
<!-- 555 -->
<g id="node31" class="node"><title>555</title>
<ellipse fill="orange" stroke="black" cx="161.347" cy="-18" rx="34.4665" ry="18"/>
<text text-anchor="middle" x="161.347" y="-13.8" font-family="Times,serif" font-size="14.00">spplot</text>
</g>
<!-- intZincPointData_observations_1&#45;&gt;555 -->
<g id="edge36" class="edge"><title>intZincPointData_observations_1&#45;&gt;555:center</title>
<path fill="none" stroke="black" d="M161.347,-89.614C161.347,-77.2403 161.347,-60.3686 161.347,-46.2198"/>
<polygon fill="none" stroke="black" points="164.847,-46.0504 161.347,-36.0504 157.847,-46.0504 164.847,-46.0504"/>
<text text-anchor="middle" x="170.292" y="-58.8" font-family="Times,serif" font-size="14.00">obj</text>
</g>
</g>
</svg>
