<?xml version="1.0" encoding="UTF-8" standalone="no"?>
<!DOCTYPE svg PUBLIC "-//W3C//DTD SVG 1.1//EN"
 "http://www.w3.org/Graphics/SVG/1.1/DTD/svg11.dtd">
<!-- Generated by graphviz version 2.28.0 (20160728.0200)
 -->
<!-- Title: f Pages: 1 -->
<svg width="311pt" height="370pt"
 viewBox="0.00 0.00 311.00 369.67" xmlns="http://www.w3.org/2000/svg" xmlns:xlink="http://www.w3.org/1999/xlink">
<g id="graph1" class="graph" transform="scale(0.216182 0.216182) rotate(0) translate(4 1706)">
<title>f</title>
<!-- fcall_3ZQgIB -->
<g id="node1" class="node"><title>fcall_3ZQgIB</title>
<ellipse fill="orange" stroke="black" cx="783.445" cy="-1594" rx="32.2385" ry="18"/>
<text text-anchor="middle" x="783.445" y="-1589.8" font-family="Times,serif" font-size="14.00">demo</text>
</g>
<!-- meuse -->
<g id="node2" class="node"><title>meuse</title>
<ellipse fill="white" stroke="black" cx="117.445" cy="-1508" rx="64.587" ry="29.5"/>
<text text-anchor="middle" x="117.445" y="-1512.2" font-family="Times,serif" font-size="14.00">meuse </text>
<text text-anchor="middle" x="117.445" y="-1495.4" font-family="Times,serif" font-size="14.00">[(?)S x Q set]</text>
</g>
<!-- fcall_3ZQgIB&#45;&gt;meuse -->
<g id="edge2" class="edge"><title>fcall_3ZQgIB&#45;&gt;meuse:center</title>
<path fill="none" stroke="red" stroke-dasharray="5,2" d="M741.491,-1590.21C651.495,-1583.88 433.385,-1566.72 252.445,-1538 229.861,-1534.42 205.363,-1529.48 183.514,-1524.69"/>
<polygon fill="red" stroke="red" points="751.568,-1590.91 741.279,-1594.7 746.58,-1590.56 741.592,-1590.22 741.592,-1590.22 741.592,-1590.22 746.58,-1590.56 741.904,-1585.73 751.568,-1590.91 751.568,-1590.91"/>
<polygon fill="red" stroke="red" points="184.198,-1521.26 173.677,-1522.51 182.681,-1528.09 184.198,-1521.26"/>
</g>
<!-- crs -->
<g id="node5" class="node"><title>crs</title>
<ellipse fill="white" stroke="black" cx="1085.45" cy="-1508" rx="27" ry="29.5"/>
<text text-anchor="middle" x="1085.45" y="-1512.2" font-family="Times,serif" font-size="14.00">crs </text>
<text text-anchor="middle" x="1085.45" y="-1495.4" font-family="Times,serif" font-size="14.00">[&#39;a]</text>
</g>
<!-- fcall_3ZQgIB&#45;&gt;crs -->
<g id="edge1" class="edge"><title>fcall_3ZQgIB&#45;&gt;crs:center</title>
<path fill="none" stroke="red" stroke-dasharray="5,2" d="M813.24,-1586.92C856.612,-1577.79 939.487,-1559.33 1008.45,-1538 1022.47,-1533.66 1037.65,-1528.13 1050.79,-1523.07"/>
<polygon fill="red" stroke="red" points="1052.36,-1526.21 1060.39,-1519.31 1049.81,-1519.69 1052.36,-1526.21"/>
</g>
<!-- meuse.area -->
<g id="node6" class="node"><title>meuse.area</title>
<ellipse fill="white" stroke="black" cx="719.445" cy="-1430" rx="57.5" ry="29.5"/>
<text text-anchor="middle" x="719.445" y="-1434.2" font-family="Times,serif" font-size="14.00">meuse.area </text>
<text text-anchor="middle" x="719.445" y="-1417.4" font-family="Times,serif" font-size="14.00">[R set]</text>
</g>
<!-- fcall_3ZQgIB&#45;&gt;meuse.area -->
<g id="edge3" class="edge"><title>fcall_3ZQgIB&#45;&gt;meuse.area:center</title>
<path fill="none" stroke="red" stroke-dasharray="5,2" d="M758.929,-1582.27C741.612,-1573.22 719.726,-1558.45 709.445,-1538 698.811,-1516.85 701.177,-1490.37 706.268,-1469.05"/>
<polygon fill="red" stroke="red" points="709.66,-1469.91 708.851,-1459.35 702.896,-1468.11 709.66,-1469.91"/>
</g>
<!-- meuse.grid -->
<g id="node7" class="node"><title>meuse.grid</title>
<ellipse fill="white" stroke="black" cx="783.445" cy="-1508" rx="64.587" ry="29.5"/>
<text text-anchor="middle" x="783.445" y="-1512.2" font-family="Times,serif" font-size="14.00">meuse.grid </text>
<text text-anchor="middle" x="783.445" y="-1495.4" font-family="Times,serif" font-size="14.00">[(?)S x Q set]</text>
</g>
<!-- fcall_3ZQgIB&#45;&gt;meuse.grid -->
<g id="edge4" class="edge"><title>fcall_3ZQgIB&#45;&gt;meuse.grid:center</title>
<path fill="none" stroke="red" stroke-dasharray="5,2" d="M783.445,-1575.6C783.445,-1567.46 783.445,-1557.43 783.445,-1547.65"/>
<polygon fill="red" stroke="red" points="786.945,-1547.63 783.445,-1537.63 779.945,-1547.63 786.945,-1547.63"/>
</g>
<!-- meuse.riv -->
<g id="node8" class="node"><title>meuse.riv</title>
<ellipse fill="white" stroke="black" cx="1233.45" cy="-1508" rx="52.25" ry="29.5"/>
<text text-anchor="middle" x="1233.45" y="-1512.2" font-family="Times,serif" font-size="14.00">meuse.riv </text>
<text text-anchor="middle" x="1233.45" y="-1495.4" font-family="Times,serif" font-size="14.00">[R set]</text>
</g>
<!-- fcall_3ZQgIB&#45;&gt;meuse.riv -->
<g id="edge5" class="edge"><title>fcall_3ZQgIB&#45;&gt;meuse.riv:center</title>
<path fill="none" stroke="red" stroke-dasharray="5,2" d="M814.845,-1588.88C874.769,-1580.79 1009.45,-1561.56 1121.45,-1538 1139.85,-1534.13 1159.78,-1529.21 1177.66,-1524.52"/>
<polygon fill="red" stroke="red" points="1178.58,-1527.9 1187.35,-1521.95 1176.79,-1521.13 1178.58,-1527.9"/>
</g>
<!-- fcall_63qrVy -->
<g id="node10" class="node"><title>fcall_63qrVy</title>
<ellipse fill="orange" stroke="black" cx="117.445" cy="-1352" rx="78.5392" ry="18"/>
<text text-anchor="middle" x="117.445" y="-1347.8" font-family="Times,serif" font-size="14.00">functionalType&lt;&#45;</text>
</g>
<!-- meuse&#45;&gt;fcall_63qrVy -->
<g id="edge6" class="edge"><title>meuse&#45;&gt;fcall_63qrVy:center</title>
<path fill="none" stroke="black" d="M117.445,-1478.39C117.445,-1450.29 117.445,-1407.72 117.445,-1380.13"/>
<polygon fill="none" stroke="black" points="120.945,-1380.01 117.445,-1370.01 113.945,-1380.01 120.945,-1380.01"/>
<text text-anchor="middle" x="126.391" y="-1425.8" font-family="Times,serif" font-size="14.00">obj</text>
</g>
<!-- lt_pE7gVK -->
<g id="node3" class="node"><title>lt_pE7gVK</title>
<ellipse fill="white" stroke="black" cx="710.445" cy="-1684" rx="40.3147" ry="18"/>
<text text-anchor="middle" x="710.445" y="-1679.8" font-family="Times,serif" font-size="14.00">FALSE</text>
</g>
<!-- lt_pE7gVK&#45;&gt;fcall_3ZQgIB -->
<g id="edge7" class="edge"><title>lt_pE7gVK&#45;&gt;fcall_3ZQgIB:center</title>
<path fill="none" stroke="black" d="M723.835,-1666.86C735.018,-1653.38 751.117,-1633.97 763.767,-1618.72"/>
<polygon fill="none" stroke="black" points="766.696,-1620.67 770.386,-1610.74 761.308,-1616.2 766.696,-1620.67"/>
<text text-anchor="middle" x="767.66" y="-1634.8" font-family="Times,serif" font-size="14.00">echo</text>
</g>
<!-- lt_R5bdCV -->
<g id="node4" class="node"><title>lt_R5bdCV</title>
<ellipse fill="white" stroke="black" cx="859.445" cy="-1684" rx="40.3147" ry="18"/>
<text text-anchor="middle" x="859.445" y="-1679.8" font-family="Times,serif" font-size="14.00">FALSE</text>
</g>
<!-- lt_R5bdCV&#45;&gt;fcall_3ZQgIB -->
<g id="edge8" class="edge"><title>lt_R5bdCV&#45;&gt;fcall_3ZQgIB:center</title>
<path fill="none" stroke="black" d="M845.506,-1666.86C833.791,-1653.29 816.893,-1633.73 803.687,-1618.44"/>
<polygon fill="none" stroke="black" points="805.972,-1615.73 796.787,-1610.45 800.674,-1620.3 805.972,-1615.73"/>
<text text-anchor="middle" x="837.775" y="-1634.8" font-family="Times,serif" font-size="14.00">ask</text>
</g>
<!-- fcall_Vgp84B -->
<g id="node19" class="node"><title>fcall_Vgp84B</title>
<ellipse fill="orange" stroke="black" cx="684.445" cy="-912" rx="212.25" ry="29.5"/>
<text text-anchor="middle" x="684.445" y="-916.2" font-family="Times,serif" font-size="14.00">SFieldData</text>
<text text-anchor="middle" x="684.445" y="-899.4" font-family="Times,serif" font-size="14.00">[bool &#45;&gt; R set &#45;&gt; S x Q set &#45;&gt; S x Q x SExtend set]</text>
</g>
<!-- meuse.area&#45;&gt;fcall_Vgp84B -->
<g id="edge9" class="edge"><title>meuse.area&#45;&gt;fcall_Vgp84B:center</title>
<path fill="none" stroke="black" d="M706.81,-1400.83C696.784,-1375.9 684.445,-1338.25 684.445,-1304 684.445,-1304 684.445,-1304 684.445,-1025 684.445,-1000.6 684.445,-973.217 684.445,-951.633"/>
<polygon fill="none" stroke="black" points="687.945,-951.541 684.445,-941.541 680.945,-951.541 687.945,-951.541"/>
<text text-anchor="middle" x="705.443" y="-1192.8" font-family="Times,serif" font-size="14.00">domain</text>
</g>
<!-- fcall_7e0BNv -->
<g id="node13" class="node"><title>fcall_7e0BNv</title>
<ellipse fill="orange" stroke="black" cx="854.445" cy="-1352" rx="78.5392" ry="18"/>
<text text-anchor="middle" x="854.445" y="-1347.8" font-family="Times,serif" font-size="14.00">functionalType&lt;&#45;</text>
</g>
<!-- meuse.grid&#45;&gt;fcall_7e0BNv -->
<g id="edge10" class="edge"><title>meuse.grid&#45;&gt;fcall_7e0BNv:center</title>
<path fill="none" stroke="black" d="M796.468,-1478.75C809.517,-1450.45 829.451,-1407.21 842.214,-1379.53"/>
<polygon fill="none" stroke="black" points="845.557,-1380.64 846.565,-1370.09 839.2,-1377.71 845.557,-1380.64"/>
<text text-anchor="middle" x="841.391" y="-1425.8" font-family="Times,serif" font-size="14.00">obj</text>
</g>
<!-- meuse~2 -->
<g id="node9" class="node"><title>meuse~2</title>
<ellipse fill="white" stroke="black" cx="520.445" cy="-1508" rx="53.1588" ry="29.5"/>
<text text-anchor="middle" x="520.445" y="-1512.2" font-family="Times,serif" font-size="14.00">meuse~2 </text>
<text text-anchor="middle" x="520.445" y="-1495.4" font-family="Times,serif" font-size="14.00">[S x Q set]</text>
</g>
<!-- meuse~2&#45;&gt;fcall_63qrVy -->
<g id="edge11" class="edge"><title>meuse~2&#45;&gt;fcall_63qrVy:center</title>
<path fill="none" stroke="black" stroke-dasharray="5,2" d="M470.255,-1484.93C418.403,-1462.44 334.918,-1427.12 261.445,-1400 232.222,-1389.21 199.212,-1378.35 172.177,-1369.78"/>
<polygon fill="black" stroke="black" points="479.559,-1488.97 468.594,-1489.11 474.973,-1486.98 470.388,-1484.99 470.388,-1484.99 470.388,-1484.99 474.973,-1486.98 472.182,-1480.86 479.559,-1488.97 479.559,-1488.97"/>
<polygon fill="none" stroke="black" points="173.094,-1366.4 162.505,-1366.74 170.991,-1373.08 173.094,-1366.4"/>
</g>
<!-- meuse~2&#45;&gt;fcall_7e0BNv -->
<g id="edge12" class="edge"><title>meuse~2&#45;&gt;fcall_7e0BNv:center</title>
<path fill="none" stroke="black" stroke-dasharray="5,2" d="M553.011,-1484.46C563.536,-1476.91 575.143,-1468.3 585.445,-1460 616.573,-1434.92 616.98,-1418.44 652.445,-1400 690.275,-1380.33 736.329,-1368.8 774.905,-1362.09"/>
<polygon fill="none" stroke="black" points="775.764,-1365.5 785.056,-1360.4 774.617,-1358.59 775.764,-1365.5"/>
</g>
<!-- meuse~3 -->
<g id="node15" class="node"><title>meuse~3</title>
<ellipse fill="white" stroke="black" cx="532.445" cy="-1140" rx="53.1588" ry="29.5"/>
<text text-anchor="middle" x="532.445" y="-1144.2" font-family="Times,serif" font-size="14.00">meuse~3 </text>
<text text-anchor="middle" x="532.445" y="-1127.4" font-family="Times,serif" font-size="14.00">[S x Q set]</text>
</g>
<!-- meuse~2&#45;&gt;meuse~3 -->
<g id="edge13" class="edge"><title>meuse~2&#45;&gt;meuse~3:center</title>
<path fill="none" stroke="black" stroke-dasharray="5,2" d="M521.387,-1478.28C523.525,-1413.07 528.748,-1253.77 531.172,-1179.85"/>
<polygon fill="black" stroke="black" points="534.678,-1179.7 531.508,-1169.59 527.682,-1179.47 534.678,-1179.7"/>
</g>
<!-- expr_8Rt0xJ -->
<g id="node17" class="node"><title>expr_8Rt0xJ</title>
<ellipse fill="orange" stroke="black" cx="396.445" cy="-1352" rx="88.1758" ry="29.5"/>
<text text-anchor="middle" x="396.445" y="-1356.2" font-family="Times,serif" font-size="14.00">log(meuse$zinc)</text>
<text text-anchor="middle" x="396.445" y="-1339.4" font-family="Times,serif" font-size="14.00">[S x Q set &#45;&gt; Q set]</text>
</g>
<!-- meuse~2&#45;&gt;expr_8Rt0xJ -->
<g id="edge14" class="edge"><title>meuse~2&#45;&gt;expr_8Rt0xJ:center</title>
<path fill="none" stroke="black" d="M499.41,-1480.88C478.971,-1455.49 447.782,-1416.76 425.085,-1388.57"/>
<polygon fill="none" stroke="black" points="427.629,-1386.15 418.631,-1380.55 422.176,-1390.54 427.629,-1386.15"/>
</g>
<!-- lt_16cZUJ -->
<g id="node11" class="node"><title>lt_16cZUJ</title>
<ellipse fill="white" stroke="black" cx="297.445" cy="-1508" rx="35.8859" ry="18"/>
<text text-anchor="middle" x="297.445" y="-1503.8" font-family="Times,serif" font-size="14.00">SField</text>
</g>
<!-- lt_16cZUJ&#45;&gt;fcall_63qrVy -->
<g id="edge15" class="edge"><title>lt_16cZUJ&#45;&gt;fcall_63qrVy:center</title>
<path fill="none" stroke="black" d="M279.858,-1491.95C248.36,-1465 182.121,-1408.33 144.697,-1376.32"/>
<polygon fill="none" stroke="black" points="146.602,-1373.34 136.728,-1369.5 142.051,-1378.66 146.602,-1373.34"/>
<text text-anchor="middle" x="248.774" y="-1425.8" font-family="Times,serif" font-size="14.00">attr</text>
</g>
<!-- meuse.grid~2 -->
<g id="node12" class="node"><title>meuse.grid~2</title>
<ellipse fill="white" stroke="black" cx="857.445" cy="-1254" rx="67.4153" ry="29.5"/>
<text text-anchor="middle" x="857.445" y="-1258.2" font-family="Times,serif" font-size="14.00">meuse.grid~2 </text>
<text text-anchor="middle" x="857.445" y="-1241.4" font-family="Times,serif" font-size="14.00">[S x Q set]</text>
</g>
<!-- fcall_adICAB -->
<g id="node27" class="node"><title>fcall_adICAB</title>
<ellipse fill="orange" stroke="black" cx="1145.45" cy="-1140" rx="86.25" ry="29.5"/>
<text text-anchor="middle" x="1145.45" y="-1144.2" font-family="Times,serif" font-size="14.00">geometry</text>
<text text-anchor="middle" x="1145.45" y="-1127.4" font-family="Times,serif" font-size="14.00">[S x Q set &#45;&gt; S set]</text>
</g>
<!-- meuse.grid~2&#45;&gt;fcall_adICAB -->
<g id="edge16" class="edge"><title>meuse.grid~2&#45;&gt;fcall_adICAB:center</title>
<path fill="none" stroke="black" d="M906.954,-1233.75C954.798,-1215.14 1027.56,-1186.85 1080.13,-1166.4"/>
<polygon fill="none" stroke="black" points="1081.65,-1169.57 1089.7,-1162.68 1079.11,-1163.04 1081.65,-1169.57"/>
<text text-anchor="middle" x="1027.39" y="-1192.8" font-family="Times,serif" font-size="14.00">obj</text>
</g>
<!-- fcall_lOKLYm -->
<g id="node28" class="node"><title>fcall_lOKLYm</title>
<ellipse fill="orange" stroke="black" cx="857.445" cy="-1140" rx="86.25" ry="29.5"/>
<text text-anchor="middle" x="857.445" y="-1144.2" font-family="Times,serif" font-size="14.00">geometry</text>
<text text-anchor="middle" x="857.445" y="-1127.4" font-family="Times,serif" font-size="14.00">[S x Q set &#45;&gt; S set]</text>
</g>
<!-- meuse.grid~2&#45;&gt;fcall_lOKLYm -->
<g id="edge17" class="edge"><title>meuse.grid~2&#45;&gt;fcall_lOKLYm:center</title>
<path fill="none" stroke="black" d="M857.445,-1224.45C857.445,-1210.99 857.445,-1194.73 857.445,-1180.15"/>
<polygon fill="none" stroke="black" points="860.945,-1179.89 857.445,-1169.89 853.945,-1179.89 860.945,-1179.89"/>
<text text-anchor="middle" x="866.391" y="-1192.8" font-family="Times,serif" font-size="14.00">obj</text>
</g>
<!-- fcall_7e0BNv&#45;&gt;meuse.grid~2 -->
<g id="edge18" class="edge"><title>fcall_7e0BNv&#45;&gt;meuse.grid~2:center</title>
<path fill="none" stroke="red" d="M854.982,-1333.84C855.328,-1322.75 855.794,-1307.85 856.227,-1294"/>
<polygon fill="red" stroke="red" points="859.735,-1293.79 856.549,-1283.68 852.738,-1293.57 859.735,-1293.79"/>
</g>
<!-- lt_HxUbv6 -->
<g id="node14" class="node"><title>lt_HxUbv6</title>
<ellipse fill="white" stroke="black" cx="963.445" cy="-1508" rx="35.8859" ry="18"/>
<text text-anchor="middle" x="963.445" y="-1503.8" font-family="Times,serif" font-size="14.00">SField</text>
</g>
<!-- lt_HxUbv6&#45;&gt;fcall_7e0BNv -->
<g id="edge19" class="edge"><title>lt_HxUbv6&#45;&gt;fcall_7e0BNv:center</title>
<path fill="none" stroke="black" d="M951.986,-1490.81C933.001,-1463.99 894.883,-1410.13 872.33,-1378.27"/>
<polygon fill="none" stroke="black" points="875.045,-1376.05 866.411,-1369.91 869.331,-1380.09 875.045,-1376.05"/>
<text text-anchor="middle" x="937.774" y="-1425.8" font-family="Times,serif" font-size="14.00">attr</text>
</g>
<!-- meuse[&quot;lzinc&quot;] -->
<g id="node20" class="node"><title>meuse[&quot;lzinc&quot;]</title>
<ellipse fill="white" stroke="black" cx="532.445" cy="-1026" rx="72.1689" ry="29.5"/>
<text text-anchor="middle" x="532.445" y="-1030.2" font-family="Times,serif" font-size="14.00">meuse[&quot;lzinc&quot;] </text>
<text text-anchor="middle" x="532.445" y="-1013.4" font-family="Times,serif" font-size="14.00">[S x Q set]</text>
</g>
<!-- meuse~3&#45;&gt;meuse[&quot;lzinc&quot;] -->
<g id="edge20" class="edge"><title>meuse~3&#45;&gt;meuse[&quot;lzinc&quot;]:center</title>
<path fill="none" stroke="black" d="M532.445,-1110.45C532.445,-1096.99 532.445,-1080.73 532.445,-1066.15"/>
<polygon fill="none" stroke="black" points="535.945,-1065.89 532.445,-1055.89 528.945,-1065.89 535.945,-1065.89"/>
</g>
<!-- meuse$lzinc -->
<g id="node16" class="node"><title>meuse$lzinc</title>
<ellipse fill="white" stroke="black" cx="416.445" cy="-1254" rx="63.1326" ry="29.5"/>
<text text-anchor="middle" x="416.445" y="-1258.2" font-family="Times,serif" font-size="14.00">meuse$lzinc </text>
<text text-anchor="middle" x="416.445" y="-1241.4" font-family="Times,serif" font-size="14.00">[Q set]</text>
</g>
<!-- meuse$lzinc&#45;&gt;meuse~3 -->
<g id="edge21" class="edge"><title>meuse$lzinc&#45;&gt;meuse~3:center</title>
<path fill="none" stroke="red" d="M443.35,-1227.02C459.981,-1210.97 481.457,-1190.23 499.156,-1173.14"/>
<polygon fill="red" stroke="red" points="501.722,-1175.53 506.485,-1166.07 496.86,-1170.49 501.722,-1175.53"/>
</g>
<!-- expr_8Rt0xJ&#45;&gt;meuse$lzinc -->
<g id="edge22" class="edge"><title>expr_8Rt0xJ&#45;&gt;meuse$lzinc:center</title>
<path fill="none" stroke="red" d="M402.392,-1322.46C404.289,-1313.35 406.421,-1303.12 408.439,-1293.43"/>
<polygon fill="red" stroke="red" points="411.874,-1294.1 410.487,-1283.6 405.021,-1292.67 411.874,-1294.1"/>
</g>
<!-- zincPointData -->
<g id="node18" class="node"><title>zincPointData</title>
<ellipse fill="white" stroke="black" cx="710.445" cy="-756" rx="97.1383" ry="29.5"/>
<text text-anchor="middle" x="710.445" y="-760.2" font-family="Times,serif" font-size="14.00">zincPointData </text>
<text text-anchor="middle" x="710.445" y="-743.4" font-family="Times,serif" font-size="14.00">[S x Q x SExtend set]</text>
</g>
<!-- fcall_DKNOZR -->
<g id="node22" class="node"><title>fcall_DKNOZR</title>
<ellipse fill="orange" stroke="black" cx="713.445" cy="-528" rx="193" ry="29.5"/>
<text text-anchor="middle" x="713.445" y="-532.2" font-family="Times,serif" font-size="14.00">getInterpolator</text>
<text text-anchor="middle" x="713.445" y="-515.4" font-family="Times,serif" font-size="14.00">[Q set &#45;&gt; S x Q x SExtend set &#45;&gt; (S &#45;&gt; (S,Q))]</text>
</g>
<!-- zincPointData&#45;&gt;fcall_DKNOZR -->
<g id="edge24" class="edge"><title>zincPointData&#45;&gt;fcall_DKNOZR:center</title>
<path fill="none" stroke="black" d="M710.825,-726.377C711.358,-686.241 712.329,-613.111 712.927,-568.019"/>
<polygon fill="none" stroke="black" points="716.431,-567.792 713.064,-557.747 709.431,-567.699 716.431,-567.792"/>
<text text-anchor="middle" x="740.049" y="-637.8" font-family="Times,serif" font-size="14.00">pointData</text>
</g>
<!-- fcall_OwKabW -->
<g id="node23" class="node"><title>fcall_OwKabW</title>
<ellipse fill="orange" stroke="black" cx="459.445" cy="-642" rx="131.25" ry="29.5"/>
<text text-anchor="middle" x="459.445" y="-646.2" font-family="Times,serif" font-size="14.00">modelSemivariogram</text>
<text text-anchor="middle" x="459.445" y="-629.4" font-family="Times,serif" font-size="14.00">[S x Q x SExtend set &#45;&gt; Q set]</text>
</g>
<!-- zincPointData&#45;&gt;fcall_OwKabW -->
<g id="edge23" class="edge"><title>zincPointData&#45;&gt;fcall_OwKabW:center</title>
<path fill="none" stroke="black" d="M657.215,-731.248C619.032,-714.21 567.312,-691.132 526.338,-672.849"/>
<polygon fill="none" stroke="black" points="527.529,-669.547 516.971,-668.669 524.677,-675.94 527.529,-669.547"/>
<text text-anchor="middle" x="628.049" y="-694.8" font-family="Times,serif" font-size="14.00">pointData</text>
</g>
<!-- fcall_Vgp84B&#45;&gt;zincPointData -->
<g id="edge25" class="edge"><title>fcall_Vgp84B&#45;&gt;zincPointData:center</title>
<path fill="none" stroke="red" d="M689.275,-882.395C693.403,-857.944 699.379,-822.546 703.93,-795.59"/>
<polygon fill="red" stroke="red" points="707.384,-796.156 705.598,-785.713 700.482,-794.991 707.384,-796.156"/>
</g>
<!-- meuse[&quot;lzinc&quot;]&#45;&gt;fcall_Vgp84B -->
<g id="edge26" class="edge"><title>meuse[&quot;lzinc&quot;]&#45;&gt;fcall_Vgp84B:center</title>
<path fill="none" stroke="black" d="M557.199,-997.999C569.324,-985.605 584.549,-971.208 599.685,-960 606.391,-955.034 613.68,-950.228 621.075,-945.707"/>
<polygon fill="none" stroke="black" points="622.965,-948.655 629.774,-940.538 619.39,-942.637 622.965,-948.655"/>
<text text-anchor="middle" x="635.825" y="-964.8" font-family="Times,serif" font-size="14.00">observations</text>
</g>
<!-- interpolator -->
<g id="node21" class="node"><title>interpolator</title>
<ellipse fill="white" stroke="black" cx="857.445" cy="-430" rx="65.25" ry="29.5"/>
<text text-anchor="middle" x="857.445" y="-434.2" font-family="Times,serif" font-size="14.00">interpolator </text>
<text text-anchor="middle" x="857.445" y="-417.4" font-family="Times,serif" font-size="14.00">[(S &#45;&gt; (S,Q))]</text>
</g>
<!-- fcall_DBJWBO -->
<g id="node31" class="node"><title>fcall_DBJWBO</title>
<ellipse fill="orange" stroke="black" cx="1047.45" cy="-316" rx="253" ry="29.5"/>
<text text-anchor="middle" x="1047.45" y="-320.2" font-family="Times,serif" font-size="14.00">interpolator</text>
<text text-anchor="middle" x="1047.45" y="-303.4" font-family="Times,serif" font-size="14.00">[S x SExtend set &#45;&gt; S x Q x SExtend set: INCONSISTENT!]</text>
</g>
<!-- interpolator&#45;&gt;fcall_DBJWBO -->
<g id="edge27" class="edge"><title>interpolator&#45;&gt;fcall_DBJWBO:center</title>
<path fill="none" stroke="blue" d="M896.353,-406.065C923.626,-389.988 960.508,-368.247 991.004,-350.27"/>
<polygon fill="blue" stroke="blue" points="992.996,-353.159 999.834,-345.066 989.442,-347.129 992.996,-353.159"/>
</g>
<!-- fcall_DKNOZR&#45;&gt;interpolator -->
<g id="edge28" class="edge"><title>fcall_DKNOZR&#45;&gt;interpolator:center</title>
<path fill="none" stroke="red" d="M755.483,-498.975C773.461,-486.989 794.472,-472.982 812.735,-460.807"/>
<polygon fill="red" stroke="red" points="815.074,-463.454 821.453,-454.995 811.191,-457.629 815.074,-463.454"/>
</g>
<!-- fcall_OwKabW&#45;&gt;fcall_DKNOZR -->
<g id="edge29" class="edge"><title>fcall_OwKabW&#45;&gt;fcall_DKNOZR:center</title>
<path fill="none" stroke="black" d="M517.4,-615.445C554.676,-599.009 603.354,-577.544 642.879,-560.116"/>
<polygon fill="none" stroke="black" points="644.46,-563.244 652.197,-556.007 641.635,-556.839 644.46,-563.244"/>
<text text-anchor="middle" x="622.658" y="-580.8" font-family="Times,serif" font-size="14.00">params</text>
</g>
<!-- init_model -->
<g id="node24" class="node"><title>init_model</title>
<ellipse fill="white" stroke="black" cx="450.445" cy="-756" rx="56.2887" ry="29.5"/>
<text text-anchor="middle" x="450.445" y="-760.2" font-family="Times,serif" font-size="14.00">init_model </text>
<text text-anchor="middle" x="450.445" y="-743.4" font-family="Times,serif" font-size="14.00">[function]</text>
</g>
<!-- init_model&#45;&gt;fcall_OwKabW -->
<g id="edge30" class="edge"><title>init_model&#45;&gt;fcall_OwKabW:center</title>
<path fill="none" stroke="blue" stroke-dasharray="5,2" d="M452.74,-726.448C453.829,-712.888 455.148,-696.476 456.327,-681.808"/>
<polygon fill="blue" stroke="blue" points="459.843,-681.748 457.155,-671.5 452.865,-681.187 459.843,-681.748"/>
</g>
<!-- locInterest -->
<g id="node25" class="node"><title>locInterest</title>
<ellipse fill="white" stroke="black" cx="1058.45" cy="-834" rx="80.1421" ry="29.5"/>
<text text-anchor="middle" x="1058.45" y="-838.2" font-family="Times,serif" font-size="14.00">locInterest </text>
<text text-anchor="middle" x="1058.45" y="-821.4" font-family="Times,serif" font-size="14.00">[S x SExtend set]</text>
</g>
<!-- locInterest&#45;&gt;fcall_DBJWBO -->
<g id="edge31" class="edge"><title>locInterest&#45;&gt;fcall_DBJWBO:center</title>
<path fill="none" stroke="black" d="M1054.72,-804.518C1051.53,-777.625 1047.45,-736.144 1047.45,-700 1047.45,-700 1047.45,-700 1047.45,-429 1047.45,-404.603 1047.45,-377.217 1047.45,-355.633"/>
<polygon fill="none" stroke="black" points="1050.95,-355.541 1047.45,-345.541 1043.95,-355.541 1050.95,-355.541"/>
<text text-anchor="middle" x="1084.37" y="-580.8" font-family="Times,serif" font-size="14.00">locOfInterest</text>
</g>
<!-- fcall_v1lLmH -->
<g id="node26" class="node"><title>fcall_v1lLmH</title>
<ellipse fill="orange" stroke="black" cx="1083.45" cy="-1026" rx="176.5" ry="29.5"/>
<text text-anchor="middle" x="1083.45" y="-1030.2" font-family="Times,serif" font-size="14.00">SFieldData</text>
<text text-anchor="middle" x="1083.45" y="-1013.4" font-family="Times,serif" font-size="14.00">[bool &#45;&gt; S set &#45;&gt; S set &#45;&gt; S x SExtend set]</text>
</g>
<!-- fcall_v1lLmH&#45;&gt;locInterest -->
<g id="edge32" class="edge"><title>fcall_v1lLmH&#45;&gt;locInterest:center</title>
<path fill="none" stroke="red" d="M1079.65,-996.143C1075.35,-963.451 1068.32,-910.013 1063.54,-873.717"/>
<polygon fill="red" stroke="red" points="1066.97,-872.964 1062.2,-863.506 1060.03,-873.877 1066.97,-872.964"/>
</g>
<!-- fcall_adICAB&#45;&gt;fcall_v1lLmH -->
<g id="edge33" class="edge"><title>fcall_adICAB&#45;&gt;fcall_v1lLmH:center</title>
<path fill="none" stroke="black" d="M1129.8,-1110.74C1122.08,-1096.78 1112.65,-1079.76 1104.32,-1064.71"/>
<polygon fill="none" stroke="black" points="1107.21,-1062.7 1099.3,-1055.64 1101.08,-1066.09 1107.21,-1062.7"/>
<text text-anchor="middle" x="1152.83" y="-1078.8" font-family="Times,serif" font-size="14.00">observations</text>
</g>
<!-- fcall_lOKLYm&#45;&gt;fcall_v1lLmH -->
<g id="edge34" class="edge"><title>fcall_lOKLYm&#45;&gt;fcall_v1lLmH:center</title>
<path fill="none" stroke="black" d="M905.098,-1115.38C938.407,-1098.88 983.257,-1076.65 1019.65,-1058.62"/>
<polygon fill="none" stroke="black" points="1021.3,-1061.7 1028.7,-1054.13 1018.19,-1055.43 1021.3,-1061.7"/>
<text text-anchor="middle" x="1005.44" y="-1078.8" font-family="Times,serif" font-size="14.00">domain</text>
</g>
<!-- lt_nhG7SX -->
<g id="node29" class="node"><title>lt_nhG7SX</title>
<ellipse fill="white" stroke="black" cx="1358.45" cy="-1140" rx="36.3712" ry="18"/>
<text text-anchor="middle" x="1358.45" y="-1135.8" font-family="Times,serif" font-size="14.00">TRUE</text>
</g>
<!-- lt_nhG7SX&#45;&gt;fcall_v1lLmH -->
<g id="edge35" class="edge"><title>lt_nhG7SX&#45;&gt;fcall_v1lLmH:center</title>
<path fill="none" stroke="black" d="M1331.32,-1127.95C1291.41,-1111.7 1215.36,-1080.72 1157.97,-1057.35"/>
<polygon fill="none" stroke="black" points="1159.16,-1054.06 1148.57,-1053.52 1156.51,-1060.54 1159.16,-1054.06"/>
<text text-anchor="middle" x="1277.27" y="-1078.8" font-family="Times,serif" font-size="14.00">cellsArePoints</text>
</g>
<!-- intZincPointData -->
<g id="node30" class="node"><title>intZincPointData</title>
<ellipse fill="white" stroke="black" cx="1047.45" cy="-218" rx="97.1383" ry="29.5"/>
<text text-anchor="middle" x="1047.45" y="-222.2" font-family="Times,serif" font-size="14.00">intZincPointData </text>
<text text-anchor="middle" x="1047.45" y="-205.4" font-family="Times,serif" font-size="14.00">[S x Q x SExtend set]</text>
</g>
<!-- intZincPointData@observations -->
<g id="node34" class="node"><title>intZincPointData@observations</title>
<ellipse fill="white" stroke="black" cx="1047.45" cy="-120" rx="141" ry="29.5"/>
<text text-anchor="middle" x="1047.45" y="-124.2" font-family="Times,serif" font-size="14.00">intZincPointData@observations </text>
<text text-anchor="middle" x="1047.45" y="-107.4" font-family="Times,serif" font-size="14.00">[S x Q set]</text>
</g>
<!-- intZincPointData&#45;&gt;intZincPointData@observations -->
<g id="edge36" class="edge"><title>intZincPointData&#45;&gt;intZincPointData@observations:center</title>
<path fill="none" stroke="black" d="M1047.45,-188.457C1047.45,-179.446 1047.45,-169.334 1047.45,-159.736"/>
<polygon fill="none" stroke="black" points="1050.95,-159.599 1047.45,-149.599 1043.95,-159.599 1050.95,-159.599"/>
</g>
<!-- fcall_DBJWBO&#45;&gt;intZincPointData -->
<g id="edge37" class="edge"><title>fcall_DBJWBO&#45;&gt;intZincPointData:center</title>
<path fill="none" stroke="red" d="M1047.45,-286.457C1047.45,-277.446 1047.45,-267.334 1047.45,-257.736"/>
<polygon fill="red" stroke="red" points="1050.95,-257.599 1047.45,-247.599 1043.95,-257.599 1050.95,-257.599"/>
</g>
<!-- lt_7eg9mM -->
<g id="node32" class="node"><title>lt_7eg9mM</title>
<ellipse fill="white" stroke="black" cx="1207.45" cy="-430" rx="78.2561" ry="18"/>
<text text-anchor="middle" x="1207.45" y="-425.8" font-family="Times,serif" font-size="14.00">S set &#45;&gt; S x Q set</text>
</g>
<!-- lt_7eg9mM&#45;&gt;fcall_DBJWBO -->
<g id="edge38" class="edge"><title>lt_7eg9mM&#45;&gt;fcall_DBJWBO:center</title>
<path fill="none" stroke="black" d="M1184.18,-412.714C1161.22,-396.646 1125.43,-371.589 1096.22,-351.143"/>
<polygon fill="none" stroke="black" points="1097.98,-348.103 1087.78,-345.236 1093.97,-353.838 1097.98,-348.103"/>
<text text-anchor="middle" x="1164.05" y="-368.8" font-family="Times,serif" font-size="14.00">semantics</text>
</g>
<!-- fcall_mpknt9 -->
<g id="node33" class="node"><title>fcall_mpknt9</title>
<ellipse fill="orange" stroke="black" cx="1269.45" cy="-18" rx="34.4665" ry="18"/>
<text text-anchor="middle" x="1269.45" y="-13.8" font-family="Times,serif" font-size="14.00">spplot</text>
</g>
<!-- intZincPointData@observations&#45;&gt;fcall_mpknt9 -->
<g id="edge39" class="edge"><title>intZincPointData@observations&#45;&gt;fcall_mpknt9:center</title>
<path fill="none" stroke="black" d="M1105.19,-92.9872C1146.41,-74.4204 1200.47,-50.0703 1235.09,-34.4755"/>
<polygon fill="none" stroke="black" points="1236.63,-37.6195 1244.31,-30.3212 1233.76,-31.2371 1236.63,-37.6195"/>
<text text-anchor="middle" x="1199.39" y="-58.8" font-family="Times,serif" font-size="14.00">obj</text>
</g>
<!-- lt_bX3o5h -->
<g id="node35" class="node"><title>lt_bX3o5h</title>
<ellipse fill="white" stroke="black" cx="1359.45" cy="-120" rx="47.1545" ry="18"/>
<text text-anchor="middle" x="1359.45" y="-115.8" font-family="Times,serif" font-size="14.00">var1.pred</text>
</g>
<!-- lt_bX3o5h&#45;&gt;fcall_mpknt9 -->
<g id="edge40" class="edge"><title>lt_bX3o5h&#45;&gt;fcall_mpknt9:center</title>
<path fill="none" stroke="black" d="M1344.58,-102.487C1329.73,-85.9835 1306.77,-60.4716 1290.14,-41.992"/>
<polygon fill="none" stroke="black" points="1292.73,-39.6411 1283.44,-34.5495 1287.53,-44.3239 1292.73,-39.6411"/>
</g>
</g>
</svg>
