<?xml version="1.0" encoding="UTF-8" standalone="no"?>
<!DOCTYPE svg PUBLIC "-//W3C//DTD SVG 1.1//EN"
 "http://www.w3.org/Graphics/SVG/1.1/DTD/svg11.dtd">
<!-- Generated by graphviz version 2.28.0 (20160728.0200)
 -->
<!-- Title: f Pages: 1 -->
<svg width="294pt" height="396pt"
 viewBox="0.00 0.00 294.00 396.25" xmlns="http://www.w3.org/2000/svg" xmlns:xlink="http://www.w3.org/1999/xlink">
<g id="graph1" class="graph" transform="scale(0.266304 0.266304) rotate(0) translate(4 1483.97)">
<title>f</title>
<!-- init_model -->
<g id="node1" class="node"><title>init_model</title>
<ellipse fill="white" stroke="black" cx="495" cy="-624" rx="93.3662" ry="18"/>
<text text-anchor="middle" x="495" y="-619.8" font-family="Times,serif" font-size="14.00">init_model [function]</text>
</g>
<!-- 321 -->
<g id="node25" class="node"><title>321</title>
<ellipse fill="orange" stroke="black" cx="693" cy="-528" rx="94.5662" ry="18"/>
<text text-anchor="middle" x="693" y="-523.8" font-family="Times,serif" font-size="14.00">modelSemivariogram</text>
</g>
<!-- init_model&#45;&gt;321 -->
<g id="edge1" class="edge"><title>init_model&#45;&gt;321:center</title>
<path fill="none" stroke="blue" stroke-dasharray="5,2" d="M528.588,-607.054C562.112,-591.139 613.75,-566.624 650.195,-549.321"/>
<polygon fill="blue" stroke="blue" points="652.046,-552.317 659.578,-544.867 649.043,-545.994 652.046,-552.317"/>
</g>
<!-- def32310 -->
<g id="node2" class="node"><title>def32310</title>
<ellipse fill="orange" stroke="black" cx="495" cy="-704" rx="47.2632" ry="18"/>
<text text-anchor="middle" x="495" y="-699.8" font-family="Times,serif" font-size="14.00">def32310</text>
</g>
<!-- def32310&#45;&gt;init_model -->
<g id="edge2" class="edge"><title>def32310&#45;&gt;init_model:center</title>
<path fill="none" stroke="red" d="M495,-685.689C495,-675.894 495,-663.422 495,-652.335"/>
<polygon fill="red" stroke="red" points="498.5,-652.262 495,-642.262 491.5,-652.262 498.5,-652.262"/>
</g>
<!-- modelSemivariogram -->
<g id="node3" class="node"><title>modelSemivariogram</title>
<ellipse fill="white" stroke="black" cx="743" cy="-624" rx="135.606" ry="18"/>
<text text-anchor="middle" x="743" y="-619.8" font-family="Times,serif" font-size="14.00">modelSemivariogram [function]</text>
</g>
<!-- modelSemivariogram&#45;&gt;321 -->
<g id="edge3" class="edge"><title>modelSemivariogram&#45;&gt;321:center</title>
<path fill="none" stroke="blue" d="M733.829,-605.759C726.288,-591.581 715.482,-571.265 706.881,-555.095"/>
<polygon fill="blue" stroke="blue" points="709.899,-553.317 702.113,-546.132 703.719,-556.604 709.899,-553.317"/>
</g>
<!-- def70973 -->
<g id="node4" class="node"><title>def70973</title>
<ellipse fill="orange" stroke="black" cx="743" cy="-704" rx="47.2632" ry="18"/>
<text text-anchor="middle" x="743" y="-699.8" font-family="Times,serif" font-size="14.00">def70973</text>
</g>
<!-- def70973&#45;&gt;modelSemivariogram -->
<g id="edge4" class="edge"><title>def70973&#45;&gt;modelSemivariogram:center</title>
<path fill="none" stroke="red" d="M743,-685.689C743,-675.894 743,-663.422 743,-652.335"/>
<polygon fill="red" stroke="red" points="746.5,-652.262 743,-642.262 739.5,-652.262 746.5,-652.262"/>
</g>
<!-- getInterpolator -->
<g id="node5" class="node"><title>getInterpolator</title>
<ellipse fill="white" stroke="black" cx="428" cy="-528" rx="109.167" ry="18"/>
<text text-anchor="middle" x="428" y="-523.8" font-family="Times,serif" font-size="14.00">getInterpolator [function]</text>
</g>
<!-- 740 -->
<g id="node24" class="node"><title>740</title>
<ellipse fill="orange" stroke="black" cx="539" cy="-432" rx="68.1275" ry="18"/>
<text text-anchor="middle" x="539" y="-427.8" font-family="Times,serif" font-size="14.00">getInterpolator</text>
</g>
<!-- getInterpolator&#45;&gt;740 -->
<g id="edge5" class="edge"><title>getInterpolator&#45;&gt;740:center</title>
<path fill="none" stroke="blue" d="M447.845,-510.195C465.712,-495.064 492.129,-472.693 511.931,-455.924"/>
<polygon fill="blue" stroke="blue" points="514.33,-458.479 519.699,-449.345 509.806,-453.137 514.33,-458.479"/>
</g>
<!-- def49624 -->
<g id="node6" class="node"><title>def49624</title>
<ellipse fill="orange" stroke="black" cx="336" cy="-624" rx="47.2632" ry="18"/>
<text text-anchor="middle" x="336" y="-619.8" font-family="Times,serif" font-size="14.00">def49624</text>
</g>
<!-- def49624&#45;&gt;getInterpolator -->
<g id="edge6" class="edge"><title>def49624&#45;&gt;getInterpolator:center</title>
<path fill="none" stroke="red" d="M352.025,-606.626C366.49,-591.847 387.959,-569.912 404.388,-553.125"/>
<polygon fill="red" stroke="red" points="407.046,-555.414 411.539,-545.819 402.043,-550.517 407.046,-555.414"/>
</g>
<!-- 700 -->
<g id="node7" class="node"><title>700</title>
<ellipse fill="orange" stroke="black" cx="670" cy="-1364" rx="32.2385" ry="18"/>
<text text-anchor="middle" x="670" y="-1359.8" font-family="Times,serif" font-size="14.00">demo</text>
</g>
<!-- crs -->
<g id="node11" class="node"><title>crs</title>
<ellipse fill="white" stroke="black" cx="285" cy="-1285" rx="27" ry="18"/>
<text text-anchor="middle" x="285" y="-1280.8" font-family="Times,serif" font-size="14.00">crs</text>
</g>
<!-- 700&#45;&gt;crs -->
<g id="edge7" class="edge"><title>700&#45;&gt;crs:center</title>
<path fill="none" stroke="red" stroke-dasharray="5,2" d="M638.037,-1360.42C575.785,-1354.76 434.446,-1338.8 321,-1303 319.072,-1302.39 317.115,-1301.7 315.16,-1300.95"/>
<polygon fill="red" stroke="red" points="316.126,-1297.56 305.554,-1296.87 313.39,-1304 316.126,-1297.56"/>
</g>
<!-- meuse -->
<g id="node12" class="node"><title>meuse</title>
<ellipse fill="white" stroke="black" cx="836" cy="-1285" rx="138.125" ry="18"/>
<text text-anchor="middle" x="836" y="-1280.8" font-family="Times,serif" font-size="14.00">meuse [SpatialPointsDataFrame]</text>
</g>
<!-- 700&#45;&gt;meuse -->
<g id="edge8" class="edge"><title>700&#45;&gt;meuse:center</title>
<path fill="none" stroke="red" stroke-dasharray="5,2" d="M694.138,-1351.8C719.482,-1340.05 759.911,-1321.29 791.137,-1306.81"/>
<polygon fill="red" stroke="red" points="792.907,-1309.85 800.506,-1302.46 789.961,-1303.5 792.907,-1309.85"/>
</g>
<!-- meuse.area -->
<g id="node13" class="node"><title>meuse.area</title>
<ellipse fill="white" stroke="black" cx="677" cy="-1228" rx="125.216" ry="18"/>
<text text-anchor="middle" x="677" y="-1223.8" font-family="Times,serif" font-size="14.00">meuse.area [SpatialPolygons]</text>
</g>
<!-- 700&#45;&gt;meuse.area -->
<g id="edge9" class="edge"><title>700&#45;&gt;meuse.area:center</title>
<path fill="none" stroke="red" stroke-dasharray="5,2" d="M670.901,-1345.76C672.082,-1323.14 674.168,-1283.2 675.568,-1256.42"/>
<polygon fill="red" stroke="red" points="679.076,-1256.35 676.103,-1246.18 672.086,-1255.98 679.076,-1256.35"/>
</g>
<!-- meuse.grid -->
<g id="node14" class="node"><title>meuse.grid</title>
<ellipse fill="white" stroke="black" cx="486" cy="-1285" rx="155.267" ry="18"/>
<text text-anchor="middle" x="486" y="-1280.8" font-family="Times,serif" font-size="14.00">meuse.grid [SpatialPixelsDataFrame]</text>
</g>
<!-- 700&#45;&gt;meuse.grid -->
<g id="edge10" class="edge"><title>700&#45;&gt;meuse.grid:center</title>
<path fill="none" stroke="red" stroke-dasharray="5,2" d="M644.801,-1352.45C616.642,-1340.67 570.368,-1321.31 535.016,-1306.51"/>
<polygon fill="red" stroke="red" points="535.935,-1303.1 525.359,-1302.47 533.233,-1309.56 535.935,-1303.1"/>
</g>
<!-- meuse.riv -->
<g id="node15" class="node"><title>meuse.riv</title>
<ellipse fill="white" stroke="black" cx="1041" cy="-1285" rx="48.2728" ry="18"/>
<text text-anchor="middle" x="1041" y="-1280.8" font-family="Times,serif" font-size="14.00">meuse.riv</text>
</g>
<!-- 700&#45;&gt;meuse.riv -->
<g id="edge11" class="edge"><title>700&#45;&gt;meuse.riv:center</title>
<path fill="none" stroke="red" stroke-dasharray="5,2" d="M700.865,-1358.09C757.252,-1348.9 880.55,-1327.77 983,-1303 986.904,-1302.06 990.938,-1301.01 994.975,-1299.92"/>
<polygon fill="red" stroke="red" points="996.25,-1303.2 1004.94,-1297.15 994.372,-1296.46 996.25,-1303.2"/>
</g>
<!-- 59966 -->
<g id="node8" class="node"><title>59966</title>
<ellipse fill="white" stroke="black" cx="576" cy="-1461" rx="35.5584" ry="18"/>
<text text-anchor="middle" x="576" y="-1456.8" font-family="Times,serif" font-size="14.00">meuse</text>
</g>
<!-- 59966&#45;&gt;700 -->
<g id="edge12" class="edge"><title>59966&#45;&gt;700:center</title>
<path fill="none" stroke="black" d="M591.522,-1444.31C606.807,-1428.87 630.311,-1405.11 647.614,-1387.62"/>
<polygon fill="none" stroke="black" points="650.531,-1389.65 655.076,-1380.08 645.555,-1384.73 650.531,-1389.65"/>
<text text-anchor="middle" x="641.998" y="-1408.8" font-family="Times,serif" font-size="14.00">topic</text>
</g>
<!-- 30035 -->
<g id="node9" class="node"><title>30035</title>
<ellipse fill="white" stroke="black" cx="670" cy="-1461" rx="40.3147" ry="18"/>
<text text-anchor="middle" x="670" y="-1456.8" font-family="Times,serif" font-size="14.00">FALSE</text>
</g>
<!-- 30035&#45;&gt;700 -->
<g id="edge13" class="edge"><title>30035&#45;&gt;700:center</title>
<path fill="none" stroke="black" d="M670,-1442.58C670,-1428.65 670,-1408.86 670,-1392.76"/>
<polygon fill="none" stroke="black" points="673.5,-1392.31 670,-1382.31 666.5,-1392.31 673.5,-1392.31"/>
<text text-anchor="middle" x="683.215" y="-1408.8" font-family="Times,serif" font-size="14.00">echo</text>
</g>
<!-- 63723 -->
<g id="node10" class="node"><title>63723</title>
<ellipse fill="white" stroke="black" cx="769" cy="-1461" rx="40.3147" ry="18"/>
<text text-anchor="middle" x="769" y="-1456.8" font-family="Times,serif" font-size="14.00">FALSE</text>
</g>
<!-- 63723&#45;&gt;700 -->
<g id="edge14" class="edge"><title>63723&#45;&gt;700:center</title>
<path fill="none" stroke="black" d="M752.652,-1444.31C736.41,-1428.73 711.354,-1404.68 693.086,-1387.15"/>
<polygon fill="none" stroke="black" points="695.356,-1384.48 685.718,-1380.08 690.51,-1389.53 695.356,-1384.48"/>
<text text-anchor="middle" x="737.33" y="-1408.8" font-family="Times,serif" font-size="14.00">ask</text>
</g>
<!-- meuse$zinc -->
<g id="node19" class="node"><title>meuse$zinc</title>
<ellipse fill="white" stroke="black" cx="836" cy="-1170" rx="97.1575" ry="18"/>
<text text-anchor="middle" x="836" y="-1165.8" font-family="Times,serif" font-size="14.00">meuse$zinc [numeric]</text>
</g>
<!-- meuse&#45;&gt;meuse$zinc -->
<g id="edge15" class="edge"><title>meuse&#45;&gt;meuse$zinc:center</title>
<path fill="none" stroke="black" d="M836,-1266.84C836,-1248.67 836,-1219.72 836,-1198.39"/>
<polygon fill="none" stroke="black" points="839.5,-1198.32 836,-1188.32 832.5,-1198.32 839.5,-1198.32"/>
</g>
<!-- 330 -->
<g id="node21" class="node"><title>330</title>
<ellipse fill="orange" stroke="black" cx="883" cy="-704" rx="35.8859" ry="18"/>
<text text-anchor="middle" x="883" y="-699.8" font-family="Times,serif" font-size="14.00">SField</text>
</g>
<!-- meuse.area&#45;&gt;330 -->
<g id="edge16" class="edge"><title>meuse.area&#45;&gt;330:center</title>
<path fill="none" stroke="black" d="M678.876,-1209.73C680.949,-1189.11 684,-1153.58 684,-1123 684,-1123 684,-1123 684,-799 684,-764.416 783.509,-731.739 841.793,-715.566"/>
<polygon fill="none" stroke="black" points="842.741,-718.935 851.468,-712.927 840.899,-712.182 842.741,-718.935"/>
<text text-anchor="middle" x="704.998" y="-989.8" font-family="Times,serif" font-size="14.00">domain</text>
</g>
<!-- 748 -->
<g id="node28" class="node"><title>748</title>
<ellipse fill="orange" stroke="black" cx="373" cy="-1170" rx="47.2589" ry="18"/>
<text text-anchor="middle" x="373" y="-1165.8" font-family="Times,serif" font-size="14.00">geometry</text>
</g>
<!-- meuse.grid&#45;&gt;748 -->
<g id="edge17" class="edge"><title>meuse.grid&#45;&gt;748:center</title>
<path fill="none" stroke="black" d="M468.838,-1266.84C449.507,-1247.51 417.982,-1215.98 396.403,-1194.4"/>
<polygon fill="none" stroke="black" points="398.768,-1191.82 389.222,-1187.22 393.818,-1196.77 398.768,-1191.82"/>
<text text-anchor="middle" x="454.945" y="-1223.8" font-family="Times,serif" font-size="14.00">obj</text>
</g>
<!-- 596 -->
<g id="node29" class="node"><title>596</title>
<ellipse fill="orange" stroke="black" cx="486" cy="-1170" rx="47.2589" ry="18"/>
<text text-anchor="middle" x="486" y="-1165.8" font-family="Times,serif" font-size="14.00">geometry</text>
</g>
<!-- meuse.grid&#45;&gt;596 -->
<g id="edge18" class="edge"><title>meuse.grid&#45;&gt;596:center</title>
<path fill="none" stroke="black" d="M486,-1266.84C486,-1248.67 486,-1219.72 486,-1198.39"/>
<polygon fill="none" stroke="black" points="489.5,-1198.32 486,-1188.32 482.5,-1198.32 489.5,-1198.32"/>
<text text-anchor="middle" x="494.945" y="-1223.8" font-family="Times,serif" font-size="14.00">obj</text>
</g>
<!-- meuse~2 -->
<g id="node16" class="node"><title>meuse~2</title>
<ellipse fill="white" stroke="black" cx="866" cy="-879" rx="148.203" ry="18"/>
<text text-anchor="middle" x="866" y="-874.8" font-family="Times,serif" font-size="14.00">meuse~2 [SpatialPointsDataFrame]</text>
</g>
<!-- meuse[&quot;lzinc&quot;] -->
<g id="node22" class="node"><title>meuse[&quot;lzinc&quot;]</title>
<ellipse fill="white" stroke="black" cx="883" cy="-800" rx="171.24" ry="18"/>
<text text-anchor="middle" x="883" y="-795.8" font-family="Times,serif" font-size="14.00">meuse[&quot;lzinc&quot;] [SpatialPointsDataFrame]</text>
</g>
<!-- meuse~2&#45;&gt;meuse[&quot;lzinc&quot;] -->
<g id="edge19" class="edge"><title>meuse~2&#45;&gt;meuse[&quot;lzinc&quot;]:center</title>
<path fill="none" stroke="black" d="M869.773,-860.911C871.908,-851.241 874.626,-838.929 877.042,-827.985"/>
<polygon fill="none" stroke="black" points="880.499,-828.56 879.238,-818.041 873.664,-827.051 880.499,-828.56"/>
</g>
<!-- meuse$lzinc -->
<g id="node17" class="node"><title>meuse$lzinc</title>
<ellipse fill="white" stroke="black" cx="849" cy="-994" rx="99.1843" ry="18"/>
<text text-anchor="middle" x="849" y="-989.8" font-family="Times,serif" font-size="14.00">meuse$lzinc [numeric]</text>
</g>
<!-- meuse$lzinc&#45;&gt;meuse~2 -->
<g id="edge20" class="edge"><title>meuse$lzinc&#45;&gt;meuse~2:center</title>
<path fill="none" stroke="red" d="M851.582,-975.838C854.315,-957.669 858.67,-928.725 861.879,-907.394"/>
<polygon fill="red" stroke="red" points="865.367,-907.733 863.394,-897.324 858.445,-906.692 865.367,-907.733"/>
</g>
<!-- 347 -->
<g id="node18" class="node"><title>347</title>
<ellipse fill="orange" stroke="black" cx="841" cy="-1074" rx="27" ry="18"/>
<text text-anchor="middle" x="841" y="-1069.8" font-family="Times,serif" font-size="14.00">log</text>
</g>
<!-- 347&#45;&gt;meuse$lzinc -->
<g id="edge21" class="edge"><title>347&#45;&gt;meuse$lzinc:center</title>
<path fill="none" stroke="red" d="M842.775,-1055.69C843.78,-1045.89 845.059,-1033.42 846.196,-1022.33"/>
<polygon fill="red" stroke="red" points="849.691,-1022.57 847.23,-1012.26 842.727,-1021.85 849.691,-1022.57"/>
</g>
<!-- meuse$zinc&#45;&gt;347 -->
<g id="edge22" class="edge"><title>meuse$zinc&#45;&gt;347:center</title>
<path fill="none" stroke="black" d="M836.917,-1151.76C837.65,-1137.98 838.692,-1118.4 839.539,-1102.47"/>
<polygon fill="none" stroke="black" points="843.053,-1102.3 840.089,-1092.13 836.062,-1101.93 843.053,-1102.3"/>
</g>
<!-- zincPointData -->
<g id="node20" class="node"><title>zincPointData</title>
<ellipse fill="white" stroke="black" cx="997" cy="-624" rx="99.2102" ry="18"/>
<text text-anchor="middle" x="997" y="-619.8" font-family="Times,serif" font-size="14.00">zincPointData [SField]</text>
</g>
<!-- zincPointData&#45;&gt;740 -->
<g id="edge24" class="edge"><title>zincPointData&#45;&gt;740:center</title>
<path fill="none" stroke="black" d="M971.538,-606.425C934.214,-582.659 861.914,-538.617 796,-510 743.395,-487.161 727.926,-487.492 673,-471 647.149,-463.238 618.366,-455.021 594.122,-448.22"/>
<polygon fill="none" stroke="black" points="594.953,-444.818 584.379,-445.495 593.067,-451.56 594.953,-444.818"/>
<text text-anchor="middle" x="895.604" y="-523.8" font-family="Times,serif" font-size="14.00">pointData</text>
</g>
<!-- zincPointData&#45;&gt;321 -->
<g id="edge23" class="edge"><title>zincPointData&#45;&gt;321:center</title>
<path fill="none" stroke="black" d="M935.317,-609.846C906.389,-603.206 871.585,-594.539 840.792,-585 806.413,-574.35 768.463,-559.911 739.627,-548.363"/>
<polygon fill="none" stroke="black" points="740.799,-545.061 730.216,-544.567 738.181,-551.553 740.799,-545.061"/>
<text text-anchor="middle" x="867.604" y="-571.8" font-family="Times,serif" font-size="14.00">pointData</text>
</g>
<!-- 330&#45;&gt;zincPointData -->
<g id="edge25" class="edge"><title>330&#45;&gt;zincPointData:center</title>
<path fill="none" stroke="red" d="M903.381,-689.055C920.341,-677.451 944.801,-660.715 964.466,-647.26"/>
<polygon fill="red" stroke="red" points="966.564,-650.065 972.841,-641.53 962.611,-644.288 966.564,-650.065"/>
</g>
<!-- meuse[&quot;lzinc&quot;]&#45;&gt;330 -->
<g id="edge26" class="edge"><title>meuse[&quot;lzinc&quot;]&#45;&gt;330:center</title>
<path fill="none" stroke="black" d="M883,-781.759C883,-767.978 883,-748.4 883,-732.465"/>
<polygon fill="none" stroke="black" points="886.5,-732.132 883,-722.132 879.5,-732.132 886.5,-732.132"/>
<text text-anchor="middle" x="918.38" y="-747.8" font-family="Times,serif" font-size="14.00">observations</text>
</g>
<!-- interpolator -->
<g id="node23" class="node"><title>interpolator</title>
<ellipse fill="white" stroke="black" cx="376" cy="-353" rx="97.172" ry="18"/>
<text text-anchor="middle" x="376" y="-348.8" font-family="Times,serif" font-size="14.00">interpolator [function]</text>
</g>
<!-- 213 -->
<g id="node32" class="node"><title>213</title>
<ellipse fill="orange" stroke="black" cx="248" cy="-274" rx="56.1322" ry="18"/>
<text text-anchor="middle" x="248" y="-269.8" font-family="Times,serif" font-size="14.00">interpolator</text>
</g>
<!-- interpolator&#45;&gt;213 -->
<g id="edge27" class="edge"><title>interpolator&#45;&gt;213:center</title>
<path fill="none" stroke="blue" d="M348.854,-335.67C329.334,-323.927 302.875,-308.011 281.955,-295.426"/>
<polygon fill="blue" stroke="blue" points="283.738,-292.414 273.365,-290.259 280.13,-298.413 283.738,-292.414"/>
</g>
<!-- 740&#45;&gt;interpolator -->
<g id="edge28" class="edge"><title>740&#45;&gt;interpolator:center</title>
<path fill="none" stroke="red" d="M507.185,-415.971C481.964,-404.056 446.477,-387.293 418.77,-374.204"/>
<polygon fill="red" stroke="red" points="420.236,-371.026 409.699,-369.919 417.246,-377.355 420.236,-371.026"/>
</g>
<!-- 321&#45;&gt;740 -->
<g id="edge29" class="edge"><title>321&#45;&gt;740:center</title>
<path fill="none" stroke="black" d="M666.175,-510.626C640.437,-494.916 601.45,-471.119 573.43,-454.016"/>
<polygon fill="none" stroke="black" points="575.108,-450.94 564.749,-448.717 571.461,-456.914 575.108,-450.94"/>
<text text-anchor="middle" x="649.212" y="-475.8" font-family="Times,serif" font-size="14.00">params</text>
</g>
<!-- locInterest -->
<g id="node26" class="node"><title>locInterest</title>
<ellipse fill="white" stroke="black" cx="229" cy="-937" rx="85.2801" ry="18"/>
<text text-anchor="middle" x="229" y="-932.8" font-family="Times,serif" font-size="14.00">locInterest [SField]</text>
</g>
<!-- locInterest&#45;&gt;213 -->
<g id="edge30" class="edge"><title>locInterest&#45;&gt;213:center</title>
<path fill="none" stroke="black" d="M219.572,-918.879C210.133,-900.107 197,-868.812 197,-840 197,-840 197,-840 197,-352 197,-331.571 209.632,-312.405 222.323,-298.304"/>
<polygon fill="none" stroke="black" points="224.913,-300.66 229.299,-291.015 219.856,-295.819 224.913,-300.66"/>
<text text-anchor="middle" x="233.924" y="-619.8" font-family="Times,serif" font-size="14.00">locOfInterest</text>
</g>
<!-- 303 -->
<g id="node27" class="node"><title>303</title>
<ellipse fill="orange" stroke="black" cx="445" cy="-1074" rx="35.8859" ry="18"/>
<text text-anchor="middle" x="445" y="-1069.8" font-family="Times,serif" font-size="14.00">SField</text>
</g>
<!-- 303&#45;&gt;locInterest -->
<g id="edge31" class="edge"><title>303&#45;&gt;locInterest:center</title>
<path fill="none" stroke="red" d="M423.1,-1059.31C385.495,-1035.81 308.367,-987.605 263.484,-959.553"/>
<polygon fill="red" stroke="red" points="265.294,-956.556 254.959,-954.224 261.584,-962.492 265.294,-956.556"/>
</g>
<!-- 748&#45;&gt;303 -->
<g id="edge32" class="edge"><title>748&#45;&gt;303:center</title>
<path fill="none" stroke="black" d="M373.725,-1151.97C374.973,-1140.1 378.176,-1124.43 386.24,-1113 392.281,-1104.44 400.921,-1097.33 409.723,-1091.67"/>
<polygon fill="none" stroke="black" points="411.659,-1094.59 418.49,-1086.5 408.099,-1088.57 411.659,-1094.59"/>
<text text-anchor="middle" x="422.38" y="-1117.8" font-family="Times,serif" font-size="14.00">observations</text>
</g>
<!-- 596&#45;&gt;303 -->
<g id="edge33" class="edge"><title>596&#45;&gt;303:center</title>
<path fill="none" stroke="black" d="M478.67,-1152.19C472.49,-1138.03 463.54,-1117.51 456.421,-1101.19"/>
<polygon fill="none" stroke="black" points="459.473,-1099.43 452.267,-1091.66 453.056,-1102.23 459.473,-1099.43"/>
<text text-anchor="middle" x="489.998" y="-1117.8" font-family="Times,serif" font-size="14.00">domain</text>
</g>
<!-- 28212 -->
<g id="node30" class="node"><title>28212</title>
<ellipse fill="white" stroke="black" cx="588" cy="-1170" rx="36.3712" ry="18"/>
<text text-anchor="middle" x="588" y="-1165.8" font-family="Times,serif" font-size="14.00">TRUE</text>
</g>
<!-- 28212&#45;&gt;303 -->
<g id="edge34" class="edge"><title>28212&#45;&gt;303:center</title>
<path fill="none" stroke="black" d="M569.983,-1154.2C555.318,-1142.44 533.867,-1125.89 514,-1113 502.685,-1105.66 489.846,-1098.33 478.338,-1092.1"/>
<polygon fill="none" stroke="black" points="479.918,-1088.98 469.448,-1087.36 476.623,-1095.15 479.918,-1088.98"/>
<text text-anchor="middle" x="579.823" y="-1117.8" font-family="Times,serif" font-size="14.00">cellsArePoints</text>
</g>
<!-- intZincPointData -->
<g id="node31" class="node"><title>intZincPointData</title>
<ellipse fill="white" stroke="black" cx="248" cy="-195" rx="111.422" ry="18"/>
<text text-anchor="middle" x="248" y="-190.8" font-family="Times,serif" font-size="14.00">intZincPointData [SField]</text>
</g>
<!-- intZincPointData@observations[1] -->
<g id="node34" class="node"><title>intZincPointData@observations[1]</title>
<ellipse fill="white" stroke="black" cx="248" cy="-115" rx="248.52" ry="18"/>
<text text-anchor="middle" x="248" y="-110.8" font-family="Times,serif" font-size="14.00">intZincPointData@observations[1] [SpatialPixelsDataFrame]</text>
</g>
<!-- intZincPointData&#45;&gt;intZincPointData@observations[1] -->
<g id="edge35" class="edge"><title>intZincPointData&#45;&gt;intZincPointData@observations[1]:center</title>
<path fill="none" stroke="black" d="M248,-176.689C248,-166.894 248,-154.422 248,-143.335"/>
<polygon fill="none" stroke="black" points="251.5,-143.262 248,-133.262 244.5,-143.262 251.5,-143.262"/>
</g>
<!-- 213&#45;&gt;intZincPointData -->
<g id="edge36" class="edge"><title>213&#45;&gt;intZincPointData:center</title>
<path fill="none" stroke="red" d="M248,-255.911C248,-246.341 248,-234.183 248,-223.323"/>
<polygon fill="red" stroke="red" points="251.5,-223.041 248,-213.041 244.5,-223.041 251.5,-223.041"/>
</g>
<!-- 233 -->
<g id="node33" class="node"><title>233</title>
<ellipse fill="orange" stroke="black" cx="248" cy="-19" rx="34.4665" ry="18"/>
<text text-anchor="middle" x="248" y="-14.8" font-family="Times,serif" font-size="14.00">spplot</text>
</g>
<!-- intZincPointData@observations[1]&#45;&gt;233 -->
<g id="edge37" class="edge"><title>intZincPointData@observations[1]&#45;&gt;233:center</title>
<path fill="none" stroke="black" d="M248,-96.759C248,-82.9784 248,-63.3997 248,-47.4651"/>
<polygon fill="none" stroke="black" points="251.5,-47.1317 248,-37.1317 244.5,-47.1318 251.5,-47.1317"/>
<text text-anchor="middle" x="256.945" y="-62.8" font-family="Times,serif" font-size="14.00">obj</text>
</g>
</g>
</svg>
