<?xml version="1.0" encoding="UTF-8" standalone="no"?>
<!DOCTYPE svg PUBLIC "-//W3C//DTD SVG 1.1//EN"
 "http://www.w3.org/Graphics/SVG/1.1/DTD/svg11.dtd">
<!-- Generated by graphviz version 2.28.0 (20160728.0200)
 -->
<!-- Title: f Pages: 1 -->
<svg width="419pt" height="589pt"
 viewBox="0.00 0.00 419.00 588.86" xmlns="http://www.w3.org/2000/svg" xmlns:xlink="http://www.w3.org/1999/xlink">
<g id="graph1" class="graph" transform="scale(0.350509 0.350509) rotate(0) translate(4 1676)">
<title>f</title>
<!-- init_model -->
<g id="node1" class="node"><title>init_model</title>
<ellipse fill="white" stroke="black" cx="515.189" cy="-692" rx="56.2887" ry="29.5"/>
<text text-anchor="middle" x="515.189" y="-696.2" font-family="Times,serif" font-size="14.00">init_model </text>
<text text-anchor="middle" x="515.189" y="-679.4" font-family="Times,serif" font-size="14.00">[function]</text>
</g>
<!-- 956 -->
<g id="node25" class="node"><title>956</title>
<ellipse fill="orange" stroke="black" cx="712.189" cy="-578" rx="94.5662" ry="18"/>
<text text-anchor="middle" x="712.189" y="-573.8" font-family="Times,serif" font-size="14.00">modelSemivariogram</text>
</g>
<!-- init_model&#45;&gt;956 -->
<g id="edge1" class="edge"><title>init_model&#45;&gt;956:center</title>
<path fill="none" stroke="blue" stroke-dasharray="5,2" d="M552.707,-669.67C587.755,-649.744 639.784,-620.164 674.792,-600.261"/>
<polygon fill="blue" stroke="blue" points="676.782,-603.156 683.746,-595.171 673.323,-597.071 676.782,-603.156"/>
</g>
<!-- def28757 -->
<g id="node2" class="node"><title>def28757</title>
<ellipse fill="orange" stroke="black" cx="515.189" cy="-778" rx="47.2632" ry="18"/>
<text text-anchor="middle" x="515.189" y="-773.8" font-family="Times,serif" font-size="14.00">def28757</text>
</g>
<!-- def28757&#45;&gt;init_model -->
<g id="edge2" class="edge"><title>def28757&#45;&gt;init_model:center</title>
<path fill="none" stroke="red" d="M515.189,-759.595C515.189,-751.463 515.189,-741.432 515.189,-731.646"/>
<polygon fill="red" stroke="red" points="518.689,-731.625 515.189,-721.625 511.689,-731.625 518.689,-731.625"/>
</g>
<!-- modelSemivariogram -->
<g id="node3" class="node"><title>modelSemivariogram</title>
<ellipse fill="white" stroke="black" cx="756.189" cy="-692" rx="99.25" ry="29.5"/>
<text text-anchor="middle" x="756.189" y="-696.2" font-family="Times,serif" font-size="14.00">modelSemivariogram </text>
<text text-anchor="middle" x="756.189" y="-679.4" font-family="Times,serif" font-size="14.00">[function]</text>
</g>
<!-- modelSemivariogram&#45;&gt;956 -->
<g id="edge3" class="edge"><title>modelSemivariogram&#45;&gt;956:center</title>
<path fill="none" stroke="blue" d="M744.972,-662.448C738.076,-644.894 729.302,-622.561 722.567,-605.416"/>
<polygon fill="blue" stroke="blue" points="725.781,-604.025 718.866,-595.997 719.265,-606.584 725.781,-604.025"/>
</g>
<!-- def78830 -->
<g id="node4" class="node"><title>def78830</title>
<ellipse fill="orange" stroke="black" cx="756.189" cy="-778" rx="47.2632" ry="18"/>
<text text-anchor="middle" x="756.189" y="-773.8" font-family="Times,serif" font-size="14.00">def78830</text>
</g>
<!-- def78830&#45;&gt;modelSemivariogram -->
<g id="edge4" class="edge"><title>def78830&#45;&gt;modelSemivariogram:center</title>
<path fill="none" stroke="red" d="M756.189,-759.595C756.189,-751.463 756.189,-741.432 756.189,-731.646"/>
<polygon fill="red" stroke="red" points="759.689,-731.625 756.189,-721.625 752.689,-731.625 759.689,-731.625"/>
</g>
<!-- getInterpolator -->
<g id="node5" class="node"><title>getInterpolator</title>
<ellipse fill="white" stroke="black" cx="423.189" cy="-578" rx="72.25" ry="29.5"/>
<text text-anchor="middle" x="423.189" y="-582.2" font-family="Times,serif" font-size="14.00">getInterpolator </text>
<text text-anchor="middle" x="423.189" y="-565.4" font-family="Times,serif" font-size="14.00">[function]</text>
</g>
<!-- 456 -->
<g id="node24" class="node"><title>456</title>
<ellipse fill="orange" stroke="black" cx="547.189" cy="-476" rx="68.1275" ry="18"/>
<text text-anchor="middle" x="547.189" y="-471.8" font-family="Times,serif" font-size="14.00">getInterpolator</text>
</g>
<!-- getInterpolator&#45;&gt;456 -->
<g id="edge5" class="edge"><title>getInterpolator&#45;&gt;456:center</title>
<path fill="none" stroke="blue" d="M455.122,-551.248C474.875,-535.318 500,-515.056 519.011,-499.724"/>
<polygon fill="blue" stroke="blue" points="521.425,-502.274 527.012,-493.272 517.031,-496.825 521.425,-502.274"/>
</g>
<!-- def40897 -->
<g id="node6" class="node"><title>def40897</title>
<ellipse fill="orange" stroke="black" cx="347.189" cy="-692" rx="47.2632" ry="18"/>
<text text-anchor="middle" x="347.189" y="-687.8" font-family="Times,serif" font-size="14.00">def40897</text>
</g>
<!-- def40897&#45;&gt;getInterpolator -->
<g id="edge6" class="edge"><title>def40897&#45;&gt;getInterpolator:center</title>
<path fill="none" stroke="red" d="M358.403,-674.474C368.953,-658.927 385.107,-635.121 398.644,-615.171"/>
<polygon fill="red" stroke="red" points="401.543,-617.132 404.262,-606.892 395.751,-613.202 401.543,-617.132"/>
</g>
<!-- 883 -->
<g id="node7" class="node"><title>883</title>
<ellipse fill="orange" stroke="black" cx="696.189" cy="-1564" rx="32.2385" ry="18"/>
<text text-anchor="middle" x="696.189" y="-1559.8" font-family="Times,serif" font-size="14.00">demo</text>
</g>
<!-- crs -->
<g id="node11" class="node"><title>crs</title>
<ellipse fill="white" stroke="black" cx="417.189" cy="-1478" rx="27" ry="29.5"/>
<text text-anchor="middle" x="417.189" y="-1482.2" font-family="Times,serif" font-size="14.00">crs </text>
<text text-anchor="middle" x="417.189" y="-1465.4" font-family="Times,serif" font-size="14.00">[&#39;a]</text>
</g>
<!-- 883&#45;&gt;crs -->
<g id="edge7" class="edge"><title>883&#45;&gt;crs:center</title>
<path fill="none" stroke="red" stroke-dasharray="5,2" d="M667.169,-1556.01C627.704,-1546.31 555.05,-1527.7 494.189,-1508 480.218,-1503.48 465.052,-1497.91 451.902,-1492.87"/>
<polygon fill="red" stroke="red" points="452.882,-1489.5 442.293,-1489.14 450.35,-1496.02 452.882,-1489.5"/>
</g>
<!-- meuse -->
<g id="node12" class="node"><title>meuse</title>
<ellipse fill="white" stroke="black" cx="810.189" cy="-1478" rx="53.1588" ry="29.5"/>
<text text-anchor="middle" x="810.189" y="-1482.2" font-family="Times,serif" font-size="14.00">meuse </text>
<text text-anchor="middle" x="810.189" y="-1465.4" font-family="Times,serif" font-size="14.00">[S x Q set]</text>
</g>
<!-- 883&#45;&gt;meuse -->
<g id="edge8" class="edge"><title>883&#45;&gt;meuse:center</title>
<path fill="none" stroke="red" stroke-dasharray="5,2" d="M715.014,-1549.13C730.108,-1538.01 751.812,-1522.01 770.684,-1508.11"/>
<polygon fill="red" stroke="red" points="772.87,-1510.85 778.845,-1502.1 768.718,-1505.21 772.87,-1510.85"/>
</g>
<!-- meuse.area -->
<g id="node13" class="node"><title>meuse.area</title>
<ellipse fill="white" stroke="black" cx="738.189" cy="-1400" rx="57.5" ry="29.5"/>
<text text-anchor="middle" x="738.189" y="-1404.2" font-family="Times,serif" font-size="14.00">meuse.area </text>
<text text-anchor="middle" x="738.189" y="-1387.4" font-family="Times,serif" font-size="14.00">[R set]</text>
</g>
<!-- 883&#45;&gt;meuse.area -->
<g id="edge9" class="edge"><title>883&#45;&gt;meuse.area:center</title>
<path fill="none" stroke="red" stroke-dasharray="5,2" d="M700.604,-1545.97C707.113,-1520.86 719.457,-1473.25 728.221,-1439.45"/>
<polygon fill="red" stroke="red" points="731.694,-1440 730.815,-1429.44 724.918,-1438.24 731.694,-1440"/>
</g>
<!-- meuse.grid -->
<g id="node14" class="node"><title>meuse.grid</title>
<ellipse fill="white" stroke="black" cx="560.189" cy="-1478" rx="57.25" ry="29.5"/>
<text text-anchor="middle" x="560.189" y="-1482.2" font-family="Times,serif" font-size="14.00">meuse.grid </text>
<text text-anchor="middle" x="560.189" y="-1465.4" font-family="Times,serif" font-size="14.00">[S x Q set]</text>
</g>
<!-- 883&#45;&gt;meuse.grid -->
<g id="edge10" class="edge"><title>883&#45;&gt;meuse.grid:center</title>
<path fill="none" stroke="red" stroke-dasharray="5,2" d="M675.237,-1550.06C656.457,-1538.46 628.286,-1521.06 604.522,-1506.38"/>
<polygon fill="red" stroke="red" points="606.339,-1503.39 595.992,-1501.11 602.66,-1509.35 606.339,-1503.39"/>
</g>
<!-- meuse.riv -->
<g id="node15" class="node"><title>meuse.riv</title>
<ellipse fill="white" stroke="black" cx="981.189" cy="-1478" rx="52.25" ry="29.5"/>
<text text-anchor="middle" x="981.189" y="-1482.2" font-family="Times,serif" font-size="14.00">meuse.riv </text>
<text text-anchor="middle" x="981.189" y="-1465.4" font-family="Times,serif" font-size="14.00">[R set]</text>
</g>
<!-- 883&#45;&gt;meuse.riv -->
<g id="edge11" class="edge"><title>883&#45;&gt;meuse.riv:center</title>
<path fill="none" stroke="red" stroke-dasharray="5,2" d="M724.035,-1554.79C770.605,-1541.07 865.136,-1513.21 925.697,-1495.36"/>
<polygon fill="red" stroke="red" points="926.879,-1498.66 935.482,-1492.47 924.9,-1491.94 926.879,-1498.66"/>
</g>
<!-- 94046 -->
<g id="node8" class="node"><title>94046</title>
<ellipse fill="white" stroke="black" cx="567.189" cy="-1654" rx="35.5584" ry="18"/>
<text text-anchor="middle" x="567.189" y="-1649.8" font-family="Times,serif" font-size="14.00">meuse</text>
</g>
<!-- 94046&#45;&gt;883 -->
<g id="edge12" class="edge"><title>94046&#45;&gt;883:center</title>
<path fill="none" stroke="black" d="M587.629,-1639.06C609.269,-1624.29 643.582,-1600.89 667.832,-1584.34"/>
<polygon fill="none" stroke="black" points="669.979,-1587.12 676.268,-1578.59 666.035,-1581.33 669.979,-1587.12"/>
<text text-anchor="middle" x="657.187" y="-1604.8" font-family="Times,serif" font-size="14.00">topic</text>
</g>
<!-- 4555 -->
<g id="node9" class="node"><title>4555</title>
<ellipse fill="white" stroke="black" cx="696.189" cy="-1654" rx="40.3147" ry="18"/>
<text text-anchor="middle" x="696.189" y="-1649.8" font-family="Times,serif" font-size="14.00">FALSE</text>
</g>
<!-- 4555&#45;&gt;883 -->
<g id="edge13" class="edge"><title>4555&#45;&gt;883:center</title>
<path fill="none" stroke="black" d="M696.189,-1635.61C696.189,-1623.24 696.189,-1606.37 696.189,-1592.22"/>
<polygon fill="none" stroke="black" points="699.689,-1592.05 696.189,-1582.05 692.689,-1592.05 699.689,-1592.05"/>
<text text-anchor="middle" x="709.404" y="-1604.8" font-family="Times,serif" font-size="14.00">echo</text>
</g>
<!-- 52810 -->
<g id="node10" class="node"><title>52810</title>
<ellipse fill="white" stroke="black" cx="833.189" cy="-1654" rx="40.3147" ry="18"/>
<text text-anchor="middle" x="833.189" y="-1649.8" font-family="Times,serif" font-size="14.00">FALSE</text>
</g>
<!-- 52810&#45;&gt;883 -->
<g id="edge14" class="edge"><title>52810&#45;&gt;883:center</title>
<path fill="none" stroke="black" d="M811.178,-1638.86C787.902,-1623.91 751.069,-1600.25 725.382,-1583.75"/>
<polygon fill="none" stroke="black" points="727.107,-1580.7 716.801,-1578.24 723.323,-1586.59 727.107,-1580.7"/>
<text text-anchor="middle" x="785.519" y="-1604.8" font-family="Times,serif" font-size="14.00">ask</text>
</g>
<!-- meuse$zinc -->
<g id="node19" class="node"><title>meuse$zinc</title>
<ellipse fill="white" stroke="black" cx="891.189" cy="-1322" rx="60.25" ry="29.5"/>
<text text-anchor="middle" x="891.189" y="-1326.2" font-family="Times,serif" font-size="14.00">meuse$zinc </text>
<text text-anchor="middle" x="891.189" y="-1309.4" font-family="Times,serif" font-size="14.00">[Q set]</text>
</g>
<!-- meuse&#45;&gt;meuse$zinc -->
<g id="edge15" class="edge"><title>meuse&#45;&gt;meuse$zinc:center</title>
<path fill="none" stroke="black" d="M824.67,-1449.47C837.835,-1424.44 857.359,-1387.32 871.854,-1359.76"/>
<polygon fill="none" stroke="black" points="875.003,-1361.29 876.56,-1350.81 868.807,-1358.03 875.003,-1361.29"/>
</g>
<!-- 551 -->
<g id="node21" class="node"><title>551</title>
<ellipse fill="orange" stroke="black" cx="936.189" cy="-778" rx="35.8859" ry="18"/>
<text text-anchor="middle" x="936.189" y="-773.8" font-family="Times,serif" font-size="14.00">SField</text>
</g>
<!-- meuse.area&#45;&gt;551 -->
<g id="edge16" class="edge"><title>meuse.area&#45;&gt;551:center</title>
<path fill="none" stroke="black" d="M747.668,-1370.82C755.791,-1344.15 766.189,-1302.81 766.189,-1266 766.189,-1266 766.189,-1266 766.189,-879 766.189,-820.697 841.393,-795.713 891.763,-785.517"/>
<polygon fill="none" stroke="black" points="892.615,-788.918 901.787,-783.615 891.31,-782.041 892.615,-788.918"/>
<text text-anchor="middle" x="787.187" y="-1129.8" font-family="Times,serif" font-size="14.00">domain</text>
</g>
<!-- 677 -->
<g id="node28" class="node"><title>677</title>
<ellipse fill="orange" stroke="black" cx="359.189" cy="-1322" rx="47.2589" ry="18"/>
<text text-anchor="middle" x="359.189" y="-1317.8" font-family="Times,serif" font-size="14.00">geometry</text>
</g>
<!-- meuse.grid&#45;&gt;677 -->
<g id="edge17" class="edge"><title>meuse.grid&#45;&gt;677:center</title>
<path fill="none" stroke="black" d="M528.783,-1452.94C489.981,-1423.21 424.548,-1373.08 387.321,-1344.55"/>
<polygon fill="none" stroke="black" points="389.449,-1341.77 379.382,-1338.47 385.191,-1347.33 389.449,-1341.77"/>
<text text-anchor="middle" x="504.134" y="-1395.8" font-family="Times,serif" font-size="14.00">obj</text>
</g>
<!-- 572 -->
<g id="node29" class="node"><title>572</title>
<ellipse fill="orange" stroke="black" cx="515.189" cy="-1322" rx="47.2589" ry="18"/>
<text text-anchor="middle" x="515.189" y="-1317.8" font-family="Times,serif" font-size="14.00">geometry</text>
</g>
<!-- meuse.grid&#45;&gt;572 -->
<g id="edge18" class="edge"><title>meuse.grid&#45;&gt;572:center</title>
<path fill="none" stroke="black" d="M551.935,-1448.75C543.701,-1420.57 531.141,-1377.59 523.048,-1349.9"/>
<polygon fill="none" stroke="black" points="526.348,-1348.71 520.183,-1340.09 519.629,-1350.67 526.348,-1348.71"/>
<text text-anchor="middle" x="554.134" y="-1395.8" font-family="Times,serif" font-size="14.00">obj</text>
</g>
<!-- meuse~2 -->
<g id="node16" class="node"><title>meuse~2</title>
<ellipse fill="white" stroke="black" cx="936.189" cy="-978" rx="53.1588" ry="29.5"/>
<text text-anchor="middle" x="936.189" y="-982.2" font-family="Times,serif" font-size="14.00">meuse~2 </text>
<text text-anchor="middle" x="936.189" y="-965.4" font-family="Times,serif" font-size="14.00">[S x Q set]</text>
</g>
<!-- meuse[&quot;lzinc&quot;] -->
<g id="node22" class="node"><title>meuse[&quot;lzinc&quot;]</title>
<ellipse fill="white" stroke="black" cx="936.189" cy="-880" rx="72.1689" ry="29.5"/>
<text text-anchor="middle" x="936.189" y="-884.2" font-family="Times,serif" font-size="14.00">meuse[&quot;lzinc&quot;] </text>
<text text-anchor="middle" x="936.189" y="-867.4" font-family="Times,serif" font-size="14.00">[S x Q set]</text>
</g>
<!-- meuse~2&#45;&gt;meuse[&quot;lzinc&quot;] -->
<g id="edge19" class="edge"><title>meuse~2&#45;&gt;meuse[&quot;lzinc&quot;]:center</title>
<path fill="none" stroke="black" d="M936.189,-948.457C936.189,-939.446 936.189,-929.334 936.189,-919.736"/>
<polygon fill="none" stroke="black" points="939.689,-919.599 936.189,-909.599 932.689,-919.599 939.689,-919.599"/>
</g>
<!-- meuse$lzinc -->
<g id="node17" class="node"><title>meuse$lzinc</title>
<ellipse fill="white" stroke="black" cx="936.189" cy="-1134" rx="63.1326" ry="29.5"/>
<text text-anchor="middle" x="936.189" y="-1138.2" font-family="Times,serif" font-size="14.00">meuse$lzinc </text>
<text text-anchor="middle" x="936.189" y="-1121.4" font-family="Times,serif" font-size="14.00">[Q set]</text>
</g>
<!-- meuse$lzinc&#45;&gt;meuse~2 -->
<g id="edge20" class="edge"><title>meuse$lzinc&#45;&gt;meuse~2:center</title>
<path fill="none" stroke="red" d="M936.189,-1104.39C936.189,-1080.05 936.189,-1044.86 936.189,-1017.95"/>
<polygon fill="red" stroke="red" points="939.689,-1017.71 936.189,-1007.71 932.689,-1017.71 939.689,-1017.71"/>
</g>
<!-- 892 -->
<g id="node18" class="node"><title>892</title>
<ellipse fill="orange" stroke="black" cx="908.189" cy="-1220" rx="27" ry="18"/>
<text text-anchor="middle" x="908.189" y="-1215.8" font-family="Times,serif" font-size="14.00">log</text>
</g>
<!-- 892&#45;&gt;meuse$lzinc -->
<g id="edge21" class="edge"><title>892&#45;&gt;meuse$lzinc:center</title>
<path fill="none" stroke="red" d="M913.855,-1202C916.665,-1193.57 920.178,-1183.03 923.581,-1172.82"/>
<polygon fill="red" stroke="red" points="926.941,-1173.81 926.783,-1163.22 920.3,-1171.6 926.941,-1173.81"/>
</g>
<!-- meuse$zinc&#45;&gt;892 -->
<g id="edge22" class="edge"><title>meuse$zinc&#45;&gt;892:center</title>
<path fill="none" stroke="black" d="M896.06,-1292.34C898.414,-1278.5 901.224,-1261.97 903.547,-1248.31"/>
<polygon fill="none" stroke="black" points="907.062,-1248.52 905.287,-1238.07 900.161,-1247.34 907.062,-1248.52"/>
</g>
<!-- zincPointData -->
<g id="node20" class="node"><title>zincPointData</title>
<ellipse fill="white" stroke="black" cx="1053.19" cy="-692" rx="97.1383" ry="29.5"/>
<text text-anchor="middle" x="1053.19" y="-696.2" font-family="Times,serif" font-size="14.00">zincPointData </text>
<text text-anchor="middle" x="1053.19" y="-679.4" font-family="Times,serif" font-size="14.00">[S x Q x SExtend set]</text>
</g>
<!-- zincPointData&#45;&gt;456 -->
<g id="edge24" class="edge"><title>zincPointData&#45;&gt;456:center</title>
<path fill="none" stroke="black" d="M1016.75,-664.432C999.577,-652.27 978.633,-637.94 959.189,-626 897.164,-587.912 882.845,-574.842 815.189,-548 747.378,-521.096 665.92,-501.162 610.745,-489.375"/>
<polygon fill="none" stroke="black" points="611.265,-485.908 600.758,-487.269 609.821,-492.757 611.265,-485.908"/>
<text text-anchor="middle" x="956.793" y="-573.8" font-family="Times,serif" font-size="14.00">pointData</text>
</g>
<!-- zincPointData&#45;&gt;956 -->
<g id="edge23" class="edge"><title>zincPointData&#45;&gt;956:center</title>
<path fill="none" stroke="black" d="M986.614,-670.367C960.773,-662.269 930.957,-652.819 903.981,-644 857.2,-628.707 804.231,-610.702 765.83,-597.525"/>
<polygon fill="none" stroke="black" points="766.494,-594.052 755.899,-594.113 764.219,-600.673 766.494,-594.052"/>
<text text-anchor="middle" x="930.793" y="-630.8" font-family="Times,serif" font-size="14.00">pointData</text>
</g>
<!-- 551&#45;&gt;zincPointData -->
<g id="edge25" class="edge"><title>551&#45;&gt;zincPointData:center</title>
<path fill="none" stroke="red" d="M956.036,-762.751C970.156,-752.614 989.712,-738.573 1007.58,-725.745"/>
<polygon fill="red" stroke="red" points="1010.1,-728.243 1016.18,-719.567 1006.02,-722.556 1010.1,-728.243"/>
</g>
<!-- meuse[&quot;lzinc&quot;]&#45;&gt;551 -->
<g id="edge26" class="edge"><title>meuse[&quot;lzinc&quot;]&#45;&gt;551:center</title>
<path fill="none" stroke="black" d="M936.189,-850.344C936.189,-836.5 936.189,-819.968 936.189,-806.305"/>
<polygon fill="none" stroke="black" points="939.689,-806.07 936.189,-796.07 932.689,-806.07 939.689,-806.07"/>
<text text-anchor="middle" x="971.569" y="-818.8" font-family="Times,serif" font-size="14.00">observations</text>
</g>
<!-- interpolator -->
<g id="node23" class="node"><title>interpolator</title>
<ellipse fill="white" stroke="black" cx="344.189" cy="-390" rx="59.2038" ry="29.5"/>
<text text-anchor="middle" x="344.189" y="-394.2" font-family="Times,serif" font-size="14.00">interpolator </text>
<text text-anchor="middle" x="344.189" y="-377.4" font-family="Times,serif" font-size="14.00">[function]</text>
</g>
<!-- 899 -->
<g id="node32" class="node"><title>899</title>
<ellipse fill="orange" stroke="black" cx="210.189" cy="-304" rx="56.1322" ry="18"/>
<text text-anchor="middle" x="210.189" y="-299.8" font-family="Times,serif" font-size="14.00">interpolator</text>
</g>
<!-- interpolator&#45;&gt;899 -->
<g id="edge27" class="edge"><title>interpolator&#45;&gt;899:center</title>
<path fill="none" stroke="blue" d="M308.279,-366.49C288.111,-353.847 263.113,-338.176 243.401,-325.819"/>
<polygon fill="blue" stroke="blue" points="245.084,-322.744 234.752,-320.398 241.366,-328.675 245.084,-322.744"/>
</g>
<!-- 456&#45;&gt;interpolator -->
<g id="edge28" class="edge"><title>456&#45;&gt;interpolator:center</title>
<path fill="none" stroke="red" d="M511.829,-460.368C480.546,-447.424 434.416,-428.335 398.461,-413.457"/>
<polygon fill="red" stroke="red" points="399.662,-410.167 389.084,-409.577 396.986,-416.635 399.662,-410.167"/>
</g>
<!-- 956&#45;&gt;456 -->
<g id="edge29" class="edge"><title>956&#45;&gt;456:center</title>
<path fill="none" stroke="black" d="M685.312,-560.711C657.136,-543.635 612.759,-516.74 581.94,-498.061"/>
<polygon fill="none" stroke="black" points="583.604,-494.977 573.238,-492.787 579.976,-500.963 583.604,-494.977"/>
<text text-anchor="middle" x="654.401" y="-516.8" font-family="Times,serif" font-size="14.00">params</text>
</g>
<!-- locInterest -->
<g id="node26" class="node"><title>locInterest</title>
<ellipse fill="white" stroke="black" cx="345.189" cy="-1056" rx="80.1421" ry="29.5"/>
<text text-anchor="middle" x="345.189" y="-1060.2" font-family="Times,serif" font-size="14.00">locInterest </text>
<text text-anchor="middle" x="345.189" y="-1043.4" font-family="Times,serif" font-size="14.00">[S x SExtend set]</text>
</g>
<!-- locInterest&#45;&gt;899 -->
<g id="edge30" class="edge"><title>locInterest&#45;&gt;899:center</title>
<path fill="none" stroke="black" d="M277.935,-1040C223.278,-1023.37 155.189,-990.51 155.189,-930 155.189,-930 155.189,-930 155.189,-389 155.189,-365.844 169.999,-344.1 184.249,-328.539"/>
<polygon fill="none" stroke="black" points="187.12,-330.606 191.568,-320.991 182.095,-325.734 187.12,-330.606"/>
<text text-anchor="middle" x="192.113" y="-687.8" font-family="Times,serif" font-size="14.00">locOfInterest</text>
</g>
<!-- 453 -->
<g id="node27" class="node"><title>453</title>
<ellipse fill="orange" stroke="black" cx="462.189" cy="-1220" rx="35.8859" ry="18"/>
<text text-anchor="middle" x="462.189" y="-1215.8" font-family="Times,serif" font-size="14.00">SField</text>
</g>
<!-- 453&#45;&gt;locInterest -->
<g id="edge31" class="edge"><title>453&#45;&gt;locInterest:center</title>
<path fill="none" stroke="red" d="M450.543,-1202.87C432.16,-1177.42 395.962,-1127.3 371.176,-1092.98"/>
<polygon fill="red" stroke="red" points="373.83,-1090.68 365.138,-1084.62 368.155,-1094.78 373.83,-1090.68"/>
</g>
<!-- 677&#45;&gt;453 -->
<g id="edge32" class="edge"><title>677&#45;&gt;453:center</title>
<path fill="none" stroke="black" d="M368.915,-1304.14C377.548,-1290.15 391.138,-1270.29 406.429,-1256 413.225,-1249.65 421.335,-1243.8 429.236,-1238.78"/>
<polygon fill="none" stroke="black" points="431.252,-1241.65 437.988,-1233.47 427.622,-1235.66 431.252,-1241.65"/>
<text text-anchor="middle" x="442.569" y="-1260.8" font-family="Times,serif" font-size="14.00">observations</text>
</g>
<!-- 572&#45;&gt;453 -->
<g id="edge33" class="edge"><title>572&#45;&gt;453:center</title>
<path fill="none" stroke="black" d="M506.198,-1304.04C497.849,-1288.28 485.301,-1264.61 475.738,-1246.56"/>
<polygon fill="none" stroke="black" points="478.822,-1244.91 471.047,-1237.71 472.637,-1248.19 478.822,-1244.91"/>
<text text-anchor="middle" x="512.187" y="-1260.8" font-family="Times,serif" font-size="14.00">domain</text>
</g>
<!-- 10292 -->
<g id="node30" class="node"><title>10292</title>
<ellipse fill="white" stroke="black" cx="656.189" cy="-1322" rx="36.3712" ry="18"/>
<text text-anchor="middle" x="656.189" y="-1317.8" font-family="Times,serif" font-size="14.00">TRUE</text>
</g>
<!-- 10292&#45;&gt;453 -->
<g id="edge34" class="edge"><title>10292&#45;&gt;453:center</title>
<path fill="none" stroke="black" d="M632.935,-1307.91C608.905,-1294.51 570.214,-1273.25 536.189,-1256 523.562,-1249.6 509.558,-1242.88 497.16,-1237.06"/>
<polygon fill="none" stroke="black" points="498.584,-1233.86 488.042,-1232.81 495.623,-1240.21 498.584,-1233.86"/>
<text text-anchor="middle" x="610.012" y="-1260.8" font-family="Times,serif" font-size="14.00">cellsArePoints</text>
</g>
<!-- intZincPointData -->
<g id="node31" class="node"><title>intZincPointData</title>
<ellipse fill="white" stroke="black" cx="210.189" cy="-218" rx="97.1383" ry="29.5"/>
<text text-anchor="middle" x="210.189" y="-222.2" font-family="Times,serif" font-size="14.00">intZincPointData </text>
<text text-anchor="middle" x="210.189" y="-205.4" font-family="Times,serif" font-size="14.00">[S x Q x SExtend set]</text>
</g>
<!-- intZincPointData@observations[1] -->
<g id="node34" class="node"><title>intZincPointData@observations[1]</title>
<ellipse fill="white" stroke="black" cx="210.189" cy="-120" rx="152.25" ry="29.5"/>
<text text-anchor="middle" x="210.189" y="-124.2" font-family="Times,serif" font-size="14.00">intZincPointData@observations[1] </text>
<text text-anchor="middle" x="210.189" y="-107.4" font-family="Times,serif" font-size="14.00">[S x Q set]</text>
</g>
<!-- intZincPointData&#45;&gt;intZincPointData@observations[1] -->
<g id="edge35" class="edge"><title>intZincPointData&#45;&gt;intZincPointData@observations[1]:center</title>
<path fill="none" stroke="black" d="M210.189,-188.457C210.189,-179.446 210.189,-169.334 210.189,-159.736"/>
<polygon fill="none" stroke="black" points="213.689,-159.599 210.189,-149.599 206.689,-159.599 213.689,-159.599"/>
</g>
<!-- 899&#45;&gt;intZincPointData -->
<g id="edge36" class="edge"><title>899&#45;&gt;intZincPointData:center</title>
<path fill="none" stroke="red" d="M210.189,-285.595C210.189,-277.463 210.189,-267.432 210.189,-257.646"/>
<polygon fill="red" stroke="red" points="213.689,-257.625 210.189,-247.625 206.689,-257.625 213.689,-257.625"/>
</g>
<!-- 246 -->
<g id="node33" class="node"><title>246</title>
<ellipse fill="orange" stroke="black" cx="210.189" cy="-18" rx="34.4665" ry="18"/>
<text text-anchor="middle" x="210.189" y="-13.8" font-family="Times,serif" font-size="14.00">spplot</text>
</g>
<!-- intZincPointData@observations[1]&#45;&gt;246 -->
<g id="edge37" class="edge"><title>intZincPointData@observations[1]&#45;&gt;246:center</title>
<path fill="none" stroke="black" d="M210.189,-90.344C210.189,-76.4998 210.189,-59.9679 210.189,-46.3055"/>
<polygon fill="none" stroke="black" points="213.689,-46.0699 210.189,-36.0699 206.689,-46.0699 213.689,-46.0699"/>
<text text-anchor="middle" x="219.134" y="-58.8" font-family="Times,serif" font-size="14.00">obj</text>
</g>
</g>
</svg>
