<?xml version="1.0" encoding="UTF-8" standalone="no"?>
<!DOCTYPE svg PUBLIC "-//W3C//DTD SVG 1.1//EN"
 "http://www.w3.org/Graphics/SVG/1.1/DTD/svg11.dtd">
<!-- Generated by graphviz version 2.28.0 (20160728.0200)
 -->
<!-- Title: f Pages: 1 -->
<svg width="503pt" height="503pt"
 viewBox="0.00 0.00 503.00 503.00" xmlns="http://www.w3.org/2000/svg" xmlns:xlink="http://www.w3.org/1999/xlink">
<g id="graph1" class="graph" transform="scale(0.472744 0.472744) rotate(0) translate(4 1060)">
<title>f</title>
<!-- init_model -->
<g id="node1" class="node"><title>init_model</title>
<ellipse fill="white" stroke="black" cx="363.692" cy="-420" rx="52.3271" ry="18"/>
<text text-anchor="middle" x="363.692" y="-415.8" font-family="Times,serif" font-size="14.00">init_model</text>
</g>
<!-- 598 -->
<g id="node22" class="node"><title>598</title>
<ellipse fill="orange" stroke="black" cx="644.692" cy="-330" rx="94.5662" ry="18"/>
<text text-anchor="middle" x="644.692" y="-325.8" font-family="Times,serif" font-size="14.00">modelSemivariogram</text>
</g>
<!-- init_model&#45;&gt;598 -->
<g id="edge1" class="edge"><title>init_model&#45;&gt;598:center</title>
<path fill="none" stroke="blue" stroke-dasharray="5,2" d="M401.007,-407.314C448.891,-392.319 532.413,-366.162 588.13,-348.713"/>
<polygon fill="blue" stroke="blue" points="597.852,-345.669 589.654,-352.952 593.081,-347.163 588.309,-348.657 588.309,-348.657 588.309,-348.657 593.081,-347.163 586.964,-344.363 597.852,-345.669 597.852,-345.669"/>
</g>
<!-- def751 -->
<g id="node2" class="node"><title>def751</title>
<ellipse fill="orange" stroke="black" cx="363.692" cy="-494" rx="37.2801" ry="18"/>
<text text-anchor="middle" x="363.692" y="-489.8" font-family="Times,serif" font-size="14.00">def751</text>
</g>
<!-- def751&#45;&gt;init_model -->
<g id="edge2" class="edge"><title>def751&#45;&gt;init_model:center</title>
<path fill="none" stroke="red" d="M363.692,-475.937C363.692,-467.807 363.692,-457.876 363.692,-448.705"/>
<polygon fill="red" stroke="red" points="363.692,-438.441 368.192,-448.441 363.692,-443.441 363.692,-448.441 363.692,-448.441 363.692,-448.441 363.692,-443.441 359.192,-448.441 363.692,-438.441 363.692,-438.441"/>
</g>
<!-- modelSemivariogram -->
<g id="node3" class="node"><title>modelSemivariogram</title>
<ellipse fill="white" stroke="black" cx="644.692" cy="-420" rx="94.5662" ry="18"/>
<text text-anchor="middle" x="644.692" y="-415.8" font-family="Times,serif" font-size="14.00">modelSemivariogram</text>
</g>
<!-- modelSemivariogram&#45;&gt;598 -->
<g id="edge3" class="edge"><title>modelSemivariogram&#45;&gt;598:center</title>
<path fill="none" stroke="blue" d="M644.692,-401.614C644.692,-389.24 644.692,-372.369 644.692,-358.22"/>
<polygon fill="blue" stroke="blue" points="644.692,-348.05 649.192,-358.05 644.692,-353.05 644.692,-358.05 644.692,-358.05 644.692,-358.05 644.692,-353.05 640.192,-358.05 644.692,-348.05 644.692,-348.05"/>
</g>
<!-- def22 -->
<g id="node4" class="node"><title>def22</title>
<ellipse fill="orange" stroke="black" cx="644.692" cy="-494" rx="33.0352" ry="18"/>
<text text-anchor="middle" x="644.692" y="-489.8" font-family="Times,serif" font-size="14.00">def22</text>
</g>
<!-- def22&#45;&gt;modelSemivariogram -->
<g id="edge4" class="edge"><title>def22&#45;&gt;modelSemivariogram:center</title>
<path fill="none" stroke="red" d="M644.692,-475.937C644.692,-467.807 644.692,-457.876 644.692,-448.705"/>
<polygon fill="red" stroke="red" points="644.692,-438.441 649.192,-448.441 644.692,-443.441 644.692,-448.441 644.692,-448.441 644.692,-448.441 644.692,-443.441 640.192,-448.441 644.692,-438.441 644.692,-438.441"/>
</g>
<!-- getInterpolator -->
<g id="node5" class="node"><title>getInterpolator</title>
<ellipse fill="white" stroke="black" cx="338.692" cy="-330" rx="68.1275" ry="18"/>
<text text-anchor="middle" x="338.692" y="-325.8" font-family="Times,serif" font-size="14.00">getInterpolator</text>
</g>
<!-- 989 -->
<g id="node21" class="node"><title>989</title>
<ellipse fill="orange" stroke="black" cx="473.692" cy="-240" rx="68.1275" ry="18"/>
<text text-anchor="middle" x="473.692" y="-235.8" font-family="Times,serif" font-size="14.00">getInterpolator</text>
</g>
<!-- getInterpolator&#45;&gt;989 -->
<g id="edge5" class="edge"><title>getInterpolator&#45;&gt;989:center</title>
<path fill="none" stroke="blue" d="M363.14,-313.064C384.795,-298.948 416.596,-278.218 440.539,-262.611"/>
<polygon fill="blue" stroke="blue" points="448.971,-257.115 443.051,-266.346 444.782,-259.845 440.593,-262.576 440.593,-262.576 440.593,-262.576 444.782,-259.845 438.136,-258.806 448.971,-257.115 448.971,-257.115"/>
</g>
<!-- def646 -->
<g id="node6" class="node"><title>def646</title>
<ellipse fill="orange" stroke="black" cx="179.692" cy="-420" rx="37.2801" ry="18"/>
<text text-anchor="middle" x="179.692" y="-415.8" font-family="Times,serif" font-size="14.00">def646</text>
</g>
<!-- def646&#45;&gt;getInterpolator -->
<g id="edge6" class="edge"><title>def646&#45;&gt;getInterpolator:center</title>
<path fill="none" stroke="red" d="M203.496,-405.826C229.483,-391.443 271.426,-368.229 301.708,-351.469"/>
<polygon fill="red" stroke="red" points="310.701,-346.492 304.131,-355.271 306.327,-348.913 301.952,-351.334 301.952,-351.334 301.952,-351.334 306.327,-348.913 299.773,-347.397 310.701,-346.492 310.701,-346.492"/>
</g>
<!-- 181 -->
<g id="node7" class="node"><title>181</title>
<ellipse fill="orange" stroke="black" cx="675.692" cy="-948" rx="32.2385" ry="18"/>
<text text-anchor="middle" x="675.692" y="-943.8" font-family="Times,serif" font-size="14.00">demo</text>
</g>
<!-- meuse -->
<g id="node8" class="node"><title>meuse</title>
<ellipse fill="white" stroke="black" cx="786.692" cy="-874" rx="35.5584" ry="18"/>
<text text-anchor="middle" x="786.692" y="-869.8" font-family="Times,serif" font-size="14.00">meuse</text>
</g>
<!-- 181&#45;&gt;meuse -->
<g id="edge8" class="edge"><title>181&#45;&gt;meuse:center</title>
<path fill="none" stroke="red" stroke-dasharray="5,2" d="M704.679,-928.198C720.827,-917.723 740.889,-904.71 757.128,-894.177"/>
<polygon fill="red" stroke="red" points="696.051,-933.794 701.992,-924.577 700.246,-931.073 704.441,-928.352 704.441,-928.352 704.441,-928.352 700.246,-931.073 706.89,-932.127 696.051,-933.794 696.051,-933.794"/>
<polygon fill="red" stroke="red" points="765.708,-888.611 759.767,-897.829 761.513,-891.332 757.318,-894.053 757.318,-894.053 757.318,-894.053 761.513,-891.332 754.87,-890.278 765.708,-888.611 765.708,-888.611"/>
</g>
<!-- crs -->
<g id="node11" class="node"><title>crs</title>
<ellipse fill="white" stroke="black" cx="581.692" cy="-874" rx="27" ry="18"/>
<text text-anchor="middle" x="581.692" y="-869.8" font-family="Times,serif" font-size="14.00">crs</text>
</g>
<!-- 181&#45;&gt;crs -->
<g id="edge7" class="edge"><title>181&#45;&gt;crs:center</title>
<path fill="none" stroke="red" stroke-dasharray="5,2" d="M657.121,-932.775C642.855,-921.848 622.992,-906.634 607.23,-894.561"/>
<polygon fill="red" stroke="red" points="598.957,-888.224 609.632,-890.733 602.927,-891.265 606.896,-894.305 606.896,-894.305 606.896,-894.305 602.927,-891.265 604.16,-897.878 598.957,-888.224 598.957,-888.224"/>
</g>
<!-- meuse.area -->
<g id="node12" class="node"><title>meuse.area</title>
<ellipse fill="white" stroke="black" cx="664.692" cy="-820" rx="54.2933" ry="18"/>
<text text-anchor="middle" x="664.692" y="-815.8" font-family="Times,serif" font-size="14.00">meuse.area</text>
</g>
<!-- 181&#45;&gt;meuse.area -->
<g id="edge9" class="edge"><title>181&#45;&gt;meuse.area:center</title>
<path fill="none" stroke="red" stroke-dasharray="5,2" d="M674.209,-930.007C672.38,-909.059 669.249,-873.189 667.08,-848.346"/>
<polygon fill="red" stroke="red" points="666.187,-838.126 671.54,-847.697 666.622,-843.107 667.057,-848.088 667.057,-848.088 667.057,-848.088 666.622,-843.107 662.574,-848.48 666.187,-838.126 666.187,-838.126"/>
</g>
<!-- meuse.grid -->
<g id="node13" class="node"><title>meuse.grid</title>
<ellipse fill="white" stroke="black" cx="306.692" cy="-874" rx="53.5131" ry="18"/>
<text text-anchor="middle" x="306.692" y="-869.8" font-family="Times,serif" font-size="14.00">meuse.grid</text>
</g>
<!-- 181&#45;&gt;meuse.grid -->
<g id="edge10" class="edge"><title>181&#45;&gt;meuse.grid:center</title>
<path fill="none" stroke="red" stroke-dasharray="5,2" d="M645.808,-941.169C583.986,-929.106 441.225,-901.25 362.066,-885.805"/>
<polygon fill="red" stroke="red" points="351.802,-883.802 362.478,-881.3 356.709,-884.759 361.616,-885.717 361.616,-885.717 361.616,-885.717 356.709,-884.759 360.755,-890.134 351.802,-883.802 351.802,-883.802"/>
</g>
<!-- meuse.riv -->
<g id="node14" class="node"><title>meuse.riv</title>
<ellipse fill="white" stroke="black" cx="961.692" cy="-874" rx="48.2728" ry="18"/>
<text text-anchor="middle" x="961.692" y="-869.8" font-family="Times,serif" font-size="14.00">meuse.riv</text>
</g>
<!-- 181&#45;&gt;meuse.riv -->
<g id="edge11" class="edge"><title>181&#45;&gt;meuse.riv:center</title>
<path fill="none" stroke="red" stroke-dasharray="5,2" d="M704.425,-939.767C753.166,-927.496 852.591,-902.466 912.561,-887.369"/>
<polygon fill="red" stroke="red" points="922.555,-884.853 913.956,-891.658 917.707,-886.073 912.858,-887.294 912.858,-887.294 912.858,-887.294 917.707,-886.073 911.759,-882.93 922.555,-884.853 922.555,-884.853"/>
</g>
<!-- meuse_lzinc -->
<g id="node15" class="node"><title>meuse_lzinc</title>
<ellipse fill="white" stroke="black" cx="830.692" cy="-602" rx="58.9569" ry="18"/>
<text text-anchor="middle" x="830.692" y="-597.8" font-family="Times,serif" font-size="14.00">meuse_lzinc</text>
</g>
<!-- meuse&#45;&gt;meuse_lzinc -->
<g id="edge12" class="edge"><title>meuse&#45;&gt;meuse_lzinc:center</title>
<path fill="none" stroke="black" d="M806.364,-858.927C826.399,-843.259 856.237,-815.901 868.692,-784 889.294,-731.235 863.456,-665.239 845.4,-629.304"/>
<polygon fill="black" stroke="black" points="840.559,-620.002 849.167,-626.795 842.867,-624.437 845.175,-628.873 845.175,-628.873 845.175,-628.873 842.867,-624.437 841.184,-630.95 840.559,-620.002 840.559,-620.002"/>
</g>
<!-- meuse_zinc -->
<g id="node17" class="node"><title>meuse_zinc</title>
<ellipse fill="white" stroke="black" cx="803.692" cy="-766" rx="56.4299" ry="18"/>
<text text-anchor="middle" x="803.692" y="-761.8" font-family="Times,serif" font-size="14.00">meuse_zinc</text>
</g>
<!-- meuse&#45;&gt;meuse_zinc -->
<g id="edge13" class="edge"><title>meuse&#45;&gt;meuse_zinc:center</title>
<path fill="none" stroke="black" d="M789.424,-855.969C792.1,-839.279 796.222,-813.579 799.349,-794.084"/>
<polygon fill="black" stroke="black" points="800.968,-783.988 803.827,-794.575 800.176,-788.925 799.384,-793.862 799.384,-793.862 799.384,-793.862 800.176,-788.925 794.941,-793.15 800.968,-783.988 800.968,-783.988"/>
</g>
<!-- 314 -->
<g id="node9" class="node"><title>314</title>
<ellipse fill="white" stroke="black" cx="592.692" cy="-1038" rx="40.3147" ry="18"/>
<text text-anchor="middle" x="592.692" y="-1033.8" font-family="Times,serif" font-size="14.00">FALSE</text>
</g>
<!-- 314&#45;&gt;181 -->
<g id="edge14" class="edge"><title>314&#45;&gt;181:center</title>
<path fill="none" stroke="black" d="M607.916,-1020.86C620.908,-1007.08 639.737,-987.122 654.253,-971.731"/>
<polygon fill="black" stroke="black" points="661.398,-964.156 657.81,-974.518 657.967,-967.793 654.536,-971.431 654.536,-971.431 654.536,-971.431 657.967,-967.793 651.262,-968.343 661.398,-964.156 661.398,-964.156"/>
<text text-anchor="middle" x="654.907" y="-988.8" font-family="Times,serif" font-size="14.00">echo</text>
</g>
<!-- 530 -->
<g id="node10" class="node"><title>530</title>
<ellipse fill="white" stroke="black" cx="759.692" cy="-1038" rx="40.3147" ry="18"/>
<text text-anchor="middle" x="759.692" y="-1033.8" font-family="Times,serif" font-size="14.00">FALSE</text>
</g>
<!-- 530&#45;&gt;181 -->
<g id="edge15" class="edge"><title>530&#45;&gt;181:center</title>
<path fill="none" stroke="black" d="M744.675,-1021.27C731.574,-1007.54 712.4,-987.456 697.59,-971.941"/>
<polygon fill="black" stroke="black" points="690.298,-964.302 700.458,-968.428 693.751,-967.919 697.203,-971.535 697.203,-971.535 697.203,-971.535 693.751,-967.919 693.948,-974.642 690.298,-964.302 690.298,-964.302"/>
<text text-anchor="middle" x="735.022" y="-988.8" font-family="Times,serif" font-size="14.00">ask</text>
</g>
<!-- 642 -->
<g id="node19" class="node"><title>642</title>
<ellipse fill="orange" stroke="black" cx="830.692" cy="-494" rx="35.8859" ry="18"/>
<text text-anchor="middle" x="830.692" y="-489.8" font-family="Times,serif" font-size="14.00">SField</text>
</g>
<!-- meuse.area&#45;&gt;642 -->
<g id="edge16" class="edge"><title>meuse.area&#45;&gt;642:center</title>
<path fill="none" stroke="black" d="M663.273,-801.842C661.795,-782.468 659.692,-749.992 659.692,-722 659.692,-722 659.692,-722 659.692,-601 659.692,-541.364 735.755,-514.125 786.422,-502.597"/>
<polygon fill="black" stroke="black" points="796.499,-500.432 787.667,-506.932 791.61,-501.482 786.722,-502.532 786.722,-502.532 786.722,-502.532 791.61,-501.482 785.777,-498.133 796.499,-500.432 796.499,-500.432"/>
<text text-anchor="middle" x="680.69" y="-671.8" font-family="Times,serif" font-size="14.00">domain</text>
</g>
<!-- 224 -->
<g id="node25" class="node"><title>224</title>
<ellipse fill="orange" stroke="black" cx="306.692" cy="-766" rx="47.2589" ry="18"/>
<text text-anchor="middle" x="306.692" y="-761.8" font-family="Times,serif" font-size="14.00">geometry</text>
</g>
<!-- meuse.grid&#45;&gt;224 -->
<g id="edge17" class="edge"><title>meuse.grid&#45;&gt;224:center</title>
<path fill="none" stroke="black" d="M306.692,-855.969C306.692,-839.378 306.692,-813.883 306.692,-794.431"/>
<polygon fill="black" stroke="black" points="306.692,-784.341 311.192,-794.341 306.692,-789.341 306.692,-794.341 306.692,-794.341 306.692,-794.341 306.692,-789.341 302.192,-794.341 306.692,-784.341 306.692,-784.341"/>
<text text-anchor="middle" x="315.638" y="-815.8" font-family="Times,serif" font-size="14.00">obj</text>
</g>
<!-- 514 -->
<g id="node26" class="node"><title>514</title>
<ellipse fill="orange" stroke="black" cx="114.692" cy="-766" rx="47.2589" ry="18"/>
<text text-anchor="middle" x="114.692" y="-761.8" font-family="Times,serif" font-size="14.00">geometry</text>
</g>
<!-- meuse.grid&#45;&gt;514 -->
<g id="edge18" class="edge"><title>meuse.grid&#45;&gt;514:center</title>
<path fill="none" stroke="black" d="M279.996,-858.261C245.989,-839.487 187.14,-806.997 149.604,-786.274"/>
<polygon fill="black" stroke="black" points="140.549,-781.275 151.478,-782.169 144.926,-783.692 149.303,-786.108 149.303,-786.108 149.303,-786.108 144.926,-783.692 147.128,-790.048 140.549,-781.275 140.549,-781.275"/>
<text text-anchor="middle" x="248.638" y="-815.8" font-family="Times,serif" font-size="14.00">obj</text>
</g>
<!-- meuse_lzinc&#45;&gt;642 -->
<g id="edge19" class="edge"><title>meuse_lzinc&#45;&gt;642:center</title>
<path fill="none" stroke="black" d="M830.692,-583.969C830.692,-567.378 830.692,-541.883 830.692,-522.431"/>
<polygon fill="black" stroke="black" points="830.692,-512.341 835.192,-522.341 830.692,-517.341 830.692,-522.341 830.692,-522.341 830.692,-522.341 830.692,-517.341 826.192,-522.341 830.692,-512.341 830.692,-512.341"/>
<text text-anchor="middle" x="866.072" y="-543.8" font-family="Times,serif" font-size="14.00">observations</text>
</g>
<!-- 128 -->
<g id="node16" class="node"><title>128</title>
<ellipse fill="orange" stroke="black" cx="813.692" cy="-676" rx="27" ry="18"/>
<text text-anchor="middle" x="813.692" y="-671.8" font-family="Times,serif" font-size="14.00">log</text>
</g>
<!-- 128&#45;&gt;meuse_lzinc -->
<g id="edge20" class="edge"><title>128&#45;&gt;meuse_lzinc:center</title>
<path fill="none" stroke="red" d="M817.721,-657.937C819.661,-649.719 822.036,-639.66 824.221,-630.406"/>
<polygon fill="red" stroke="red" points="826.574,-620.441 828.656,-631.207 825.425,-625.307 824.276,-630.173 824.276,-630.173 824.276,-630.173 825.425,-625.307 819.897,-629.139 826.574,-620.441 826.574,-620.441"/>
</g>
<!-- meuse_zinc&#45;&gt;128 -->
<g id="edge21" class="edge"><title>meuse_zinc&#45;&gt;128:center</title>
<path fill="none" stroke="black" d="M805.668,-747.614C807.074,-735.24 808.991,-718.369 810.599,-704.22"/>
<polygon fill="black" stroke="black" points="811.755,-694.05 815.097,-704.495 811.19,-699.018 810.626,-703.986 810.626,-703.986 810.626,-703.986 811.19,-699.018 806.154,-703.478 811.755,-694.05 811.755,-694.05"/>
</g>
<!-- zincPointData -->
<g id="node18" class="node"><title>zincPointData</title>
<ellipse fill="white" stroke="black" cx="945.692" cy="-420" rx="65.6142" ry="18"/>
<text text-anchor="middle" x="945.692" y="-415.8" font-family="Times,serif" font-size="14.00">zincPointData</text>
</g>
<!-- zincPointData&#45;&gt;989 -->
<g id="edge23" class="edge"><title>zincPointData&#45;&gt;989:center</title>
<path fill="none" stroke="black" d="M928.866,-402.584C916.557,-391.22 899.043,-376.338 881.692,-366 772.223,-300.772 625.666,-266.766 541.28,-251.473"/>
<polygon fill="black" stroke="black" points="531.304,-249.7 541.937,-247.02 536.227,-250.575 541.149,-251.45 541.149,-251.45 541.149,-251.45 536.227,-250.575 540.362,-255.881 531.304,-249.7 531.304,-249.7"/>
<text text-anchor="middle" x="875.296" y="-325.8" font-family="Times,serif" font-size="14.00">pointData</text>
</g>
<!-- zincPointData&#45;&gt;598 -->
<g id="edge22" class="edge"><title>zincPointData&#45;&gt;598:center</title>
<path fill="none" stroke="black" d="M902.566,-406.392C850.396,-391.139 762.308,-365.386 703.829,-348.289"/>
<polygon fill="black" stroke="black" points="693.99,-345.412 704.851,-343.899 698.789,-346.816 703.588,-348.219 703.588,-348.219 703.588,-348.219 698.789,-346.816 702.325,-352.538 693.99,-345.412 693.99,-345.412"/>
<text text-anchor="middle" x="850.296" y="-370.8" font-family="Times,serif" font-size="14.00">pointData</text>
</g>
<!-- 642&#45;&gt;zincPointData -->
<g id="edge24" class="edge"><title>642&#45;&gt;zincPointData:center</title>
<path fill="none" stroke="red" d="M852.323,-479.457C869.137,-468.93 892.764,-454.138 912.043,-442.067"/>
<polygon fill="red" stroke="red" points="920.555,-436.738 914.467,-445.859 916.317,-439.391 912.079,-442.045 912.079,-442.045 912.079,-442.045 916.317,-439.391 909.691,-438.231 920.555,-436.738 920.555,-436.738"/>
</g>
<!-- interpolator -->
<g id="node20" class="node"><title>interpolator</title>
<ellipse fill="white" stroke="black" cx="275.692" cy="-166" rx="56.1322" ry="18"/>
<text text-anchor="middle" x="275.692" y="-161.8" font-family="Times,serif" font-size="14.00">interpolator</text>
</g>
<!-- 565 -->
<g id="node29" class="node"><title>565</title>
<ellipse fill="orange" stroke="black" cx="130.692" cy="-92" rx="56.1322" ry="18"/>
<text text-anchor="middle" x="130.692" y="-87.8" font-family="Times,serif" font-size="14.00">interpolator</text>
</g>
<!-- interpolator&#45;&gt;565 -->
<g id="edge25" class="edge"><title>interpolator&#45;&gt;565:center</title>
<path fill="none" stroke="blue" d="M246.349,-150.43C224.141,-139.402 193.437,-124.156 169.246,-112.144"/>
<polygon fill="blue" stroke="blue" points="159.992,-107.549 170.95,-107.966 164.47,-109.772 168.948,-111.996 168.948,-111.996 168.948,-111.996 164.47,-109.772 166.947,-116.027 159.992,-107.549 159.992,-107.549"/>
</g>
<!-- 989&#45;&gt;interpolator -->
<g id="edge26" class="edge"><title>989&#45;&gt;interpolator:center</title>
<path fill="none" stroke="red" d="M435.046,-224.947C402.37,-213.065 355.51,-196.025 321.061,-183.498"/>
<polygon fill="red" stroke="red" points="311.247,-179.929 322.183,-179.117 315.946,-181.638 320.645,-183.346 320.645,-183.346 320.645,-183.346 315.946,-181.638 319.107,-187.576 311.247,-179.929 311.247,-179.929"/>
</g>
<!-- 598&#45;&gt;989 -->
<g id="edge27" class="edge"><title>598&#45;&gt;989:center</title>
<path fill="none" stroke="black" d="M613.328,-312.859C584.93,-298.245 542.996,-276.665 512.497,-260.97"/>
<polygon fill="black" stroke="black" points="503.426,-256.302 514.377,-256.876 507.872,-258.59 512.318,-260.878 512.318,-260.878 512.318,-260.878 507.872,-258.59 510.259,-264.879 503.426,-256.302 503.426,-256.302"/>
<text text-anchor="middle" x="594.905" y="-280.8" font-family="Times,serif" font-size="14.00">params</text>
</g>
<!-- locInterest -->
<g id="node23" class="node"><title>locInterest</title>
<ellipse fill="white" stroke="black" cx="125.692" cy="-548" rx="51.1871" ry="18"/>
<text text-anchor="middle" x="125.692" y="-543.8" font-family="Times,serif" font-size="14.00">locInterest</text>
</g>
<!-- locInterest&#45;&gt;565 -->
<g id="edge28" class="edge"><title>locInterest&#45;&gt;565:center</title>
<path fill="none" stroke="black" d="M107.021,-530.98C90.0662,-514.555 67.6923,-487.324 67.6923,-458 67.6923,-458 67.6923,-458 67.6923,-165 67.6923,-144.491 82.3488,-127.016 97.5232,-114.419"/>
<polygon fill="black" stroke="black" points="105.431,-108.287 100.287,-117.971 101.48,-111.351 97.5287,-114.415 97.5287,-114.415 97.5287,-114.415 101.48,-111.351 94.7709,-110.859 105.431,-108.287 105.431,-108.287"/>
<text text-anchor="middle" x="104.617" y="-325.8" font-family="Times,serif" font-size="14.00">locOfInterest</text>
</g>
<!-- 608 -->
<g id="node24" class="node"><title>608</title>
<ellipse fill="orange" stroke="black" cx="250.692" cy="-676" rx="35.8859" ry="18"/>
<text text-anchor="middle" x="250.692" y="-671.8" font-family="Times,serif" font-size="14.00">SField</text>
</g>
<!-- 608&#45;&gt;locInterest -->
<g id="edge29" class="edge"><title>608&#45;&gt;locInterest:center</title>
<path fill="none" stroke="red" d="M235.365,-659.55C213.859,-637.872 174.54,-598.238 149.288,-572.784"/>
<polygon fill="red" stroke="red" points="141.938,-565.375 152.175,-569.305 145.459,-568.925 148.981,-572.475 148.981,-572.475 148.981,-572.475 145.459,-568.925 145.786,-575.644 141.938,-565.375 141.938,-565.375"/>
</g>
<!-- 224&#45;&gt;608 -->
<g id="edge30" class="edge"><title>224&#45;&gt;608:center</title>
<path fill="none" stroke="black" d="M296.159,-748.448C287.868,-735.419 276.175,-717.044 266.723,-702.191"/>
<polygon fill="black" stroke="black" points="261.178,-693.478 270.344,-699.499 263.863,-697.696 266.547,-701.915 266.547,-701.915 266.547,-701.915 263.863,-697.696 262.751,-704.33 261.178,-693.478 261.178,-693.478"/>
<text text-anchor="middle" x="320.072" y="-716.8" font-family="Times,serif" font-size="14.00">observations</text>
</g>
<!-- 514&#45;&gt;608 -->
<g id="edge31" class="edge"><title>514&#45;&gt;608:center</title>
<path fill="none" stroke="black" d="M137.763,-750.072C160.576,-735.31 195.602,-712.647 220.592,-696.476"/>
<polygon fill="black" stroke="black" points="229.304,-690.839 223.353,-700.05 225.107,-693.556 220.909,-696.272 220.909,-696.272 220.909,-696.272 225.107,-693.556 218.464,-692.494 229.304,-690.839 229.304,-690.839"/>
<text text-anchor="middle" x="216.69" y="-716.8" font-family="Times,serif" font-size="14.00">domain</text>
</g>
<!-- 55 -->
<g id="node27" class="node"><title>55</title>
<ellipse fill="white" stroke="black" cx="478.692" cy="-766" rx="36.3712" ry="18"/>
<text text-anchor="middle" x="478.692" y="-761.8" font-family="Times,serif" font-size="14.00">TRUE</text>
</g>
<!-- 55&#45;&gt;608 -->
<g id="edge32" class="edge"><title>55&#45;&gt;608:center</title>
<path fill="none" stroke="black" d="M453.26,-752.857C429.185,-741.58 391.885,-724.67 358.692,-712 336.538,-703.543 311.353,-695.305 290.88,-688.947"/>
<polygon fill="black" stroke="black" points="281.241,-685.985 292.122,-684.622 286.021,-687.454 290.8,-688.923 290.8,-688.923 290.8,-688.923 286.021,-687.454 289.478,-693.224 281.241,-685.985 281.241,-685.985"/>
<text text-anchor="middle" x="443.515" y="-716.8" font-family="Times,serif" font-size="14.00">cellsArePoints</text>
</g>
<!-- intZincPointData -->
<g id="node28" class="node"><title>intZincPointData</title>
<ellipse fill="white" stroke="black" cx="130.692" cy="-18" rx="77.3273" ry="18"/>
<text text-anchor="middle" x="130.692" y="-13.8" font-family="Times,serif" font-size="14.00">intZincPointData</text>
</g>
<!-- 565&#45;&gt;intZincPointData -->
<g id="edge33" class="edge"><title>565&#45;&gt;intZincPointData:center</title>
<path fill="none" stroke="red" d="M130.692,-73.937C130.692,-65.8072 130.692,-55.8761 130.692,-46.7047"/>
<polygon fill="red" stroke="red" points="130.692,-36.4407 135.192,-46.4406 130.692,-41.4407 130.692,-46.4407 130.692,-46.4407 130.692,-46.4407 130.692,-41.4407 126.192,-46.4407 130.692,-36.4407 130.692,-36.4407"/>
</g>
</g>
</svg>
