<?xml version="1.0" encoding="UTF-8" standalone="no"?>
<!DOCTYPE svg PUBLIC "-//W3C//DTD SVG 1.1//EN"
 "http://www.w3.org/Graphics/SVG/1.1/DTD/svg11.dtd">
<!-- Generated by graphviz version 2.28.0 (20160728.0200)
 -->
<!-- Title: f Pages: 1 -->
<svg width="288pt" height="250pt"
 viewBox="0.00 0.00 287.82 250.00" xmlns="http://www.w3.org/2000/svg" xmlns:xlink="http://www.w3.org/1999/xlink">
<g id="graph1" class="graph" transform="scale(0.146199 0.146199) rotate(0) translate(4 1706)">
<title>f</title>
<!-- fcall_PUJcVb -->
<g id="node1" class="node"><title>fcall_PUJcVb</title>
<ellipse fill="orange" stroke="black" cx="859.911" cy="-1594" rx="32.2385" ry="18"/>
<text text-anchor="middle" x="859.911" y="-1589.8" font-family="Times,serif" font-size="14.00">demo</text>
</g>
<!-- crs -->
<g id="node5" class="node"><title>crs</title>
<ellipse fill="white" stroke="black" cx="51.9108" cy="-1508" rx="27" ry="29.5"/>
<text text-anchor="middle" x="51.9108" y="-1512.2" font-family="Times,serif" font-size="14.00">crs </text>
<text text-anchor="middle" x="51.9108" y="-1495.4" font-family="Times,serif" font-size="14.00">[&#39;a]</text>
</g>
<!-- fcall_PUJcVb&#45;&gt;crs -->
<g id="edge1" class="edge"><title>fcall_PUJcVb&#45;&gt;crs:center</title>
<path fill="none" stroke="red" stroke-dasharray="5,2" d="M827.671,-1591.79C730.739,-1587.83 433.603,-1573.47 189.911,-1538 155.11,-1532.94 115.913,-1524.42 88.2116,-1517.93"/>
<polygon fill="red" stroke="red" points="88.7287,-1514.45 78.1907,-1515.55 87.1115,-1521.26 88.7287,-1514.45"/>
</g>
<!-- meuse -->
<g id="node6" class="node"><title>meuse</title>
<ellipse fill="white" stroke="black" cx="263.911" cy="-1508" rx="64.587" ry="29.5"/>
<text text-anchor="middle" x="263.911" y="-1512.2" font-family="Times,serif" font-size="14.00">meuse </text>
<text text-anchor="middle" x="263.911" y="-1495.4" font-family="Times,serif" font-size="14.00">[(?)S x Q set]</text>
</g>
<!-- fcall_PUJcVb&#45;&gt;meuse -->
<g id="edge2" class="edge"><title>fcall_PUJcVb&#45;&gt;meuse:center</title>
<path fill="none" stroke="red" stroke-dasharray="5,2" d="M828.684,-1589.06C759.97,-1580.35 590.505,-1558.57 448.911,-1538 410.991,-1532.49 368.772,-1525.91 334.252,-1520.41"/>
<polygon fill="red" stroke="red" points="334.692,-1516.93 324.265,-1518.81 333.588,-1523.85 334.692,-1516.93"/>
</g>
<!-- meuse.area -->
<g id="node7" class="node"><title>meuse.area</title>
<ellipse fill="white" stroke="black" cx="1032.91" cy="-1430" rx="57.5" ry="29.5"/>
<text text-anchor="middle" x="1032.91" y="-1434.2" font-family="Times,serif" font-size="14.00">meuse.area </text>
<text text-anchor="middle" x="1032.91" y="-1417.4" font-family="Times,serif" font-size="14.00">[R set]</text>
</g>
<!-- fcall_PUJcVb&#45;&gt;meuse.area -->
<g id="edge3" class="edge"><title>fcall_PUJcVb&#45;&gt;meuse.area:center</title>
<path fill="none" stroke="red" stroke-dasharray="5,2" d="M872.487,-1577.07C891.236,-1553.86 928.255,-1510.01 964.911,-1478 972.292,-1471.55 980.573,-1465.2 988.75,-1459.36"/>
<polygon fill="red" stroke="red" points="990.996,-1462.06 997.19,-1453.46 986.987,-1456.32 990.996,-1462.06"/>
</g>
<!-- meuse.grid -->
<g id="node8" class="node"><title>meuse.grid</title>
<ellipse fill="white" stroke="black" cx="1038.91" cy="-1508" rx="64.587" ry="29.5"/>
<text text-anchor="middle" x="1038.91" y="-1512.2" font-family="Times,serif" font-size="14.00">meuse.grid </text>
<text text-anchor="middle" x="1038.91" y="-1495.4" font-family="Times,serif" font-size="14.00">[(?)S x Q set]</text>
</g>
<!-- fcall_PUJcVb&#45;&gt;meuse.grid -->
<g id="edge4" class="edge"><title>fcall_PUJcVb&#45;&gt;meuse.grid:center</title>
<path fill="none" stroke="red" stroke-dasharray="5,2" d="M884.052,-1581.67C909.958,-1569.51 951.929,-1549.82 985.646,-1534"/>
<polygon fill="red" stroke="red" points="987.351,-1537.06 994.917,-1529.65 984.377,-1530.73 987.351,-1537.06"/>
</g>
<!-- meuse.riv -->
<g id="node9" class="node"><title>meuse.riv</title>
<ellipse fill="white" stroke="black" cx="1474.91" cy="-1508" rx="52.25" ry="29.5"/>
<text text-anchor="middle" x="1474.91" y="-1512.2" font-family="Times,serif" font-size="14.00">meuse.riv </text>
<text text-anchor="middle" x="1474.91" y="-1495.4" font-family="Times,serif" font-size="14.00">[R set]</text>
</g>
<!-- fcall_PUJcVb&#45;&gt;meuse.riv -->
<g id="edge5" class="edge"><title>fcall_PUJcVb&#45;&gt;meuse.riv:center</title>
<path fill="none" stroke="red" stroke-dasharray="5,2" d="M891.369,-1589.82C965.28,-1582.21 1155.71,-1561.81 1313.91,-1538 1347.85,-1532.89 1385.62,-1526.14 1416.04,-1520.44"/>
<polygon fill="red" stroke="red" points="1416.89,-1523.85 1426.06,-1518.55 1415.59,-1516.97 1416.89,-1523.85"/>
</g>
<!-- lt_9G1gja -->
<g id="node2" class="node"><title>lt_9G1gja</title>
<ellipse fill="white" stroke="black" cx="678.911" cy="-1684" rx="35.5584" ry="18"/>
<text text-anchor="middle" x="678.911" y="-1679.8" font-family="Times,serif" font-size="14.00">meuse</text>
</g>
<!-- lt_9G1gja&#45;&gt;fcall_PUJcVb -->
<g id="edge6" class="edge"><title>lt_9G1gja&#45;&gt;fcall_PUJcVb:center</title>
<path fill="none" stroke="black" d="M703.699,-1670.95C735.783,-1655.35 791.775,-1628.13 827.286,-1610.86"/>
<polygon fill="none" stroke="black" points="828.821,-1614.01 836.284,-1606.49 825.76,-1607.71 828.821,-1614.01"/>
<text text-anchor="middle" x="799.909" y="-1634.8" font-family="Times,serif" font-size="14.00">topic</text>
</g>
<!-- lt_iWiVWY -->
<g id="node3" class="node"><title>lt_iWiVWY</title>
<ellipse fill="white" stroke="black" cx="859.911" cy="-1684" rx="40.3147" ry="18"/>
<text text-anchor="middle" x="859.911" y="-1679.8" font-family="Times,serif" font-size="14.00">FALSE</text>
</g>
<!-- lt_iWiVWY&#45;&gt;fcall_PUJcVb -->
<g id="edge7" class="edge"><title>lt_iWiVWY&#45;&gt;fcall_PUJcVb:center</title>
<path fill="none" stroke="black" d="M859.911,-1665.61C859.911,-1653.24 859.911,-1636.37 859.911,-1622.22"/>
<polygon fill="none" stroke="black" points="863.411,-1622.05 859.911,-1612.05 856.411,-1622.05 863.411,-1622.05"/>
<text text-anchor="middle" x="873.125" y="-1634.8" font-family="Times,serif" font-size="14.00">echo</text>
</g>
<!-- lt_XCMZnJ -->
<g id="node4" class="node"><title>lt_XCMZnJ</title>
<ellipse fill="white" stroke="black" cx="1050.91" cy="-1684" rx="40.3147" ry="18"/>
<text text-anchor="middle" x="1050.91" y="-1679.8" font-family="Times,serif" font-size="14.00">FALSE</text>
</g>
<!-- lt_XCMZnJ&#45;&gt;fcall_PUJcVb -->
<g id="edge8" class="edge"><title>lt_XCMZnJ&#45;&gt;fcall_PUJcVb:center</title>
<path fill="none" stroke="black" d="M1023.95,-1670.58C989.685,-1654.79 930.538,-1627.54 893.411,-1610.43"/>
<polygon fill="none" stroke="black" points="894.566,-1607.11 884.019,-1606.11 891.636,-1613.47 894.566,-1607.11"/>
<text text-anchor="middle" x="982.24" y="-1634.8" font-family="Times,serif" font-size="14.00">ask</text>
</g>
<!-- fcall_nFSyQf -->
<g id="node11" class="node"><title>fcall_nFSyQf</title>
<ellipse fill="orange" stroke="black" cx="263.911" cy="-1352" rx="78.5392" ry="18"/>
<text text-anchor="middle" x="263.911" y="-1347.8" font-family="Times,serif" font-size="14.00">functionalType&lt;&#45;</text>
</g>
<!-- meuse&#45;&gt;fcall_nFSyQf -->
<g id="edge9" class="edge"><title>meuse&#45;&gt;fcall_nFSyQf:center</title>
<path fill="none" stroke="black" d="M263.911,-1478.39C263.911,-1450.29 263.911,-1407.72 263.911,-1380.13"/>
<polygon fill="none" stroke="black" points="267.411,-1380.01 263.911,-1370.01 260.411,-1380.01 267.411,-1380.01"/>
<text text-anchor="middle" x="272.856" y="-1425.8" font-family="Times,serif" font-size="14.00">obj</text>
</g>
<!-- fcall_fxbwCh -->
<g id="node20" class="node"><title>fcall_fxbwCh</title>
<ellipse fill="orange" stroke="black" cx="1005.91" cy="-912" rx="212.25" ry="29.5"/>
<text text-anchor="middle" x="1005.91" y="-916.2" font-family="Times,serif" font-size="14.00">SFieldData</text>
<text text-anchor="middle" x="1005.91" y="-899.4" font-family="Times,serif" font-size="14.00">[bool &#45;&gt; R set &#45;&gt; S x Q set &#45;&gt; S x Q x SExtend set]</text>
</g>
<!-- meuse.area&#45;&gt;fcall_fxbwCh -->
<g id="edge10" class="edge"><title>meuse.area&#45;&gt;fcall_fxbwCh:center</title>
<path fill="none" stroke="black" d="M1023.16,-1400.58C1015.43,-1375.49 1005.91,-1337.75 1005.91,-1304 1005.91,-1304 1005.91,-1304 1005.91,-1025 1005.91,-1000.6 1005.91,-973.217 1005.91,-951.633"/>
<polygon fill="none" stroke="black" points="1009.41,-951.541 1005.91,-941.541 1002.41,-951.541 1009.41,-951.541"/>
<text text-anchor="middle" x="1026.91" y="-1192.8" font-family="Times,serif" font-size="14.00">domain</text>
</g>
<!-- fcall_L1iA3y -->
<g id="node14" class="node"><title>fcall_L1iA3y</title>
<ellipse fill="orange" stroke="black" cx="1219.91" cy="-1352" rx="78.5392" ry="18"/>
<text text-anchor="middle" x="1219.91" y="-1347.8" font-family="Times,serif" font-size="14.00">functionalType&lt;&#45;</text>
</g>
<!-- meuse.grid&#45;&gt;fcall_L1iA3y -->
<g id="edge11" class="edge"><title>meuse.grid&#45;&gt;fcall_L1iA3y:center</title>
<path fill="none" stroke="black" d="M1071.27,-1482.23C1080.3,-1475.15 1090.06,-1467.37 1098.91,-1460 1132.41,-1432.11 1169.83,-1398.65 1194.07,-1376.65"/>
<polygon fill="none" stroke="black" points="1196.72,-1378.98 1201.76,-1369.66 1192.01,-1373.8 1196.72,-1378.98"/>
<text text-anchor="middle" x="1174.86" y="-1425.8" font-family="Times,serif" font-size="14.00">obj</text>
</g>
<!-- meuse~2 -->
<g id="node10" class="node"><title>meuse~2</title>
<ellipse fill="white" stroke="black" cx="701.911" cy="-1508" rx="53.1588" ry="29.5"/>
<text text-anchor="middle" x="701.911" y="-1512.2" font-family="Times,serif" font-size="14.00">meuse~2 </text>
<text text-anchor="middle" x="701.911" y="-1495.4" font-family="Times,serif" font-size="14.00">[S x Q set]</text>
</g>
<!-- meuse~2&#45;&gt;fcall_nFSyQf -->
<g id="edge12" class="edge"><title>meuse~2&#45;&gt;fcall_nFSyQf:center</title>
<path fill="none" stroke="black" stroke-dasharray="5,2" d="M652.28,-1484.27C600.502,-1461.11 516.611,-1425.11 441.911,-1400 404.41,-1387.39 361.559,-1375.99 327.299,-1367.57"/>
<polygon fill="black" stroke="black" points="661.565,-1488.44 650.599,-1488.45 657.004,-1486.39 652.443,-1484.34 652.443,-1484.34 652.443,-1484.34 657.004,-1486.39 654.286,-1480.24 661.565,-1488.44 661.565,-1488.44"/>
<polygon fill="none" stroke="black" points="327.962,-1364.13 317.418,-1365.17 326.307,-1370.93 327.962,-1364.13"/>
</g>
<!-- meuse~2&#45;&gt;fcall_L1iA3y -->
<g id="edge13" class="edge"><title>meuse~2&#45;&gt;fcall_L1iA3y:center</title>
<path fill="none" stroke="black" stroke-dasharray="5,2" d="M750.277,-1495.47C781.821,-1487.24 823.547,-1474.99 858.911,-1460 909.108,-1438.72 914.639,-1418.54 965.911,-1400 1021.95,-1379.73 1088.26,-1367.84 1139.07,-1361.09"/>
<polygon fill="none" stroke="black" points="1139.55,-1364.56 1149.02,-1359.81 1138.65,-1357.62 1139.55,-1364.56"/>
</g>
<!-- meuse~3 -->
<g id="node16" class="node"><title>meuse~3</title>
<ellipse fill="white" stroke="black" cx="811.911" cy="-1140" rx="53.1588" ry="29.5"/>
<text text-anchor="middle" x="811.911" y="-1144.2" font-family="Times,serif" font-size="14.00">meuse~3 </text>
<text text-anchor="middle" x="811.911" y="-1127.4" font-family="Times,serif" font-size="14.00">[S x Q set]</text>
</g>
<!-- meuse~2&#45;&gt;meuse~3 -->
<g id="edge14" class="edge"><title>meuse~2&#45;&gt;meuse~3:center</title>
<path fill="none" stroke="black" stroke-dasharray="5,2" d="M710.451,-1478.59C730.073,-1413.3 778.382,-1252.56 800.509,-1178.94"/>
<polygon fill="black" stroke="black" points="803.925,-1179.73 803.452,-1169.15 797.222,-1177.71 803.925,-1179.73"/>
</g>
<!-- expr_NxoRj0 -->
<g id="node18" class="node"><title>expr_NxoRj0</title>
<ellipse fill="orange" stroke="black" cx="620.911" cy="-1352" rx="88.1758" ry="29.5"/>
<text text-anchor="middle" x="620.911" y="-1356.2" font-family="Times,serif" font-size="14.00">log(meuse$zinc)</text>
<text text-anchor="middle" x="620.911" y="-1339.4" font-family="Times,serif" font-size="14.00">[S x Q set &#45;&gt; Q set]</text>
</g>
<!-- meuse~2&#45;&gt;expr_NxoRj0 -->
<g id="edge15" class="edge"><title>meuse~2&#45;&gt;expr_NxoRj0:center</title>
<path fill="none" stroke="black" d="M687.43,-1479.47C674.347,-1454.59 654.983,-1417.78 640.517,-1390.28"/>
<polygon fill="none" stroke="black" points="643.567,-1388.56 635.815,-1381.34 637.372,-1391.82 643.567,-1388.56"/>
</g>
<!-- lt_0wsAWq -->
<g id="node12" class="node"><title>lt_0wsAWq</title>
<ellipse fill="white" stroke="black" cx="493.911" cy="-1508" rx="35.8859" ry="18"/>
<text text-anchor="middle" x="493.911" y="-1503.8" font-family="Times,serif" font-size="14.00">SField</text>
</g>
<!-- lt_0wsAWq&#45;&gt;fcall_nFSyQf -->
<g id="edge16" class="edge"><title>lt_0wsAWq&#45;&gt;fcall_nFSyQf:center</title>
<path fill="none" stroke="black" d="M473.094,-1493.06C433.016,-1466.23 344.855,-1407.2 296.771,-1375"/>
<polygon fill="none" stroke="black" points="298.536,-1371.97 288.279,-1369.32 294.641,-1377.79 298.536,-1371.97"/>
<text text-anchor="middle" x="429.239" y="-1425.8" font-family="Times,serif" font-size="14.00">attr</text>
</g>
<!-- meuse.grid~2 -->
<g id="node13" class="node"><title>meuse.grid~2</title>
<ellipse fill="white" stroke="black" cx="1227.91" cy="-1254" rx="67.4153" ry="29.5"/>
<text text-anchor="middle" x="1227.91" y="-1258.2" font-family="Times,serif" font-size="14.00">meuse.grid~2 </text>
<text text-anchor="middle" x="1227.91" y="-1241.4" font-family="Times,serif" font-size="14.00">[S x Q set]</text>
</g>
<!-- fcall_eeRxKO -->
<g id="node28" class="node"><title>fcall_eeRxKO</title>
<ellipse fill="orange" stroke="black" cx="1595.91" cy="-1140" rx="86.25" ry="29.5"/>
<text text-anchor="middle" x="1595.91" y="-1144.2" font-family="Times,serif" font-size="14.00">geometry</text>
<text text-anchor="middle" x="1595.91" y="-1127.4" font-family="Times,serif" font-size="14.00">[S x Q set &#45;&gt; S set]</text>
</g>
<!-- meuse.grid~2&#45;&gt;fcall_eeRxKO -->
<g id="edge17" class="edge"><title>meuse.grid~2&#45;&gt;fcall_eeRxKO:center</title>
<path fill="none" stroke="black" d="M1282.21,-1236.47C1345.99,-1217.06 1452.07,-1184.78 1522.98,-1163.2"/>
<polygon fill="none" stroke="black" points="1524.19,-1166.49 1532.74,-1160.23 1522.16,-1159.79 1524.19,-1166.49"/>
<text text-anchor="middle" x="1442.86" y="-1192.8" font-family="Times,serif" font-size="14.00">obj</text>
</g>
<!-- fcall_ChWYcB -->
<g id="node29" class="node"><title>fcall_ChWYcB</title>
<ellipse fill="orange" stroke="black" cx="1227.91" cy="-1140" rx="86.25" ry="29.5"/>
<text text-anchor="middle" x="1227.91" y="-1144.2" font-family="Times,serif" font-size="14.00">geometry</text>
<text text-anchor="middle" x="1227.91" y="-1127.4" font-family="Times,serif" font-size="14.00">[S x Q set &#45;&gt; S set]</text>
</g>
<!-- meuse.grid~2&#45;&gt;fcall_ChWYcB -->
<g id="edge18" class="edge"><title>meuse.grid~2&#45;&gt;fcall_ChWYcB:center</title>
<path fill="none" stroke="black" d="M1227.91,-1224.45C1227.91,-1210.99 1227.91,-1194.73 1227.91,-1180.15"/>
<polygon fill="none" stroke="black" points="1231.41,-1179.89 1227.91,-1169.89 1224.41,-1179.89 1231.41,-1179.89"/>
<text text-anchor="middle" x="1236.86" y="-1192.8" font-family="Times,serif" font-size="14.00">obj</text>
</g>
<!-- fcall_L1iA3y&#45;&gt;meuse.grid~2 -->
<g id="edge19" class="edge"><title>fcall_L1iA3y&#45;&gt;meuse.grid~2:center</title>
<path fill="none" stroke="red" d="M1221.34,-1333.84C1222.27,-1322.75 1223.51,-1307.85 1224.66,-1294"/>
<polygon fill="red" stroke="red" points="1228.18,-1293.94 1225.52,-1283.68 1221.2,-1293.36 1228.18,-1293.94"/>
</g>
<!-- lt_Njb3CX -->
<g id="node15" class="node"><title>lt_Njb3CX</title>
<ellipse fill="white" stroke="black" cx="1268.91" cy="-1508" rx="35.8859" ry="18"/>
<text text-anchor="middle" x="1268.91" y="-1503.8" font-family="Times,serif" font-size="14.00">SField</text>
</g>
<!-- lt_Njb3CX&#45;&gt;fcall_L1iA3y -->
<g id="edge20" class="edge"><title>lt_Njb3CX&#45;&gt;fcall_L1iA3y:center</title>
<path fill="none" stroke="black" d="M1263.48,-1489.93C1255.02,-1463.34 1238.61,-1411.78 1228.52,-1380.07"/>
<polygon fill="none" stroke="black" points="1231.73,-1378.61 1225.37,-1370.15 1225.06,-1380.74 1231.73,-1378.61"/>
<text text-anchor="middle" x="1263.24" y="-1425.8" font-family="Times,serif" font-size="14.00">attr</text>
</g>
<!-- meuse[&quot;lzinc&quot;] -->
<g id="node21" class="node"><title>meuse[&quot;lzinc&quot;]</title>
<ellipse fill="white" stroke="black" cx="811.911" cy="-1026" rx="72.1689" ry="29.5"/>
<text text-anchor="middle" x="811.911" y="-1030.2" font-family="Times,serif" font-size="14.00">meuse[&quot;lzinc&quot;] </text>
<text text-anchor="middle" x="811.911" y="-1013.4" font-family="Times,serif" font-size="14.00">[S x Q set]</text>
</g>
<!-- meuse~3&#45;&gt;meuse[&quot;lzinc&quot;] -->
<g id="edge21" class="edge"><title>meuse~3&#45;&gt;meuse[&quot;lzinc&quot;]:center</title>
<path fill="none" stroke="black" d="M811.911,-1110.45C811.911,-1096.99 811.911,-1080.73 811.911,-1066.15"/>
<polygon fill="none" stroke="black" points="815.411,-1065.89 811.911,-1055.89 808.411,-1065.89 815.411,-1065.89"/>
</g>
<!-- meuse$lzinc -->
<g id="node17" class="node"><title>meuse$lzinc</title>
<ellipse fill="white" stroke="black" cx="657.911" cy="-1254" rx="63.1326" ry="29.5"/>
<text text-anchor="middle" x="657.911" y="-1258.2" font-family="Times,serif" font-size="14.00">meuse$lzinc </text>
<text text-anchor="middle" x="657.911" y="-1241.4" font-family="Times,serif" font-size="14.00">[Q set]</text>
</g>
<!-- meuse$lzinc&#45;&gt;meuse~3 -->
<g id="edge22" class="edge"><title>meuse$lzinc&#45;&gt;meuse~3:center</title>
<path fill="none" stroke="red" d="M691.327,-1228.7C715.09,-1211.41 747.112,-1188.13 772.185,-1169.89"/>
<polygon fill="red" stroke="red" points="774.371,-1172.63 780.4,-1163.92 770.254,-1166.97 774.371,-1172.63"/>
</g>
<!-- expr_NxoRj0&#45;&gt;meuse$lzinc -->
<g id="edge23" class="edge"><title>expr_NxoRj0&#45;&gt;meuse$lzinc:center</title>
<path fill="none" stroke="red" d="M631.812,-1322.72C635.463,-1313.24 639.591,-1302.53 643.47,-1292.47"/>
<polygon fill="red" stroke="red" points="646.757,-1293.67 647.088,-1283.08 640.225,-1291.15 646.757,-1293.67"/>
</g>
<!-- zincPointData -->
<g id="node19" class="node"><title>zincPointData</title>
<ellipse fill="white" stroke="black" cx="1038.91" cy="-756" rx="97.1383" ry="29.5"/>
<text text-anchor="middle" x="1038.91" y="-760.2" font-family="Times,serif" font-size="14.00">zincPointData </text>
<text text-anchor="middle" x="1038.91" y="-743.4" font-family="Times,serif" font-size="14.00">[S x Q x SExtend set]</text>
</g>
<!-- fcall_wBgiqY -->
<g id="node23" class="node"><title>fcall_wBgiqY</title>
<ellipse fill="orange" stroke="black" cx="1042.91" cy="-528" rx="193" ry="29.5"/>
<text text-anchor="middle" x="1042.91" y="-532.2" font-family="Times,serif" font-size="14.00">getInterpolator</text>
<text text-anchor="middle" x="1042.91" y="-515.4" font-family="Times,serif" font-size="14.00">[Q set &#45;&gt; S x Q x SExtend set &#45;&gt; (S &#45;&gt; (S,Q))]</text>
</g>
<!-- zincPointData&#45;&gt;fcall_wBgiqY -->
<g id="edge25" class="edge"><title>zincPointData&#45;&gt;fcall_wBgiqY:center</title>
<path fill="none" stroke="black" d="M1039.42,-726.377C1040.13,-686.241 1041.42,-613.111 1042.22,-568.019"/>
<polygon fill="none" stroke="black" points="1045.72,-567.807 1042.4,-557.747 1038.73,-567.683 1045.72,-567.807"/>
<text text-anchor="middle" x="1069.51" y="-637.8" font-family="Times,serif" font-size="14.00">pointData</text>
</g>
<!-- fcall_MYsRJW -->
<g id="node24" class="node"><title>fcall_MYsRJW</title>
<ellipse fill="orange" stroke="black" cx="718.911" cy="-642" rx="131.25" ry="29.5"/>
<text text-anchor="middle" x="718.911" y="-646.2" font-family="Times,serif" font-size="14.00">modelSemivariogram</text>
<text text-anchor="middle" x="718.911" y="-629.4" font-family="Times,serif" font-size="14.00">[S x Q x SExtend set &#45;&gt; Q set]</text>
</g>
<!-- zincPointData&#45;&gt;fcall_MYsRJW -->
<g id="edge24" class="edge"><title>zincPointData&#45;&gt;fcall_MYsRJW:center</title>
<path fill="none" stroke="black" d="M976.832,-733.272C925.737,-715.389 852.995,-689.93 797.781,-670.605"/>
<polygon fill="none" stroke="black" points="798.628,-667.193 788.034,-667.193 796.316,-673.8 798.628,-667.193"/>
<text text-anchor="middle" x="926.515" y="-694.8" font-family="Times,serif" font-size="14.00">pointData</text>
</g>
<!-- fcall_fxbwCh&#45;&gt;zincPointData -->
<g id="edge26" class="edge"><title>fcall_fxbwCh&#45;&gt;zincPointData:center</title>
<path fill="none" stroke="red" d="M1012.04,-882.395C1017.3,-857.867 1024.91,-822.323 1030.7,-795.335"/>
<polygon fill="red" stroke="red" points="1034.14,-795.964 1032.81,-785.452 1027.3,-794.497 1034.14,-795.964"/>
</g>
<!-- meuse[&quot;lzinc&quot;]&#45;&gt;fcall_fxbwCh -->
<g id="edge27" class="edge"><title>meuse[&quot;lzinc&quot;]&#45;&gt;fcall_fxbwCh:center</title>
<path fill="none" stroke="black" d="M851.435,-1001.09C872.114,-988.678 897.902,-973.358 921.151,-960 929.272,-955.334 937.868,-950.475 946.35,-945.727"/>
<polygon fill="none" stroke="black" points="948.095,-948.762 955.122,-940.833 944.684,-942.649 948.095,-948.762"/>
<text text-anchor="middle" x="957.291" y="-964.8" font-family="Times,serif" font-size="14.00">observations</text>
</g>
<!-- interpolator -->
<g id="node22" class="node"><title>interpolator</title>
<ellipse fill="white" stroke="black" cx="1227.91" cy="-430" rx="65.25" ry="29.5"/>
<text text-anchor="middle" x="1227.91" y="-434.2" font-family="Times,serif" font-size="14.00">interpolator </text>
<text text-anchor="middle" x="1227.91" y="-417.4" font-family="Times,serif" font-size="14.00">[(S &#45;&gt; (S,Q))]</text>
</g>
<!-- fcall_roVO3w -->
<g id="node32" class="node"><title>fcall_roVO3w</title>
<ellipse fill="orange" stroke="black" cx="1470.91" cy="-316" rx="253" ry="29.5"/>
<text text-anchor="middle" x="1470.91" y="-320.2" font-family="Times,serif" font-size="14.00">interpolator</text>
<text text-anchor="middle" x="1470.91" y="-303.4" font-family="Times,serif" font-size="14.00">[S x SExtend set &#45;&gt; S x Q x SExtend set: INCONSISTENT!]</text>
</g>
<!-- interpolator&#45;&gt;fcall_roVO3w -->
<g id="edge28" class="edge"><title>interpolator&#45;&gt;fcall_roVO3w:center</title>
<path fill="none" stroke="blue" d="M1272.76,-408.327C1308.84,-391.697 1360.17,-368.042 1401.54,-348.974"/>
<polygon fill="blue" stroke="blue" points="1403.13,-352.096 1410.74,-344.731 1400.2,-345.738 1403.13,-352.096"/>
</g>
<!-- fcall_wBgiqY&#45;&gt;interpolator -->
<g id="edge29" class="edge"><title>fcall_wBgiqY&#45;&gt;interpolator:center</title>
<path fill="none" stroke="red" d="M1095.92,-499.49C1121.41,-486.266 1151.82,-470.486 1177.02,-457.408"/>
<polygon fill="red" stroke="red" points="1178.79,-460.435 1186.05,-452.722 1175.56,-454.221 1178.79,-460.435"/>
</g>
<!-- fcall_MYsRJW&#45;&gt;fcall_wBgiqY -->
<g id="edge30" class="edge"><title>fcall_MYsRJW&#45;&gt;fcall_wBgiqY:center</title>
<path fill="none" stroke="black" d="M788.417,-616.973C837.867,-599.879 904.61,-576.808 957.338,-558.581"/>
<polygon fill="none" stroke="black" points="958.706,-561.811 967.014,-555.236 956.419,-555.195 958.706,-561.811"/>
<text text-anchor="middle" x="921.123" y="-580.8" font-family="Times,serif" font-size="14.00">params</text>
</g>
<!-- init_model -->
<g id="node25" class="node"><title>init_model</title>
<ellipse fill="white" stroke="black" cx="707.911" cy="-756" rx="56.2887" ry="29.5"/>
<text text-anchor="middle" x="707.911" y="-760.2" font-family="Times,serif" font-size="14.00">init_model </text>
<text text-anchor="middle" x="707.911" y="-743.4" font-family="Times,serif" font-size="14.00">[function]</text>
</g>
<!-- init_model&#45;&gt;fcall_MYsRJW -->
<g id="edge31" class="edge"><title>init_model&#45;&gt;fcall_MYsRJW:center</title>
<path fill="none" stroke="blue" stroke-dasharray="5,2" d="M710.715,-726.448C712.047,-712.888 713.659,-696.476 715.099,-681.808"/>
<polygon fill="blue" stroke="blue" points="718.617,-681.794 716.112,-671.5 711.651,-681.11 718.617,-681.794"/>
</g>
<!-- locInterest -->
<g id="node26" class="node"><title>locInterest</title>
<ellipse fill="white" stroke="black" cx="1484.91" cy="-834" rx="80.1421" ry="29.5"/>
<text text-anchor="middle" x="1484.91" y="-838.2" font-family="Times,serif" font-size="14.00">locInterest </text>
<text text-anchor="middle" x="1484.91" y="-821.4" font-family="Times,serif" font-size="14.00">[S x SExtend set]</text>
</g>
<!-- locInterest&#45;&gt;fcall_roVO3w -->
<g id="edge32" class="edge"><title>locInterest&#45;&gt;fcall_roVO3w:center</title>
<path fill="none" stroke="black" d="M1480.13,-804.294C1476.08,-777.419 1470.91,-736.104 1470.91,-700 1470.91,-700 1470.91,-700 1470.91,-429 1470.91,-404.603 1470.91,-377.217 1470.91,-355.633"/>
<polygon fill="none" stroke="black" points="1474.41,-355.541 1470.91,-345.541 1467.41,-355.541 1474.41,-355.541"/>
<text text-anchor="middle" x="1507.84" y="-580.8" font-family="Times,serif" font-size="14.00">locOfInterest</text>
</g>
<!-- fcall_axbuW2 -->
<g id="node27" class="node"><title>fcall_axbuW2</title>
<ellipse fill="orange" stroke="black" cx="1516.91" cy="-1026" rx="176.5" ry="29.5"/>
<text text-anchor="middle" x="1516.91" y="-1030.2" font-family="Times,serif" font-size="14.00">SFieldData</text>
<text text-anchor="middle" x="1516.91" y="-1013.4" font-family="Times,serif" font-size="14.00">[bool &#45;&gt; S set &#45;&gt; S set &#45;&gt; S x SExtend set]</text>
</g>
<!-- fcall_axbuW2&#45;&gt;locInterest -->
<g id="edge33" class="edge"><title>fcall_axbuW2&#45;&gt;locInterest:center</title>
<path fill="none" stroke="red" d="M1512.05,-996.143C1506.54,-963.451 1497.54,-910.013 1491.43,-873.717"/>
<polygon fill="red" stroke="red" points="1494.82,-872.786 1489.71,-863.506 1487.92,-873.948 1494.82,-872.786"/>
</g>
<!-- fcall_eeRxKO&#45;&gt;fcall_axbuW2 -->
<g id="edge34" class="edge"><title>fcall_eeRxKO&#45;&gt;fcall_axbuW2:center</title>
<path fill="none" stroke="black" d="M1576.18,-1111.03C1566.08,-1096.7 1553.65,-1079.08 1542.79,-1063.69"/>
<polygon fill="none" stroke="black" points="1545.56,-1061.55 1536.94,-1055.39 1539.84,-1065.58 1545.56,-1061.55"/>
<text text-anchor="middle" x="1596.29" y="-1078.8" font-family="Times,serif" font-size="14.00">observations</text>
</g>
<!-- fcall_ChWYcB&#45;&gt;fcall_axbuW2 -->
<g id="edge35" class="edge"><title>fcall_ChWYcB&#45;&gt;fcall_axbuW2:center</title>
<path fill="none" stroke="black" d="M1283.63,-1117.41C1328.01,-1100.21 1390.63,-1075.94 1439.82,-1056.88"/>
<polygon fill="none" stroke="black" points="1441.09,-1060.14 1449.15,-1053.26 1438.56,-1053.61 1441.09,-1060.14"/>
<text text-anchor="middle" x="1409.91" y="-1078.8" font-family="Times,serif" font-size="14.00">domain</text>
</g>
<!-- lt_673UmS -->
<g id="node30" class="node"><title>lt_673UmS</title>
<ellipse fill="white" stroke="black" cx="1867.91" cy="-1140" rx="36.3712" ry="18"/>
<text text-anchor="middle" x="1867.91" y="-1135.8" font-family="Times,serif" font-size="14.00">TRUE</text>
</g>
<!-- lt_673UmS&#45;&gt;fcall_axbuW2 -->
<g id="edge36" class="edge"><title>lt_673UmS&#45;&gt;fcall_axbuW2:center</title>
<path fill="none" stroke="black" d="M1838.29,-1129.55C1787.65,-1113.39 1682.53,-1079.85 1606.26,-1055.51"/>
<polygon fill="none" stroke="black" points="1607.24,-1052.15 1596.64,-1052.44 1605.11,-1058.82 1607.24,-1052.15"/>
<text text-anchor="middle" x="1753.73" y="-1078.8" font-family="Times,serif" font-size="14.00">cellsArePoints</text>
</g>
<!-- intZincPointData -->
<g id="node31" class="node"><title>intZincPointData</title>
<ellipse fill="white" stroke="black" cx="1470.91" cy="-218" rx="97.1383" ry="29.5"/>
<text text-anchor="middle" x="1470.91" y="-222.2" font-family="Times,serif" font-size="14.00">intZincPointData </text>
<text text-anchor="middle" x="1470.91" y="-205.4" font-family="Times,serif" font-size="14.00">[S x Q x SExtend set]</text>
</g>
<!-- intZincPointData@observations -->
<g id="node35" class="node"><title>intZincPointData@observations</title>
<ellipse fill="white" stroke="black" cx="1470.91" cy="-120" rx="141" ry="29.5"/>
<text text-anchor="middle" x="1470.91" y="-124.2" font-family="Times,serif" font-size="14.00">intZincPointData@observations </text>
<text text-anchor="middle" x="1470.91" y="-107.4" font-family="Times,serif" font-size="14.00">[S x Q set]</text>
</g>
<!-- intZincPointData&#45;&gt;intZincPointData@observations -->
<g id="edge37" class="edge"><title>intZincPointData&#45;&gt;intZincPointData@observations:center</title>
<path fill="none" stroke="black" d="M1470.91,-188.457C1470.91,-179.446 1470.91,-169.334 1470.91,-159.736"/>
<polygon fill="none" stroke="black" points="1474.41,-159.599 1470.91,-149.599 1467.41,-159.599 1474.41,-159.599"/>
</g>
<!-- fcall_roVO3w&#45;&gt;intZincPointData -->
<g id="edge38" class="edge"><title>fcall_roVO3w&#45;&gt;intZincPointData:center</title>
<path fill="none" stroke="red" d="M1470.91,-286.457C1470.91,-277.446 1470.91,-267.334 1470.91,-257.736"/>
<polygon fill="red" stroke="red" points="1474.41,-257.599 1470.91,-247.599 1467.41,-257.599 1474.41,-257.599"/>
</g>
<!-- lt_tvqin7 -->
<g id="node33" class="node"><title>lt_tvqin7</title>
<ellipse fill="white" stroke="black" cx="1674.91" cy="-430" rx="78.2561" ry="18"/>
<text text-anchor="middle" x="1674.91" y="-425.8" font-family="Times,serif" font-size="14.00">S set &#45;&gt; S x Q set</text>
</g>
<!-- lt_tvqin7&#45;&gt;fcall_roVO3w -->
<g id="edge39" class="edge"><title>lt_tvqin7&#45;&gt;fcall_roVO3w:center</title>
<path fill="none" stroke="black" d="M1646.12,-413.191C1616.32,-396.834 1568.92,-370.81 1530.93,-349.953"/>
<polygon fill="none" stroke="black" points="1532.44,-346.788 1521.99,-345.044 1529.07,-352.925 1532.44,-346.788"/>
<text text-anchor="middle" x="1612.51" y="-368.8" font-family="Times,serif" font-size="14.00">semantics</text>
</g>
<!-- fcall_HS7rq7 -->
<g id="node34" class="node"><title>fcall_HS7rq7</title>
<ellipse fill="orange" stroke="black" cx="1754.91" cy="-18" rx="34.4665" ry="18"/>
<text text-anchor="middle" x="1754.91" y="-13.8" font-family="Times,serif" font-size="14.00">spplot</text>
</g>
<!-- intZincPointData@observations&#45;&gt;fcall_HS7rq7 -->
<g id="edge40" class="edge"><title>intZincPointData@observations&#45;&gt;fcall_HS7rq7:center</title>
<path fill="none" stroke="black" d="M1541.11,-94.2809C1596.85,-74.6545 1672.62,-47.9758 1717.38,-32.2138"/>
<polygon fill="none" stroke="black" points="1718.72,-35.4553 1726.99,-28.8327 1716.39,-28.8527 1718.72,-35.4553"/>
<text text-anchor="middle" x="1663.86" y="-58.8" font-family="Times,serif" font-size="14.00">obj</text>
</g>
<!-- lt_lCTXXu -->
<g id="node36" class="node"><title>lt_lCTXXu</title>
<ellipse fill="white" stroke="black" cx="1869.91" cy="-120" rx="47.1545" ry="18"/>
<text text-anchor="middle" x="1869.91" y="-115.8" font-family="Times,serif" font-size="14.00">var1.pred</text>
</g>
<!-- lt_lCTXXu&#45;&gt;fcall_HS7rq7 -->
<g id="edge41" class="edge"><title>lt_lCTXXu&#45;&gt;fcall_HS7rq7:center</title>
<path fill="none" stroke="black" d="M1851.69,-103.155C1832.26,-86.2581 1801.36,-59.3936 1779.72,-40.5743"/>
<polygon fill="none" stroke="black" points="1781.77,-37.7139 1771.92,-33.7932 1777.17,-42.9961 1781.77,-37.7139"/>
</g>
</g>
</svg>
