<?xml version="1.0" encoding="UTF-8" standalone="no"?>
<!DOCTYPE svg PUBLIC "-//W3C//DTD SVG 1.1//EN"
 "http://www.w3.org/Graphics/SVG/1.1/DTD/svg11.dtd">
<!-- Generated by graphviz version 2.28.0 (20160728.0200)
 -->
<!-- Title: f Pages: 1 -->
<svg width="253pt" height="396pt"
 viewBox="0.00 0.00 253.00 396.07" xmlns="http://www.w3.org/2000/svg" xmlns:xlink="http://www.w3.org/1999/xlink">
<g id="graph1" class="graph" transform="scale(0.203868 0.203868) rotate(0) translate(4 1938.79)">
<title>f</title>
<!-- init_model -->
<g id="node1" class="node"><title>init_model</title>
<ellipse fill="white" stroke="black" cx="495" cy="-816" rx="93.3662" ry="18"/>
<text text-anchor="middle" x="495" y="-811.8" font-family="Times,serif" font-size="14.00">init_model [function]</text>
</g>
<!-- 956 -->
<g id="node25" class="node"><title>956</title>
<ellipse fill="orange" stroke="black" cx="693" cy="-691" rx="94.5662" ry="18"/>
<text text-anchor="middle" x="693" y="-686.8" font-family="Times,serif" font-size="14.00">modelSemivariogram</text>
</g>
<!-- init_model&#45;&gt;956 -->
<g id="edge1" class="edge"><title>init_model&#45;&gt;956:center</title>
<path fill="none" stroke="blue" stroke-dasharray="5,2" d="M521.293,-798.667C556.352,-776.887 618.525,-738.265 657.657,-713.956"/>
<polygon fill="blue" stroke="blue" points="659.951,-716.651 666.598,-708.401 656.257,-710.705 659.951,-716.651"/>
</g>
<!-- def28757 -->
<g id="node2" class="node"><title>def28757</title>
<ellipse fill="orange" stroke="black" cx="495" cy="-920" rx="47.2632" ry="18"/>
<text text-anchor="middle" x="495" y="-915.8" font-family="Times,serif" font-size="14.00">def28757</text>
</g>
<!-- def28757&#45;&gt;init_model -->
<g id="edge2" class="edge"><title>def28757&#45;&gt;init_model:center</title>
<path fill="none" stroke="red" d="M495,-901.697C495,-885.923 495,-862.364 495,-844.094"/>
<polygon fill="red" stroke="red" points="498.5,-844.047 495,-834.047 491.5,-844.047 498.5,-844.047"/>
</g>
<!-- modelSemivariogram -->
<g id="node3" class="node"><title>modelSemivariogram</title>
<ellipse fill="white" stroke="black" cx="743" cy="-816" rx="135.606" ry="18"/>
<text text-anchor="middle" x="743" y="-811.8" font-family="Times,serif" font-size="14.00">modelSemivariogram [function]</text>
</g>
<!-- modelSemivariogram&#45;&gt;956 -->
<g id="edge3" class="edge"><title>modelSemivariogram&#45;&gt;956:center</title>
<path fill="none" stroke="blue" d="M736.048,-797.897C727.689,-777.335 713.567,-742.595 703.789,-718.54"/>
<polygon fill="blue" stroke="blue" points="706.901,-716.903 699.893,-708.957 700.417,-719.539 706.901,-716.903"/>
</g>
<!-- def78830 -->
<g id="node4" class="node"><title>def78830</title>
<ellipse fill="orange" stroke="black" cx="743" cy="-920" rx="47.2632" ry="18"/>
<text text-anchor="middle" x="743" y="-915.8" font-family="Times,serif" font-size="14.00">def78830</text>
</g>
<!-- def78830&#45;&gt;modelSemivariogram -->
<g id="edge4" class="edge"><title>def78830&#45;&gt;modelSemivariogram:center</title>
<path fill="none" stroke="red" d="M743,-901.697C743,-885.923 743,-862.364 743,-844.094"/>
<polygon fill="red" stroke="red" points="746.5,-844.047 743,-834.047 739.5,-844.047 746.5,-844.047"/>
</g>
<!-- getInterpolator -->
<g id="node5" class="node"><title>getInterpolator</title>
<ellipse fill="white" stroke="black" cx="428" cy="-691" rx="109.167" ry="18"/>
<text text-anchor="middle" x="428" y="-686.8" font-family="Times,serif" font-size="14.00">getInterpolator [function]</text>
</g>
<!-- 456 -->
<g id="node24" class="node"><title>456</title>
<ellipse fill="orange" stroke="black" cx="539" cy="-565" rx="68.1275" ry="18"/>
<text text-anchor="middle" x="539" y="-560.8" font-family="Times,serif" font-size="14.00">getInterpolator</text>
</g>
<!-- getInterpolator&#45;&gt;456 -->
<g id="edge5" class="edge"><title>getInterpolator&#45;&gt;456:center</title>
<path fill="none" stroke="blue" d="M443.201,-673.018C462.299,-651.684 495.208,-614.921 517.039,-590.533"/>
<polygon fill="blue" stroke="blue" points="519.92,-592.562 523.982,-582.777 514.705,-587.893 519.92,-592.562"/>
</g>
<!-- def40897 -->
<g id="node6" class="node"><title>def40897</title>
<ellipse fill="orange" stroke="black" cx="336" cy="-816" rx="47.2632" ry="18"/>
<text text-anchor="middle" x="336" y="-811.8" font-family="Times,serif" font-size="14.00">def40897</text>
</g>
<!-- def40897&#45;&gt;getInterpolator -->
<g id="edge6" class="edge"><title>def40897&#45;&gt;getInterpolator:center</title>
<path fill="none" stroke="red" d="M348.408,-798.412C364.027,-777.53 391.007,-741.458 409.174,-717.17"/>
<polygon fill="red" stroke="red" points="412.012,-719.219 415.199,-709.115 406.406,-715.026 412.012,-719.219"/>
</g>
<!-- 883 -->
<g id="node7" class="node"><title>883</title>
<ellipse fill="orange" stroke="black" cx="670" cy="-1784" rx="32.2385" ry="18"/>
<text text-anchor="middle" x="670" y="-1779.8" font-family="Times,serif" font-size="14.00">demo</text>
</g>
<!-- crs -->
<g id="node11" class="node"><title>crs</title>
<ellipse fill="white" stroke="black" cx="263" cy="-1680" rx="49.08" ry="18"/>
<text text-anchor="middle" x="263" y="-1675.8" font-family="Times,serif" font-size="14.00">crs [CRS]</text>
</g>
<!-- 883&#45;&gt;crs -->
<g id="edge7" class="edge"><title>883&#45;&gt;crs:center</title>
<path fill="none" stroke="red" stroke-dasharray="5,2" d="M640.467,-1776.29C580.193,-1762.5 438.756,-1729.58 321,-1698 317.231,-1696.99 313.333,-1695.91 309.423,-1694.81"/>
<polygon fill="red" stroke="red" points="310.324,-1691.43 299.747,-1692.05 308.401,-1698.16 310.324,-1691.43"/>
</g>
<!-- meuse -->
<g id="node12" class="node"><title>meuse</title>
<ellipse fill="white" stroke="black" cx="836" cy="-1680" rx="138.125" ry="18"/>
<text text-anchor="middle" x="836" y="-1675.8" font-family="Times,serif" font-size="14.00">meuse [SpatialPointsDataFrame]</text>
</g>
<!-- 883&#45;&gt;meuse -->
<g id="edge8" class="edge"><title>883&#45;&gt;meuse:center</title>
<path fill="none" stroke="red" stroke-dasharray="5,2" d="M691.024,-1770.08C718.494,-1753.2 767.005,-1723.39 800.29,-1702.94"/>
<polygon fill="red" stroke="red" points="802.134,-1705.92 808.822,-1697.7 798.47,-1699.95 802.134,-1705.92"/>
</g>
<!-- meuse.area -->
<g id="node13" class="node"><title>meuse.area</title>
<ellipse fill="white" stroke="black" cx="677" cy="-1605" rx="125.216" ry="18"/>
<text text-anchor="middle" x="677" y="-1600.8" font-family="Times,serif" font-size="14.00">meuse.area [SpatialPolygons]</text>
</g>
<!-- 883&#45;&gt;meuse.area -->
<g id="edge9" class="edge"><title>883&#45;&gt;meuse.area:center</title>
<path fill="none" stroke="red" stroke-dasharray="5,2" d="M670.684,-1765.71C671.905,-1734.83 674.469,-1670 675.927,-1633.14"/>
<polygon fill="red" stroke="red" points="679.426,-1633.23 676.324,-1623.1 672.431,-1632.96 679.426,-1633.23"/>
</g>
<!-- meuse.grid -->
<g id="node14" class="node"><title>meuse.grid</title>
<ellipse fill="white" stroke="black" cx="486" cy="-1680" rx="155.267" ry="18"/>
<text text-anchor="middle" x="486" y="-1675.8" font-family="Times,serif" font-size="14.00">meuse.grid [SpatialPixelsDataFrame]</text>
</g>
<!-- 883&#45;&gt;meuse.grid -->
<g id="edge10" class="edge"><title>883&#45;&gt;meuse.grid:center</title>
<path fill="none" stroke="red" stroke-dasharray="5,2" d="M647.805,-1770.7C617.494,-1753.89 562.657,-1723.49 525.304,-1702.79"/>
<polygon fill="red" stroke="red" points="526.653,-1699.53 516.21,-1697.75 523.259,-1705.66 526.653,-1699.53"/>
</g>
<!-- meuse.riv -->
<g id="node15" class="node"><title>meuse.riv</title>
<ellipse fill="white" stroke="black" cx="1113" cy="-1680" rx="120.193" ry="18"/>
<text text-anchor="middle" x="1113" y="-1675.8" font-family="Times,serif" font-size="14.00">meuse.riv [SpatialPolygons]</text>
</g>
<!-- 883&#45;&gt;meuse.riv -->
<g id="edge11" class="edge"><title>883&#45;&gt;meuse.riv:center</title>
<path fill="none" stroke="red" stroke-dasharray="5,2" d="M699.41,-1776.23C768.256,-1760.38 941.544,-1720.48 1040.59,-1697.67"/>
<polygon fill="red" stroke="red" points="1041.57,-1701.04 1050.53,-1695.38 1040,-1694.22 1041.57,-1701.04"/>
</g>
<!-- 94046 -->
<g id="node8" class="node"><title>94046</title>
<ellipse fill="white" stroke="black" cx="576" cy="-1910" rx="35.5584" ry="18"/>
<text text-anchor="middle" x="576" y="-1905.8" font-family="Times,serif" font-size="14.00">meuse</text>
</g>
<!-- 94046&#45;&gt;883 -->
<g id="edge12" class="edge"><title>94046&#45;&gt;883:center</title>
<path fill="none" stroke="black" d="M588.096,-1893.04C604.242,-1871.74 632.977,-1833.84 651.759,-1809.06"/>
<polygon fill="none" stroke="black" points="654.698,-1810.98 657.95,-1800.9 649.12,-1806.75 654.698,-1810.98"/>
<text text-anchor="middle" x="641.998" y="-1842.8" font-family="Times,serif" font-size="14.00">topic</text>
</g>
<!-- 4555 -->
<g id="node9" class="node"><title>4555</title>
<ellipse fill="white" stroke="black" cx="670" cy="-1910" rx="40.3147" ry="18"/>
<text text-anchor="middle" x="670" y="-1905.8" font-family="Times,serif" font-size="14.00">FALSE</text>
</g>
<!-- 4555&#45;&gt;883 -->
<g id="edge13" class="edge"><title>4555&#45;&gt;883:center</title>
<path fill="none" stroke="black" d="M670,-1891.76C670,-1871.21 670,-1836.63 670,-1812.41"/>
<polygon fill="none" stroke="black" points="673.5,-1812.1 670,-1802.1 666.5,-1812.1 673.5,-1812.1"/>
<text text-anchor="middle" x="683.215" y="-1842.8" font-family="Times,serif" font-size="14.00">echo</text>
</g>
<!-- 52810 -->
<g id="node10" class="node"><title>52810</title>
<ellipse fill="white" stroke="black" cx="769" cy="-1910" rx="40.3147" ry="18"/>
<text text-anchor="middle" x="769" y="-1905.8" font-family="Times,serif" font-size="14.00">FALSE</text>
</g>
<!-- 52810&#45;&gt;883 -->
<g id="edge14" class="edge"><title>52810&#45;&gt;883:center</title>
<path fill="none" stroke="black" d="M756.057,-1892.79C738.992,-1871.41 708.827,-1833.63 689.126,-1808.96"/>
<polygon fill="none" stroke="black" points="691.607,-1806.45 682.633,-1800.82 686.137,-1810.82 691.607,-1806.45"/>
<text text-anchor="middle" x="734.33" y="-1842.8" font-family="Times,serif" font-size="14.00">ask</text>
</g>
<!-- meuse$zinc -->
<g id="node19" class="node"><title>meuse$zinc</title>
<ellipse fill="white" stroke="black" cx="836" cy="-1529" rx="97.1575" ry="18"/>
<text text-anchor="middle" x="836" y="-1524.8" font-family="Times,serif" font-size="14.00">meuse$zinc [numeric]</text>
</g>
<!-- meuse&#45;&gt;meuse$zinc -->
<g id="edge15" class="edge"><title>meuse&#45;&gt;meuse$zinc:center</title>
<path fill="none" stroke="black" d="M836,-1661.91C836,-1636.45 836,-1588.28 836,-1557.74"/>
<polygon fill="none" stroke="black" points="839.5,-1557.35 836,-1547.35 832.5,-1557.35 839.5,-1557.35"/>
</g>
<!-- 551 -->
<g id="node21" class="node"><title>551</title>
<ellipse fill="orange" stroke="black" cx="883" cy="-920" rx="35.8859" ry="18"/>
<text text-anchor="middle" x="883" y="-915.8" font-family="Times,serif" font-size="14.00">SField</text>
</g>
<!-- meuse.area&#45;&gt;551 -->
<g id="edge16" class="edge"><title>meuse.area&#45;&gt;551:center</title>
<path fill="none" stroke="black" d="M678.45,-1586.71C680.501,-1560.74 684,-1510.11 684,-1467 684,-1467 684,-1467 684,-1045 684,-972.614 780.017,-940.96 838.661,-928.377"/>
<polygon fill="none" stroke="black" points="839.691,-931.739 848.791,-926.312 838.293,-924.88 839.691,-931.739"/>
<text text-anchor="middle" x="704.998" y="-1295.8" font-family="Times,serif" font-size="14.00">domain</text>
</g>
<!-- 677 -->
<g id="node28" class="node"><title>677</title>
<ellipse fill="orange" stroke="black" cx="373" cy="-1529" rx="47.2589" ry="18"/>
<text text-anchor="middle" x="373" y="-1524.8" font-family="Times,serif" font-size="14.00">geometry</text>
</g>
<!-- meuse.grid&#45;&gt;677 -->
<g id="edge17" class="edge"><title>meuse.grid&#45;&gt;677:center</title>
<path fill="none" stroke="black" d="M473.037,-1661.91C453.093,-1635.61 414.783,-1585.09 391.795,-1554.78"/>
<polygon fill="none" stroke="black" points="394.299,-1552.29 385.467,-1546.44 388.721,-1556.52 394.299,-1552.29"/>
<text text-anchor="middle" x="450.945" y="-1600.8" font-family="Times,serif" font-size="14.00">obj</text>
</g>
<!-- 572 -->
<g id="node29" class="node"><title>572</title>
<ellipse fill="orange" stroke="black" cx="486" cy="-1529" rx="47.2589" ry="18"/>
<text text-anchor="middle" x="486" y="-1524.8" font-family="Times,serif" font-size="14.00">geometry</text>
</g>
<!-- meuse.grid&#45;&gt;572 -->
<g id="edge18" class="edge"><title>meuse.grid&#45;&gt;572:center</title>
<path fill="none" stroke="black" d="M486,-1661.91C486,-1636.45 486,-1588.28 486,-1557.74"/>
<polygon fill="none" stroke="black" points="489.5,-1557.35 486,-1547.35 482.5,-1557.35 489.5,-1557.35"/>
<text text-anchor="middle" x="494.945" y="-1600.8" font-family="Times,serif" font-size="14.00">obj</text>
</g>
<!-- meuse~2 -->
<g id="node16" class="node"><title>meuse~2</title>
<ellipse fill="white" stroke="black" cx="866" cy="-1149" rx="148.203" ry="18"/>
<text text-anchor="middle" x="866" y="-1144.8" font-family="Times,serif" font-size="14.00">meuse~2 [SpatialPointsDataFrame]</text>
</g>
<!-- meuse[&quot;lzinc&quot;] -->
<g id="node22" class="node"><title>meuse[&quot;lzinc&quot;]</title>
<ellipse fill="white" stroke="black" cx="883" cy="-1046" rx="171.24" ry="18"/>
<text text-anchor="middle" x="883" y="-1041.8" font-family="Times,serif" font-size="14.00">meuse[&quot;lzinc&quot;] [SpatialPointsDataFrame]</text>
</g>
<!-- meuse~2&#45;&gt;meuse[&quot;lzinc&quot;] -->
<g id="edge19" class="edge"><title>meuse~2&#45;&gt;meuse[&quot;lzinc&quot;]:center</title>
<path fill="none" stroke="black" d="M868.884,-1130.87C871.497,-1115.34 875.392,-1092.2 878.429,-1074.16"/>
<polygon fill="none" stroke="black" points="881.894,-1074.66 880.102,-1064.22 874.991,-1073.5 881.894,-1074.66"/>
</g>
<!-- meuse$lzinc -->
<g id="node17" class="node"><title>meuse$lzinc</title>
<ellipse fill="white" stroke="black" cx="849" cy="-1300" rx="99.1843" ry="18"/>
<text text-anchor="middle" x="849" y="-1295.8" font-family="Times,serif" font-size="14.00">meuse$lzinc [numeric]</text>
</g>
<!-- meuse$lzinc&#45;&gt;meuse~2 -->
<g id="edge20" class="edge"><title>meuse$lzinc&#45;&gt;meuse~2:center</title>
<path fill="none" stroke="red" d="M850.95,-1281.91C853.868,-1256.33 859.398,-1207.86 862.881,-1177.33"/>
<polygon fill="red" stroke="red" points="866.364,-1177.68 864.02,-1167.35 859.409,-1176.89 866.364,-1177.68"/>
</g>
<!-- 892 -->
<g id="node18" class="node"><title>892</title>
<ellipse fill="orange" stroke="black" cx="841" cy="-1404" rx="27" ry="18"/>
<text text-anchor="middle" x="841" y="-1399.8" font-family="Times,serif" font-size="14.00">log</text>
</g>
<!-- 892&#45;&gt;meuse$lzinc -->
<g id="edge21" class="edge"><title>892&#45;&gt;meuse$lzinc:center</title>
<path fill="none" stroke="red" d="M842.357,-1385.7C843.594,-1369.92 845.442,-1346.36 846.875,-1328.09"/>
<polygon fill="red" stroke="red" points="850.37,-1328.29 847.663,-1318.05 843.392,-1327.74 850.37,-1328.29"/>
</g>
<!-- meuse$zinc&#45;&gt;892 -->
<g id="edge22" class="edge"><title>meuse$zinc&#45;&gt;892:center</title>
<path fill="none" stroke="black" d="M836.695,-1510.9C837.519,-1490.63 838.902,-1456.6 839.878,-1432.59"/>
<polygon fill="none" stroke="black" points="843.385,-1432.49 840.295,-1422.35 836.391,-1432.2 843.385,-1432.49"/>
</g>
<!-- zincPointData -->
<g id="node20" class="node"><title>zincPointData</title>
<ellipse fill="white" stroke="black" cx="997" cy="-816" rx="99.2102" ry="18"/>
<text text-anchor="middle" x="997" y="-811.8" font-family="Times,serif" font-size="14.00">zincPointData [SField]</text>
</g>
<!-- zincPointData&#45;&gt;456 -->
<g id="edge24" class="edge"><title>zincPointData&#45;&gt;456:center</title>
<path fill="none" stroke="black" d="M976.558,-798.318C941.271,-770.049 865.973,-712.006 796,-673 742.427,-643.136 725.622,-642.578 669,-619 640.893,-607.296 609.263,-594.394 584.24,-584.251"/>
<polygon fill="none" stroke="black" points="585.23,-580.876 574.648,-580.367 582.603,-587.364 585.23,-580.876"/>
<text text-anchor="middle" x="880.604" y="-686.8" font-family="Times,serif" font-size="14.00">pointData</text>
</g>
<!-- zincPointData&#45;&gt;956 -->
<g id="edge23" class="edge"><title>zincPointData&#45;&gt;956:center</title>
<path fill="none" stroke="black" d="M947.523,-800.291C916.51,-790.64 875.898,-777.209 840.792,-763 803.412,-747.87 762.143,-727.742 732.737,-712.782"/>
<polygon fill="none" stroke="black" points="734.123,-709.56 723.627,-708.119 730.934,-715.791 734.123,-709.56"/>
<text text-anchor="middle" x="867.604" y="-749.8" font-family="Times,serif" font-size="14.00">pointData</text>
</g>
<!-- 551&#45;&gt;zincPointData -->
<g id="edge25" class="edge"><title>551&#45;&gt;zincPointData:center</title>
<path fill="none" stroke="red" d="M899.821,-903.95C918.466,-887.268 948.779,-860.145 970.596,-840.625"/>
<polygon fill="red" stroke="red" points="973.093,-843.087 978.211,-833.811 968.425,-837.871 973.093,-843.087"/>
</g>
<!-- meuse[&quot;lzinc&quot;]&#45;&gt;551 -->
<g id="edge26" class="edge"><title>meuse[&quot;lzinc&quot;]&#45;&gt;551:center</title>
<path fill="none" stroke="black" d="M883,-1027.76C883,-1007.21 883,-972.631 883,-948.408"/>
<polygon fill="none" stroke="black" points="886.5,-948.095 883,-938.095 879.5,-948.095 886.5,-948.095"/>
<text text-anchor="middle" x="918.38" y="-978.8" font-family="Times,serif" font-size="14.00">observations</text>
</g>
<!-- interpolator -->
<g id="node23" class="node"><title>interpolator</title>
<ellipse fill="white" stroke="black" cx="376" cy="-461" rx="97.172" ry="18"/>
<text text-anchor="middle" x="376" y="-456.8" font-family="Times,serif" font-size="14.00">interpolator [function]</text>
</g>
<!-- 899 -->
<g id="node32" class="node"><title>899</title>
<ellipse fill="orange" stroke="black" cx="248" cy="-358" rx="56.1322" ry="18"/>
<text text-anchor="middle" x="248" y="-353.8" font-family="Times,serif" font-size="14.00">interpolator</text>
</g>
<!-- interpolator&#45;&gt;899 -->
<g id="edge27" class="edge"><title>interpolator&#45;&gt;899:center</title>
<path fill="none" stroke="blue" d="M354.863,-443.322C333.394,-426.381 300.015,-400.043 276.28,-381.315"/>
<polygon fill="blue" stroke="blue" points="278.34,-378.482 268.322,-375.035 274.004,-383.977 278.34,-378.482"/>
</g>
<!-- 456&#45;&gt;interpolator -->
<g id="edge28" class="edge"><title>456&#45;&gt;interpolator:center</title>
<path fill="none" stroke="red" d="M513.531,-548.062C485.986,-530.826 441.891,-503.232 411.078,-483.951"/>
<polygon fill="red" stroke="red" points="412.704,-480.839 402.37,-478.501 408.99,-486.773 412.704,-480.839"/>
</g>
<!-- 956&#45;&gt;456 -->
<g id="edge29" class="edge"><title>956&#45;&gt;456:center</title>
<path fill="none" stroke="black" d="M672.231,-673.277C645.215,-651.524 597.892,-613.42 567.525,-588.968"/>
<polygon fill="none" stroke="black" points="569.424,-586.004 559.44,-582.458 565.034,-591.456 569.424,-586.004"/>
<text text-anchor="middle" x="645.212" y="-623.8" font-family="Times,serif" font-size="14.00">params</text>
</g>
<!-- locInterest -->
<g id="node26" class="node"><title>locInterest</title>
<ellipse fill="white" stroke="black" cx="229" cy="-1225" rx="85.2801" ry="18"/>
<text text-anchor="middle" x="229" y="-1220.8" font-family="Times,serif" font-size="14.00">locInterest [SField]</text>
</g>
<!-- locInterest&#45;&gt;899 -->
<g id="edge30" class="edge"><title>locInterest&#45;&gt;899:center</title>
<path fill="none" stroke="black" d="M221.739,-1206.82C212.297,-1182.89 197,-1137.95 197,-1098 197,-1098 197,-1098 197,-460 197,-431.595 213.272,-403.055 227.433,-383.595"/>
<polygon fill="none" stroke="black" points="230.258,-385.661 233.522,-375.582 224.685,-381.426 230.258,-385.661"/>
<text text-anchor="middle" x="233.924" y="-811.8" font-family="Times,serif" font-size="14.00">locOfInterest</text>
</g>
<!-- 453 -->
<g id="node27" class="node"><title>453</title>
<ellipse fill="orange" stroke="black" cx="445" cy="-1404" rx="35.8859" ry="18"/>
<text text-anchor="middle" x="445" y="-1399.8" font-family="Times,serif" font-size="14.00">SField</text>
</g>
<!-- 453&#45;&gt;locInterest -->
<g id="edge31" class="edge"><title>453&#45;&gt;locInterest:center</title>
<path fill="none" stroke="red" d="M426.955,-1388.21C389.347,-1357.4 302.339,-1286.1 257.243,-1249.14"/>
<polygon fill="red" stroke="red" points="259.285,-1246.29 249.331,-1242.66 254.848,-1251.71 259.285,-1246.29"/>
</g>
<!-- 677&#45;&gt;453 -->
<g id="edge32" class="edge"><title>677&#45;&gt;453:center</title>
<path fill="none" stroke="black" d="M373.759,-1510.9C375.08,-1495.83 378.651,-1473.74 388.24,-1457 395.212,-1444.83 406.007,-1433.9 416.318,-1425.24"/>
<polygon fill="none" stroke="black" points="418.762,-1427.77 424.402,-1418.8 414.4,-1422.29 418.762,-1427.77"/>
<text text-anchor="middle" x="423.38" y="-1461.8" font-family="Times,serif" font-size="14.00">observations</text>
</g>
<!-- 572&#45;&gt;453 -->
<g id="edge33" class="edge"><title>572&#45;&gt;453:center</title>
<path fill="none" stroke="black" d="M480.299,-1510.9C473.445,-1490.34 461.865,-1455.6 453.847,-1431.54"/>
<polygon fill="none" stroke="black" points="457.135,-1430.34 450.652,-1421.96 450.494,-1432.55 457.135,-1430.34"/>
<text text-anchor="middle" x="487.998" y="-1461.8" font-family="Times,serif" font-size="14.00">domain</text>
</g>
<!-- 10292 -->
<g id="node30" class="node"><title>10292</title>
<ellipse fill="white" stroke="black" cx="588" cy="-1529" rx="36.3712" ry="18"/>
<text text-anchor="middle" x="588" y="-1524.8" font-family="Times,serif" font-size="14.00">TRUE</text>
</g>
<!-- 10292&#45;&gt;453 -->
<g id="edge34" class="edge"><title>10292&#45;&gt;453:center</title>
<path fill="none" stroke="black" d="M572.374,-1512.61C557.274,-1497.92 533.578,-1475.39 512,-1457 499.343,-1446.21 484.813,-1434.83 472.527,-1425.46"/>
<polygon fill="none" stroke="black" points="474.517,-1422.58 464.43,-1419.34 470.294,-1428.16 474.517,-1422.58"/>
<text text-anchor="middle" x="571.823" y="-1461.8" font-family="Times,serif" font-size="14.00">cellsArePoints</text>
</g>
<!-- intZincPointData -->
<g id="node31" class="node"><title>intZincPointData</title>
<ellipse fill="white" stroke="black" cx="248" cy="-254" rx="111.422" ry="18"/>
<text text-anchor="middle" x="248" y="-249.8" font-family="Times,serif" font-size="14.00">intZincPointData [SField]</text>
</g>
<!-- intZincPointData@observations[1] -->
<g id="node34" class="node"><title>intZincPointData@observations[1]</title>
<ellipse fill="white" stroke="black" cx="248" cy="-151" rx="248.52" ry="18"/>
<text text-anchor="middle" x="248" y="-146.8" font-family="Times,serif" font-size="14.00">intZincPointData@observations[1] [SpatialPixelsDataFrame]</text>
</g>
<!-- intZincPointData&#45;&gt;intZincPointData@observations[1] -->
<g id="edge35" class="edge"><title>intZincPointData&#45;&gt;intZincPointData@observations[1]:center</title>
<path fill="none" stroke="black" d="M248,-235.867C248,-220.414 248,-197.416 248,-179.409"/>
<polygon fill="none" stroke="black" points="251.5,-179.217 248,-169.217 244.5,-179.217 251.5,-179.217"/>
</g>
<!-- 899&#45;&gt;intZincPointData -->
<g id="edge36" class="edge"><title>899&#45;&gt;intZincPointData:center</title>
<path fill="none" stroke="red" d="M248,-339.697C248,-323.923 248,-300.364 248,-282.094"/>
<polygon fill="red" stroke="red" points="251.5,-282.047 248,-272.047 244.5,-282.047 251.5,-282.047"/>
</g>
<!-- 246 -->
<g id="node33" class="node"><title>246</title>
<ellipse fill="orange" stroke="black" cx="248" cy="-25" rx="34.4665" ry="18"/>
<text text-anchor="middle" x="248" y="-20.8" font-family="Times,serif" font-size="14.00">spplot</text>
</g>
<!-- intZincPointData@observations[1]&#45;&gt;246 -->
<g id="edge37" class="edge"><title>intZincPointData@observations[1]&#45;&gt;246:center</title>
<path fill="none" stroke="black" d="M248,-132.758C248,-112.214 248,-77.6309 248,-53.408"/>
<polygon fill="none" stroke="black" points="251.5,-53.0952 248,-43.0952 244.5,-53.0953 251.5,-53.0952"/>
<text text-anchor="middle" x="256.945" y="-83.8" font-family="Times,serif" font-size="14.00">obj</text>
</g>
</g>
</svg>
