<?xml version="1.0" encoding="UTF-8" standalone="no"?>
<!DOCTYPE svg PUBLIC "-//W3C//DTD SVG 1.1//EN"
 "http://www.w3.org/Graphics/SVG/1.1/DTD/svg11.dtd">
<!-- Generated by graphviz version 2.28.0 (20160728.0200)
 -->
<!-- Title: f Pages: 1 -->
<svg width="246pt" height="370pt"
 viewBox="0.00 0.00 246.00 370.12" xmlns="http://www.w3.org/2000/svg" xmlns:xlink="http://www.w3.org/1999/xlink">
<g id="graph1" class="graph" transform="scale(0.216445 0.216445) rotate(0) translate(4 1706)">
<title>f</title>
<!-- fcall_VFX9XK -->
<g id="node1" class="node"><title>fcall_VFX9XK</title>
<ellipse fill="orange" stroke="black" cx="501.97" cy="-1594" rx="32.2385" ry="18"/>
<text text-anchor="middle" x="501.97" y="-1589.8" font-family="Times,serif" font-size="14.00">demo</text>
</g>
<!-- crs -->
<g id="node5" class="node"><title>crs</title>
<ellipse fill="white" stroke="black" cx="323.97" cy="-1508" rx="27" ry="29.5"/>
<text text-anchor="middle" x="323.97" y="-1512.2" font-family="Times,serif" font-size="14.00">crs </text>
<text text-anchor="middle" x="323.97" y="-1495.4" font-family="Times,serif" font-size="14.00">[&#39;a]</text>
</g>
<!-- fcall_VFX9XK&#45;&gt;crs -->
<g id="edge1" class="edge"><title>fcall_VFX9XK&#45;&gt;crs:center</title>
<path fill="none" stroke="red" stroke-dasharray="5,2" d="M471.5,-1587.94C446.161,-1582.88 409.725,-1573.55 380.97,-1558 370.139,-1552.14 359.548,-1543.94 350.492,-1535.93"/>
<polygon fill="red" stroke="red" points="352.689,-1533.19 342.962,-1529 347.947,-1538.34 352.689,-1533.19"/>
</g>
<!-- meuse -->
<g id="node6" class="node"><title>meuse</title>
<ellipse fill="white" stroke="black" cx="501.97" cy="-1508" rx="53.1588" ry="29.5"/>
<text text-anchor="middle" x="501.97" y="-1512.2" font-family="Times,serif" font-size="14.00">meuse </text>
<text text-anchor="middle" x="501.97" y="-1495.4" font-family="Times,serif" font-size="14.00">[S x Q set]</text>
</g>
<!-- fcall_VFX9XK&#45;&gt;meuse -->
<g id="edge2" class="edge"><title>fcall_VFX9XK&#45;&gt;meuse:center</title>
<path fill="none" stroke="red" stroke-dasharray="5,2" d="M501.97,-1575.6C501.97,-1567.46 501.97,-1557.43 501.97,-1547.65"/>
<polygon fill="red" stroke="red" points="505.47,-1547.63 501.97,-1537.63 498.47,-1547.63 505.47,-1547.63"/>
</g>
<!-- meuse.area -->
<g id="node7" class="node"><title>meuse.area</title>
<ellipse fill="white" stroke="black" cx="277.97" cy="-1430" rx="57.5" ry="29.5"/>
<text text-anchor="middle" x="277.97" y="-1434.2" font-family="Times,serif" font-size="14.00">meuse.area </text>
<text text-anchor="middle" x="277.97" y="-1417.4" font-family="Times,serif" font-size="14.00">[R set]</text>
</g>
<!-- fcall_VFX9XK&#45;&gt;meuse.area -->
<g id="edge3" class="edge"><title>fcall_VFX9XK&#45;&gt;meuse.area:center</title>
<path fill="none" stroke="red" stroke-dasharray="5,2" d="M485.598,-1578.28C459.847,-1555.48 407.864,-1510.81 359.97,-1478 349.288,-1470.68 337.401,-1463.41 326.066,-1456.85"/>
<polygon fill="red" stroke="red" points="327.548,-1453.67 317.127,-1451.76 324.082,-1459.75 327.548,-1453.67"/>
</g>
<!-- meuse.grid -->
<g id="node8" class="node"><title>meuse.grid</title>
<ellipse fill="white" stroke="black" cx="718.97" cy="-1508" rx="57.25" ry="29.5"/>
<text text-anchor="middle" x="718.97" y="-1512.2" font-family="Times,serif" font-size="14.00">meuse.grid </text>
<text text-anchor="middle" x="718.97" y="-1495.4" font-family="Times,serif" font-size="14.00">[S x Q set]</text>
</g>
<!-- fcall_VFX9XK&#45;&gt;meuse.grid -->
<g id="edge4" class="edge"><title>fcall_VFX9XK&#45;&gt;meuse.grid:center</title>
<path fill="none" stroke="red" stroke-dasharray="5,2" d="M527.714,-1583.03C561.289,-1570.04 620.892,-1546.97 664.663,-1530.02"/>
<polygon fill="red" stroke="red" points="665.963,-1533.27 674.026,-1526.4 663.436,-1526.74 665.963,-1533.27"/>
</g>
<!-- meuse.riv -->
<g id="node9" class="node"><title>meuse.riv</title>
<ellipse fill="white" stroke="black" cx="884.97" cy="-1508" rx="52.25" ry="29.5"/>
<text text-anchor="middle" x="884.97" y="-1512.2" font-family="Times,serif" font-size="14.00">meuse.riv </text>
<text text-anchor="middle" x="884.97" y="-1495.4" font-family="Times,serif" font-size="14.00">[R set]</text>
</g>
<!-- fcall_VFX9XK&#45;&gt;meuse.riv -->
<g id="edge5" class="edge"><title>fcall_VFX9XK&#45;&gt;meuse.riv:center</title>
<path fill="none" stroke="red" stroke-dasharray="5,2" d="M532.737,-1587.96C584.923,-1579.2 693.992,-1559.98 784.97,-1538 799.674,-1534.45 815.451,-1530.12 830.028,-1525.9"/>
<polygon fill="red" stroke="red" points="831.288,-1529.18 839.901,-1523.01 829.32,-1522.46 831.288,-1529.18"/>
</g>
<!-- lt_FFcYtS -->
<g id="node2" class="node"><title>lt_FFcYtS</title>
<ellipse fill="white" stroke="black" cx="379.97" cy="-1684" rx="35.5584" ry="18"/>
<text text-anchor="middle" x="379.97" y="-1679.8" font-family="Times,serif" font-size="14.00">meuse</text>
</g>
<!-- lt_FFcYtS&#45;&gt;fcall_VFX9XK -->
<g id="edge6" class="edge"><title>lt_FFcYtS&#45;&gt;fcall_VFX9XK:center</title>
<path fill="none" stroke="black" d="M399.571,-1668.86C419.878,-1654.21 451.774,-1631.21 474.571,-1614.76"/>
<polygon fill="none" stroke="black" points="476.756,-1617.5 482.819,-1608.81 472.661,-1611.82 476.756,-1617.5"/>
<text text-anchor="middle" x="465.967" y="-1634.8" font-family="Times,serif" font-size="14.00">topic</text>
</g>
<!-- lt_WKR3bi -->
<g id="node3" class="node"><title>lt_WKR3bi</title>
<ellipse fill="white" stroke="black" cx="501.97" cy="-1684" rx="40.3147" ry="18"/>
<text text-anchor="middle" x="501.97" y="-1679.8" font-family="Times,serif" font-size="14.00">FALSE</text>
</g>
<!-- lt_WKR3bi&#45;&gt;fcall_VFX9XK -->
<g id="edge7" class="edge"><title>lt_WKR3bi&#45;&gt;fcall_VFX9XK:center</title>
<path fill="none" stroke="black" d="M501.97,-1665.61C501.97,-1653.24 501.97,-1636.37 501.97,-1622.22"/>
<polygon fill="none" stroke="black" points="505.47,-1622.05 501.97,-1612.05 498.47,-1622.05 505.47,-1622.05"/>
<text text-anchor="middle" x="515.184" y="-1634.8" font-family="Times,serif" font-size="14.00">echo</text>
</g>
<!-- lt_EgI8Dv -->
<g id="node4" class="node"><title>lt_EgI8Dv</title>
<ellipse fill="white" stroke="black" cx="630.97" cy="-1684" rx="40.3147" ry="18"/>
<text text-anchor="middle" x="630.97" y="-1679.8" font-family="Times,serif" font-size="14.00">FALSE</text>
</g>
<!-- lt_EgI8Dv&#45;&gt;fcall_VFX9XK -->
<g id="edge8" class="edge"><title>lt_EgI8Dv&#45;&gt;fcall_VFX9XK:center</title>
<path fill="none" stroke="black" d="M609.668,-1668.47C587.871,-1653.6 553.892,-1630.42 529.94,-1614.08"/>
<polygon fill="none" stroke="black" points="531.843,-1611.14 521.61,-1608.4 527.899,-1616.92 531.843,-1611.14"/>
<text text-anchor="middle" x="587.299" y="-1634.8" font-family="Times,serif" font-size="14.00">ask</text>
</g>
<!-- meuse~2 -->
<g id="node10" class="node"><title>meuse~2</title>
<ellipse fill="white" stroke="black" cx="392.97" cy="-1124" rx="53.1588" ry="29.5"/>
<text text-anchor="middle" x="392.97" y="-1128.2" font-family="Times,serif" font-size="14.00">meuse~2 </text>
<text text-anchor="middle" x="392.97" y="-1111.4" font-family="Times,serif" font-size="14.00">[S x Q set]</text>
</g>
<!-- meuse&#45;&gt;meuse~2 -->
<g id="edge9" class="edge"><title>meuse&#45;&gt;meuse~2:center</title>
<path fill="none" stroke="black" stroke-dasharray="5,2" d="M501.408,-1478.22C499.435,-1423.52 490.659,-1301.64 451.97,-1208 444.746,-1190.52 433.253,-1173.15 422.323,-1158.85"/>
<polygon fill="black" stroke="black" points="424.926,-1156.5 415.988,-1150.81 419.428,-1160.83 424.926,-1156.5"/>
</g>
<!-- fcall_8G3DPK -->
<g id="node12" class="node"><title>fcall_8G3DPK</title>
<ellipse fill="orange" stroke="black" cx="367.97" cy="-1352" rx="75.086" ry="18"/>
<text text-anchor="middle" x="367.97" y="-1347.8" font-family="Times,serif" font-size="14.00">log(meuse$zinc)</text>
</g>
<!-- meuse&#45;&gt;fcall_8G3DPK -->
<g id="edge10" class="edge"><title>meuse&#45;&gt;fcall_8G3DPK:center</title>
<path fill="none" stroke="black" d="M479.541,-1481.22C454.451,-1452.39 414.099,-1406.01 389.416,-1377.65"/>
<polygon fill="none" stroke="black" points="391.799,-1375.05 382.594,-1369.81 386.518,-1379.65 391.799,-1375.05"/>
</g>
<!-- fcall_MVUCpr -->
<g id="node14" class="node"><title>fcall_MVUCpr</title>
<ellipse fill="orange" stroke="black" cx="392.97" cy="-854" rx="212.25" ry="29.5"/>
<text text-anchor="middle" x="392.97" y="-858.2" font-family="Times,serif" font-size="14.00">SFieldData</text>
<text text-anchor="middle" x="392.97" y="-841.4" font-family="Times,serif" font-size="14.00">[bool &#45;&gt; R set &#45;&gt; S x Q set &#45;&gt; S x Q x SExtend set]</text>
</g>
<!-- meuse.area&#45;&gt;fcall_MVUCpr -->
<g id="edge11" class="edge"><title>meuse.area&#45;&gt;fcall_MVUCpr:center</title>
<path fill="none" stroke="black" d="M263.073,-1401.34C250.308,-1375.03 233.97,-1333.94 233.97,-1296 233.97,-1296 233.97,-1296 233.97,-967 233.97,-929.186 264.399,-903.022 298.634,-885.553"/>
<polygon fill="none" stroke="black" points="300.408,-888.582 307.884,-881.075 297.358,-882.282 300.408,-888.582"/>
<text text-anchor="middle" x="254.967" y="-1176.8" font-family="Times,serif" font-size="14.00">domain</text>
</g>
<!-- fcall_gdg7ku -->
<g id="node23" class="node"><title>fcall_gdg7ku</title>
<ellipse fill="orange" stroke="black" cx="1016.97" cy="-1352" rx="86.25" ry="29.5"/>
<text text-anchor="middle" x="1016.97" y="-1356.2" font-family="Times,serif" font-size="14.00">geometry</text>
<text text-anchor="middle" x="1016.97" y="-1339.4" font-family="Times,serif" font-size="14.00">[S x Q set &#45;&gt; S set]</text>
</g>
<!-- meuse.grid&#45;&gt;fcall_gdg7ku -->
<g id="edge12" class="edge"><title>meuse.grid&#45;&gt;fcall_gdg7ku:center</title>
<path fill="none" stroke="black" d="M758.542,-1486.55C810.615,-1459.64 902.43,-1412.19 961.438,-1381.7"/>
<polygon fill="none" stroke="black" points="963.339,-1384.65 970.616,-1376.95 960.125,-1378.44 963.339,-1384.65"/>
<text text-anchor="middle" x="928.915" y="-1425.8" font-family="Times,serif" font-size="14.00">obj</text>
</g>
<!-- fcall_gJKMsC -->
<g id="node24" class="node"><title>fcall_gJKMsC</title>
<ellipse fill="orange" stroke="black" cx="767.97" cy="-1352" rx="86.25" ry="29.5"/>
<text text-anchor="middle" x="767.97" y="-1356.2" font-family="Times,serif" font-size="14.00">geometry</text>
<text text-anchor="middle" x="767.97" y="-1339.4" font-family="Times,serif" font-size="14.00">[S x Q set &#45;&gt; S set]</text>
</g>
<!-- meuse.grid&#45;&gt;fcall_gJKMsC -->
<g id="edge13" class="edge"><title>meuse.grid&#45;&gt;fcall_gJKMsC:center</title>
<path fill="none" stroke="black" d="M727.957,-1478.75C735.782,-1454.16 747.193,-1418.3 755.829,-1391.16"/>
<polygon fill="none" stroke="black" points="759.176,-1392.18 758.873,-1381.59 752.506,-1390.06 759.176,-1392.18"/>
<text text-anchor="middle" x="760.915" y="-1425.8" font-family="Times,serif" font-size="14.00">obj</text>
</g>
<!-- meuse[&quot;lzinc&quot;] -->
<g id="node15" class="node"><title>meuse[&quot;lzinc&quot;]</title>
<ellipse fill="white" stroke="black" cx="392.97" cy="-968" rx="72.1689" ry="29.5"/>
<text text-anchor="middle" x="392.97" y="-972.2" font-family="Times,serif" font-size="14.00">meuse[&quot;lzinc&quot;] </text>
<text text-anchor="middle" x="392.97" y="-955.4" font-family="Times,serif" font-size="14.00">[S x Q set]</text>
</g>
<!-- meuse~2&#45;&gt;meuse[&quot;lzinc&quot;] -->
<g id="edge14" class="edge"><title>meuse~2&#45;&gt;meuse[&quot;lzinc&quot;]:center</title>
<path fill="none" stroke="black" d="M392.97,-1094.39C392.97,-1070.05 392.97,-1034.86 392.97,-1007.95"/>
<polygon fill="none" stroke="black" points="396.47,-1007.71 392.97,-997.713 389.47,-1007.71 396.47,-1007.71"/>
</g>
<!-- meuse$lzinc -->
<g id="node11" class="node"><title>meuse$lzinc</title>
<ellipse fill="white" stroke="black" cx="379.97" cy="-1238" rx="63.1326" ry="29.5"/>
<text text-anchor="middle" x="379.97" y="-1242.2" font-family="Times,serif" font-size="14.00">meuse$lzinc </text>
<text text-anchor="middle" x="379.97" y="-1225.4" font-family="Times,serif" font-size="14.00">[Q set]</text>
</g>
<!-- meuse$lzinc&#45;&gt;meuse~2 -->
<g id="edge15" class="edge"><title>meuse$lzinc&#45;&gt;meuse~2:center</title>
<path fill="none" stroke="red" d="M383.284,-1208.45C384.858,-1194.89 386.762,-1178.48 388.465,-1163.81"/>
<polygon fill="red" stroke="red" points="391.985,-1163.84 389.662,-1153.5 385.032,-1163.03 391.985,-1163.84"/>
</g>
<!-- fcall_8G3DPK&#45;&gt;meuse$lzinc -->
<g id="edge16" class="edge"><title>fcall_8G3DPK&#45;&gt;meuse$lzinc:center</title>
<path fill="none" stroke="red" d="M369.792,-1333.99C371.393,-1319.05 373.781,-1296.76 375.841,-1277.53"/>
<polygon fill="red" stroke="red" points="379.329,-1277.83 376.914,-1267.52 372.369,-1277.09 379.329,-1277.83"/>
</g>
<!-- zincPointData -->
<g id="node13" class="node"><title>zincPointData</title>
<ellipse fill="white" stroke="black" cx="393.97" cy="-756" rx="97.1383" ry="29.5"/>
<text text-anchor="middle" x="393.97" y="-760.2" font-family="Times,serif" font-size="14.00">zincPointData </text>
<text text-anchor="middle" x="393.97" y="-743.4" font-family="Times,serif" font-size="14.00">[S x Q x SExtend set]</text>
</g>
<!-- fcall_BM84FQ -->
<g id="node17" class="node"><title>fcall_BM84FQ</title>
<ellipse fill="orange" stroke="black" cx="487.97" cy="-528" rx="171.009" ry="29.5"/>
<text text-anchor="middle" x="487.97" y="-532.2" font-family="Times,serif" font-size="14.00">getInterpolator</text>
<text text-anchor="middle" x="487.97" y="-515.4" font-family="Times,serif" font-size="14.00">[Q set &#45;&gt; S x Q x SExtend set &#45;&gt; SField]</text>
</g>
<!-- zincPointData&#45;&gt;fcall_BM84FQ -->
<g id="edge18" class="edge"><title>zincPointData&#45;&gt;fcall_BM84FQ:center</title>
<path fill="none" stroke="black" d="M477.705,-740.735C517.625,-729.272 561.838,-708.721 585.97,-672 600.614,-649.715 597.184,-636.194 585.97,-612 576.864,-592.356 560.565,-575.672 543.84,-562.529"/>
<polygon fill="none" stroke="black" points="545.724,-559.567 535.625,-556.364 541.523,-565.166 545.724,-559.567"/>
<text text-anchor="middle" x="622.573" y="-637.8" font-family="Times,serif" font-size="14.00">pointData</text>
</g>
<!-- fcall_BtDq8a -->
<g id="node18" class="node"><title>fcall_BtDq8a</title>
<ellipse fill="orange" stroke="black" cx="169.97" cy="-642" rx="131.25" ry="29.5"/>
<text text-anchor="middle" x="169.97" y="-646.2" font-family="Times,serif" font-size="14.00">modelSemivariogram</text>
<text text-anchor="middle" x="169.97" y="-629.4" font-family="Times,serif" font-size="14.00">[S x Q x SExtend set &#45;&gt; Q set]</text>
</g>
<!-- zincPointData&#45;&gt;fcall_BtDq8a -->
<g id="edge17" class="edge"><title>zincPointData&#45;&gt;fcall_BtDq8a:center</title>
<path fill="none" stroke="black" d="M344.812,-730.421C311.474,-713.752 267.152,-691.591 231.475,-673.753"/>
<polygon fill="none" stroke="black" points="232.642,-670.423 222.132,-669.081 229.511,-676.684 232.642,-670.423"/>
<text text-anchor="middle" x="323.573" y="-694.8" font-family="Times,serif" font-size="14.00">pointData</text>
</g>
<!-- fcall_MVUCpr&#45;&gt;zincPointData -->
<g id="edge19" class="edge"><title>fcall_MVUCpr&#45;&gt;zincPointData:center</title>
<path fill="none" stroke="red" d="M393.267,-824.457C393.361,-815.446 393.466,-805.334 393.566,-795.736"/>
<polygon fill="red" stroke="red" points="397.067,-795.635 393.672,-785.599 390.068,-795.562 397.067,-795.635"/>
</g>
<!-- meuse[&quot;lzinc&quot;]&#45;&gt;fcall_MVUCpr -->
<g id="edge20" class="edge"><title>meuse[&quot;lzinc&quot;]&#45;&gt;fcall_MVUCpr:center</title>
<path fill="none" stroke="black" d="M392.97,-938.448C392.97,-924.993 392.97,-908.729 392.97,-894.146"/>
<polygon fill="none" stroke="black" points="396.47,-893.889 392.97,-883.889 389.47,-893.889 396.47,-893.889"/>
<text text-anchor="middle" x="428.35" y="-906.8" font-family="Times,serif" font-size="14.00">observations</text>
</g>
<!-- interpolator -->
<g id="node16" class="node"><title>interpolator</title>
<ellipse fill="white" stroke="black" cx="506.97" cy="-430" rx="59.2038" ry="29.5"/>
<text text-anchor="middle" x="506.97" y="-434.2" font-family="Times,serif" font-size="14.00">interpolator </text>
<text text-anchor="middle" x="506.97" y="-417.4" font-family="Times,serif" font-size="14.00">[SField]</text>
</g>
<!-- fcall_5bYXiq -->
<g id="node27" class="node"><title>fcall_5bYXiq</title>
<ellipse fill="orange" stroke="black" cx="663.97" cy="-316" rx="57.001" ry="29.5"/>
<text text-anchor="middle" x="663.97" y="-320.2" font-family="Times,serif" font-size="14.00">interpolator</text>
<text text-anchor="middle" x="663.97" y="-303.4" font-family="Times,serif" font-size="14.00">[S &#45;&gt; Q]</text>
</g>
<!-- interpolator&#45;&gt;fcall_5bYXiq -->
<g id="edge21" class="edge"><title>interpolator&#45;&gt;fcall_5bYXiq:center</title>
<path fill="none" stroke="blue" d="M540.265,-405.248C564.364,-388.056 597.086,-364.713 622.823,-346.353"/>
<polygon fill="blue" stroke="blue" points="625.152,-348.991 631.26,-340.334 621.087,-343.292 625.152,-348.991"/>
</g>
<!-- fcall_BM84FQ&#45;&gt;interpolator -->
<g id="edge22" class="edge"><title>fcall_BM84FQ&#45;&gt;interpolator:center</title>
<path fill="none" stroke="red" d="M493.619,-498.457C495.421,-489.35 497.446,-479.119 499.364,-469.43"/>
<polygon fill="red" stroke="red" points="502.801,-470.088 501.309,-459.599 495.934,-468.729 502.801,-470.088"/>
</g>
<!-- fcall_BtDq8a&#45;&gt;fcall_BM84FQ -->
<g id="edge23" class="edge"><title>fcall_BtDq8a&#45;&gt;fcall_BM84FQ:center</title>
<path fill="none" stroke="black" d="M238.579,-616.836C287.481,-599.612 353.464,-576.373 405.277,-558.125"/>
<polygon fill="none" stroke="black" points="406.51,-561.401 414.779,-554.778 404.184,-554.799 406.51,-561.401"/>
<text text-anchor="middle" x="369.182" y="-580.8" font-family="Times,serif" font-size="14.00">params</text>
</g>
<!-- init_model -->
<g id="node19" class="node"><title>init_model</title>
<ellipse fill="white" stroke="black" cx="169.97" cy="-756" rx="56.2887" ry="29.5"/>
<text text-anchor="middle" x="169.97" y="-760.2" font-family="Times,serif" font-size="14.00">init_model </text>
<text text-anchor="middle" x="169.97" y="-743.4" font-family="Times,serif" font-size="14.00">[function]</text>
</g>
<!-- init_model&#45;&gt;fcall_BtDq8a -->
<g id="edge24" class="edge"><title>init_model&#45;&gt;fcall_BtDq8a:center</title>
<path fill="none" stroke="blue" stroke-dasharray="5,2" d="M169.97,-726.448C169.97,-712.993 169.97,-696.729 169.97,-682.146"/>
<polygon fill="blue" stroke="blue" points="173.47,-681.889 169.97,-671.889 166.47,-681.889 173.47,-681.889"/>
</g>
<!-- captureSemantics&lt;&#45; -->
<g id="node20" class="node"><title>captureSemantics&lt;&#45;</title>
<ellipse fill="white" stroke="black" cx="484.97" cy="-642" rx="92.3327" ry="29.5"/>
<text text-anchor="middle" x="484.97" y="-646.2" font-family="Times,serif" font-size="14.00">captureSemantics&lt;&#45; </text>
<text text-anchor="middle" x="484.97" y="-629.4" font-family="Times,serif" font-size="14.00">[function]</text>
</g>
<!-- captureSemantics&lt;&#45;&#45;&gt;fcall_BM84FQ -->
<g id="edge25" class="edge"><title>captureSemantics&lt;&#45;&#45;&gt;fcall_BM84FQ:center</title>
<path fill="none" stroke="blue" stroke-dasharray="5,2" d="M485.734,-612.448C486.098,-598.888 486.537,-582.476 486.93,-567.808"/>
<polygon fill="blue" stroke="blue" points="490.437,-567.59 487.206,-557.5 483.44,-567.403 490.437,-567.59"/>
</g>
<!-- locInterest -->
<g id="node21" class="node"><title>locInterest</title>
<ellipse fill="white" stroke="black" cx="761.97" cy="-1046" rx="80.1421" ry="29.5"/>
<text text-anchor="middle" x="761.97" y="-1050.2" font-family="Times,serif" font-size="14.00">locInterest </text>
<text text-anchor="middle" x="761.97" y="-1033.4" font-family="Times,serif" font-size="14.00">[S x SExtend set]</text>
</g>
<!-- locInterest&#45;&gt;fcall_5bYXiq -->
<g id="edge26" class="edge"><title>locInterest&#45;&gt;fcall_5bYXiq:center</title>
<path fill="none" stroke="black" d="M760.954,-1016.47C760.084,-989.536 758.97,-948.03 758.97,-912 758.97,-912 758.97,-912 758.97,-429 758.97,-394.604 732.59,-365.358 707.632,-345.386"/>
<polygon fill="none" stroke="black" points="709.678,-342.544 699.614,-339.232 705.416,-348.097 709.678,-342.544"/>
<text text-anchor="middle" x="795.894" y="-694.8" font-family="Times,serif" font-size="14.00">locOfInterest</text>
</g>
<!-- fcall_VgUWPG -->
<g id="node22" class="node"><title>fcall_VgUWPG</title>
<ellipse fill="orange" stroke="black" cx="767.97" cy="-1238" rx="176.5" ry="29.5"/>
<text text-anchor="middle" x="767.97" y="-1242.2" font-family="Times,serif" font-size="14.00">SFieldData</text>
<text text-anchor="middle" x="767.97" y="-1225.4" font-family="Times,serif" font-size="14.00">[bool &#45;&gt; S set &#45;&gt; S set &#45;&gt; S x SExtend set]</text>
</g>
<!-- fcall_VgUWPG&#45;&gt;locInterest -->
<g id="edge27" class="edge"><title>fcall_VgUWPG&#45;&gt;locInterest:center</title>
<path fill="none" stroke="red" d="M767.058,-1208.14C766.026,-1175.45 764.338,-1122.01 763.192,-1085.72"/>
<polygon fill="red" stroke="red" points="766.684,-1085.39 762.87,-1075.51 759.687,-1085.61 766.684,-1085.39"/>
</g>
<!-- fcall_gdg7ku&#45;&gt;fcall_VgUWPG -->
<g id="edge28" class="edge"><title>fcall_gdg7ku&#45;&gt;fcall_VgUWPG:center</title>
<path fill="none" stroke="black" d="M965.98,-1328.06C928.756,-1311.32 877.873,-1288.43 837.009,-1270.05"/>
<polygon fill="none" stroke="black" points="838.209,-1266.76 827.653,-1265.85 835.337,-1273.14 838.209,-1266.76"/>
<text text-anchor="middle" x="942.35" y="-1290.8" font-family="Times,serif" font-size="14.00">observations</text>
</g>
<!-- fcall_gJKMsC&#45;&gt;fcall_VgUWPG -->
<g id="edge29" class="edge"><title>fcall_gJKMsC&#45;&gt;fcall_VgUWPG:center</title>
<path fill="none" stroke="black" d="M767.97,-1322.45C767.97,-1308.99 767.97,-1292.73 767.97,-1278.15"/>
<polygon fill="none" stroke="black" points="771.47,-1277.89 767.97,-1267.89 764.47,-1277.89 771.47,-1277.89"/>
<text text-anchor="middle" x="788.967" y="-1290.8" font-family="Times,serif" font-size="14.00">domain</text>
</g>
<!-- lt_9qN446 -->
<g id="node25" class="node"><title>lt_9qN446</title>
<ellipse fill="white" stroke="black" cx="584.97" cy="-1352" rx="36.3712" ry="18"/>
<text text-anchor="middle" x="584.97" y="-1347.8" font-family="Times,serif" font-size="14.00">TRUE</text>
</g>
<!-- lt_9qN446&#45;&gt;fcall_VgUWPG -->
<g id="edge30" class="edge"><title>lt_9qN446&#45;&gt;fcall_VgUWPG:center</title>
<path fill="none" stroke="black" d="M605.148,-1336.78C624.609,-1323.25 655.045,-1302.55 682.324,-1286 690.396,-1281.1 699.007,-1276.11 707.541,-1271.3"/>
<polygon fill="none" stroke="black" points="709.356,-1274.3 716.38,-1266.37 705.943,-1268.19 709.356,-1274.3"/>
<text text-anchor="middle" x="722.792" y="-1290.8" font-family="Times,serif" font-size="14.00">cellsArePoints</text>
</g>
<!-- intZincPointData -->
<g id="node26" class="node"><title>intZincPointData</title>
<ellipse fill="white" stroke="black" cx="663.97" cy="-218" rx="97.1383" ry="29.5"/>
<text text-anchor="middle" x="663.97" y="-222.2" font-family="Times,serif" font-size="14.00">intZincPointData </text>
<text text-anchor="middle" x="663.97" y="-205.4" font-family="Times,serif" font-size="14.00">[S x Q x SExtend set]</text>
</g>
<!-- intZincPointData@observations[1] -->
<g id="node30" class="node"><title>intZincPointData@observations[1]</title>
<ellipse fill="white" stroke="black" cx="663.97" cy="-120" rx="152.25" ry="29.5"/>
<text text-anchor="middle" x="663.97" y="-124.2" font-family="Times,serif" font-size="14.00">intZincPointData@observations[1] </text>
<text text-anchor="middle" x="663.97" y="-107.4" font-family="Times,serif" font-size="14.00">[S x Q set]</text>
</g>
<!-- intZincPointData&#45;&gt;intZincPointData@observations[1] -->
<g id="edge31" class="edge"><title>intZincPointData&#45;&gt;intZincPointData@observations[1]:center</title>
<path fill="none" stroke="black" d="M663.97,-188.457C663.97,-179.446 663.97,-169.334 663.97,-159.736"/>
<polygon fill="none" stroke="black" points="667.47,-159.599 663.97,-149.599 660.47,-159.599 667.47,-159.599"/>
</g>
<!-- fcall_5bYXiq&#45;&gt;intZincPointData -->
<g id="edge32" class="edge"><title>fcall_5bYXiq&#45;&gt;intZincPointData:center</title>
<path fill="none" stroke="red" d="M663.97,-286.457C663.97,-277.446 663.97,-267.334 663.97,-257.736"/>
<polygon fill="red" stroke="red" points="667.47,-257.599 663.97,-247.599 660.47,-257.599 667.47,-257.599"/>
</g>
<!-- lt_AMlAxy -->
<g id="node28" class="node"><title>lt_AMlAxy</title>
<ellipse fill="white" stroke="black" cx="663.97" cy="-430" rx="36.2995" ry="18"/>
<text text-anchor="middle" x="663.97" y="-425.8" font-family="Times,serif" font-size="14.00">S &#45;&gt; Q</text>
</g>
<!-- lt_AMlAxy&#45;&gt;fcall_5bYXiq -->
<g id="edge33" class="edge"><title>lt_AMlAxy&#45;&gt;fcall_5bYXiq:center</title>
<path fill="none" stroke="black" d="M663.97,-411.99C663.97,-397.05 663.97,-374.762 663.97,-355.529"/>
<polygon fill="none" stroke="black" points="667.47,-355.516 663.97,-345.516 660.47,-355.516 667.47,-355.516"/>
<text text-anchor="middle" x="691.572" y="-368.8" font-family="Times,serif" font-size="14.00">semantics</text>
</g>
<!-- fcall_pQqAtu -->
<g id="node29" class="node"><title>fcall_pQqAtu</title>
<ellipse fill="orange" stroke="black" cx="663.97" cy="-18" rx="34.4665" ry="18"/>
<text text-anchor="middle" x="663.97" y="-13.8" font-family="Times,serif" font-size="14.00">spplot</text>
</g>
<!-- intZincPointData@observations[1]&#45;&gt;fcall_pQqAtu -->
<g id="edge34" class="edge"><title>intZincPointData@observations[1]&#45;&gt;fcall_pQqAtu:center</title>
<path fill="none" stroke="black" d="M663.97,-90.344C663.97,-76.4998 663.97,-59.9679 663.97,-46.3055"/>
<polygon fill="none" stroke="black" points="667.47,-46.0699 663.97,-36.0699 660.47,-46.0699 667.47,-46.0699"/>
<text text-anchor="middle" x="672.915" y="-58.8" font-family="Times,serif" font-size="14.00">obj</text>
</g>
</g>
</svg>
