<?xml version="1.0" encoding="UTF-8" standalone="no"?>
<!DOCTYPE svg PUBLIC "-//W3C//DTD SVG 1.1//EN"
 "http://www.w3.org/Graphics/SVG/1.1/DTD/svg11.dtd">
<!-- Generated by graphviz version 2.28.0 (20160728.0200)
 -->
<!-- Title: f Pages: 1 -->
<svg width="153pt" height="368pt"
 viewBox="0.00 0.00 153.00 368.09" xmlns="http://www.w3.org/2000/svg" xmlns:xlink="http://www.w3.org/1999/xlink">
<g id="graph1" class="graph" transform="scale(0.168688 0.168688) rotate(0) translate(4 2178.05)">
<title>f</title>
<!-- fcall_js2xIx -->
<g id="node1" class="node"><title>fcall_js2xIx</title>
<ellipse fill="orange" stroke="black" cx="528" cy="-2040" rx="254" ry="29.5"/>
<text text-anchor="middle" x="528" y="-2044.2" font-family="Times,serif" font-size="14.00">demo</text>
<text text-anchor="middle" x="528" y="-2027.4" font-family="Times,serif" font-size="14.00">[Q &#45;&gt; Q &#45;&gt; Q &#45;&gt; ( &#39;a, (?)S x Q set, R set, (?)S x Q set, R set )]</text>
</g>
<!-- crs -->
<g id="node5" class="node"><title>crs</title>
<ellipse fill="white" stroke="black" cx="473" cy="-1931" rx="27" ry="29.5"/>
<text text-anchor="middle" x="473" y="-1935.2" font-family="Times,serif" font-size="14.00">crs </text>
<text text-anchor="middle" x="473" y="-1918.4" font-family="Times,serif" font-size="14.00">[&#39;a]</text>
</g>
<!-- fcall_js2xIx&#45;&gt;crs -->
<g id="edge1" class="edge"><title>fcall_js2xIx&#45;&gt;crs:center</title>
<path fill="none" stroke="red" stroke-dasharray="5,2" d="M513.261,-2010.33C506.266,-1996.72 497.855,-1980.35 490.534,-1966.11"/>
<polygon fill="red" stroke="red" points="493.59,-1964.4 485.906,-1957.11 487.365,-1967.6 493.59,-1964.4"/>
</g>
<!-- meuse -->
<g id="node6" class="node"><title>meuse</title>
<ellipse fill="white" stroke="black" cx="621" cy="-1931" rx="64.587" ry="29.5"/>
<text text-anchor="middle" x="621" y="-1935.2" font-family="Times,serif" font-size="14.00">meuse </text>
<text text-anchor="middle" x="621" y="-1918.4" font-family="Times,serif" font-size="14.00">[(?)S x Q set]</text>
</g>
<!-- fcall_js2xIx&#45;&gt;meuse -->
<g id="edge2" class="edge"><title>fcall_js2xIx&#45;&gt;meuse:center</title>
<path fill="none" stroke="red" stroke-dasharray="5,2" d="M552.678,-2010.61C564.483,-1997.02 578.715,-1980.65 591.126,-1966.37"/>
<polygon fill="red" stroke="red" points="593.889,-1968.53 597.808,-1958.68 588.606,-1963.94 593.889,-1968.53"/>
</g>
<!-- meuse.area -->
<g id="node7" class="node"><title>meuse.area</title>
<ellipse fill="white" stroke="black" cx="528" cy="-1843" rx="57.5" ry="29.5"/>
<text text-anchor="middle" x="528" y="-1847.2" font-family="Times,serif" font-size="14.00">meuse.area </text>
<text text-anchor="middle" x="528" y="-1830.4" font-family="Times,serif" font-size="14.00">[R set]</text>
</g>
<!-- fcall_js2xIx&#45;&gt;meuse.area -->
<g id="edge3" class="edge"><title>fcall_js2xIx&#45;&gt;meuse.area:center</title>
<path fill="none" stroke="red" stroke-dasharray="5,2" d="M528,-2010.23C528,-1976.43 528,-1920.22 528,-1882.64"/>
<polygon fill="red" stroke="red" points="531.5,-1882.57 528,-1872.57 524.5,-1882.57 531.5,-1882.57"/>
</g>
<!-- meuse.grid -->
<g id="node8" class="node"><title>meuse.grid</title>
<ellipse fill="white" stroke="black" cx="363" cy="-1931" rx="64.587" ry="29.5"/>
<text text-anchor="middle" x="363" y="-1935.2" font-family="Times,serif" font-size="14.00">meuse.grid </text>
<text text-anchor="middle" x="363" y="-1918.4" font-family="Times,serif" font-size="14.00">[(?)S x Q set]</text>
</g>
<!-- fcall_js2xIx&#45;&gt;meuse.grid -->
<g id="edge4" class="edge"><title>fcall_js2xIx&#45;&gt;meuse.grid:center</title>
<path fill="none" stroke="red" stroke-dasharray="5,2" d="M484.648,-2010.89C461.008,-1995.56 431.784,-1976.61 407.905,-1961.12"/>
<polygon fill="red" stroke="red" points="409.664,-1958.09 399.369,-1955.59 405.855,-1963.96 409.664,-1958.09"/>
</g>
<!-- meuse.riv -->
<g id="node9" class="node"><title>meuse.riv</title>
<ellipse fill="white" stroke="black" cx="847" cy="-1931" rx="52.25" ry="29.5"/>
<text text-anchor="middle" x="847" y="-1935.2" font-family="Times,serif" font-size="14.00">meuse.riv </text>
<text text-anchor="middle" x="847" y="-1918.4" font-family="Times,serif" font-size="14.00">[R set]</text>
</g>
<!-- fcall_js2xIx&#45;&gt;meuse.riv -->
<g id="edge5" class="edge"><title>fcall_js2xIx&#45;&gt;meuse.riv:center</title>
<path fill="none" stroke="red" stroke-dasharray="5,2" d="M626.128,-2012.78C674.512,-1998.96 733.408,-1980.78 785,-1961 789.546,-1959.26 794.224,-1957.33 798.877,-1955.32"/>
<polygon fill="red" stroke="red" points="800.622,-1958.38 808.34,-1951.12 797.78,-1951.98 800.622,-1958.38"/>
</g>
<!-- lt_lL4CIW -->
<g id="node2" class="node"><title>lt_lL4CIW</title>
<ellipse fill="white" stroke="black" cx="434" cy="-2154" rx="35.5584" ry="18"/>
<text text-anchor="middle" x="434" y="-2149.8" font-family="Times,serif" font-size="14.00">meuse</text>
</g>
<!-- lt_lL4CIW&#45;&gt;fcall_js2xIx -->
<g id="edge6" class="edge"><title>lt_lL4CIW&#45;&gt;fcall_js2xIx:center</title>
<path fill="none" stroke="black" d="M447.468,-2136.95C460.465,-2121.47 480.599,-2097.48 497.484,-2077.36"/>
<polygon fill="none" stroke="black" points="500.264,-2079.49 504.012,-2069.58 494.902,-2074.99 500.264,-2079.49"/>
<text text-anchor="middle" x="494.998" y="-2099.8" font-family="Times,serif" font-size="14.00">topic</text>
</g>
<!-- lt_9GLJ3l -->
<g id="node3" class="node"><title>lt_9GLJ3l</title>
<ellipse fill="white" stroke="black" cx="528" cy="-2154" rx="40.3147" ry="18"/>
<text text-anchor="middle" x="528" y="-2149.8" font-family="Times,serif" font-size="14.00">FALSE</text>
</g>
<!-- lt_9GLJ3l&#45;&gt;fcall_js2xIx -->
<g id="edge7" class="edge"><title>lt_9GLJ3l&#45;&gt;fcall_js2xIx:center</title>
<path fill="none" stroke="black" d="M528,-2135.99C528,-2121.05 528,-2098.76 528,-2079.53"/>
<polygon fill="none" stroke="black" points="531.5,-2079.52 528,-2069.52 524.5,-2079.52 531.5,-2079.52"/>
<text text-anchor="middle" x="541.215" y="-2099.8" font-family="Times,serif" font-size="14.00">echo</text>
</g>
<!-- lt_N2cJU2 -->
<g id="node4" class="node"><title>lt_N2cJU2</title>
<ellipse fill="white" stroke="black" cx="627" cy="-2154" rx="40.3147" ry="18"/>
<text text-anchor="middle" x="627" y="-2149.8" font-family="Times,serif" font-size="14.00">FALSE</text>
</g>
<!-- lt_N2cJU2&#45;&gt;fcall_js2xIx -->
<g id="edge8" class="edge"><title>lt_N2cJU2&#45;&gt;fcall_js2xIx:center</title>
<path fill="none" stroke="black" d="M612.816,-2136.95C599.067,-2121.4 577.734,-2097.26 559.903,-2077.09"/>
<polygon fill="none" stroke="black" points="562.509,-2074.76 553.264,-2069.58 557.265,-2079.39 562.509,-2074.76"/>
<text text-anchor="middle" x="599.33" y="-2099.8" font-family="Times,serif" font-size="14.00">ask</text>
</g>
<!-- fcall_GZukd4 -->
<g id="node11" class="node"><title>fcall_GZukd4</title>
<ellipse fill="orange" stroke="black" cx="721" cy="-1756" rx="147" ry="29.5"/>
<text text-anchor="middle" x="721" y="-1760.2" font-family="Times,serif" font-size="14.00">functionalType&lt;&#45;</text>
<text text-anchor="middle" x="721" y="-1743.4" font-family="Times,serif" font-size="14.00">[(?)S x Q set &#45;&gt; Q &#45;&gt; ( S x Q set )]</text>
</g>
<!-- meuse&#45;&gt;fcall_GZukd4 -->
<g id="edge9" class="edge"><title>meuse&#45;&gt;fcall_GZukd4:center</title>
<path fill="none" stroke="black" d="M637.067,-1902.2C653.973,-1872.96 680.679,-1826.76 699.415,-1794.34"/>
<polygon fill="none" stroke="black" points="702.5,-1796 704.474,-1785.59 696.439,-1792.5 702.5,-1796"/>
<text text-anchor="middle" x="694.945" y="-1838.8" font-family="Times,serif" font-size="14.00">obj</text>
</g>
<!-- fcall_4U3XXn -->
<g id="node20" class="node"><title>fcall_4U3XXn</title>
<ellipse fill="orange" stroke="black" cx="551" cy="-981" rx="212.25" ry="29.5"/>
<text text-anchor="middle" x="551" y="-985.2" font-family="Times,serif" font-size="14.00">SFieldData</text>
<text text-anchor="middle" x="551" y="-968.4" font-family="Times,serif" font-size="14.00">[bool &#45;&gt; R set &#45;&gt; S x Q set &#45;&gt; S x Q x SExtend set]</text>
</g>
<!-- meuse.area&#45;&gt;fcall_4U3XXn -->
<g id="edge10" class="edge"><title>meuse.area&#45;&gt;fcall_4U3XXn:center</title>
<path fill="none" stroke="black" d="M528,-1813.31C528,-1785.01 528,-1740.52 528,-1702 528,-1702 528,-1702 528,-1107 528,-1077.65 534.208,-1045.06 540.173,-1020.52"/>
<polygon fill="none" stroke="black" points="543.642,-1021.07 542.696,-1010.52 536.855,-1019.36 543.642,-1021.07"/>
<text text-anchor="middle" x="548.998" y="-1451.8" font-family="Times,serif" font-size="14.00">domain</text>
</g>
<!-- fcall_qGIIJi -->
<g id="node14" class="node"><title>fcall_qGIIJi</title>
<ellipse fill="orange" stroke="black" cx="263" cy="-1756" rx="147" ry="29.5"/>
<text text-anchor="middle" x="263" y="-1760.2" font-family="Times,serif" font-size="14.00">functionalType&lt;&#45;</text>
<text text-anchor="middle" x="263" y="-1743.4" font-family="Times,serif" font-size="14.00">[(?)S x Q set &#45;&gt; Q &#45;&gt; ( S x Q set )]</text>
</g>
<!-- meuse.grid&#45;&gt;fcall_qGIIJi -->
<g id="edge11" class="edge"><title>meuse.grid&#45;&gt;fcall_qGIIJi:center</title>
<path fill="none" stroke="black" d="M346.933,-1902.2C330.027,-1872.96 303.321,-1826.76 284.585,-1794.34"/>
<polygon fill="none" stroke="black" points="287.561,-1792.5 279.526,-1785.59 281.5,-1796 287.561,-1792.5"/>
<text text-anchor="middle" x="336.945" y="-1838.8" font-family="Times,serif" font-size="14.00">obj</text>
</g>
<!-- meuse~2 -->
<g id="node10" class="node"><title>meuse~2</title>
<ellipse fill="white" stroke="black" cx="721" cy="-1647" rx="53.1588" ry="29.5"/>
<text text-anchor="middle" x="721" y="-1651.2" font-family="Times,serif" font-size="14.00">meuse~2 </text>
<text text-anchor="middle" x="721" y="-1634.4" font-family="Times,serif" font-size="14.00">[S x Q set]</text>
</g>
<!-- meuse~3 -->
<g id="node16" class="node"><title>meuse~3</title>
<ellipse fill="white" stroke="black" cx="656" cy="-1283" rx="53.1588" ry="29.5"/>
<text text-anchor="middle" x="656" y="-1287.2" font-family="Times,serif" font-size="14.00">meuse~3 </text>
<text text-anchor="middle" x="656" y="-1270.4" font-family="Times,serif" font-size="14.00">[S x Q set]</text>
</g>
<!-- meuse~2&#45;&gt;meuse~3 -->
<g id="edge12" class="edge"><title>meuse~2&#45;&gt;meuse~3:center</title>
<path fill="none" stroke="black" stroke-dasharray="5,2" d="M736.848,-1618.61C746.826,-1599.73 758.773,-1573.69 764,-1549 769.523,-1522.91 767.671,-1515.41 764,-1489 755.923,-1430.89 756.682,-1413.18 728,-1362 718.421,-1344.91 704.381,-1328.56 691.237,-1315.29"/>
<polygon fill="black" stroke="black" points="693.65,-1312.75 684.061,-1308.24 688.746,-1317.75 693.65,-1312.75"/>
</g>
<!-- expr_fPrWtU -->
<g id="node18" class="node"><title>expr_fPrWtU</title>
<ellipse fill="orange" stroke="black" cx="656" cy="-1519" rx="99.4375" ry="29.5"/>
<text text-anchor="middle" x="656" y="-1523.2" font-family="Times,serif" font-size="14.00">log(meuse$zinc)</text>
<text text-anchor="middle" x="656" y="-1506.4" font-family="Times,serif" font-size="14.00">[S x Q set &#45;&gt; ( Q set )]</text>
</g>
<!-- meuse~2&#45;&gt;expr_fPrWtU -->
<g id="edge13" class="edge"><title>meuse~2&#45;&gt;expr_fPrWtU:center</title>
<path fill="none" stroke="black" d="M706.735,-1618.35C697.509,-1600.46 685.383,-1576.96 675.299,-1557.41"/>
<polygon fill="none" stroke="black" points="678.377,-1555.74 670.682,-1548.46 672.156,-1558.95 678.377,-1555.74"/>
</g>
<!-- fcall_GZukd4&#45;&gt;meuse~2 -->
<g id="edge14" class="edge"><title>fcall_GZukd4&#45;&gt;meuse~2:center</title>
<path fill="none" stroke="red" d="M721,-1726.33C721,-1714.21 721,-1699.92 721,-1686.88"/>
<polygon fill="red" stroke="red" points="724.5,-1686.75 721,-1676.75 717.5,-1686.75 724.5,-1686.75"/>
</g>
<!-- lt_xACRPm -->
<g id="node12" class="node"><title>lt_xACRPm</title>
<ellipse fill="white" stroke="black" cx="740" cy="-1931" rx="35.8859" ry="18"/>
<text text-anchor="middle" x="740" y="-1926.8" font-family="Times,serif" font-size="14.00">SField</text>
</g>
<!-- lt_xACRPm&#45;&gt;fcall_GZukd4 -->
<g id="edge15" class="edge"><title>lt_xACRPm&#45;&gt;fcall_GZukd4:center</title>
<path fill="none" stroke="black" d="M738.109,-1912.78C735.136,-1885.71 729.294,-1832.52 725.27,-1795.88"/>
<polygon fill="none" stroke="black" points="728.707,-1795.11 724.136,-1785.56 721.749,-1795.88 728.707,-1795.11"/>
<text text-anchor="middle" x="743.328" y="-1838.8" font-family="Times,serif" font-size="14.00">attr</text>
</g>
<!-- meuse.grid~2 -->
<g id="node13" class="node"><title>meuse.grid~2</title>
<ellipse fill="white" stroke="black" cx="263" cy="-1647" rx="67.4153" ry="29.5"/>
<text text-anchor="middle" x="263" y="-1651.2" font-family="Times,serif" font-size="14.00">meuse.grid~2 </text>
<text text-anchor="middle" x="263" y="-1634.4" font-family="Times,serif" font-size="14.00">[S x Q set]</text>
</g>
<!-- fcall_cCr1Um -->
<g id="node28" class="node"><title>fcall_cCr1Um</title>
<ellipse fill="orange" stroke="black" cx="277" cy="-1519" rx="86.25" ry="29.5"/>
<text text-anchor="middle" x="277" y="-1523.2" font-family="Times,serif" font-size="14.00">geometry</text>
<text text-anchor="middle" x="277" y="-1506.4" font-family="Times,serif" font-size="14.00">[S x Q set &#45;&gt; S set]</text>
</g>
<!-- meuse.grid~2&#45;&gt;fcall_cCr1Um -->
<g id="edge16" class="edge"><title>meuse.grid~2&#45;&gt;fcall_cCr1Um:center</title>
<path fill="none" stroke="black" d="M266.177,-1617.41C268.096,-1600.13 270.569,-1577.88 272.667,-1559"/>
<polygon fill="none" stroke="black" points="276.161,-1559.24 273.787,-1548.91 269.204,-1558.47 276.161,-1559.24"/>
<text text-anchor="middle" x="279.945" y="-1578.8" font-family="Times,serif" font-size="14.00">obj</text>
</g>
<!-- fcall_7uHg8i -->
<g id="node29" class="node"><title>fcall_7uHg8i</title>
<ellipse fill="orange" stroke="black" cx="86" cy="-1519" rx="86.25" ry="29.5"/>
<text text-anchor="middle" x="86" y="-1523.2" font-family="Times,serif" font-size="14.00">geometry</text>
<text text-anchor="middle" x="86" y="-1506.4" font-family="Times,serif" font-size="14.00">[S x Q set &#45;&gt; S set]</text>
</g>
<!-- meuse.grid~2&#45;&gt;fcall_7uHg8i -->
<g id="edge17" class="edge"><title>meuse.grid~2&#45;&gt;fcall_7uHg8i:center</title>
<path fill="none" stroke="black" d="M228.452,-1621.41C200.497,-1601.51 160.926,-1573.34 130.582,-1551.74"/>
<polygon fill="none" stroke="black" points="132.462,-1548.78 122.286,-1545.83 128.403,-1554.48 132.462,-1548.78"/>
<text text-anchor="middle" x="194.945" y="-1578.8" font-family="Times,serif" font-size="14.00">obj</text>
</g>
<!-- fcall_qGIIJi&#45;&gt;meuse.grid~2 -->
<g id="edge18" class="edge"><title>fcall_qGIIJi&#45;&gt;meuse.grid~2:center</title>
<path fill="none" stroke="red" d="M263,-1726.33C263,-1714.21 263,-1699.92 263,-1686.88"/>
<polygon fill="red" stroke="red" points="266.5,-1686.75 263,-1676.75 259.5,-1686.75 266.5,-1686.75"/>
</g>
<!-- lt_s47EvL -->
<g id="node15" class="node"><title>lt_s47EvL</title>
<ellipse fill="white" stroke="black" cx="244" cy="-1931" rx="35.8859" ry="18"/>
<text text-anchor="middle" x="244" y="-1926.8" font-family="Times,serif" font-size="14.00">SField</text>
</g>
<!-- lt_s47EvL&#45;&gt;fcall_qGIIJi -->
<g id="edge19" class="edge"><title>lt_s47EvL&#45;&gt;fcall_qGIIJi:center</title>
<path fill="none" stroke="black" d="M245.891,-1912.78C248.864,-1885.71 254.706,-1832.52 258.73,-1795.88"/>
<polygon fill="none" stroke="black" points="262.251,-1795.88 259.864,-1785.56 255.293,-1795.11 262.251,-1795.88"/>
<text text-anchor="middle" x="266.328" y="-1838.8" font-family="Times,serif" font-size="14.00">attr</text>
</g>
<!-- meuse[&quot;lzinc&quot;] -->
<g id="node21" class="node"><title>meuse[&quot;lzinc&quot;]</title>
<ellipse fill="white" stroke="black" cx="642" cy="-1108" rx="72.1689" ry="29.5"/>
<text text-anchor="middle" x="642" y="-1112.2" font-family="Times,serif" font-size="14.00">meuse[&quot;lzinc&quot;] </text>
<text text-anchor="middle" x="642" y="-1095.4" font-family="Times,serif" font-size="14.00">[S x Q set]</text>
</g>
<!-- meuse~3&#45;&gt;meuse[&quot;lzinc&quot;] -->
<g id="edge20" class="edge"><title>meuse~3&#45;&gt;meuse[&quot;lzinc&quot;]:center</title>
<path fill="none" stroke="black" d="M653.688,-1253.43C651.358,-1224.63 647.744,-1179.98 645.152,-1147.95"/>
<polygon fill="none" stroke="black" points="648.611,-1147.29 644.315,-1137.61 641.633,-1147.86 648.611,-1147.29"/>
</g>
<!-- meuse$lzinc -->
<g id="node17" class="node"><title>meuse$lzinc</title>
<ellipse fill="white" stroke="black" cx="656" cy="-1392" rx="63.1326" ry="29.5"/>
<text text-anchor="middle" x="656" y="-1396.2" font-family="Times,serif" font-size="14.00">meuse$lzinc </text>
<text text-anchor="middle" x="656" y="-1379.4" font-family="Times,serif" font-size="14.00">[Q set]</text>
</g>
<!-- meuse$lzinc&#45;&gt;meuse~3 -->
<g id="edge21" class="edge"><title>meuse$lzinc&#45;&gt;meuse~3:center</title>
<path fill="none" stroke="red" d="M656,-1362.33C656,-1350.21 656,-1335.92 656,-1322.88"/>
<polygon fill="red" stroke="red" points="659.5,-1322.75 656,-1312.75 652.5,-1322.75 659.5,-1322.75"/>
</g>
<!-- expr_fPrWtU&#45;&gt;meuse$lzinc -->
<g id="edge22" class="edge"><title>expr_fPrWtU&#45;&gt;meuse$lzinc:center</title>
<path fill="none" stroke="red" d="M656,-1489.32C656,-1472.25 656,-1450.36 656,-1431.77"/>
<polygon fill="red" stroke="red" points="659.5,-1431.54 656,-1421.54 652.5,-1431.54 659.5,-1431.54"/>
</g>
<!-- zincPointData -->
<g id="node19" class="node"><title>zincPointData</title>
<ellipse fill="white" stroke="black" cx="551" cy="-871" rx="97.1383" ry="29.5"/>
<text text-anchor="middle" x="551" y="-875.2" font-family="Times,serif" font-size="14.00">zincPointData </text>
<text text-anchor="middle" x="551" y="-858.4" font-family="Times,serif" font-size="14.00">[S x Q x SExtend set]</text>
</g>
<!-- fcall_auEjlW -->
<g id="node23" class="node"><title>fcall_auEjlW</title>
<ellipse fill="orange" stroke="black" cx="545" cy="-617" rx="193" ry="29.5"/>
<text text-anchor="middle" x="545" y="-621.2" font-family="Times,serif" font-size="14.00">getInterpolator</text>
<text text-anchor="middle" x="545" y="-604.4" font-family="Times,serif" font-size="14.00">[Q set &#45;&gt; S x Q x SExtend set &#45;&gt; (S &#45;&gt; (S,Q))]</text>
</g>
<!-- zincPointData&#45;&gt;fcall_auEjlW -->
<g id="edge24" class="edge"><title>zincPointData&#45;&gt;fcall_auEjlW:center</title>
<path fill="none" stroke="black" d="M544.838,-841.173C541.101,-822.192 536.698,-796.739 534.792,-774 531.452,-734.149 535.338,-688.493 539.239,-656.916"/>
<polygon fill="none" stroke="black" points="542.739,-657.142 540.552,-646.776 535.797,-656.243 542.739,-657.142"/>
<text text-anchor="middle" x="562.604" y="-739.8" font-family="Times,serif" font-size="14.00">pointData</text>
</g>
<!-- fcall_5fiJgU -->
<g id="node24" class="node"><title>fcall_5fiJgU</title>
<ellipse fill="orange" stroke="black" cx="731" cy="-744" rx="131.25" ry="29.5"/>
<text text-anchor="middle" x="731" y="-748.2" font-family="Times,serif" font-size="14.00">modelSemivariogram</text>
<text text-anchor="middle" x="731" y="-731.4" font-family="Times,serif" font-size="14.00">[S x Q x SExtend set &#45;&gt; Q set]</text>
</g>
<!-- zincPointData&#45;&gt;fcall_5fiJgU -->
<g id="edge23" class="edge"><title>zincPointData&#45;&gt;fcall_5fiJgU:center</title>
<path fill="none" stroke="black" d="M588.734,-843.796C616.225,-824.705 653.674,-798.699 683.249,-778.161"/>
<polygon fill="none" stroke="black" points="685.542,-780.829 691.76,-772.25 681.55,-775.079 685.542,-780.829"/>
<text text-anchor="middle" x="679.604" y="-803.8" font-family="Times,serif" font-size="14.00">pointData</text>
</g>
<!-- fcall_4U3XXn&#45;&gt;zincPointData -->
<g id="edge25" class="edge"><title>fcall_4U3XXn&#45;&gt;zincPointData:center</title>
<path fill="none" stroke="red" d="M551,-951.342C551,-939.014 551,-924.408 551,-911.109"/>
<polygon fill="red" stroke="red" points="554.5,-910.792 551,-900.792 547.5,-910.792 554.5,-910.792"/>
</g>
<!-- meuse[&quot;lzinc&quot;]&#45;&gt;fcall_4U3XXn -->
<g id="edge26" class="edge"><title>meuse[&quot;lzinc&quot;]&#45;&gt;fcall_4U3XXn:center</title>
<path fill="none" stroke="black" d="M622.03,-1079.57C609.086,-1061.79 592.068,-1038.41 577.934,-1019"/>
<polygon fill="none" stroke="black" points="580.587,-1016.69 571.872,-1010.67 574.928,-1020.81 580.587,-1016.69"/>
<text text-anchor="middle" x="637.38" y="-1040.8" font-family="Times,serif" font-size="14.00">observations</text>
</g>
<!-- interpolator -->
<g id="node22" class="node"><title>interpolator</title>
<ellipse fill="white" stroke="black" cx="545" cy="-507" rx="65.25" ry="29.5"/>
<text text-anchor="middle" x="545" y="-511.2" font-family="Times,serif" font-size="14.00">interpolator </text>
<text text-anchor="middle" x="545" y="-494.4" font-family="Times,serif" font-size="14.00">[(S &#45;&gt; (S,Q))]</text>
</g>
<!-- fcall_V5Y8i2 -->
<g id="node32" class="node"><title>fcall_V5Y8i2</title>
<ellipse fill="orange" stroke="black" cx="383" cy="-380" rx="253" ry="29.5"/>
<text text-anchor="middle" x="383" y="-384.2" font-family="Times,serif" font-size="14.00">interpolator</text>
<text text-anchor="middle" x="383" y="-367.4" font-family="Times,serif" font-size="14.00">[S x SExtend set &#45;&gt; S x Q x SExtend set: INCONSISTENT!]</text>
</g>
<!-- interpolator&#45;&gt;fcall_V5Y8i2 -->
<g id="edge27" class="edge"><title>interpolator&#45;&gt;fcall_V5Y8i2:center</title>
<path fill="none" stroke="blue" d="M512.606,-481.005C488.256,-462.216 454.605,-436.251 427.695,-415.487"/>
<polygon fill="blue" stroke="blue" points="429.633,-412.561 419.578,-409.224 425.357,-418.103 429.633,-412.561"/>
</g>
<!-- fcall_auEjlW&#45;&gt;interpolator -->
<g id="edge28" class="edge"><title>fcall_auEjlW&#45;&gt;interpolator:center</title>
<path fill="none" stroke="red" d="M545,-587.342C545,-575.014 545,-560.408 545,-547.109"/>
<polygon fill="red" stroke="red" points="548.5,-546.792 545,-536.792 541.5,-546.792 548.5,-546.792"/>
</g>
<!-- fcall_5fiJgU&#45;&gt;fcall_auEjlW -->
<g id="edge29" class="edge"><title>fcall_5fiJgU&#45;&gt;fcall_auEjlW:center</title>
<path fill="none" stroke="black" d="M690.641,-715.877C662.634,-697.055 625.131,-671.852 595.196,-651.734"/>
<polygon fill="none" stroke="black" points="596.82,-648.609 586.568,-645.936 592.916,-654.419 596.82,-648.609"/>
<text text-anchor="middle" x="670.212" y="-675.8" font-family="Times,serif" font-size="14.00">params</text>
</g>
<!-- init_model -->
<g id="node25" class="node"><title>init_model</title>
<ellipse fill="white" stroke="black" cx="731" cy="-871" rx="56.2887" ry="29.5"/>
<text text-anchor="middle" x="731" y="-875.2" font-family="Times,serif" font-size="14.00">init_model </text>
<text text-anchor="middle" x="731" y="-858.4" font-family="Times,serif" font-size="14.00">[function]</text>
</g>
<!-- init_model&#45;&gt;fcall_5fiJgU -->
<g id="edge30" class="edge"><title>init_model&#45;&gt;fcall_5fiJgU:center</title>
<path fill="none" stroke="blue" stroke-dasharray="5,2" d="M731,-841.322C731,-824.252 731,-802.364 731,-783.767"/>
<polygon fill="blue" stroke="blue" points="734.5,-783.544 731,-773.544 727.5,-783.544 734.5,-783.544"/>
</g>
<!-- locInterest -->
<g id="node26" class="node"><title>locInterest</title>
<ellipse fill="white" stroke="black" cx="277" cy="-1195" rx="80.1421" ry="29.5"/>
<text text-anchor="middle" x="277" y="-1199.2" font-family="Times,serif" font-size="14.00">locInterest </text>
<text text-anchor="middle" x="277" y="-1182.4" font-family="Times,serif" font-size="14.00">[S x SExtend set]</text>
</g>
<!-- locInterest&#45;&gt;fcall_V5Y8i2 -->
<g id="edge31" class="edge"><title>locInterest&#45;&gt;fcall_V5Y8i2:center</title>
<path fill="none" stroke="black" d="M277,-1165.35C277,-1135.54 277,-1087.5 277,-1046 277,-1046 277,-1046 277,-506 277,-469.226 304.017,-437.723 330.771,-415.542"/>
<polygon fill="none" stroke="black" points="333.025,-418.222 338.661,-409.25 328.66,-412.749 333.025,-418.222"/>
<text text-anchor="middle" x="313.924" y="-803.8" font-family="Times,serif" font-size="14.00">locOfInterest</text>
</g>
<!-- fcall_sjmwin -->
<g id="node27" class="node"><title>fcall_sjmwin</title>
<ellipse fill="orange" stroke="black" cx="277" cy="-1392" rx="176.5" ry="29.5"/>
<text text-anchor="middle" x="277" y="-1396.2" font-family="Times,serif" font-size="14.00">SFieldData</text>
<text text-anchor="middle" x="277" y="-1379.4" font-family="Times,serif" font-size="14.00">[bool &#45;&gt; S set &#45;&gt; S set &#45;&gt; S x SExtend set]</text>
</g>
<!-- fcall_sjmwin&#45;&gt;locInterest -->
<g id="edge32" class="edge"><title>fcall_sjmwin&#45;&gt;locInterest:center</title>
<path fill="none" stroke="red" d="M277,-1362.23C277,-1328.43 277,-1272.22 277,-1234.64"/>
<polygon fill="red" stroke="red" points="280.5,-1234.57 277,-1224.57 273.5,-1234.57 280.5,-1234.57"/>
</g>
<!-- fcall_cCr1Um&#45;&gt;fcall_sjmwin -->
<g id="edge33" class="edge"><title>fcall_cCr1Um&#45;&gt;fcall_sjmwin:center</title>
<path fill="none" stroke="black" d="M277,-1489.32C277,-1472.25 277,-1450.36 277,-1431.77"/>
<polygon fill="none" stroke="black" points="280.5,-1431.54 277,-1421.54 273.5,-1431.54 280.5,-1431.54"/>
<text text-anchor="middle" x="312.38" y="-1451.8" font-family="Times,serif" font-size="14.00">observations</text>
</g>
<!-- fcall_7uHg8i&#45;&gt;fcall_sjmwin -->
<g id="edge34" class="edge"><title>fcall_7uHg8i&#45;&gt;fcall_sjmwin:center</title>
<path fill="none" stroke="black" d="M125.113,-1492.4C154.243,-1473.34 194.278,-1447.14 225.932,-1426.42"/>
<polygon fill="none" stroke="black" points="228.171,-1429.14 234.622,-1420.73 224.338,-1423.28 228.171,-1429.14"/>
<text text-anchor="middle" x="213.998" y="-1451.8" font-family="Times,serif" font-size="14.00">domain</text>
</g>
<!-- lt_AKRMmS -->
<g id="node30" class="node"><title>lt_AKRMmS</title>
<ellipse fill="white" stroke="black" cx="418" cy="-1519" rx="36.3712" ry="18"/>
<text text-anchor="middle" x="418" y="-1514.8" font-family="Times,serif" font-size="14.00">TRUE</text>
</g>
<!-- lt_AKRMmS&#45;&gt;fcall_sjmwin -->
<g id="edge35" class="edge"><title>lt_AKRMmS&#45;&gt;fcall_sjmwin:center</title>
<path fill="none" stroke="black" d="M404.646,-1502.25C391.639,-1487.31 370.963,-1464.59 351,-1447 343.224,-1440.15 334.611,-1433.28 326.092,-1426.86"/>
<polygon fill="none" stroke="black" points="328.1,-1423.99 317.982,-1420.85 323.932,-1429.61 328.1,-1423.99"/>
<text text-anchor="middle" x="409.823" y="-1451.8" font-family="Times,serif" font-size="14.00">cellsArePoints</text>
</g>
<!-- intZincPointData -->
<g id="node31" class="node"><title>intZincPointData</title>
<ellipse fill="white" stroke="black" cx="383" cy="-270" rx="97.1383" ry="29.5"/>
<text text-anchor="middle" x="383" y="-274.2" font-family="Times,serif" font-size="14.00">intZincPointData </text>
<text text-anchor="middle" x="383" y="-257.4" font-family="Times,serif" font-size="14.00">[S x Q x SExtend set]</text>
</g>
<!-- intZincPointData@observations[&quot;var1.pred&quot;] -->
<g id="node35" class="node"><title>intZincPointData@observations[&quot;var1.pred&quot;]</title>
<ellipse fill="white" stroke="black" cx="383" cy="-161" rx="193" ry="29.5"/>
<text text-anchor="middle" x="383" y="-165.2" font-family="Times,serif" font-size="14.00">intZincPointData@observations[&quot;var1.pred&quot;] </text>
<text text-anchor="middle" x="383" y="-148.4" font-family="Times,serif" font-size="14.00">[S x Q set]</text>
</g>
<!-- intZincPointData&#45;&gt;intZincPointData@observations[&quot;var1.pred&quot;] -->
<g id="edge36" class="edge"><title>intZincPointData&#45;&gt;intZincPointData@observations[&quot;var1.pred&quot;]:center</title>
<path fill="none" stroke="black" d="M383,-240.326C383,-228.212 383,-213.916 383,-200.876"/>
<polygon fill="none" stroke="black" points="386.5,-200.753 383,-190.753 379.5,-200.753 386.5,-200.753"/>
</g>
<!-- fcall_V5Y8i2&#45;&gt;intZincPointData -->
<g id="edge37" class="edge"><title>fcall_V5Y8i2&#45;&gt;intZincPointData:center</title>
<path fill="none" stroke="red" d="M383,-350.342C383,-338.014 383,-323.408 383,-310.109"/>
<polygon fill="red" stroke="red" points="386.5,-309.792 383,-299.792 379.5,-309.792 386.5,-309.792"/>
</g>
<!-- lt_eY7R0h -->
<g id="node33" class="node"><title>lt_eY7R0h</title>
<ellipse fill="white" stroke="black" cx="383" cy="-507" rx="78.2561" ry="18"/>
<text text-anchor="middle" x="383" y="-502.8" font-family="Times,serif" font-size="14.00">S set &#45;&gt; S x Q set</text>
</g>
<!-- lt_eY7R0h&#45;&gt;fcall_V5Y8i2 -->
<g id="edge38" class="edge"><title>lt_eY7R0h&#45;&gt;fcall_V5Y8i2:center</title>
<path fill="none" stroke="black" d="M383,-488.881C383,-471.254 383,-443.178 383,-420.087"/>
<polygon fill="none" stroke="black" points="386.5,-419.884 383,-409.884 379.5,-419.884 386.5,-419.884"/>
<text text-anchor="middle" x="410.602" y="-439.8" font-family="Times,serif" font-size="14.00">semantics</text>
</g>
<!-- fcall_2JSYP2 -->
<g id="node34" class="node"><title>fcall_2JSYP2</title>
<ellipse fill="orange" stroke="black" cx="383" cy="-34" rx="99.4375" ry="29.5"/>
<text text-anchor="middle" x="383" y="-38.2" font-family="Times,serif" font-size="14.00">spplot</text>
<text text-anchor="middle" x="383" y="-21.4" font-family="Times,serif" font-size="14.00">[S x Q set &#45;&gt; ( Q set )]</text>
</g>
<!-- intZincPointData@observations[&quot;var1.pred&quot;]&#45;&gt;fcall_2JSYP2 -->
<g id="edge39" class="edge"><title>intZincPointData@observations[&quot;var1.pred&quot;]&#45;&gt;fcall_2JSYP2:center</title>
<path fill="none" stroke="black" d="M383,-131.322C383,-114.252 383,-92.3635 383,-73.7674"/>
<polygon fill="none" stroke="black" points="386.5,-73.544 383,-63.5441 379.5,-73.5441 386.5,-73.544"/>
<text text-anchor="middle" x="391.945" y="-92.8" font-family="Times,serif" font-size="14.00">obj</text>
</g>
</g>
</svg>
