<?xml version="1.0" encoding="UTF-8" standalone="no"?>
<!DOCTYPE svg PUBLIC "-//W3C//DTD SVG 1.1//EN"
 "http://www.w3.org/Graphics/SVG/1.1/DTD/svg11.dtd">
<!-- Generated by graphviz version 2.28.0 (20160728.0200)
 -->
<!-- Title: f Pages: 1 -->
<svg width="394pt" height="371pt"
 viewBox="0.00 0.00 393.90 371.00" xmlns="http://www.w3.org/2000/svg" xmlns:xlink="http://www.w3.org/1999/xlink">
<g id="graph1" class="graph" transform="scale(0.208896 0.208896) rotate(0) translate(4 1772)">
<title>f</title>
<!-- fcall_wtgmB3 -->
<g id="node1" class="node"><title>fcall_wtgmB3</title>
<ellipse fill="orange" stroke="black" cx="837.793" cy="-1660" rx="32.2385" ry="18"/>
<text text-anchor="middle" x="837.793" y="-1655.8" font-family="Times,serif" font-size="14.00">demo</text>
</g>
<!-- crs -->
<g id="node5" class="node"><title>crs</title>
<ellipse fill="white" stroke="black" cx="541.793" cy="-1574" rx="27" ry="29.5"/>
<text text-anchor="middle" x="541.793" y="-1578.2" font-family="Times,serif" font-size="14.00">crs </text>
<text text-anchor="middle" x="541.793" y="-1561.4" font-family="Times,serif" font-size="14.00">[&#39;a]</text>
</g>
<!-- fcall_wtgmB3&#45;&gt;crs -->
<g id="edge1" class="edge"><title>fcall_wtgmB3&#45;&gt;crs:center</title>
<path fill="none" stroke="red" stroke-dasharray="5,2" d="M806.432,-1655.74C768.092,-1651.2 701.55,-1641.48 646.793,-1624 621.811,-1616.03 595.046,-1603.47 574.791,-1593.06"/>
<polygon fill="red" stroke="red" points="576.174,-1589.84 565.69,-1588.31 572.932,-1596.04 576.174,-1589.84"/>
</g>
<!-- meuse -->
<g id="node6" class="node"><title>meuse</title>
<ellipse fill="white" stroke="black" cx="837.793" cy="-1574" rx="53.1588" ry="29.5"/>
<text text-anchor="middle" x="837.793" y="-1578.2" font-family="Times,serif" font-size="14.00">meuse </text>
<text text-anchor="middle" x="837.793" y="-1561.4" font-family="Times,serif" font-size="14.00">[S x Q set]</text>
</g>
<!-- fcall_wtgmB3&#45;&gt;meuse -->
<g id="edge2" class="edge"><title>fcall_wtgmB3&#45;&gt;meuse:center</title>
<path fill="none" stroke="red" stroke-dasharray="5,2" d="M837.793,-1641.6C837.793,-1633.46 837.793,-1623.43 837.793,-1613.65"/>
<polygon fill="red" stroke="red" points="841.293,-1613.63 837.793,-1603.63 834.293,-1613.63 841.293,-1613.63"/>
</g>
<!-- meuse.area -->
<g id="node7" class="node"><title>meuse.area</title>
<ellipse fill="white" stroke="black" cx="463.793" cy="-1496" rx="57.5" ry="29.5"/>
<text text-anchor="middle" x="463.793" y="-1500.2" font-family="Times,serif" font-size="14.00">meuse.area </text>
<text text-anchor="middle" x="463.793" y="-1483.4" font-family="Times,serif" font-size="14.00">[R set]</text>
</g>
<!-- fcall_wtgmB3&#45;&gt;meuse.area -->
<g id="edge3" class="edge"><title>fcall_wtgmB3&#45;&gt;meuse.area:center</title>
<path fill="none" stroke="red" stroke-dasharray="5,2" d="M813.508,-1648.01C767.616,-1627.3 664.939,-1581.23 577.793,-1544 558.173,-1535.62 536.552,-1526.64 517.461,-1518.8"/>
<polygon fill="red" stroke="red" points="518.603,-1515.48 508.023,-1514.93 515.949,-1521.96 518.603,-1515.48"/>
</g>
<!-- meuse.grid -->
<g id="node8" class="node"><title>meuse.grid</title>
<ellipse fill="white" stroke="black" cx="1197.79" cy="-1574" rx="57.25" ry="29.5"/>
<text text-anchor="middle" x="1197.79" y="-1578.2" font-family="Times,serif" font-size="14.00">meuse.grid </text>
<text text-anchor="middle" x="1197.79" y="-1561.4" font-family="Times,serif" font-size="14.00">[S x Q set]</text>
</g>
<!-- fcall_wtgmB3&#45;&gt;meuse.grid -->
<g id="edge4" class="edge"><title>fcall_wtgmB3&#45;&gt;meuse.grid:center</title>
<path fill="none" stroke="red" stroke-dasharray="5,2" d="M866.948,-1652.2C925.379,-1638.56 1057.92,-1607.64 1136.36,-1589.33"/>
<polygon fill="red" stroke="red" points="1137.17,-1592.74 1146.11,-1587.06 1135.58,-1585.92 1137.17,-1592.74"/>
</g>
<!-- meuse.riv -->
<g id="node9" class="node"><title>meuse.riv</title>
<ellipse fill="white" stroke="black" cx="1473.79" cy="-1574" rx="52.25" ry="29.5"/>
<text text-anchor="middle" x="1473.79" y="-1578.2" font-family="Times,serif" font-size="14.00">meuse.riv </text>
<text text-anchor="middle" x="1473.79" y="-1561.4" font-family="Times,serif" font-size="14.00">[R set]</text>
</g>
<!-- fcall_wtgmB3&#45;&gt;meuse.riv -->
<g id="edge5" class="edge"><title>fcall_wtgmB3&#45;&gt;meuse.riv:center</title>
<path fill="none" stroke="red" stroke-dasharray="5,2" d="M869.071,-1655.06C939.549,-1646.15 1116.15,-1623.73 1263.79,-1604 1314.18,-1597.27 1371.32,-1589.36 1413.26,-1583.5"/>
<polygon fill="red" stroke="red" points="1413.9,-1586.95 1423.32,-1582.1 1412.93,-1580.02 1413.9,-1586.95"/>
</g>
<!-- lt_kNTOIZ -->
<g id="node2" class="node"><title>lt_kNTOIZ</title>
<ellipse fill="white" stroke="black" cx="634.793" cy="-1750" rx="35.5584" ry="18"/>
<text text-anchor="middle" x="634.793" y="-1745.8" font-family="Times,serif" font-size="14.00">meuse</text>
</g>
<!-- lt_kNTOIZ&#45;&gt;fcall_wtgmB3 -->
<g id="edge6" class="edge"><title>lt_kNTOIZ&#45;&gt;fcall_wtgmB3:center</title>
<path fill="none" stroke="black" d="M660.916,-1737.68C697.321,-1721.89 763.365,-1693.26 803.636,-1675.81"/>
<polygon fill="none" stroke="black" points="805.258,-1678.92 813.041,-1671.73 802.474,-1672.5 805.258,-1678.92"/>
<text text-anchor="middle" x="768.791" y="-1700.8" font-family="Times,serif" font-size="14.00">topic</text>
</g>
<!-- lt_ZWJIO2 -->
<g id="node3" class="node"><title>lt_ZWJIO2</title>
<ellipse fill="white" stroke="black" cx="837.793" cy="-1750" rx="40.3147" ry="18"/>
<text text-anchor="middle" x="837.793" y="-1745.8" font-family="Times,serif" font-size="14.00">FALSE</text>
</g>
<!-- lt_ZWJIO2&#45;&gt;fcall_wtgmB3 -->
<g id="edge7" class="edge"><title>lt_ZWJIO2&#45;&gt;fcall_wtgmB3:center</title>
<path fill="none" stroke="black" d="M837.793,-1731.61C837.793,-1719.24 837.793,-1702.37 837.793,-1688.22"/>
<polygon fill="none" stroke="black" points="841.293,-1688.05 837.793,-1678.05 834.293,-1688.05 841.293,-1688.05"/>
<text text-anchor="middle" x="851.007" y="-1700.8" font-family="Times,serif" font-size="14.00">echo</text>
</g>
<!-- lt_QqC0mH -->
<g id="node4" class="node"><title>lt_QqC0mH</title>
<ellipse fill="white" stroke="black" cx="1050.79" cy="-1750" rx="40.3147" ry="18"/>
<text text-anchor="middle" x="1050.79" y="-1745.8" font-family="Times,serif" font-size="14.00">FALSE</text>
</g>
<!-- lt_QqC0mH&#45;&gt;fcall_wtgmB3 -->
<g id="edge8" class="edge"><title>lt_QqC0mH&#45;&gt;fcall_wtgmB3:center</title>
<path fill="none" stroke="black" d="M1022.07,-1737.13C983.275,-1721.11 914.214,-1692.57 872.545,-1675.36"/>
<polygon fill="none" stroke="black" points="873.66,-1672.03 863.081,-1671.45 870.987,-1678.5 873.66,-1672.03"/>
<text text-anchor="middle" x="972.122" y="-1700.8" font-family="Times,serif" font-size="14.00">ask</text>
</g>
<!-- meuse~2 -->
<g id="node10" class="node"><title>meuse~2</title>
<ellipse fill="white" stroke="black" cx="653.793" cy="-1050" rx="53.1588" ry="29.5"/>
<text text-anchor="middle" x="653.793" y="-1054.2" font-family="Times,serif" font-size="14.00">meuse~2 </text>
<text text-anchor="middle" x="653.793" y="-1037.4" font-family="Times,serif" font-size="14.00">[S x Q set]</text>
</g>
<!-- meuse&#45;&gt;meuse~2 -->
<g id="edge9" class="edge"><title>meuse&#45;&gt;meuse~2:center</title>
<path fill="none" stroke="black" stroke-dasharray="5,2" d="M837.793,-1544.33C837.793,-1513.41 837.793,-1462.71 837.793,-1419 837.793,-1419 837.793,-1419 837.793,-1205 837.793,-1136.82 762.58,-1092.87 708.329,-1070.04"/>
<polygon fill="black" stroke="black" points="709.386,-1066.69 698.804,-1066.15 706.742,-1073.17 709.386,-1066.69"/>
</g>
<!-- meuse$zinc -->
<g id="node13" class="node"><title>meuse$zinc</title>
<ellipse fill="white" stroke="black" cx="642.793" cy="-1418" rx="60.25" ry="29.5"/>
<text text-anchor="middle" x="642.793" y="-1422.2" font-family="Times,serif" font-size="14.00">meuse$zinc </text>
<text text-anchor="middle" x="642.793" y="-1405.4" font-family="Times,serif" font-size="14.00">[Q set]</text>
</g>
<!-- meuse&#45;&gt;meuse$zinc -->
<g id="edge10" class="edge"><title>meuse&#45;&gt;meuse$zinc:center</title>
<path fill="none" stroke="black" d="M807.751,-1549.27C773.982,-1522.61 719.036,-1479.21 681.931,-1449.91"/>
<polygon fill="none" stroke="black" points="683.853,-1446.97 673.836,-1443.52 679.515,-1452.46 683.853,-1446.97"/>
</g>
<!-- fcall_eFXQn1 -->
<g id="node15" class="node"><title>fcall_eFXQn1</title>
<ellipse fill="orange" stroke="black" cx="653.793" cy="-838" rx="212.25" ry="29.5"/>
<text text-anchor="middle" x="653.793" y="-842.2" font-family="Times,serif" font-size="14.00">SField</text>
<text text-anchor="middle" x="653.793" y="-825.4" font-family="Times,serif" font-size="14.00">[bool &#45;&gt; R set &#45;&gt; S x Q set &#45;&gt; S x Q x SExtend set]</text>
</g>
<!-- meuse.area&#45;&gt;fcall_eFXQn1 -->
<g id="edge11" class="edge"><title>meuse.area&#45;&gt;fcall_eFXQn1:center</title>
<path fill="none" stroke="black" d="M434.49,-1470.22C408.891,-1445.64 375.793,-1405.47 375.793,-1362 375.793,-1362 375.793,-1362 375.793,-951 375.793,-915.146 456.357,-885.437 530.745,-865.647"/>
<polygon fill="none" stroke="black" points="531.929,-868.956 540.72,-863.042 530.16,-862.183 531.929,-868.956"/>
<text text-anchor="middle" x="396.791" y="-1201.8" font-family="Times,serif" font-size="14.00">domain</text>
</g>
<!-- fcall_HdUeTL -->
<g id="node24" class="node"><title>fcall_HdUeTL</title>
<ellipse fill="orange" stroke="black" cx="1691.79" cy="-1418" rx="86.25" ry="29.5"/>
<text text-anchor="middle" x="1691.79" y="-1422.2" font-family="Times,serif" font-size="14.00">geometry</text>
<text text-anchor="middle" x="1691.79" y="-1405.4" font-family="Times,serif" font-size="14.00">[S x Q set &#45;&gt; S set]</text>
</g>
<!-- meuse.grid&#45;&gt;fcall_HdUeTL -->
<g id="edge12" class="edge"><title>meuse.grid&#45;&gt;fcall_HdUeTL:center</title>
<path fill="none" stroke="black" d="M1246.06,-1557.95C1333.32,-1530.75 1517.71,-1473.27 1619.87,-1441.42"/>
<polygon fill="none" stroke="black" points="1620.99,-1444.74 1629.49,-1438.42 1618.9,-1438.06 1620.99,-1444.74"/>
<text text-anchor="middle" x="1540.74" y="-1491.8" font-family="Times,serif" font-size="14.00">obj</text>
</g>
<!-- fcall_lF25aU -->
<g id="node25" class="node"><title>fcall_lF25aU</title>
<ellipse fill="orange" stroke="black" cx="1279.79" cy="-1418" rx="86.25" ry="29.5"/>
<text text-anchor="middle" x="1279.79" y="-1422.2" font-family="Times,serif" font-size="14.00">geometry</text>
<text text-anchor="middle" x="1279.79" y="-1405.4" font-family="Times,serif" font-size="14.00">[S x Q set &#45;&gt; S set]</text>
</g>
<!-- meuse.grid&#45;&gt;fcall_lF25aU -->
<g id="edge13" class="edge"><title>meuse.grid&#45;&gt;fcall_lF25aU:center</title>
<path fill="none" stroke="black" d="M1212.45,-1545.47C1225.74,-1520.52 1245.42,-1483.55 1260.08,-1456.02"/>
<polygon fill="none" stroke="black" points="1263.23,-1457.55 1264.84,-1447.07 1257.06,-1454.26 1263.23,-1457.55"/>
<text text-anchor="middle" x="1261.74" y="-1491.8" font-family="Times,serif" font-size="14.00">obj</text>
</g>
<!-- meuse[&quot;lzinc&quot;] -->
<g id="node16" class="node"><title>meuse[&quot;lzinc&quot;]</title>
<ellipse fill="white" stroke="black" cx="653.793" cy="-952" rx="72.1689" ry="29.5"/>
<text text-anchor="middle" x="653.793" y="-956.2" font-family="Times,serif" font-size="14.00">meuse[&quot;lzinc&quot;] </text>
<text text-anchor="middle" x="653.793" y="-939.4" font-family="Times,serif" font-size="14.00">[S x Q set]</text>
</g>
<!-- meuse~2&#45;&gt;meuse[&quot;lzinc&quot;] -->
<g id="edge14" class="edge"><title>meuse~2&#45;&gt;meuse[&quot;lzinc&quot;]:center</title>
<path fill="none" stroke="black" d="M653.793,-1020.46C653.793,-1011.45 653.793,-1001.33 653.793,-991.736"/>
<polygon fill="none" stroke="black" points="657.293,-991.599 653.793,-981.599 650.293,-991.599 657.293,-991.599"/>
</g>
<!-- meuse$lzinc -->
<g id="node11" class="node"><title>meuse$lzinc</title>
<ellipse fill="white" stroke="black" cx="640.793" cy="-1206" rx="63.1326" ry="29.5"/>
<text text-anchor="middle" x="640.793" y="-1210.2" font-family="Times,serif" font-size="14.00">meuse$lzinc </text>
<text text-anchor="middle" x="640.793" y="-1193.4" font-family="Times,serif" font-size="14.00">[Q set]</text>
</g>
<!-- meuse$lzinc&#45;&gt;meuse~2 -->
<g id="edge15" class="edge"><title>meuse$lzinc&#45;&gt;meuse~2:center</title>
<path fill="none" stroke="red" d="M643.208,-1176.39C645.262,-1152.05 648.233,-1116.86 650.505,-1089.95"/>
<polygon fill="red" stroke="red" points="654.015,-1089.97 651.369,-1079.71 647.04,-1089.38 654.015,-1089.97"/>
</g>
<!-- fcall_8MHjsW -->
<g id="node12" class="node"><title>fcall_8MHjsW</title>
<ellipse fill="orange" stroke="black" cx="640.793" cy="-1304" rx="27" ry="18"/>
<text text-anchor="middle" x="640.793" y="-1299.8" font-family="Times,serif" font-size="14.00">log</text>
</g>
<!-- fcall_8MHjsW&#45;&gt;meuse$lzinc -->
<g id="edge16" class="edge"><title>fcall_8MHjsW&#45;&gt;meuse$lzinc:center</title>
<path fill="none" stroke="red" d="M640.793,-1285.84C640.793,-1274.75 640.793,-1259.85 640.793,-1246"/>
<polygon fill="red" stroke="red" points="644.293,-1245.68 640.793,-1235.68 637.293,-1245.68 644.293,-1245.68"/>
</g>
<!-- meuse$zinc&#45;&gt;fcall_8MHjsW -->
<g id="edge17" class="edge"><title>meuse$zinc&#45;&gt;fcall_8MHjsW:center</title>
<path fill="none" stroke="black" d="M642.283,-1388.45C641.977,-1371.33 641.59,-1349.66 641.287,-1332.7"/>
<polygon fill="none" stroke="black" points="644.78,-1332.26 641.102,-1322.32 637.781,-1332.39 644.78,-1332.26"/>
</g>
<!-- zincPointData -->
<g id="node14" class="node"><title>zincPointData</title>
<ellipse fill="white" stroke="black" cx="653.793" cy="-740" rx="97.1383" ry="29.5"/>
<text text-anchor="middle" x="653.793" y="-744.2" font-family="Times,serif" font-size="14.00">zincPointData </text>
<text text-anchor="middle" x="653.793" y="-727.4" font-family="Times,serif" font-size="14.00">[S x Q x SExtend set]</text>
</g>
<!-- fcall_hA2NXb -->
<g id="node18" class="node"><title>fcall_hA2NXb</title>
<ellipse fill="orange" stroke="black" cx="817.793" cy="-512" rx="171.009" ry="29.5"/>
<text text-anchor="middle" x="817.793" y="-516.2" font-family="Times,serif" font-size="14.00">getInterpolator</text>
<text text-anchor="middle" x="817.793" y="-499.4" font-family="Times,serif" font-size="14.00">[Q set &#45;&gt; S x Q x SExtend set &#45;&gt; SField]</text>
</g>
<!-- zincPointData&#45;&gt;fcall_hA2NXb -->
<g id="edge19" class="edge"><title>zincPointData&#45;&gt;fcall_hA2NXb:center</title>
<path fill="none" stroke="black" d="M749.119,-734.07C804.517,-725.711 870.221,-705.168 905.793,-656 921.424,-634.395 916.357,-620.485 905.793,-596 897.646,-577.116 882.854,-560.534 867.694,-547.256"/>
<polygon fill="none" stroke="black" points="869.68,-544.354 859.766,-540.619 865.187,-549.722 869.68,-544.354"/>
<text text-anchor="middle" x="942.397" y="-621.8" font-family="Times,serif" font-size="14.00">pointData</text>
</g>
<!-- fcall_VGOeZm -->
<g id="node19" class="node"><title>fcall_VGOeZm</title>
<ellipse fill="orange" stroke="black" cx="282.793" cy="-626" rx="131.25" ry="29.5"/>
<text text-anchor="middle" x="282.793" y="-630.2" font-family="Times,serif" font-size="14.00">modelSemivariogram</text>
<text text-anchor="middle" x="282.793" y="-613.4" font-family="Times,serif" font-size="14.00">[S x Q x SExtend set &#45;&gt; Q set]</text>
</g>
<!-- zincPointData&#45;&gt;fcall_VGOeZm -->
<g id="edge18" class="edge"><title>zincPointData&#45;&gt;fcall_VGOeZm:center</title>
<path fill="none" stroke="black" d="M586.177,-718.588C525.121,-700.156 434.971,-672.941 368.805,-652.966"/>
<polygon fill="none" stroke="black" points="369.808,-649.613 359.223,-650.073 367.785,-656.314 369.808,-649.613"/>
<text text-anchor="middle" x="518.397" y="-678.8" font-family="Times,serif" font-size="14.00">pointData</text>
</g>
<!-- fcall_eFXQn1&#45;&gt;zincPointData -->
<g id="edge20" class="edge"><title>fcall_eFXQn1&#45;&gt;zincPointData:center</title>
<path fill="none" stroke="red" d="M653.793,-808.457C653.793,-799.446 653.793,-789.334 653.793,-779.736"/>
<polygon fill="red" stroke="red" points="657.293,-779.599 653.793,-769.599 650.293,-779.599 657.293,-779.599"/>
</g>
<!-- meuse[&quot;lzinc&quot;]&#45;&gt;fcall_eFXQn1 -->
<g id="edge21" class="edge"><title>meuse[&quot;lzinc&quot;]&#45;&gt;fcall_eFXQn1:center</title>
<path fill="none" stroke="black" d="M653.793,-922.448C653.793,-908.993 653.793,-892.729 653.793,-878.146"/>
<polygon fill="none" stroke="black" points="657.293,-877.889 653.793,-867.889 650.293,-877.889 657.293,-877.889"/>
<text text-anchor="middle" x="689.173" y="-890.8" font-family="Times,serif" font-size="14.00">observations</text>
</g>
<!-- interpolator -->
<g id="node17" class="node"><title>interpolator</title>
<ellipse fill="white" stroke="black" cx="1007.79" cy="-414" rx="59.2038" ry="29.5"/>
<text text-anchor="middle" x="1007.79" y="-418.2" font-family="Times,serif" font-size="14.00">interpolator </text>
<text text-anchor="middle" x="1007.79" y="-401.4" font-family="Times,serif" font-size="14.00">[SField]</text>
</g>
<!-- fcall_ZIvSDv -->
<g id="node28" class="node"><title>fcall_ZIvSDv</title>
<ellipse fill="orange" stroke="black" cx="1182.79" cy="-316" rx="173.25" ry="29.5"/>
<text text-anchor="middle" x="1182.79" y="-320.2" font-family="Times,serif" font-size="14.00">interpolator</text>
<text text-anchor="middle" x="1182.79" y="-303.4" font-family="Times,serif" font-size="14.00">[S x SExtend set &#45;&gt; S x Q x SExtend set]</text>
</g>
<!-- interpolator&#45;&gt;fcall_ZIvSDv -->
<g id="edge22" class="edge"><title>interpolator&#45;&gt;fcall_ZIvSDv:center</title>
<path fill="none" stroke="blue" d="M1047.07,-391.456C1069.78,-378.994 1098.81,-363.073 1124.18,-349.154"/>
<polygon fill="blue" stroke="blue" points="1125.9,-352.201 1132.99,-344.323 1122.53,-346.064 1125.9,-352.201"/>
</g>
<!-- fcall_hA2NXb&#45;&gt;interpolator -->
<g id="edge23" class="edge"><title>fcall_hA2NXb&#45;&gt;interpolator:center</title>
<path fill="none" stroke="red" d="M871.477,-483.875C898.57,-470.186 931.231,-453.684 957.79,-440.264"/>
<polygon fill="red" stroke="red" points="959.564,-443.29 966.911,-435.656 956.407,-437.042 959.564,-443.29"/>
</g>
<!-- fcall_VGOeZm&#45;&gt;fcall_hA2NXb -->
<g id="edge24" class="edge"><title>fcall_VGOeZm&#45;&gt;fcall_hA2NXb:center</title>
<path fill="none" stroke="black" d="M376.595,-605.363C467.135,-586.409 604.448,-557.663 701.808,-537.281"/>
<polygon fill="none" stroke="black" points="702.623,-540.686 711.694,-535.211 701.189,-533.835 702.623,-540.686"/>
<text text-anchor="middle" x="603.005" y="-564.8" font-family="Times,serif" font-size="14.00">params</text>
</g>
<!-- init_model -->
<g id="node20" class="node"><title>init_model</title>
<ellipse fill="white" stroke="black" cx="282.793" cy="-740" rx="56.2887" ry="29.5"/>
<text text-anchor="middle" x="282.793" y="-744.2" font-family="Times,serif" font-size="14.00">init_model </text>
<text text-anchor="middle" x="282.793" y="-727.4" font-family="Times,serif" font-size="14.00">[function]</text>
</g>
<!-- init_model&#45;&gt;fcall_VGOeZm -->
<g id="edge25" class="edge"><title>init_model&#45;&gt;fcall_VGOeZm:center</title>
<path fill="none" stroke="blue" stroke-dasharray="5,2" d="M282.793,-710.448C282.793,-696.993 282.793,-680.729 282.793,-666.146"/>
<polygon fill="blue" stroke="blue" points="286.293,-665.889 282.793,-655.889 279.293,-665.889 286.293,-665.889"/>
</g>
<!-- captureSemantics&lt;&#45; -->
<g id="node21" class="node"><title>captureSemantics&lt;&#45;</title>
<ellipse fill="white" stroke="black" cx="804.793" cy="-626" rx="92.3327" ry="29.5"/>
<text text-anchor="middle" x="804.793" y="-630.2" font-family="Times,serif" font-size="14.00">captureSemantics&lt;&#45; </text>
<text text-anchor="middle" x="804.793" y="-613.4" font-family="Times,serif" font-size="14.00">[function]</text>
</g>
<!-- captureSemantics&lt;&#45;&#45;&gt;fcall_hA2NXb -->
<g id="edge26" class="edge"><title>captureSemantics&lt;&#45;&#45;&gt;fcall_hA2NXb:center</title>
<path fill="none" stroke="blue" stroke-dasharray="5,2" d="M808.107,-596.448C809.681,-582.888 811.586,-566.476 813.288,-551.808"/>
<polygon fill="blue" stroke="blue" points="816.808,-551.837 814.485,-541.5 809.855,-551.03 816.808,-551.837"/>
</g>
<!-- locInterest -->
<g id="node22" class="node"><title>locInterest</title>
<ellipse fill="white" stroke="black" cx="1262.79" cy="-1128" rx="80.1421" ry="29.5"/>
<text text-anchor="middle" x="1262.79" y="-1132.2" font-family="Times,serif" font-size="14.00">locInterest </text>
<text text-anchor="middle" x="1262.79" y="-1115.4" font-family="Times,serif" font-size="14.00">[S x SExtend set]</text>
</g>
<!-- locInterest&#45;&gt;fcall_ZIvSDv -->
<g id="edge27" class="edge"><title>locInterest&#45;&gt;fcall_ZIvSDv:center</title>
<path fill="none" stroke="black" d="M1262.07,-1098.21C1261.5,-1072.87 1260.79,-1034.99 1260.79,-1002 1260.79,-1002 1260.79,-1002 1260.79,-413 1260.79,-389.35 1246.36,-368.281 1229.91,-351.95"/>
<polygon fill="none" stroke="black" points="1231.94,-349.063 1222.25,-344.787 1227.16,-354.175 1231.94,-349.063"/>
<text text-anchor="middle" x="1297.72" y="-735.8" font-family="Times,serif" font-size="14.00">locOfInterest</text>
</g>
<!-- fcall_G0yssK -->
<g id="node23" class="node"><title>fcall_G0yssK</title>
<ellipse fill="orange" stroke="black" cx="1279.79" cy="-1304" rx="176.5" ry="29.5"/>
<text text-anchor="middle" x="1279.79" y="-1308.2" font-family="Times,serif" font-size="14.00">SField</text>
<text text-anchor="middle" x="1279.79" y="-1291.4" font-family="Times,serif" font-size="14.00">[bool &#45;&gt; S set &#45;&gt; S set &#45;&gt; S x SExtend set]</text>
</g>
<!-- fcall_G0yssK&#45;&gt;locInterest -->
<g id="edge28" class="edge"><title>fcall_G0yssK&#45;&gt;locInterest:center</title>
<path fill="none" stroke="red" d="M1276.99,-1274.27C1274.13,-1245.09 1269.7,-1199.73 1266.55,-1167.46"/>
<polygon fill="red" stroke="red" points="1270.03,-1167.1 1265.58,-1157.49 1263.07,-1167.78 1270.03,-1167.1"/>
</g>
<!-- fcall_HdUeTL&#45;&gt;fcall_G0yssK -->
<g id="edge29" class="edge"><title>fcall_HdUeTL&#45;&gt;fcall_G0yssK:center</title>
<path fill="none" stroke="black" d="M1625.6,-1399.01C1559.07,-1380.92 1455.7,-1352.82 1379.29,-1332.05"/>
<polygon fill="none" stroke="black" points="1380.21,-1328.67 1369.64,-1329.42 1378.37,-1335.43 1380.21,-1328.67"/>
<text text-anchor="middle" x="1545.17" y="-1356.8" font-family="Times,serif" font-size="14.00">observations</text>
</g>
<!-- fcall_lF25aU&#45;&gt;fcall_G0yssK -->
<g id="edge30" class="edge"><title>fcall_lF25aU&#45;&gt;fcall_G0yssK:center</title>
<path fill="none" stroke="black" d="M1279.79,-1388.45C1279.79,-1374.99 1279.79,-1358.73 1279.79,-1344.15"/>
<polygon fill="none" stroke="black" points="1283.29,-1343.89 1279.79,-1333.89 1276.29,-1343.89 1283.29,-1343.89"/>
<text text-anchor="middle" x="1300.79" y="-1356.8" font-family="Times,serif" font-size="14.00">domain</text>
</g>
<!-- lt_3w3stb -->
<g id="node26" class="node"><title>lt_3w3stb</title>
<ellipse fill="white" stroke="black" cx="975.793" cy="-1418" rx="36.3712" ry="18"/>
<text text-anchor="middle" x="975.793" y="-1413.8" font-family="Times,serif" font-size="14.00">TRUE</text>
</g>
<!-- lt_3w3stb&#45;&gt;fcall_G0yssK -->
<g id="edge31" class="edge"><title>lt_3w3stb&#45;&gt;fcall_G0yssK:center</title>
<path fill="none" stroke="black" d="M1004.12,-1406.56C1048.21,-1390.32 1134.89,-1358.39 1199.33,-1334.64"/>
<polygon fill="none" stroke="black" points="1200.9,-1337.8 1209.07,-1331.05 1198.48,-1331.23 1200.9,-1337.8"/>
<text text-anchor="middle" x="1186.62" y="-1356.8" font-family="Times,serif" font-size="14.00">cellsArePoints</text>
</g>
<!-- intZincPointData -->
<g id="node27" class="node"><title>intZincPointData</title>
<ellipse fill="white" stroke="black" cx="1182.79" cy="-218" rx="97.1383" ry="29.5"/>
<text text-anchor="middle" x="1182.79" y="-222.2" font-family="Times,serif" font-size="14.00">intZincPointData </text>
<text text-anchor="middle" x="1182.79" y="-205.4" font-family="Times,serif" font-size="14.00">[S x Q x SExtend set]</text>
</g>
<!-- intZincPointData@observations[1] -->
<g id="node30" class="node"><title>intZincPointData@observations[1]</title>
<ellipse fill="white" stroke="black" cx="1182.79" cy="-120" rx="152.25" ry="29.5"/>
<text text-anchor="middle" x="1182.79" y="-124.2" font-family="Times,serif" font-size="14.00">intZincPointData@observations[1] </text>
<text text-anchor="middle" x="1182.79" y="-107.4" font-family="Times,serif" font-size="14.00">[S x Q set]</text>
</g>
<!-- intZincPointData&#45;&gt;intZincPointData@observations[1] -->
<g id="edge32" class="edge"><title>intZincPointData&#45;&gt;intZincPointData@observations[1]:center</title>
<path fill="none" stroke="black" d="M1182.79,-188.457C1182.79,-179.446 1182.79,-169.334 1182.79,-159.736"/>
<polygon fill="none" stroke="black" points="1186.29,-159.599 1182.79,-149.599 1179.29,-159.599 1186.29,-159.599"/>
</g>
<!-- fcall_ZIvSDv&#45;&gt;intZincPointData -->
<g id="edge33" class="edge"><title>fcall_ZIvSDv&#45;&gt;intZincPointData:center</title>
<path fill="none" stroke="red" d="M1182.79,-286.457C1182.79,-277.446 1182.79,-267.334 1182.79,-257.736"/>
<polygon fill="red" stroke="red" points="1186.29,-257.599 1182.79,-247.599 1179.29,-257.599 1186.29,-257.599"/>
</g>
<!-- fcall_hI7w9Y -->
<g id="node29" class="node"><title>fcall_hI7w9Y</title>
<ellipse fill="orange" stroke="black" cx="1182.79" cy="-18" rx="34.4665" ry="18"/>
<text text-anchor="middle" x="1182.79" y="-13.8" font-family="Times,serif" font-size="14.00">spplot</text>
</g>
<!-- intZincPointData@observations[1]&#45;&gt;fcall_hI7w9Y -->
<g id="edge34" class="edge"><title>intZincPointData@observations[1]&#45;&gt;fcall_hI7w9Y:center</title>
<path fill="none" stroke="black" d="M1182.79,-90.344C1182.79,-76.4998 1182.79,-59.9679 1182.79,-46.3055"/>
<polygon fill="none" stroke="black" points="1186.29,-46.0699 1182.79,-36.0699 1179.29,-46.0699 1186.29,-46.0699"/>
<text text-anchor="middle" x="1191.74" y="-58.8" font-family="Times,serif" font-size="14.00">obj</text>
</g>
</g>
</svg>
