<?xml version="1.0" encoding="UTF-8" standalone="no"?>
<!DOCTYPE svg PUBLIC "-//W3C//DTD SVG 1.1//EN"
 "http://www.w3.org/Graphics/SVG/1.1/DTD/svg11.dtd">
<!-- Generated by graphviz version 2.28.0 (20160728.0200)
 -->
<!-- Title: f Pages: 1 -->
<svg width="545pt" height="372pt"
 viewBox="0.00 0.00 545.18 372.00" xmlns="http://www.w3.org/2000/svg" xmlns:xlink="http://www.w3.org/1999/xlink">
<g id="graph1" class="graph" transform="scale(0.219599 0.219599) rotate(0) translate(4 1690)">
<title>f</title>
<!-- fcall_wtgmB3 -->
<g id="node1" class="node"><title>fcall_wtgmB3</title>
<ellipse fill="orange" stroke="black" cx="1100.93" cy="-1578" rx="32.2385" ry="18"/>
<text text-anchor="middle" x="1100.93" y="-1573.8" font-family="Times,serif" font-size="14.00">demo</text>
</g>
<!-- crs -->
<g id="node5" class="node"><title>crs</title>
<ellipse fill="white" stroke="black" cx="709.927" cy="-1492" rx="27" ry="29.5"/>
<text text-anchor="middle" x="709.927" y="-1496.2" font-family="Times,serif" font-size="14.00">crs </text>
<text text-anchor="middle" x="709.927" y="-1479.4" font-family="Times,serif" font-size="14.00">[&#39;a]</text>
</g>
<!-- fcall_wtgmB3&#45;&gt;crs -->
<g id="edge1" class="edge"><title>fcall_wtgmB3&#45;&gt;crs:center</title>
<path fill="none" stroke="red" stroke-dasharray="5,2" d="M1069.25,-1574.47C1021.75,-1570.24 929.464,-1560.34 852.927,-1542 815.145,-1532.95 773.238,-1517.98 744.612,-1506.96"/>
<polygon fill="red" stroke="red" points="745.658,-1503.61 735.07,-1503.25 743.119,-1510.14 745.658,-1503.61"/>
</g>
<!-- meuse -->
<g id="node6" class="node"><title>meuse</title>
<ellipse fill="white" stroke="black" cx="1100.93" cy="-1492" rx="53.1588" ry="29.5"/>
<text text-anchor="middle" x="1100.93" y="-1496.2" font-family="Times,serif" font-size="14.00">meuse </text>
<text text-anchor="middle" x="1100.93" y="-1479.4" font-family="Times,serif" font-size="14.00">[S x Q set]</text>
</g>
<!-- fcall_wtgmB3&#45;&gt;meuse -->
<g id="edge2" class="edge"><title>fcall_wtgmB3&#45;&gt;meuse:center</title>
<path fill="none" stroke="red" stroke-dasharray="5,2" d="M1100.93,-1559.6C1100.93,-1551.46 1100.93,-1541.43 1100.93,-1531.65"/>
<polygon fill="red" stroke="red" points="1104.43,-1531.63 1100.93,-1521.63 1097.43,-1531.63 1104.43,-1531.63"/>
</g>
<!-- meuse.area -->
<g id="node7" class="node"><title>meuse.area</title>
<ellipse fill="white" stroke="black" cx="609.927" cy="-1414" rx="57.5" ry="29.5"/>
<text text-anchor="middle" x="609.927" y="-1418.2" font-family="Times,serif" font-size="14.00">meuse.area </text>
<text text-anchor="middle" x="609.927" y="-1401.4" font-family="Times,serif" font-size="14.00">[R set]</text>
</g>
<!-- fcall_wtgmB3&#45;&gt;meuse.area -->
<g id="edge3" class="edge"><title>fcall_wtgmB3&#45;&gt;meuse.area:center</title>
<path fill="none" stroke="red" stroke-dasharray="5,2" d="M1073.83,-1568.06C996.433,-1542.52 773.147,-1468.85 667.124,-1433.87"/>
<polygon fill="red" stroke="red" points="668.138,-1430.52 657.545,-1430.71 665.945,-1437.17 668.138,-1430.52"/>
</g>
<!-- meuse.grid -->
<g id="node8" class="node"><title>meuse.grid</title>
<ellipse fill="white" stroke="black" cx="1576.93" cy="-1492" rx="57.25" ry="29.5"/>
<text text-anchor="middle" x="1576.93" y="-1496.2" font-family="Times,serif" font-size="14.00">meuse.grid </text>
<text text-anchor="middle" x="1576.93" y="-1479.4" font-family="Times,serif" font-size="14.00">[S x Q set]</text>
</g>
<!-- fcall_wtgmB3&#45;&gt;meuse.grid -->
<g id="edge4" class="edge"><title>fcall_wtgmB3&#45;&gt;meuse.grid:center</title>
<path fill="none" stroke="red" stroke-dasharray="5,2" d="M1131.43,-1571.62C1207.98,-1558.11 1409.51,-1522.54 1513.24,-1504.24"/>
<polygon fill="red" stroke="red" points="1514.03,-1507.65 1523.27,-1502.47 1512.81,-1500.76 1514.03,-1507.65"/>
</g>
<!-- meuse.riv -->
<g id="node9" class="node"><title>meuse.riv</title>
<ellipse fill="white" stroke="black" cx="1941.93" cy="-1492" rx="52.25" ry="29.5"/>
<text text-anchor="middle" x="1941.93" y="-1496.2" font-family="Times,serif" font-size="14.00">meuse.riv </text>
<text text-anchor="middle" x="1941.93" y="-1479.4" font-family="Times,serif" font-size="14.00">[R set]</text>
</g>
<!-- fcall_wtgmB3&#45;&gt;meuse.riv -->
<g id="edge5" class="edge"><title>fcall_wtgmB3&#45;&gt;meuse.riv:center</title>
<path fill="none" stroke="red" stroke-dasharray="5,2" d="M1132.36,-1573.86C1256.49,-1561.46 1713.94,-1515.77 1880.64,-1499.12"/>
<polygon fill="red" stroke="red" points="1881.12,-1502.59 1890.72,-1498.11 1880.43,-1495.63 1881.12,-1502.59"/>
</g>
<!-- lt_kNTOIZ -->
<g id="node2" class="node"><title>lt_kNTOIZ</title>
<ellipse fill="white" stroke="black" cx="832.927" cy="-1668" rx="35.5584" ry="18"/>
<text text-anchor="middle" x="832.927" y="-1663.8" font-family="Times,serif" font-size="14.00">meuse</text>
</g>
<!-- lt_kNTOIZ&#45;&gt;fcall_wtgmB3 -->
<g id="edge6" class="edge"><title>lt_kNTOIZ&#45;&gt;fcall_wtgmB3:center</title>
<path fill="none" stroke="black" d="M861.863,-1657.5C910.919,-1641.39 1010.32,-1608.75 1064.21,-1591.06"/>
<polygon fill="none" stroke="black" points="1065.31,-1594.38 1073.72,-1587.94 1063.12,-1587.73 1065.31,-1594.38"/>
<text text-anchor="middle" x="1005.93" y="-1618.8" font-family="Times,serif" font-size="14.00">topic</text>
</g>
<!-- lt_ZWJIO2 -->
<g id="node3" class="node"><title>lt_ZWJIO2</title>
<ellipse fill="white" stroke="black" cx="1100.93" cy="-1668" rx="40.3147" ry="18"/>
<text text-anchor="middle" x="1100.93" y="-1663.8" font-family="Times,serif" font-size="14.00">FALSE</text>
</g>
<!-- lt_ZWJIO2&#45;&gt;fcall_wtgmB3 -->
<g id="edge7" class="edge"><title>lt_ZWJIO2&#45;&gt;fcall_wtgmB3:center</title>
<path fill="none" stroke="black" d="M1100.93,-1649.61C1100.93,-1637.24 1100.93,-1620.37 1100.93,-1606.22"/>
<polygon fill="none" stroke="black" points="1104.43,-1606.05 1100.93,-1596.05 1097.43,-1606.05 1104.43,-1606.05"/>
<text text-anchor="middle" x="1114.14" y="-1618.8" font-family="Times,serif" font-size="14.00">echo</text>
</g>
<!-- lt_QqC0mH -->
<g id="node4" class="node"><title>lt_QqC0mH</title>
<ellipse fill="white" stroke="black" cx="1382.93" cy="-1668" rx="40.3147" ry="18"/>
<text text-anchor="middle" x="1382.93" y="-1663.8" font-family="Times,serif" font-size="14.00">FALSE</text>
</g>
<!-- lt_QqC0mH&#45;&gt;fcall_wtgmB3 -->
<g id="edge8" class="edge"><title>lt_QqC0mH&#45;&gt;fcall_wtgmB3:center</title>
<path fill="none" stroke="black" d="M1350.85,-1656.99C1298.26,-1640.58 1193.97,-1608.03 1138.18,-1590.63"/>
<polygon fill="none" stroke="black" points="1138.94,-1587.2 1128.35,-1587.56 1136.86,-1593.88 1138.94,-1587.2"/>
<text text-anchor="middle" x="1276.26" y="-1618.8" font-family="Times,serif" font-size="14.00">ask</text>
</g>
<!-- meuse~2 -->
<g id="node10" class="node"><title>meuse~2</title>
<ellipse fill="white" stroke="black" cx="860.927" cy="-1108" rx="53.1588" ry="29.5"/>
<text text-anchor="middle" x="860.927" y="-1112.2" font-family="Times,serif" font-size="14.00">meuse~2 </text>
<text text-anchor="middle" x="860.927" y="-1095.4" font-family="Times,serif" font-size="14.00">[S x Q set]</text>
</g>
<!-- meuse&#45;&gt;meuse~2 -->
<g id="edge9" class="edge"><title>meuse&#45;&gt;meuse~2:center</title>
<path fill="none" stroke="black" stroke-dasharray="5,2" d="M1083.86,-1463.83C1041.41,-1396.27 931.069,-1220.64 883.402,-1144.77"/>
<polygon fill="black" stroke="black" points="886.192,-1142.63 877.908,-1136.03 880.264,-1146.36 886.192,-1142.63"/>
</g>
<!-- fcall_8MHjsW -->
<g id="node12" class="node"><title>fcall_8MHjsW</title>
<ellipse fill="orange" stroke="black" cx="806.927" cy="-1336" rx="75.086" ry="18"/>
<text text-anchor="middle" x="806.927" y="-1331.8" font-family="Times,serif" font-size="14.00">log(meuse$zinc)</text>
</g>
<!-- meuse&#45;&gt;fcall_8MHjsW -->
<g id="edge10" class="edge"><title>meuse&#45;&gt;fcall_8MHjsW:center</title>
<path fill="none" stroke="black" d="M1063.09,-1471.18C1006.97,-1441.79 902.226,-1386.92 845.617,-1357.27"/>
<polygon fill="none" stroke="black" points="847.109,-1354.1 836.627,-1352.56 843.861,-1360.3 847.109,-1354.1"/>
</g>
<!-- fcall_eFXQn1 -->
<g id="node14" class="node"><title>fcall_eFXQn1</title>
<ellipse fill="orange" stroke="black" cx="860.927" cy="-838" rx="212.25" ry="29.5"/>
<text text-anchor="middle" x="860.927" y="-842.2" font-family="Times,serif" font-size="14.00">SField</text>
<text text-anchor="middle" x="860.927" y="-825.4" font-family="Times,serif" font-size="14.00">[bool &#45;&gt; R set &#45;&gt; S x Q set &#45;&gt; S x Q x SExtend set]</text>
</g>
<!-- meuse.area&#45;&gt;fcall_eFXQn1 -->
<g id="edge11" class="edge"><title>meuse.area&#45;&gt;fcall_eFXQn1:center</title>
<path fill="none" stroke="black" d="M578.166,-1389.3C549.877,-1365.23 512.927,-1325.15 512.927,-1280 512.927,-1280 512.927,-1280 512.927,-951 512.927,-907.751 611.553,-878.809 703.796,-861.197"/>
<polygon fill="none" stroke="black" points="704.662,-864.596 713.848,-859.317 703.375,-857.715 704.662,-864.596"/>
<text text-anchor="middle" x="533.925" y="-1160.8" font-family="Times,serif" font-size="14.00">domain</text>
</g>
<!-- fcall_HdUeTL -->
<g id="node23" class="node"><title>fcall_HdUeTL</title>
<ellipse fill="orange" stroke="black" cx="2229.93" cy="-1336" rx="86.25" ry="29.5"/>
<text text-anchor="middle" x="2229.93" y="-1340.2" font-family="Times,serif" font-size="14.00">geometry</text>
<text text-anchor="middle" x="2229.93" y="-1323.4" font-family="Times,serif" font-size="14.00">[S x Q set &#45;&gt; S set]</text>
</g>
<!-- meuse.grid&#45;&gt;fcall_HdUeTL -->
<g id="edge12" class="edge"><title>meuse.grid&#45;&gt;fcall_HdUeTL:center</title>
<path fill="none" stroke="black" d="M1628.44,-1478.85C1742,-1452.07 2014.52,-1387.8 2150.28,-1355.78"/>
<polygon fill="none" stroke="black" points="2151.28,-1359.14 2160.21,-1353.44 2149.67,-1352.33 2151.28,-1359.14"/>
<text text-anchor="middle" x="2026.87" y="-1409.8" font-family="Times,serif" font-size="14.00">obj</text>
</g>
<!-- fcall_lF25aU -->
<g id="node24" class="node"><title>fcall_lF25aU</title>
<ellipse fill="orange" stroke="black" cx="1684.93" cy="-1336" rx="86.25" ry="29.5"/>
<text text-anchor="middle" x="1684.93" y="-1340.2" font-family="Times,serif" font-size="14.00">geometry</text>
<text text-anchor="middle" x="1684.93" y="-1323.4" font-family="Times,serif" font-size="14.00">[S x Q set &#45;&gt; S set]</text>
</g>
<!-- meuse.grid&#45;&gt;fcall_lF25aU -->
<g id="edge13" class="edge"><title>meuse.grid&#45;&gt;fcall_lF25aU:center</title>
<path fill="none" stroke="black" d="M1595.99,-1463.82C1613.66,-1438.62 1640.08,-1400.95 1659.53,-1373.21"/>
<polygon fill="none" stroke="black" points="1662.45,-1375.14 1665.33,-1364.95 1656.72,-1371.12 1662.45,-1375.14"/>
<text text-anchor="middle" x="1658.87" y="-1409.8" font-family="Times,serif" font-size="14.00">obj</text>
</g>
<!-- meuse[&quot;lzinc&quot;] -->
<g id="node15" class="node"><title>meuse[&quot;lzinc&quot;]</title>
<ellipse fill="white" stroke="black" cx="860.927" cy="-952" rx="72.1689" ry="29.5"/>
<text text-anchor="middle" x="860.927" y="-956.2" font-family="Times,serif" font-size="14.00">meuse[&quot;lzinc&quot;] </text>
<text text-anchor="middle" x="860.927" y="-939.4" font-family="Times,serif" font-size="14.00">[S x Q set]</text>
</g>
<!-- meuse~2&#45;&gt;meuse[&quot;lzinc&quot;] -->
<g id="edge14" class="edge"><title>meuse~2&#45;&gt;meuse[&quot;lzinc&quot;]:center</title>
<path fill="none" stroke="black" d="M860.927,-1078.39C860.927,-1054.05 860.927,-1018.86 860.927,-991.947"/>
<polygon fill="none" stroke="black" points="864.428,-991.713 860.927,-981.713 857.428,-991.713 864.428,-991.713"/>
</g>
<!-- meuse$lzinc -->
<g id="node11" class="node"><title>meuse$lzinc</title>
<ellipse fill="white" stroke="black" cx="832.927" cy="-1222" rx="63.1326" ry="29.5"/>
<text text-anchor="middle" x="832.927" y="-1226.2" font-family="Times,serif" font-size="14.00">meuse$lzinc </text>
<text text-anchor="middle" x="832.927" y="-1209.4" font-family="Times,serif" font-size="14.00">[Q set]</text>
</g>
<!-- meuse$lzinc&#45;&gt;meuse~2 -->
<g id="edge15" class="edge"><title>meuse$lzinc&#45;&gt;meuse~2:center</title>
<path fill="none" stroke="red" d="M840.065,-1192.45C843.488,-1178.76 847.638,-1162.16 851.332,-1147.38"/>
<polygon fill="red" stroke="red" points="854.772,-1148.05 853.802,-1137.5 847.981,-1146.35 854.772,-1148.05"/>
</g>
<!-- fcall_8MHjsW&#45;&gt;meuse$lzinc -->
<g id="edge16" class="edge"><title>fcall_8MHjsW&#45;&gt;meuse$lzinc:center</title>
<path fill="none" stroke="red" d="M810.876,-1317.99C814.36,-1302.98 819.566,-1280.56 824.045,-1261.26"/>
<polygon fill="red" stroke="red" points="827.456,-1262.05 826.308,-1251.52 820.637,-1260.47 827.456,-1262.05"/>
</g>
<!-- zincPointData -->
<g id="node13" class="node"><title>zincPointData</title>
<ellipse fill="white" stroke="black" cx="863.927" cy="-740" rx="97.1383" ry="29.5"/>
<text text-anchor="middle" x="863.927" y="-744.2" font-family="Times,serif" font-size="14.00">zincPointData </text>
<text text-anchor="middle" x="863.927" y="-727.4" font-family="Times,serif" font-size="14.00">[S x Q x SExtend set]</text>
</g>
<!-- fcall_hA2NXb -->
<g id="node17" class="node"><title>fcall_hA2NXb</title>
<ellipse fill="orange" stroke="black" cx="1080.93" cy="-512" rx="171.009" ry="29.5"/>
<text text-anchor="middle" x="1080.93" y="-516.2" font-family="Times,serif" font-size="14.00">getInterpolator</text>
<text text-anchor="middle" x="1080.93" y="-499.4" font-family="Times,serif" font-size="14.00">[Q set &#45;&gt; S x Q x SExtend set &#45;&gt; SField]</text>
</g>
<!-- zincPointData&#45;&gt;fcall_hA2NXb -->
<g id="edge18" class="edge"><title>zincPointData&#45;&gt;fcall_hA2NXb:center</title>
<path fill="none" stroke="black" d="M950.793,-726.759C1029.86,-713.628 1138.08,-689.975 1163.93,-656 1180.08,-634.778 1174.13,-620.637 1163.93,-596 1156.22,-577.402 1142.11,-560.799 1127.67,-547.42"/>
<polygon fill="none" stroke="black" points="1129.93,-544.744 1120.13,-540.724 1125.29,-549.98 1129.93,-544.744"/>
<text text-anchor="middle" x="1201.53" y="-621.8" font-family="Times,serif" font-size="14.00">pointData</text>
</g>
<!-- fcall_VGOeZm -->
<g id="node18" class="node"><title>fcall_VGOeZm</title>
<ellipse fill="orange" stroke="black" cx="373.927" cy="-626" rx="131.25" ry="29.5"/>
<text text-anchor="middle" x="373.927" y="-630.2" font-family="Times,serif" font-size="14.00">modelSemivariogram</text>
<text text-anchor="middle" x="373.927" y="-613.4" font-family="Times,serif" font-size="14.00">[S x Q x SExtend set &#45;&gt; Q set]</text>
</g>
<!-- zincPointData&#45;&gt;fcall_VGOeZm -->
<g id="edge17" class="edge"><title>zincPointData&#45;&gt;fcall_VGOeZm:center</title>
<path fill="none" stroke="black" d="M787.903,-721.623C703.48,-702.326 566.868,-671.101 473.855,-649.841"/>
<polygon fill="none" stroke="black" points="474.395,-646.374 463.866,-647.557 472.835,-653.198 474.395,-646.374"/>
<text text-anchor="middle" x="676.531" y="-678.8" font-family="Times,serif" font-size="14.00">pointData</text>
</g>
<!-- fcall_eFXQn1&#45;&gt;zincPointData -->
<g id="edge19" class="edge"><title>fcall_eFXQn1&#45;&gt;zincPointData:center</title>
<path fill="none" stroke="red" d="M861.819,-808.457C862.101,-799.446 862.417,-789.334 862.717,-779.736"/>
<polygon fill="red" stroke="red" points="866.22,-779.704 863.034,-769.599 859.223,-779.485 866.22,-779.704"/>
</g>
<!-- meuse[&quot;lzinc&quot;]&#45;&gt;fcall_eFXQn1 -->
<g id="edge20" class="edge"><title>meuse[&quot;lzinc&quot;]&#45;&gt;fcall_eFXQn1:center</title>
<path fill="none" stroke="black" d="M860.927,-922.448C860.927,-908.993 860.927,-892.729 860.927,-878.146"/>
<polygon fill="none" stroke="black" points="864.428,-877.889 860.927,-867.889 857.428,-877.889 864.428,-877.889"/>
<text text-anchor="middle" x="896.308" y="-890.8" font-family="Times,serif" font-size="14.00">observations</text>
</g>
<!-- interpolator -->
<g id="node16" class="node"><title>interpolator</title>
<ellipse fill="white" stroke="black" cx="1325.93" cy="-414" rx="59.2038" ry="29.5"/>
<text text-anchor="middle" x="1325.93" y="-418.2" font-family="Times,serif" font-size="14.00">interpolator </text>
<text text-anchor="middle" x="1325.93" y="-401.4" font-family="Times,serif" font-size="14.00">[SField]</text>
</g>
<!-- fcall_ZIvSDv -->
<g id="node27" class="node"><title>fcall_ZIvSDv</title>
<ellipse fill="orange" stroke="black" cx="1561.93" cy="-316" rx="173.25" ry="29.5"/>
<text text-anchor="middle" x="1561.93" y="-320.2" font-family="Times,serif" font-size="14.00">interpolator</text>
<text text-anchor="middle" x="1561.93" y="-303.4" font-family="Times,serif" font-size="14.00">[S x SExtend set &#45;&gt; S x Q x SExtend set]</text>
</g>
<!-- interpolator&#45;&gt;fcall_ZIvSDv -->
<g id="edge21" class="edge"><title>interpolator&#45;&gt;fcall_ZIvSDv:center</title>
<path fill="none" stroke="blue" d="M1371.15,-394.604C1403.97,-381.253 1449.12,-362.89 1487.25,-347.378"/>
<polygon fill="blue" stroke="blue" points="1488.84,-350.51 1496.78,-343.5 1486.2,-344.026 1488.84,-350.51"/>
</g>
<!-- fcall_hA2NXb&#45;&gt;interpolator -->
<g id="edge22" class="edge"><title>fcall_hA2NXb&#45;&gt;interpolator:center</title>
<path fill="none" stroke="red" d="M1147.87,-484.768C1186.37,-469.683 1234.16,-450.96 1270.53,-436.708"/>
<polygon fill="red" stroke="red" points="1271.95,-439.908 1279.99,-433.001 1269.4,-433.39 1271.95,-439.908"/>
</g>
<!-- fcall_VGOeZm&#45;&gt;fcall_hA2NXb -->
<g id="edge23" class="edge"><title>fcall_VGOeZm&#45;&gt;fcall_hA2NXb:center</title>
<path fill="none" stroke="black" d="M479.39,-608.293C604.164,-588.527 812.046,-555.595 947.799,-534.09"/>
<polygon fill="none" stroke="black" points="948.523,-537.519 957.853,-532.497 947.428,-530.605 948.523,-537.519"/>
<text text-anchor="middle" x="790.14" y="-564.8" font-family="Times,serif" font-size="14.00">params</text>
</g>
<!-- init_model -->
<g id="node19" class="node"><title>init_model</title>
<ellipse fill="white" stroke="black" cx="373.927" cy="-740" rx="56.2887" ry="29.5"/>
<text text-anchor="middle" x="373.927" y="-744.2" font-family="Times,serif" font-size="14.00">init_model </text>
<text text-anchor="middle" x="373.927" y="-727.4" font-family="Times,serif" font-size="14.00">[function]</text>
</g>
<!-- init_model&#45;&gt;fcall_VGOeZm -->
<g id="edge24" class="edge"><title>init_model&#45;&gt;fcall_VGOeZm:center</title>
<path fill="none" stroke="blue" stroke-dasharray="5,2" d="M373.927,-710.448C373.927,-696.993 373.927,-680.729 373.927,-666.146"/>
<polygon fill="blue" stroke="blue" points="377.428,-665.889 373.927,-655.889 370.428,-665.889 377.428,-665.889"/>
</g>
<!-- captureSemantics&lt;&#45; -->
<g id="node20" class="node"><title>captureSemantics&lt;&#45;</title>
<ellipse fill="white" stroke="black" cx="1062.93" cy="-626" rx="92.3327" ry="29.5"/>
<text text-anchor="middle" x="1062.93" y="-630.2" font-family="Times,serif" font-size="14.00">captureSemantics&lt;&#45; </text>
<text text-anchor="middle" x="1062.93" y="-613.4" font-family="Times,serif" font-size="14.00">[function]</text>
</g>
<!-- captureSemantics&lt;&#45;&#45;&gt;fcall_hA2NXb -->
<g id="edge25" class="edge"><title>captureSemantics&lt;&#45;&#45;&gt;fcall_hA2NXb:center</title>
<path fill="none" stroke="blue" stroke-dasharray="5,2" d="M1067.52,-596.448C1069.72,-582.757 1072.38,-566.158 1074.76,-551.381"/>
<polygon fill="blue" stroke="blue" points="1078.22,-551.929 1076.35,-541.5 1071.3,-550.818 1078.22,-551.929"/>
</g>
<!-- locInterest -->
<g id="node21" class="node"><title>locInterest</title>
<ellipse fill="white" stroke="black" cx="1670.93" cy="-1030" rx="80.1421" ry="29.5"/>
<text text-anchor="middle" x="1670.93" y="-1034.2" font-family="Times,serif" font-size="14.00">locInterest </text>
<text text-anchor="middle" x="1670.93" y="-1017.4" font-family="Times,serif" font-size="14.00">[S x SExtend set]</text>
</g>
<!-- locInterest&#45;&gt;fcall_ZIvSDv -->
<g id="edge26" class="edge"><title>locInterest&#45;&gt;fcall_ZIvSDv:center</title>
<path fill="none" stroke="black" d="M1668.9,-1000.48C1667.16,-973.558 1664.93,-932.057 1664.93,-896 1664.93,-896 1664.93,-896 1664.93,-413 1664.93,-386.664 1646.69,-365.492 1625.55,-349.802"/>
<polygon fill="none" stroke="black" points="1627.55,-346.924 1617.35,-344.058 1623.53,-352.66 1627.55,-346.924"/>
<text text-anchor="middle" x="1701.85" y="-678.8" font-family="Times,serif" font-size="14.00">locOfInterest</text>
</g>
<!-- fcall_G0yssK -->
<g id="node22" class="node"><title>fcall_G0yssK</title>
<ellipse fill="orange" stroke="black" cx="1684.93" cy="-1222" rx="176.5" ry="29.5"/>
<text text-anchor="middle" x="1684.93" y="-1226.2" font-family="Times,serif" font-size="14.00">SField</text>
<text text-anchor="middle" x="1684.93" y="-1209.4" font-family="Times,serif" font-size="14.00">[bool &#45;&gt; S set &#45;&gt; S set &#45;&gt; S x SExtend set]</text>
</g>
<!-- fcall_G0yssK&#45;&gt;locInterest -->
<g id="edge27" class="edge"><title>fcall_G0yssK&#45;&gt;locInterest:center</title>
<path fill="none" stroke="red" d="M1682.8,-1192.14C1680.39,-1159.45 1676.45,-1106.01 1673.78,-1069.72"/>
<polygon fill="red" stroke="red" points="1677.25,-1069.22 1673.03,-1059.51 1670.27,-1069.74 1677.25,-1069.22"/>
</g>
<!-- fcall_HdUeTL&#45;&gt;fcall_G0yssK -->
<g id="edge28" class="edge"><title>fcall_HdUeTL&#45;&gt;fcall_G0yssK:center</title>
<path fill="none" stroke="black" d="M2157.27,-1320.07C2066.85,-1301.49 1911.22,-1269.51 1803.44,-1247.36"/>
<polygon fill="none" stroke="black" points="1803.99,-1243.9 1793.49,-1245.31 1802.58,-1250.75 1803.99,-1243.9"/>
<text text-anchor="middle" x="2025.31" y="-1274.8" font-family="Times,serif" font-size="14.00">observations</text>
</g>
<!-- fcall_lF25aU&#45;&gt;fcall_G0yssK -->
<g id="edge29" class="edge"><title>fcall_lF25aU&#45;&gt;fcall_G0yssK:center</title>
<path fill="none" stroke="black" d="M1684.93,-1306.45C1684.93,-1292.99 1684.93,-1276.73 1684.93,-1262.15"/>
<polygon fill="none" stroke="black" points="1688.43,-1261.89 1684.93,-1251.89 1681.43,-1261.89 1688.43,-1261.89"/>
<text text-anchor="middle" x="1705.93" y="-1274.8" font-family="Times,serif" font-size="14.00">domain</text>
</g>
<!-- lt_3w3stb -->
<g id="node25" class="node"><title>lt_3w3stb</title>
<ellipse fill="white" stroke="black" cx="1282.93" cy="-1336" rx="36.3712" ry="18"/>
<text text-anchor="middle" x="1282.93" y="-1331.8" font-family="Times,serif" font-size="14.00">TRUE</text>
</g>
<!-- lt_3w3stb&#45;&gt;fcall_G0yssK -->
<g id="edge30" class="edge"><title>lt_3w3stb&#45;&gt;fcall_G0yssK:center</title>
<path fill="none" stroke="black" d="M1313.8,-1326.4C1371.4,-1310.35 1497.44,-1275.24 1586.62,-1250.39"/>
<polygon fill="none" stroke="black" points="1587.79,-1253.7 1596.48,-1247.64 1585.91,-1246.95 1587.79,-1253.7"/>
<text text-anchor="middle" x="1548.75" y="-1274.8" font-family="Times,serif" font-size="14.00">cellsArePoints</text>
</g>
<!-- intZincPointData -->
<g id="node26" class="node"><title>intZincPointData</title>
<ellipse fill="white" stroke="black" cx="1561.93" cy="-218" rx="97.1383" ry="29.5"/>
<text text-anchor="middle" x="1561.93" y="-222.2" font-family="Times,serif" font-size="14.00">intZincPointData </text>
<text text-anchor="middle" x="1561.93" y="-205.4" font-family="Times,serif" font-size="14.00">[S x Q x SExtend set]</text>
</g>
<!-- intZincPointData@observations[1] -->
<g id="node29" class="node"><title>intZincPointData@observations[1]</title>
<ellipse fill="white" stroke="black" cx="1561.93" cy="-120" rx="152.25" ry="29.5"/>
<text text-anchor="middle" x="1561.93" y="-124.2" font-family="Times,serif" font-size="14.00">intZincPointData@observations[1] </text>
<text text-anchor="middle" x="1561.93" y="-107.4" font-family="Times,serif" font-size="14.00">[S x Q set]</text>
</g>
<!-- intZincPointData&#45;&gt;intZincPointData@observations[1] -->
<g id="edge31" class="edge"><title>intZincPointData&#45;&gt;intZincPointData@observations[1]:center</title>
<path fill="none" stroke="black" d="M1561.93,-188.457C1561.93,-179.446 1561.93,-169.334 1561.93,-159.736"/>
<polygon fill="none" stroke="black" points="1565.43,-159.599 1561.93,-149.599 1558.43,-159.599 1565.43,-159.599"/>
</g>
<!-- fcall_ZIvSDv&#45;&gt;intZincPointData -->
<g id="edge32" class="edge"><title>fcall_ZIvSDv&#45;&gt;intZincPointData:center</title>
<path fill="none" stroke="red" d="M1561.93,-286.457C1561.93,-277.446 1561.93,-267.334 1561.93,-257.736"/>
<polygon fill="red" stroke="red" points="1565.43,-257.599 1561.93,-247.599 1558.43,-257.599 1565.43,-257.599"/>
</g>
<!-- fcall_hI7w9Y -->
<g id="node28" class="node"><title>fcall_hI7w9Y</title>
<ellipse fill="orange" stroke="black" cx="1561.93" cy="-18" rx="34.4665" ry="18"/>
<text text-anchor="middle" x="1561.93" y="-13.8" font-family="Times,serif" font-size="14.00">spplot</text>
</g>
<!-- intZincPointData@observations[1]&#45;&gt;fcall_hI7w9Y -->
<g id="edge33" class="edge"><title>intZincPointData@observations[1]&#45;&gt;fcall_hI7w9Y:center</title>
<path fill="none" stroke="black" d="M1561.93,-90.344C1561.93,-76.4998 1561.93,-59.9679 1561.93,-46.3055"/>
<polygon fill="none" stroke="black" points="1565.43,-46.0699 1561.93,-36.0699 1558.43,-46.0699 1565.43,-46.0699"/>
<text text-anchor="middle" x="1570.87" y="-58.8" font-family="Times,serif" font-size="14.00">obj</text>
</g>
</g>
</svg>
