<?xml version="1.0" encoding="UTF-8" standalone="no"?>
<!DOCTYPE svg PUBLIC "-//W3C//DTD SVG 1.1//EN"
 "http://www.w3.org/Graphics/SVG/1.1/DTD/svg11.dtd">
<!-- Generated by graphviz version 2.28.0 (20160728.0200)
 -->
<!-- Title: f Pages: 1 -->
<svg width="458pt" height="397pt"
 viewBox="0.00 0.00 457.71 397.00" xmlns="http://www.w3.org/2000/svg" xmlns:xlink="http://www.w3.org/1999/xlink">
<g id="graph1" class="graph" transform="scale(0.232164 0.232164) rotate(0) translate(4 1706)">
<title>f</title>
<!-- fcall_BXi5k3 -->
<g id="node1" class="node"><title>fcall_BXi5k3</title>
<ellipse fill="orange" stroke="black" cx="882.048" cy="-1594" rx="32.2385" ry="18"/>
<text text-anchor="middle" x="882.048" y="-1589.8" font-family="Times,serif" font-size="14.00">demo</text>
</g>
<!-- crs -->
<g id="node5" class="node"><title>crs</title>
<ellipse fill="white" stroke="black" cx="574.048" cy="-1508" rx="27" ry="29.5"/>
<text text-anchor="middle" x="574.048" y="-1512.2" font-family="Times,serif" font-size="14.00">crs </text>
<text text-anchor="middle" x="574.048" y="-1495.4" font-family="Times,serif" font-size="14.00">[&#39;a]</text>
</g>
<!-- fcall_BXi5k3&#45;&gt;crs -->
<g id="edge1" class="edge"><title>fcall_BXi5k3&#45;&gt;crs:center</title>
<path fill="none" stroke="red" stroke-dasharray="5,2" d="M850.628,-1589.84C811.105,-1585.33 741.46,-1575.57 684.048,-1558 657.404,-1549.85 628.688,-1536.9 607.279,-1526.36"/>
<polygon fill="red" stroke="red" points="608.795,-1523.21 598.285,-1521.87 605.665,-1529.47 608.795,-1523.21"/>
</g>
<!-- meuse -->
<g id="node6" class="node"><title>meuse</title>
<ellipse fill="white" stroke="black" cx="882.048" cy="-1508" rx="53.1588" ry="29.5"/>
<text text-anchor="middle" x="882.048" y="-1512.2" font-family="Times,serif" font-size="14.00">meuse </text>
<text text-anchor="middle" x="882.048" y="-1495.4" font-family="Times,serif" font-size="14.00">[S x Q set]</text>
</g>
<!-- fcall_BXi5k3&#45;&gt;meuse -->
<g id="edge2" class="edge"><title>fcall_BXi5k3&#45;&gt;meuse:center</title>
<path fill="none" stroke="red" stroke-dasharray="5,2" d="M882.048,-1575.6C882.048,-1567.46 882.048,-1557.43 882.048,-1547.65"/>
<polygon fill="red" stroke="red" points="885.548,-1547.63 882.048,-1537.63 878.548,-1547.63 885.548,-1547.63"/>
</g>
<!-- meuse.area -->
<g id="node7" class="node"><title>meuse.area</title>
<ellipse fill="white" stroke="black" cx="496.048" cy="-1430" rx="57.5" ry="29.5"/>
<text text-anchor="middle" x="496.048" y="-1434.2" font-family="Times,serif" font-size="14.00">meuse.area </text>
<text text-anchor="middle" x="496.048" y="-1417.4" font-family="Times,serif" font-size="14.00">[R set]</text>
</g>
<!-- fcall_BXi5k3&#45;&gt;meuse.area -->
<g id="edge3" class="edge"><title>fcall_BXi5k3&#45;&gt;meuse.area:center</title>
<path fill="none" stroke="red" stroke-dasharray="5,2" d="M856.954,-1582.3C809.027,-1561.89 701.122,-1516.03 610.048,-1478 590.359,-1469.78 568.723,-1460.84 549.639,-1452.98"/>
<polygon fill="red" stroke="red" points="550.786,-1449.67 540.207,-1449.1 548.123,-1456.14 550.786,-1449.67"/>
</g>
<!-- meuse.grid -->
<g id="node8" class="node"><title>meuse.grid</title>
<ellipse fill="white" stroke="black" cx="1257.05" cy="-1508" rx="57.25" ry="29.5"/>
<text text-anchor="middle" x="1257.05" y="-1512.2" font-family="Times,serif" font-size="14.00">meuse.grid </text>
<text text-anchor="middle" x="1257.05" y="-1495.4" font-family="Times,serif" font-size="14.00">[S x Q set]</text>
</g>
<!-- fcall_BXi5k3&#45;&gt;meuse.grid -->
<g id="edge4" class="edge"><title>fcall_BXi5k3&#45;&gt;meuse.grid:center</title>
<path fill="none" stroke="red" stroke-dasharray="5,2" d="M911.473,-1586.41C972.386,-1572.76 1113.42,-1541.17 1195.25,-1522.84"/>
<polygon fill="red" stroke="red" points="1196.18,-1526.22 1205.17,-1520.62 1194.65,-1519.39 1196.18,-1526.22"/>
</g>
<!-- meuse.riv -->
<g id="node9" class="node"><title>meuse.riv</title>
<ellipse fill="white" stroke="black" cx="1544.05" cy="-1508" rx="52.25" ry="29.5"/>
<text text-anchor="middle" x="1544.05" y="-1512.2" font-family="Times,serif" font-size="14.00">meuse.riv </text>
<text text-anchor="middle" x="1544.05" y="-1495.4" font-family="Times,serif" font-size="14.00">[R set]</text>
</g>
<!-- fcall_BXi5k3&#45;&gt;meuse.riv -->
<g id="edge5" class="edge"><title>fcall_BXi5k3&#45;&gt;meuse.riv:center</title>
<path fill="none" stroke="red" stroke-dasharray="5,2" d="M913.336,-1589.17C985.544,-1580.31 1169.41,-1557.66 1323.05,-1538 1377.35,-1531.05 1439.13,-1522.93 1483.54,-1517.05"/>
<polygon fill="red" stroke="red" points="1484.14,-1520.5 1493.59,-1515.71 1483.22,-1513.56 1484.14,-1520.5"/>
</g>
<!-- lt_wk1TlY -->
<g id="node2" class="node"><title>lt_wk1TlY</title>
<ellipse fill="white" stroke="black" cx="671.048" cy="-1684" rx="35.5584" ry="18"/>
<text text-anchor="middle" x="671.048" y="-1679.8" font-family="Times,serif" font-size="14.00">meuse</text>
</g>
<!-- lt_wk1TlY&#45;&gt;fcall_BXi5k3 -->
<g id="edge6" class="edge"><title>lt_wk1TlY&#45;&gt;fcall_BXi5k3:center</title>
<path fill="none" stroke="black" d="M697.771,-1671.85C735.836,-1655.98 805.69,-1626.85 847.598,-1609.37"/>
<polygon fill="none" stroke="black" points="848.973,-1612.59 856.855,-1605.51 846.278,-1606.13 848.973,-1612.59"/>
<text text-anchor="middle" x="810.046" y="-1634.8" font-family="Times,serif" font-size="14.00">topic</text>
</g>
<!-- lt_BS5jtM -->
<g id="node3" class="node"><title>lt_BS5jtM</title>
<ellipse fill="white" stroke="black" cx="882.048" cy="-1684" rx="40.3147" ry="18"/>
<text text-anchor="middle" x="882.048" y="-1679.8" font-family="Times,serif" font-size="14.00">FALSE</text>
</g>
<!-- lt_BS5jtM&#45;&gt;fcall_BXi5k3 -->
<g id="edge7" class="edge"><title>lt_BS5jtM&#45;&gt;fcall_BXi5k3:center</title>
<path fill="none" stroke="black" d="M882.048,-1665.61C882.048,-1653.24 882.048,-1636.37 882.048,-1622.22"/>
<polygon fill="none" stroke="black" points="885.548,-1622.05 882.048,-1612.05 878.548,-1622.05 885.548,-1622.05"/>
<text text-anchor="middle" x="895.262" y="-1634.8" font-family="Times,serif" font-size="14.00">echo</text>
</g>
<!-- lt_i72s3R -->
<g id="node4" class="node"><title>lt_i72s3R</title>
<ellipse fill="white" stroke="black" cx="1104.05" cy="-1684" rx="40.3147" ry="18"/>
<text text-anchor="middle" x="1104.05" y="-1679.8" font-family="Times,serif" font-size="14.00">FALSE</text>
</g>
<!-- lt_i72s3R&#45;&gt;fcall_BXi5k3 -->
<g id="edge8" class="edge"><title>lt_i72s3R&#45;&gt;fcall_BXi5k3:center</title>
<path fill="none" stroke="black" d="M1075.03,-1671.5C1034.38,-1655.38 960.594,-1626.14 916.985,-1608.85"/>
<polygon fill="none" stroke="black" points="918.222,-1605.57 907.636,-1605.14 915.642,-1612.08 918.222,-1605.57"/>
<text text-anchor="middle" x="1021.38" y="-1634.8" font-family="Times,serif" font-size="14.00">ask</text>
</g>
<!-- meuse~2 -->
<g id="node10" class="node"><title>meuse~2</title>
<ellipse fill="white" stroke="black" cx="675.048" cy="-1124" rx="53.1588" ry="29.5"/>
<text text-anchor="middle" x="675.048" y="-1128.2" font-family="Times,serif" font-size="14.00">meuse~2 </text>
<text text-anchor="middle" x="675.048" y="-1111.4" font-family="Times,serif" font-size="14.00">[S x Q set]</text>
</g>
<!-- meuse&#45;&gt;meuse~2 -->
<g id="edge9" class="edge"><title>meuse&#45;&gt;meuse~2:center</title>
<path fill="none" stroke="black" stroke-dasharray="5,2" d="M871.772,-1479.01C851.227,-1424.63 801.959,-1301.8 743.048,-1208 732.181,-1190.7 718.142,-1172.98 705.645,-1158.39"/>
<polygon fill="black" stroke="black" points="708.095,-1155.87 698.891,-1150.62 702.813,-1160.47 708.095,-1155.87"/>
</g>
<!-- fcall_OQb42D -->
<g id="node12" class="node"><title>fcall_OQb42D</title>
<ellipse fill="orange" stroke="black" cx="651.048" cy="-1352" rx="75.086" ry="18"/>
<text text-anchor="middle" x="651.048" y="-1347.8" font-family="Times,serif" font-size="14.00">log(meuse$zinc)</text>
</g>
<!-- meuse&#45;&gt;fcall_OQb42D -->
<g id="edge10" class="edge"><title>meuse&#45;&gt;fcall_OQb42D:center</title>
<path fill="none" stroke="black" d="M848.458,-1484.61C804.324,-1455.18 727.316,-1403.85 683.669,-1374.75"/>
<polygon fill="none" stroke="black" points="685.407,-1371.7 675.145,-1369.06 681.524,-1377.52 685.407,-1371.7"/>
</g>
<!-- fcall_NvBppw -->
<g id="node14" class="node"><title>fcall_NvBppw</title>
<ellipse fill="orange" stroke="black" cx="675.048" cy="-854" rx="212.25" ry="29.5"/>
<text text-anchor="middle" x="675.048" y="-858.2" font-family="Times,serif" font-size="14.00">SFieldData</text>
<text text-anchor="middle" x="675.048" y="-841.4" font-family="Times,serif" font-size="14.00">[bool &#45;&gt; R set &#45;&gt; S x Q set &#45;&gt; S x Q x SExtend set]</text>
</g>
<!-- meuse.area&#45;&gt;fcall_NvBppw -->
<g id="edge11" class="edge"><title>meuse.area&#45;&gt;fcall_NvBppw:center</title>
<path fill="none" stroke="black" d="M470.741,-1403.45C448.632,-1378.32 420.048,-1337.75 420.048,-1296 420.048,-1296 420.048,-1296 420.048,-967 420.048,-919.728 457.237,-892.227 503.212,-876.291"/>
<polygon fill="none" stroke="black" points="504.405,-879.584 512.83,-873.16 502.238,-872.928 504.405,-879.584"/>
<text text-anchor="middle" x="441.046" y="-1176.8" font-family="Times,serif" font-size="14.00">domain</text>
</g>
<!-- fcall_kVUFmc -->
<g id="node23" class="node"><title>fcall_kVUFmc</title>
<ellipse fill="orange" stroke="black" cx="1770.05" cy="-1352" rx="86.25" ry="29.5"/>
<text text-anchor="middle" x="1770.05" y="-1356.2" font-family="Times,serif" font-size="14.00">geometry</text>
<text text-anchor="middle" x="1770.05" y="-1339.4" font-family="Times,serif" font-size="14.00">[S x Q set &#45;&gt; S set]</text>
</g>
<!-- meuse.grid&#45;&gt;fcall_kVUFmc -->
<g id="edge12" class="edge"><title>meuse.grid&#45;&gt;fcall_kVUFmc:center</title>
<path fill="none" stroke="black" d="M1305.77,-1492.37C1396.24,-1465.22 1590.6,-1406.87 1696.9,-1374.96"/>
<polygon fill="none" stroke="black" points="1698.03,-1378.27 1706.6,-1372.05 1696.01,-1371.57 1698.03,-1378.27"/>
<text text-anchor="middle" x="1612.99" y="-1425.8" font-family="Times,serif" font-size="14.00">obj</text>
</g>
<!-- fcall_ipWVCH -->
<g id="node24" class="node"><title>fcall_ipWVCH</title>
<ellipse fill="orange" stroke="black" cx="1342.05" cy="-1352" rx="86.25" ry="29.5"/>
<text text-anchor="middle" x="1342.05" y="-1356.2" font-family="Times,serif" font-size="14.00">geometry</text>
<text text-anchor="middle" x="1342.05" y="-1339.4" font-family="Times,serif" font-size="14.00">[S x Q set &#45;&gt; S set]</text>
</g>
<!-- meuse.grid&#45;&gt;fcall_ipWVCH -->
<g id="edge13" class="edge"><title>meuse.grid&#45;&gt;fcall_ipWVCH:center</title>
<path fill="none" stroke="black" d="M1272.24,-1479.47C1286.02,-1454.52 1306.42,-1417.55 1321.62,-1390.02"/>
<polygon fill="none" stroke="black" points="1324.78,-1391.52 1326.55,-1381.07 1318.66,-1388.14 1324.78,-1391.52"/>
<text text-anchor="middle" x="1322.99" y="-1425.8" font-family="Times,serif" font-size="14.00">obj</text>
</g>
<!-- meuse[&quot;lzinc&quot;] -->
<g id="node15" class="node"><title>meuse[&quot;lzinc&quot;]</title>
<ellipse fill="white" stroke="black" cx="675.048" cy="-968" rx="72.1689" ry="29.5"/>
<text text-anchor="middle" x="675.048" y="-972.2" font-family="Times,serif" font-size="14.00">meuse[&quot;lzinc&quot;] </text>
<text text-anchor="middle" x="675.048" y="-955.4" font-family="Times,serif" font-size="14.00">[S x Q set]</text>
</g>
<!-- meuse~2&#45;&gt;meuse[&quot;lzinc&quot;] -->
<g id="edge14" class="edge"><title>meuse~2&#45;&gt;meuse[&quot;lzinc&quot;]:center</title>
<path fill="none" stroke="black" d="M675.048,-1094.39C675.048,-1070.05 675.048,-1034.86 675.048,-1007.95"/>
<polygon fill="none" stroke="black" points="678.548,-1007.71 675.048,-997.713 671.548,-1007.71 678.548,-1007.71"/>
</g>
<!-- meuse$lzinc -->
<g id="node11" class="node"><title>meuse$lzinc</title>
<ellipse fill="white" stroke="black" cx="671.048" cy="-1238" rx="63.1326" ry="29.5"/>
<text text-anchor="middle" x="671.048" y="-1242.2" font-family="Times,serif" font-size="14.00">meuse$lzinc </text>
<text text-anchor="middle" x="671.048" y="-1225.4" font-family="Times,serif" font-size="14.00">[Q set]</text>
</g>
<!-- meuse$lzinc&#45;&gt;meuse~2 -->
<g id="edge15" class="edge"><title>meuse$lzinc&#45;&gt;meuse~2:center</title>
<path fill="none" stroke="red" d="M672.067,-1208.45C672.552,-1194.89 673.138,-1178.48 673.662,-1163.81"/>
<polygon fill="red" stroke="red" points="677.171,-1163.62 674.03,-1153.5 670.175,-1163.37 677.171,-1163.62"/>
</g>
<!-- fcall_OQb42D&#45;&gt;meuse$lzinc -->
<g id="edge16" class="edge"><title>fcall_OQb42D&#45;&gt;meuse$lzinc:center</title>
<path fill="none" stroke="red" d="M654.085,-1333.99C656.753,-1319.05 660.733,-1296.76 664.167,-1277.53"/>
<polygon fill="red" stroke="red" points="667.643,-1277.98 665.956,-1267.52 660.752,-1276.74 667.643,-1277.98"/>
</g>
<!-- zincPointData -->
<g id="node13" class="node"><title>zincPointData</title>
<ellipse fill="white" stroke="black" cx="680.048" cy="-756" rx="97.1383" ry="29.5"/>
<text text-anchor="middle" x="680.048" y="-760.2" font-family="Times,serif" font-size="14.00">zincPointData </text>
<text text-anchor="middle" x="680.048" y="-743.4" font-family="Times,serif" font-size="14.00">[S x Q x SExtend set]</text>
</g>
<!-- fcall_b30cxr -->
<g id="node17" class="node"><title>fcall_b30cxr</title>
<ellipse fill="orange" stroke="black" cx="837.048" cy="-528" rx="171.009" ry="29.5"/>
<text text-anchor="middle" x="837.048" y="-532.2" font-family="Times,serif" font-size="14.00">getInterpolator</text>
<text text-anchor="middle" x="837.048" y="-515.4" font-family="Times,serif" font-size="14.00">[Q set &#45;&gt; S x Q x SExtend set &#45;&gt; SField]</text>
</g>
<!-- zincPointData&#45;&gt;fcall_b30cxr -->
<g id="edge18" class="edge"><title>zincPointData&#45;&gt;fcall_b30cxr:center</title>
<path fill="none" stroke="black" d="M775.968,-750.956C832.993,-743.002 901.191,-722.575 938.048,-672 953.753,-650.449 949.441,-636.11 938.048,-612 928.714,-592.249 912.122,-575.618 895.048,-562.551"/>
<polygon fill="none" stroke="black" points="896.798,-559.495 886.658,-556.425 892.671,-565.149 896.798,-559.495"/>
<text text-anchor="middle" x="975.651" y="-637.8" font-family="Times,serif" font-size="14.00">pointData</text>
</g>
<!-- fcall_qmJKyN -->
<g id="node18" class="node"><title>fcall_qmJKyN</title>
<ellipse fill="orange" stroke="black" cx="294.048" cy="-642" rx="131.25" ry="29.5"/>
<text text-anchor="middle" x="294.048" y="-646.2" font-family="Times,serif" font-size="14.00">modelSemivariogram</text>
<text text-anchor="middle" x="294.048" y="-629.4" font-family="Times,serif" font-size="14.00">[S x Q x SExtend set &#45;&gt; Q set]</text>
</g>
<!-- zincPointData&#45;&gt;fcall_qmJKyN -->
<g id="edge17" class="edge"><title>zincPointData&#45;&gt;fcall_qmJKyN:center</title>
<path fill="none" stroke="black" d="M611.483,-735.106C547.445,-716.524 451.543,-688.698 381.914,-668.495"/>
<polygon fill="none" stroke="black" points="382.849,-665.122 372.27,-665.697 380.899,-671.845 382.849,-665.122"/>
<text text-anchor="middle" x="538.651" y="-694.8" font-family="Times,serif" font-size="14.00">pointData</text>
</g>
<!-- fcall_NvBppw&#45;&gt;zincPointData -->
<g id="edge19" class="edge"><title>fcall_NvBppw&#45;&gt;zincPointData:center</title>
<path fill="none" stroke="red" d="M676.534,-824.457C677.004,-815.446 677.53,-805.334 678.03,-795.736"/>
<polygon fill="red" stroke="red" points="681.533,-795.768 678.558,-785.599 674.543,-795.403 681.533,-795.768"/>
</g>
<!-- meuse[&quot;lzinc&quot;]&#45;&gt;fcall_NvBppw -->
<g id="edge20" class="edge"><title>meuse[&quot;lzinc&quot;]&#45;&gt;fcall_NvBppw:center</title>
<path fill="none" stroke="black" d="M675.048,-938.448C675.048,-924.993 675.048,-908.729 675.048,-894.146"/>
<polygon fill="none" stroke="black" points="678.548,-893.889 675.048,-883.889 671.548,-893.889 678.548,-893.889"/>
<text text-anchor="middle" x="710.428" y="-906.8" font-family="Times,serif" font-size="14.00">observations</text>
</g>
<!-- interpolator -->
<g id="node16" class="node"><title>interpolator</title>
<ellipse fill="white" stroke="black" cx="837.048" cy="-430" rx="59.2038" ry="29.5"/>
<text text-anchor="middle" x="837.048" y="-434.2" font-family="Times,serif" font-size="14.00">interpolator </text>
<text text-anchor="middle" x="837.048" y="-417.4" font-family="Times,serif" font-size="14.00">[SField]</text>
</g>
<!-- fcall_IeRUwv -->
<g id="node27" class="node"><title>fcall_IeRUwv</title>
<ellipse fill="orange" stroke="black" cx="1131.05" cy="-316" rx="253" ry="29.5"/>
<text text-anchor="middle" x="1131.05" y="-320.2" font-family="Times,serif" font-size="14.00">interpolator</text>
<text text-anchor="middle" x="1131.05" y="-303.4" font-family="Times,serif" font-size="14.00">[S x SExtend set &#45;&gt; S x Q x SExtend set: INCONSISTENT!]</text>
</g>
<!-- interpolator&#45;&gt;fcall_IeRUwv -->
<g id="edge21" class="edge"><title>interpolator&#45;&gt;fcall_IeRUwv:center</title>
<path fill="none" stroke="blue" d="M883.309,-411.377C927.853,-394.408 996.176,-368.38 1049.8,-347.952"/>
<polygon fill="blue" stroke="blue" points="1051.19,-351.167 1059.29,-344.337 1048.7,-344.626 1051.19,-351.167"/>
</g>
<!-- fcall_b30cxr&#45;&gt;interpolator -->
<g id="edge22" class="edge"><title>fcall_b30cxr&#45;&gt;interpolator:center</title>
<path fill="none" stroke="red" d="M837.048,-498.457C837.048,-489.446 837.048,-479.334 837.048,-469.736"/>
<polygon fill="red" stroke="red" points="840.548,-469.599 837.048,-459.599 833.548,-469.599 840.548,-469.599"/>
</g>
<!-- fcall_qmJKyN&#45;&gt;fcall_b30cxr -->
<g id="edge23" class="edge"><title>fcall_qmJKyN&#45;&gt;fcall_b30cxr:center</title>
<path fill="none" stroke="black" d="M388.631,-621.491C480.726,-602.495 620.926,-573.578 720.003,-553.142"/>
<polygon fill="none" stroke="black" points="720.975,-556.515 730.062,-551.067 719.561,-549.659 720.975,-556.515"/>
<text text-anchor="middle" x="619.26" y="-580.8" font-family="Times,serif" font-size="14.00">params</text>
</g>
<!-- init_model -->
<g id="node19" class="node"><title>init_model</title>
<ellipse fill="white" stroke="black" cx="294.048" cy="-756" rx="56.2887" ry="29.5"/>
<text text-anchor="middle" x="294.048" y="-760.2" font-family="Times,serif" font-size="14.00">init_model </text>
<text text-anchor="middle" x="294.048" y="-743.4" font-family="Times,serif" font-size="14.00">[function]</text>
</g>
<!-- init_model&#45;&gt;fcall_qmJKyN -->
<g id="edge24" class="edge"><title>init_model&#45;&gt;fcall_qmJKyN:center</title>
<path fill="none" stroke="blue" stroke-dasharray="5,2" d="M294.048,-726.448C294.048,-712.993 294.048,-696.729 294.048,-682.146"/>
<polygon fill="blue" stroke="blue" points="297.548,-681.889 294.048,-671.889 290.548,-681.889 297.548,-681.889"/>
</g>
<!-- captureSemantics&lt;&#45; -->
<g id="node20" class="node"><title>captureSemantics&lt;&#45;</title>
<ellipse fill="white" stroke="black" cx="837.048" cy="-642" rx="92.3327" ry="29.5"/>
<text text-anchor="middle" x="837.048" y="-646.2" font-family="Times,serif" font-size="14.00">captureSemantics&lt;&#45; </text>
<text text-anchor="middle" x="837.048" y="-629.4" font-family="Times,serif" font-size="14.00">[function]</text>
</g>
<!-- captureSemantics&lt;&#45;&#45;&gt;fcall_b30cxr -->
<g id="edge25" class="edge"><title>captureSemantics&lt;&#45;&#45;&gt;fcall_b30cxr:center</title>
<path fill="none" stroke="blue" stroke-dasharray="5,2" d="M837.048,-612.448C837.048,-598.993 837.048,-582.729 837.048,-568.146"/>
<polygon fill="blue" stroke="blue" points="840.548,-567.889 837.048,-557.889 833.548,-567.889 840.548,-567.889"/>
</g>
<!-- locInterest -->
<g id="node21" class="node"><title>locInterest</title>
<ellipse fill="white" stroke="black" cx="1322.05" cy="-1046" rx="80.1421" ry="29.5"/>
<text text-anchor="middle" x="1322.05" y="-1050.2" font-family="Times,serif" font-size="14.00">locInterest </text>
<text text-anchor="middle" x="1322.05" y="-1033.4" font-family="Times,serif" font-size="14.00">[S x SExtend set]</text>
</g>
<!-- locInterest&#45;&gt;fcall_IeRUwv -->
<g id="edge26" class="edge"><title>locInterest&#45;&gt;fcall_IeRUwv:center</title>
<path fill="none" stroke="black" d="M1319,-1016.5C1316.39,-989.594 1313.05,-948.103 1313.05,-912 1313.05,-912 1313.05,-912 1313.05,-429 1313.05,-389.838 1282.11,-363.93 1245.74,-347.004"/>
<polygon fill="none" stroke="black" points="1246.95,-343.715 1236.39,-342.891 1244.13,-350.122 1246.95,-343.715"/>
<text text-anchor="middle" x="1349.97" y="-694.8" font-family="Times,serif" font-size="14.00">locOfInterest</text>
</g>
<!-- fcall_bMw44Y -->
<g id="node22" class="node"><title>fcall_bMw44Y</title>
<ellipse fill="orange" stroke="black" cx="1342.05" cy="-1238" rx="176.5" ry="29.5"/>
<text text-anchor="middle" x="1342.05" y="-1242.2" font-family="Times,serif" font-size="14.00">SFieldData</text>
<text text-anchor="middle" x="1342.05" y="-1225.4" font-family="Times,serif" font-size="14.00">[bool &#45;&gt; S set &#45;&gt; S set &#45;&gt; S x SExtend set]</text>
</g>
<!-- fcall_bMw44Y&#45;&gt;locInterest -->
<g id="edge27" class="edge"><title>fcall_bMw44Y&#45;&gt;locInterest:center</title>
<path fill="none" stroke="red" d="M1339.01,-1208.14C1335.57,-1175.45 1329.94,-1122.01 1326.12,-1085.72"/>
<polygon fill="red" stroke="red" points="1329.58,-1085.08 1325.05,-1075.51 1322.61,-1085.82 1329.58,-1085.08"/>
</g>
<!-- fcall_kVUFmc&#45;&gt;fcall_bMw44Y -->
<g id="edge28" class="edge"><title>fcall_kVUFmc&#45;&gt;fcall_bMw44Y:center</title>
<path fill="none" stroke="black" d="M1702.7,-1333.38C1633.39,-1315.24 1524.55,-1286.76 1444.54,-1265.82"/>
<polygon fill="none" stroke="black" points="1445,-1262.32 1434.44,-1263.18 1443.23,-1269.1 1445,-1262.32"/>
<text text-anchor="middle" x="1616.43" y="-1290.8" font-family="Times,serif" font-size="14.00">observations</text>
</g>
<!-- fcall_ipWVCH&#45;&gt;fcall_bMw44Y -->
<g id="edge29" class="edge"><title>fcall_ipWVCH&#45;&gt;fcall_bMw44Y:center</title>
<path fill="none" stroke="black" d="M1342.05,-1322.45C1342.05,-1308.99 1342.05,-1292.73 1342.05,-1278.15"/>
<polygon fill="none" stroke="black" points="1345.55,-1277.89 1342.05,-1267.89 1338.55,-1277.89 1345.55,-1277.89"/>
<text text-anchor="middle" x="1363.05" y="-1290.8" font-family="Times,serif" font-size="14.00">domain</text>
</g>
<!-- lt_WftPoM -->
<g id="node25" class="node"><title>lt_WftPoM</title>
<ellipse fill="white" stroke="black" cx="1025.05" cy="-1352" rx="36.3712" ry="18"/>
<text text-anchor="middle" x="1025.05" y="-1347.8" font-family="Times,serif" font-size="14.00">TRUE</text>
</g>
<!-- lt_WftPoM&#45;&gt;fcall_bMw44Y -->
<g id="edge30" class="edge"><title>lt_WftPoM&#45;&gt;fcall_bMw44Y:center</title>
<path fill="none" stroke="black" d="M1053.74,-1340.86C1099.64,-1324.65 1191.31,-1292.26 1259.01,-1268.34"/>
<polygon fill="none" stroke="black" points="1260.55,-1271.5 1268.82,-1264.87 1258.22,-1264.9 1260.55,-1271.5"/>
<text text-anchor="middle" x="1242.87" y="-1290.8" font-family="Times,serif" font-size="14.00">cellsArePoints</text>
</g>
<!-- intZincPointData -->
<g id="node26" class="node"><title>intZincPointData</title>
<ellipse fill="white" stroke="black" cx="1131.05" cy="-218" rx="97.1383" ry="29.5"/>
<text text-anchor="middle" x="1131.05" y="-222.2" font-family="Times,serif" font-size="14.00">intZincPointData </text>
<text text-anchor="middle" x="1131.05" y="-205.4" font-family="Times,serif" font-size="14.00">[S x Q x SExtend set]</text>
</g>
<!-- intZincPointData@observations[1] -->
<g id="node30" class="node"><title>intZincPointData@observations[1]</title>
<ellipse fill="white" stroke="black" cx="1131.05" cy="-120" rx="152.25" ry="29.5"/>
<text text-anchor="middle" x="1131.05" y="-124.2" font-family="Times,serif" font-size="14.00">intZincPointData@observations[1] </text>
<text text-anchor="middle" x="1131.05" y="-107.4" font-family="Times,serif" font-size="14.00">[S x Q set]</text>
</g>
<!-- intZincPointData&#45;&gt;intZincPointData@observations[1] -->
<g id="edge31" class="edge"><title>intZincPointData&#45;&gt;intZincPointData@observations[1]:center</title>
<path fill="none" stroke="black" d="M1131.05,-188.457C1131.05,-179.446 1131.05,-169.334 1131.05,-159.736"/>
<polygon fill="none" stroke="black" points="1134.55,-159.599 1131.05,-149.599 1127.55,-159.599 1134.55,-159.599"/>
</g>
<!-- fcall_IeRUwv&#45;&gt;intZincPointData -->
<g id="edge32" class="edge"><title>fcall_IeRUwv&#45;&gt;intZincPointData:center</title>
<path fill="none" stroke="red" d="M1131.05,-286.457C1131.05,-277.446 1131.05,-267.334 1131.05,-257.736"/>
<polygon fill="red" stroke="red" points="1134.55,-257.599 1131.05,-247.599 1127.55,-257.599 1134.55,-257.599"/>
</g>
<!-- lt_W93b16 -->
<g id="node28" class="node"><title>lt_W93b16</title>
<ellipse fill="white" stroke="black" cx="1131.05" cy="-430" rx="53.2399" ry="18"/>
<text text-anchor="middle" x="1131.05" y="-425.8" font-family="Times,serif" font-size="14.00">S x Q &#45;&gt; Q</text>
</g>
<!-- lt_W93b16&#45;&gt;fcall_IeRUwv -->
<g id="edge33" class="edge"><title>lt_W93b16&#45;&gt;fcall_IeRUwv:center</title>
<path fill="none" stroke="black" d="M1131.05,-411.99C1131.05,-397.05 1131.05,-374.762 1131.05,-355.529"/>
<polygon fill="none" stroke="black" points="1134.55,-355.516 1131.05,-345.516 1127.55,-355.516 1134.55,-355.516"/>
<text text-anchor="middle" x="1158.65" y="-368.8" font-family="Times,serif" font-size="14.00">semantics</text>
</g>
<!-- fcall_j7aB5M -->
<g id="node29" class="node"><title>fcall_j7aB5M</title>
<ellipse fill="orange" stroke="black" cx="1131.05" cy="-18" rx="34.4665" ry="18"/>
<text text-anchor="middle" x="1131.05" y="-13.8" font-family="Times,serif" font-size="14.00">spplot</text>
</g>
<!-- intZincPointData@observations[1]&#45;&gt;fcall_j7aB5M -->
<g id="edge34" class="edge"><title>intZincPointData@observations[1]&#45;&gt;fcall_j7aB5M:center</title>
<path fill="none" stroke="black" d="M1131.05,-90.344C1131.05,-76.4998 1131.05,-59.9679 1131.05,-46.3055"/>
<polygon fill="none" stroke="black" points="1134.55,-46.0699 1131.05,-36.0699 1127.55,-46.0699 1134.55,-46.0699"/>
<text text-anchor="middle" x="1139.99" y="-58.8" font-family="Times,serif" font-size="14.00">obj</text>
</g>
</g>
</svg>
