<?xml version="1.0" encoding="UTF-8" standalone="no"?>
<!DOCTYPE svg PUBLIC "-//W3C//DTD SVG 1.1//EN"
 "http://www.w3.org/Graphics/SVG/1.1/DTD/svg11.dtd">
<!-- Generated by graphviz version 2.28.0 (20160728.0200)
 -->
<!-- Title: f Pages: 1 -->
<svg width="311pt" height="370pt"
 viewBox="0.00 0.00 311.00 369.67" xmlns="http://www.w3.org/2000/svg" xmlns:xlink="http://www.w3.org/1999/xlink">
<g id="graph1" class="graph" transform="scale(0.216182 0.216182) rotate(0) translate(4 1706)">
<title>f</title>
<!-- fcall_F27iN4 -->
<g id="node1" class="node"><title>fcall_F27iN4</title>
<ellipse fill="orange" stroke="black" cx="627.647" cy="-1594" rx="32.2385" ry="18"/>
<text text-anchor="middle" x="627.647" y="-1589.8" font-family="Times,serif" font-size="14.00">demo</text>
</g>
<!-- crs -->
<g id="node5" class="node"><title>crs</title>
<ellipse fill="white" stroke="black" cx="37.647" cy="-1508" rx="27" ry="29.5"/>
<text text-anchor="middle" x="37.647" y="-1512.2" font-family="Times,serif" font-size="14.00">crs </text>
<text text-anchor="middle" x="37.647" y="-1495.4" font-family="Times,serif" font-size="14.00">[&#39;a]</text>
</g>
<!-- fcall_F27iN4&#45;&gt;crs -->
<g id="edge1" class="edge"><title>fcall_F27iN4&#45;&gt;crs:center</title>
<path fill="none" stroke="red" stroke-dasharray="5,2" d="M595.348,-1592.15C514.195,-1589.44 295.584,-1578.63 118.647,-1538 103.034,-1534.41 86.2861,-1528.74 72.0947,-1523.36"/>
<polygon fill="red" stroke="red" points="73.3122,-1520.08 62.7237,-1519.71 70.7723,-1526.6 73.3122,-1520.08"/>
</g>
<!-- meuse -->
<g id="node6" class="node"><title>meuse</title>
<ellipse fill="white" stroke="black" cx="192.647" cy="-1508" rx="64.587" ry="29.5"/>
<text text-anchor="middle" x="192.647" y="-1512.2" font-family="Times,serif" font-size="14.00">meuse </text>
<text text-anchor="middle" x="192.647" y="-1495.4" font-family="Times,serif" font-size="14.00">[(?)S x Q set]</text>
</g>
<!-- fcall_F27iN4&#45;&gt;meuse -->
<g id="edge2" class="edge"><title>fcall_F27iN4&#45;&gt;meuse:center</title>
<path fill="none" stroke="red" stroke-dasharray="5,2" d="M596.877,-1588.22C540.642,-1579.33 417.579,-1559.26 314.647,-1538 296.298,-1534.21 276.498,-1529.69 258.296,-1525.36"/>
<polygon fill="red" stroke="red" points="258.908,-1521.91 248.368,-1522.98 257.276,-1528.72 258.908,-1521.91"/>
</g>
<!-- meuse.area -->
<g id="node7" class="node"><title>meuse.area</title>
<ellipse fill="white" stroke="black" cx="753.647" cy="-1430" rx="57.5" ry="29.5"/>
<text text-anchor="middle" x="753.647" y="-1434.2" font-family="Times,serif" font-size="14.00">meuse.area </text>
<text text-anchor="middle" x="753.647" y="-1417.4" font-family="Times,serif" font-size="14.00">[R set]</text>
</g>
<!-- fcall_F27iN4&#45;&gt;meuse.area -->
<g id="edge3" class="edge"><title>fcall_F27iN4&#45;&gt;meuse.area:center</title>
<path fill="none" stroke="red" stroke-dasharray="5,2" d="M632.905,-1576.21C641.021,-1552.32 658.451,-1508.08 684.647,-1478 691.005,-1470.7 698.743,-1464.01 706.708,-1458.11"/>
<polygon fill="red" stroke="red" points="708.873,-1460.86 715.042,-1452.25 704.848,-1455.14 708.873,-1460.86"/>
</g>
<!-- meuse.grid -->
<g id="node8" class="node"><title>meuse.grid</title>
<ellipse fill="white" stroke="black" cx="758.647" cy="-1508" rx="64.587" ry="29.5"/>
<text text-anchor="middle" x="758.647" y="-1512.2" font-family="Times,serif" font-size="14.00">meuse.grid </text>
<text text-anchor="middle" x="758.647" y="-1495.4" font-family="Times,serif" font-size="14.00">[(?)S x Q set]</text>
</g>
<!-- fcall_F27iN4&#45;&gt;meuse.grid -->
<g id="edge4" class="edge"><title>fcall_F27iN4&#45;&gt;meuse.grid:center</title>
<path fill="none" stroke="red" stroke-dasharray="5,2" d="M648.116,-1579.88C665.586,-1568.67 691.34,-1552.16 713.594,-1537.89"/>
<polygon fill="red" stroke="red" points="715.714,-1540.69 722.243,-1532.34 711.936,-1534.79 715.714,-1540.69"/>
</g>
<!-- meuse.riv -->
<g id="node9" class="node"><title>meuse.riv</title>
<ellipse fill="white" stroke="black" cx="1075.65" cy="-1508" rx="52.25" ry="29.5"/>
<text text-anchor="middle" x="1075.65" y="-1512.2" font-family="Times,serif" font-size="14.00">meuse.riv </text>
<text text-anchor="middle" x="1075.65" y="-1495.4" font-family="Times,serif" font-size="14.00">[R set]</text>
</g>
<!-- fcall_F27iN4&#45;&gt;meuse.riv -->
<g id="edge5" class="edge"><title>fcall_F27iN4&#45;&gt;meuse.riv:center</title>
<path fill="none" stroke="red" stroke-dasharray="5,2" d="M659.077,-1589.14C719.715,-1581.44 856.911,-1562.75 970.647,-1538 986.945,-1534.45 1004.48,-1529.91 1020.46,-1525.47"/>
<polygon fill="red" stroke="red" points="1021.5,-1528.82 1030.18,-1522.74 1019.6,-1522.08 1021.5,-1528.82"/>
</g>
<!-- lt_Ro1vb6 -->
<g id="node2" class="node"><title>lt_Ro1vb6</title>
<ellipse fill="white" stroke="black" cx="495.647" cy="-1684" rx="35.5584" ry="18"/>
<text text-anchor="middle" x="495.647" y="-1679.8" font-family="Times,serif" font-size="14.00">meuse</text>
</g>
<!-- lt_Ro1vb6&#45;&gt;fcall_F27iN4 -->
<g id="edge6" class="edge"><title>lt_Ro1vb6&#45;&gt;fcall_F27iN4:center</title>
<path fill="none" stroke="black" d="M516.272,-1669.25C538.585,-1654.37 574.307,-1630.56 599.261,-1613.92"/>
<polygon fill="none" stroke="black" points="601.22,-1616.82 607.599,-1608.37 597.337,-1611 601.22,-1616.82"/>
<text text-anchor="middle" x="587.645" y="-1634.8" font-family="Times,serif" font-size="14.00">topic</text>
</g>
<!-- lt_sYLjAP -->
<g id="node3" class="node"><title>lt_sYLjAP</title>
<ellipse fill="white" stroke="black" cx="627.647" cy="-1684" rx="40.3147" ry="18"/>
<text text-anchor="middle" x="627.647" y="-1679.8" font-family="Times,serif" font-size="14.00">FALSE</text>
</g>
<!-- lt_sYLjAP&#45;&gt;fcall_F27iN4 -->
<g id="edge7" class="edge"><title>lt_sYLjAP&#45;&gt;fcall_F27iN4:center</title>
<path fill="none" stroke="black" d="M627.647,-1665.61C627.647,-1653.24 627.647,-1636.37 627.647,-1622.22"/>
<polygon fill="none" stroke="black" points="631.147,-1622.05 627.647,-1612.05 624.147,-1622.05 631.147,-1622.05"/>
<text text-anchor="middle" x="640.862" y="-1634.8" font-family="Times,serif" font-size="14.00">echo</text>
</g>
<!-- lt_GL9FLq -->
<g id="node4" class="node"><title>lt_GL9FLq</title>
<ellipse fill="white" stroke="black" cx="766.647" cy="-1684" rx="40.3147" ry="18"/>
<text text-anchor="middle" x="766.647" y="-1679.8" font-family="Times,serif" font-size="14.00">FALSE</text>
</g>
<!-- lt_GL9FLq&#45;&gt;fcall_F27iN4 -->
<g id="edge8" class="edge"><title>lt_GL9FLq&#45;&gt;fcall_F27iN4:center</title>
<path fill="none" stroke="black" d="M744.314,-1668.86C720.562,-1653.82 682.893,-1629.98 656.812,-1613.46"/>
<polygon fill="none" stroke="black" points="658.434,-1610.35 648.113,-1607.96 654.69,-1616.26 658.434,-1610.35"/>
<text text-anchor="middle" x="718.977" y="-1634.8" font-family="Times,serif" font-size="14.00">ask</text>
</g>
<!-- fcall_F7FyyY -->
<g id="node11" class="node"><title>fcall_F7FyyY</title>
<ellipse fill="orange" stroke="black" cx="192.647" cy="-1352" rx="78.5392" ry="18"/>
<text text-anchor="middle" x="192.647" y="-1347.8" font-family="Times,serif" font-size="14.00">functionalType&lt;&#45;</text>
</g>
<!-- meuse&#45;&gt;fcall_F7FyyY -->
<g id="edge9" class="edge"><title>meuse&#45;&gt;fcall_F7FyyY:center</title>
<path fill="none" stroke="black" d="M192.647,-1478.39C192.647,-1450.29 192.647,-1407.72 192.647,-1380.13"/>
<polygon fill="none" stroke="black" points="196.147,-1380.01 192.647,-1370.01 189.147,-1380.01 196.147,-1380.01"/>
<text text-anchor="middle" x="201.592" y="-1425.8" font-family="Times,serif" font-size="14.00">obj</text>
</g>
<!-- fcall_91Npxp -->
<g id="node20" class="node"><title>fcall_91Npxp</title>
<ellipse fill="orange" stroke="black" cx="734.647" cy="-912" rx="212.25" ry="29.5"/>
<text text-anchor="middle" x="734.647" y="-916.2" font-family="Times,serif" font-size="14.00">SFieldData</text>
<text text-anchor="middle" x="734.647" y="-899.4" font-family="Times,serif" font-size="14.00">[bool &#45;&gt; R set &#45;&gt; S x Q set &#45;&gt; S x Q x SExtend set]</text>
</g>
<!-- meuse.area&#45;&gt;fcall_91Npxp -->
<g id="edge10" class="edge"><title>meuse.area&#45;&gt;fcall_91Npxp:center</title>
<path fill="none" stroke="black" d="M746.788,-1400.39C741.345,-1375.18 734.647,-1337.36 734.647,-1304 734.647,-1304 734.647,-1304 734.647,-1025 734.647,-1000.6 734.647,-973.217 734.647,-951.633"/>
<polygon fill="none" stroke="black" points="738.147,-951.541 734.647,-941.541 731.147,-951.541 738.147,-951.541"/>
<text text-anchor="middle" x="755.645" y="-1192.8" font-family="Times,serif" font-size="14.00">domain</text>
</g>
<!-- fcall_hKiHWd -->
<g id="node14" class="node"><title>fcall_hKiHWd</title>
<ellipse fill="orange" stroke="black" cx="890.647" cy="-1352" rx="78.5392" ry="18"/>
<text text-anchor="middle" x="890.647" y="-1347.8" font-family="Times,serif" font-size="14.00">functionalType&lt;&#45;</text>
</g>
<!-- meuse.grid&#45;&gt;fcall_hKiHWd -->
<g id="edge11" class="edge"><title>meuse.grid&#45;&gt;fcall_hKiHWd:center</title>
<path fill="none" stroke="black" d="M793.887,-1482.99C802.792,-1476.1 811.991,-1468.22 819.647,-1460 842.889,-1435.06 863.7,-1401.73 876.69,-1378.94"/>
<polygon fill="none" stroke="black" points="879.769,-1380.6 881.599,-1370.17 873.661,-1377.18 879.769,-1380.6"/>
<text text-anchor="middle" x="872.592" y="-1425.8" font-family="Times,serif" font-size="14.00">obj</text>
</g>
<!-- meuse~2 -->
<g id="node10" class="node"><title>meuse~2</title>
<ellipse fill="white" stroke="black" cx="511.647" cy="-1508" rx="53.1588" ry="29.5"/>
<text text-anchor="middle" x="511.647" y="-1512.2" font-family="Times,serif" font-size="14.00">meuse~2 </text>
<text text-anchor="middle" x="511.647" y="-1495.4" font-family="Times,serif" font-size="14.00">[S x Q set]</text>
</g>
<!-- meuse~2&#45;&gt;fcall_F7FyyY -->
<g id="edge12" class="edge"><title>meuse~2&#45;&gt;fcall_F7FyyY:center</title>
<path fill="none" stroke="black" stroke-dasharray="5,2" d="M469.23,-1479.19C432.719,-1456.02 378.1,-1423.19 327.647,-1400 302.266,-1388.33 273.106,-1377.84 248.397,-1369.74"/>
<polygon fill="black" stroke="black" points="478.109,-1484.86 467.259,-1483.27 473.895,-1482.17 469.68,-1479.48 469.68,-1479.48 469.68,-1479.48 473.895,-1482.17 472.102,-1475.68 478.109,-1484.86 478.109,-1484.86"/>
<polygon fill="none" stroke="black" points="249.403,-1366.39 238.811,-1366.65 247.252,-1373.05 249.403,-1366.39"/>
</g>
<!-- meuse~2&#45;&gt;fcall_hKiHWd -->
<g id="edge13" class="edge"><title>meuse~2&#45;&gt;fcall_hKiHWd:center</title>
<path fill="none" stroke="black" stroke-dasharray="5,2" d="M558.475,-1493.57C581.118,-1485.81 608.007,-1474.65 629.647,-1460 660.107,-1439.38 654.704,-1418.24 686.647,-1400 723.589,-1378.91 769.393,-1367.28 808.233,-1360.87"/>
<polygon fill="none" stroke="black" points="809.127,-1364.27 818.468,-1359.27 808.048,-1357.36 809.127,-1364.27"/>
</g>
<!-- meuse~3 -->
<g id="node16" class="node"><title>meuse~3</title>
<ellipse fill="white" stroke="black" cx="592.647" cy="-1140" rx="53.1588" ry="29.5"/>
<text text-anchor="middle" x="592.647" y="-1144.2" font-family="Times,serif" font-size="14.00">meuse~3 </text>
<text text-anchor="middle" x="592.647" y="-1127.4" font-family="Times,serif" font-size="14.00">[S x Q set]</text>
</g>
<!-- meuse~2&#45;&gt;meuse~3 -->
<g id="edge14" class="edge"><title>meuse~2&#45;&gt;meuse~3:center</title>
<path fill="none" stroke="black" stroke-dasharray="5,2" d="M521.213,-1478.96C529.549,-1453.8 541.538,-1415.74 549.647,-1382 566.671,-1311.16 580.176,-1227.13 587.242,-1179.34"/>
<polygon fill="black" stroke="black" points="590.708,-1179.82 588.692,-1169.42 583.782,-1178.81 590.708,-1179.82"/>
</g>
<!-- expr_qVZm3e -->
<g id="node18" class="node"><title>expr_qVZm3e</title>
<ellipse fill="orange" stroke="black" cx="452.647" cy="-1352" rx="88.1758" ry="29.5"/>
<text text-anchor="middle" x="452.647" y="-1356.2" font-family="Times,serif" font-size="14.00">log(meuse$zinc)</text>
<text text-anchor="middle" x="452.647" y="-1339.4" font-family="Times,serif" font-size="14.00">[S x Q set &#45;&gt; Q set]</text>
</g>
<!-- meuse~2&#45;&gt;expr_qVZm3e -->
<g id="edge15" class="edge"><title>meuse~2&#45;&gt;expr_qVZm3e:center</title>
<path fill="none" stroke="black" d="M500.825,-1478.75C491.374,-1454.08 477.577,-1418.07 467.167,-1390.9"/>
<polygon fill="none" stroke="black" points="470.346,-1389.41 463.5,-1381.33 463.809,-1391.92 470.346,-1389.41"/>
</g>
<!-- lt_CT7aj8 -->
<g id="node12" class="node"><title>lt_CT7aj8</title>
<ellipse fill="white" stroke="black" cx="359.647" cy="-1508" rx="35.8859" ry="18"/>
<text text-anchor="middle" x="359.647" y="-1503.8" font-family="Times,serif" font-size="14.00">SField</text>
</g>
<!-- lt_CT7aj8&#45;&gt;fcall_F7FyyY -->
<g id="edge16" class="edge"><title>lt_CT7aj8&#45;&gt;fcall_F7FyyY:center</title>
<path fill="none" stroke="black" d="M343.024,-1491.67C313.724,-1464.65 252.721,-1408.4 218.092,-1376.46"/>
<polygon fill="none" stroke="black" points="220.437,-1373.87 210.712,-1369.66 215.691,-1379.01 220.437,-1373.87"/>
<text text-anchor="middle" x="314.975" y="-1425.8" font-family="Times,serif" font-size="14.00">attr</text>
</g>
<!-- meuse.grid~2 -->
<g id="node13" class="node"><title>meuse.grid~2</title>
<ellipse fill="white" stroke="black" cx="895.647" cy="-1254" rx="67.4153" ry="29.5"/>
<text text-anchor="middle" x="895.647" y="-1258.2" font-family="Times,serif" font-size="14.00">meuse.grid~2 </text>
<text text-anchor="middle" x="895.647" y="-1241.4" font-family="Times,serif" font-size="14.00">[S x Q set]</text>
</g>
<!-- fcall_Wuosi4 -->
<g id="node28" class="node"><title>fcall_Wuosi4</title>
<ellipse fill="orange" stroke="black" cx="1164.65" cy="-1140" rx="86.25" ry="29.5"/>
<text text-anchor="middle" x="1164.65" y="-1144.2" font-family="Times,serif" font-size="14.00">geometry</text>
<text text-anchor="middle" x="1164.65" y="-1127.4" font-family="Times,serif" font-size="14.00">[S x Q set &#45;&gt; S set]</text>
</g>
<!-- meuse.grid~2&#45;&gt;fcall_Wuosi4 -->
<g id="edge17" class="edge"><title>meuse.grid~2&#45;&gt;fcall_Wuosi4:center</title>
<path fill="none" stroke="black" d="M943.429,-1233.11C987.589,-1214.72 1053.49,-1187.28 1101.88,-1167.13"/>
<polygon fill="none" stroke="black" points="1103.43,-1170.28 1111.32,-1163.2 1100.74,-1163.82 1103.43,-1170.28"/>
<text text-anchor="middle" x="1054.59" y="-1192.8" font-family="Times,serif" font-size="14.00">obj</text>
</g>
<!-- fcall_MxPqv8 -->
<g id="node29" class="node"><title>fcall_MxPqv8</title>
<ellipse fill="orange" stroke="black" cx="895.647" cy="-1140" rx="86.25" ry="29.5"/>
<text text-anchor="middle" x="895.647" y="-1144.2" font-family="Times,serif" font-size="14.00">geometry</text>
<text text-anchor="middle" x="895.647" y="-1127.4" font-family="Times,serif" font-size="14.00">[S x Q set &#45;&gt; S set]</text>
</g>
<!-- meuse.grid~2&#45;&gt;fcall_MxPqv8 -->
<g id="edge18" class="edge"><title>meuse.grid~2&#45;&gt;fcall_MxPqv8:center</title>
<path fill="none" stroke="black" d="M895.647,-1224.45C895.647,-1210.99 895.647,-1194.73 895.647,-1180.15"/>
<polygon fill="none" stroke="black" points="899.147,-1179.89 895.647,-1169.89 892.147,-1179.89 899.147,-1179.89"/>
<text text-anchor="middle" x="904.592" y="-1192.8" font-family="Times,serif" font-size="14.00">obj</text>
</g>
<!-- fcall_hKiHWd&#45;&gt;meuse.grid~2 -->
<g id="edge19" class="edge"><title>fcall_hKiHWd&#45;&gt;meuse.grid~2:center</title>
<path fill="none" stroke="red" d="M891.541,-1333.84C892.118,-1322.75 892.894,-1307.85 893.616,-1294"/>
<polygon fill="red" stroke="red" points="897.128,-1293.85 894.153,-1283.68 890.138,-1293.49 897.128,-1293.85"/>
</g>
<!-- lt_ogv1S3 -->
<g id="node15" class="node"><title>lt_ogv1S3</title>
<ellipse fill="white" stroke="black" cx="925.647" cy="-1508" rx="35.8859" ry="18"/>
<text text-anchor="middle" x="925.647" y="-1503.8" font-family="Times,serif" font-size="14.00">SField</text>
</g>
<!-- lt_ogv1S3&#45;&gt;fcall_hKiHWd -->
<g id="edge20" class="edge"><title>lt_ogv1S3&#45;&gt;fcall_hKiHWd:center</title>
<path fill="none" stroke="black" d="M921.768,-1489.93C915.723,-1463.34 904.005,-1411.78 896.8,-1380.07"/>
<polygon fill="none" stroke="black" points="900.173,-1379.12 894.544,-1370.15 893.347,-1380.67 900.173,-1379.12"/>
<text text-anchor="middle" x="923.975" y="-1425.8" font-family="Times,serif" font-size="14.00">attr</text>
</g>
<!-- meuse[&quot;lzinc&quot;] -->
<g id="node21" class="node"><title>meuse[&quot;lzinc&quot;]</title>
<ellipse fill="white" stroke="black" cx="592.647" cy="-1026" rx="72.1689" ry="29.5"/>
<text text-anchor="middle" x="592.647" y="-1030.2" font-family="Times,serif" font-size="14.00">meuse[&quot;lzinc&quot;] </text>
<text text-anchor="middle" x="592.647" y="-1013.4" font-family="Times,serif" font-size="14.00">[S x Q set]</text>
</g>
<!-- meuse~3&#45;&gt;meuse[&quot;lzinc&quot;] -->
<g id="edge21" class="edge"><title>meuse~3&#45;&gt;meuse[&quot;lzinc&quot;]:center</title>
<path fill="none" stroke="black" d="M592.647,-1110.45C592.647,-1096.99 592.647,-1080.73 592.647,-1066.15"/>
<polygon fill="none" stroke="black" points="596.147,-1065.89 592.647,-1055.89 589.147,-1065.89 596.147,-1065.89"/>
</g>
<!-- meuse$lzinc -->
<g id="node17" class="node"><title>meuse$lzinc</title>
<ellipse fill="white" stroke="black" cx="479.647" cy="-1254" rx="63.1326" ry="29.5"/>
<text text-anchor="middle" x="479.647" y="-1258.2" font-family="Times,serif" font-size="14.00">meuse$lzinc </text>
<text text-anchor="middle" x="479.647" y="-1241.4" font-family="Times,serif" font-size="14.00">[Q set]</text>
</g>
<!-- meuse$lzinc&#45;&gt;meuse~3 -->
<g id="edge22" class="edge"><title>meuse$lzinc&#45;&gt;meuse~3:center</title>
<path fill="none" stroke="red" d="M505.855,-1227.02C522.057,-1210.97 542.977,-1190.23 560.218,-1173.14"/>
<polygon fill="red" stroke="red" points="562.719,-1175.59 567.358,-1166.07 557.792,-1170.62 562.719,-1175.59"/>
</g>
<!-- expr_qVZm3e&#45;&gt;meuse$lzinc -->
<g id="edge23" class="edge"><title>expr_qVZm3e&#45;&gt;meuse$lzinc:center</title>
<path fill="none" stroke="red" d="M460.675,-1322.46C463.259,-1313.27 466.165,-1302.93 468.912,-1293.17"/>
<polygon fill="red" stroke="red" points="472.358,-1293.84 471.697,-1283.27 465.62,-1291.95 472.358,-1293.84"/>
</g>
<!-- zincPointData -->
<g id="node19" class="node"><title>zincPointData</title>
<ellipse fill="white" stroke="black" cx="758.647" cy="-756" rx="97.1383" ry="29.5"/>
<text text-anchor="middle" x="758.647" y="-760.2" font-family="Times,serif" font-size="14.00">zincPointData </text>
<text text-anchor="middle" x="758.647" y="-743.4" font-family="Times,serif" font-size="14.00">[S x Q x SExtend set]</text>
</g>
<!-- fcall_Bmo3Gq -->
<g id="node23" class="node"><title>fcall_Bmo3Gq</title>
<ellipse fill="orange" stroke="black" cx="760.647" cy="-528" rx="193" ry="29.5"/>
<text text-anchor="middle" x="760.647" y="-532.2" font-family="Times,serif" font-size="14.00">getInterpolator</text>
<text text-anchor="middle" x="760.647" y="-515.4" font-family="Times,serif" font-size="14.00">[Q set &#45;&gt; S x Q x SExtend set &#45;&gt; (S &#45;&gt; (S,Q))]</text>
</g>
<!-- zincPointData&#45;&gt;fcall_Bmo3Gq -->
<g id="edge25" class="edge"><title>zincPointData&#45;&gt;fcall_Bmo3Gq:center</title>
<path fill="none" stroke="black" d="M758.9,-726.377C759.255,-686.241 759.903,-613.111 760.302,-568.019"/>
<polygon fill="none" stroke="black" points="763.804,-567.777 760.393,-557.747 756.804,-567.715 763.804,-567.777"/>
<text text-anchor="middle" x="788.251" y="-637.8" font-family="Times,serif" font-size="14.00">pointData</text>
</g>
<!-- fcall_Pc0OZW -->
<g id="node24" class="node"><title>fcall_Pc0OZW</title>
<ellipse fill="orange" stroke="black" cx="524.647" cy="-642" rx="131.25" ry="29.5"/>
<text text-anchor="middle" x="524.647" y="-646.2" font-family="Times,serif" font-size="14.00">modelSemivariogram</text>
<text text-anchor="middle" x="524.647" y="-629.4" font-family="Times,serif" font-size="14.00">[S x Q x SExtend set &#45;&gt; Q set]</text>
</g>
<!-- zincPointData&#45;&gt;fcall_Pc0OZW -->
<g id="edge24" class="edge"><title>zincPointData&#45;&gt;fcall_Pc0OZW:center</title>
<path fill="none" stroke="black" d="M707.872,-730.698C672.804,-713.913 625.901,-691.464 588.329,-673.48"/>
<polygon fill="none" stroke="black" points="589.522,-670.171 578.991,-669.011 586.5,-676.485 589.522,-670.171"/>
<text text-anchor="middle" x="684.251" y="-694.8" font-family="Times,serif" font-size="14.00">pointData</text>
</g>
<!-- fcall_91Npxp&#45;&gt;zincPointData -->
<g id="edge26" class="edge"><title>fcall_91Npxp&#45;&gt;zincPointData:center</title>
<path fill="none" stroke="red" d="M739.105,-882.395C742.899,-858.052 748.383,-822.858 752.577,-795.947"/>
<polygon fill="red" stroke="red" points="756.091,-796.133 754.172,-785.713 749.174,-795.055 756.091,-796.133"/>
</g>
<!-- meuse[&quot;lzinc&quot;]&#45;&gt;fcall_91Npxp -->
<g id="edge27" class="edge"><title>meuse[&quot;lzinc&quot;]&#45;&gt;fcall_91Npxp:center</title>
<path fill="none" stroke="black" d="M613.351,-997.431C623.495,-985.058 636.414,-970.84 649.887,-960 656.063,-955.031 662.836,-950.299 669.777,-945.885"/>
<polygon fill="none" stroke="black" points="671.924,-948.675 678.628,-940.471 668.271,-942.704 671.924,-948.675"/>
<text text-anchor="middle" x="686.027" y="-964.8" font-family="Times,serif" font-size="14.00">observations</text>
</g>
<!-- interpolator -->
<g id="node22" class="node"><title>interpolator</title>
<ellipse fill="white" stroke="black" cx="895.647" cy="-430" rx="65.25" ry="29.5"/>
<text text-anchor="middle" x="895.647" y="-434.2" font-family="Times,serif" font-size="14.00">interpolator </text>
<text text-anchor="middle" x="895.647" y="-417.4" font-family="Times,serif" font-size="14.00">[(S &#45;&gt; (S,Q))]</text>
</g>
<!-- fcall_kiqGf5 -->
<g id="node32" class="node"><title>fcall_kiqGf5</title>
<ellipse fill="orange" stroke="black" cx="1073.65" cy="-316" rx="253" ry="29.5"/>
<text text-anchor="middle" x="1073.65" y="-320.2" font-family="Times,serif" font-size="14.00">interpolator</text>
<text text-anchor="middle" x="1073.65" y="-303.4" font-family="Times,serif" font-size="14.00">[S x SExtend set &#45;&gt; S x Q x SExtend set: INCONSISTENT!]</text>
</g>
<!-- interpolator&#45;&gt;fcall_kiqGf5 -->
<g id="edge28" class="edge"><title>interpolator&#45;&gt;fcall_kiqGf5:center</title>
<path fill="none" stroke="blue" d="M932.962,-405.521C958.276,-389.593 992.126,-368.294 1020.28,-350.579"/>
<polygon fill="blue" stroke="blue" points="1022.22,-353.495 1028.82,-345.207 1018.49,-347.57 1022.22,-353.495"/>
</g>
<!-- fcall_Bmo3Gq&#45;&gt;interpolator -->
<g id="edge29" class="edge"><title>fcall_Bmo3Gq&#45;&gt;interpolator:center</title>
<path fill="none" stroke="red" d="M800.057,-498.975C816.626,-487.193 835.943,-473.456 852.858,-461.428"/>
<polygon fill="red" stroke="red" points="855.336,-463.961 861.457,-455.313 851.279,-458.256 855.336,-463.961"/>
</g>
<!-- fcall_Pc0OZW&#45;&gt;fcall_Bmo3Gq -->
<g id="edge30" class="edge"><title>fcall_Pc0OZW&#45;&gt;fcall_Bmo3Gq:center</title>
<path fill="none" stroke="black" d="M579.383,-615.023C613.652,-598.76 658.028,-577.7 694.295,-560.489"/>
<polygon fill="none" stroke="black" points="695.796,-563.651 703.33,-556.201 692.795,-557.327 695.796,-563.651"/>
<text text-anchor="middle" x="677.86" y="-580.8" font-family="Times,serif" font-size="14.00">params</text>
</g>
<!-- init_model -->
<g id="node25" class="node"><title>init_model</title>
<ellipse fill="white" stroke="black" cx="516.647" cy="-756" rx="56.2887" ry="29.5"/>
<text text-anchor="middle" x="516.647" y="-760.2" font-family="Times,serif" font-size="14.00">init_model </text>
<text text-anchor="middle" x="516.647" y="-743.4" font-family="Times,serif" font-size="14.00">[function]</text>
</g>
<!-- init_model&#45;&gt;fcall_Pc0OZW -->
<g id="edge31" class="edge"><title>init_model&#45;&gt;fcall_Pc0OZW:center</title>
<path fill="none" stroke="blue" stroke-dasharray="5,2" d="M518.686,-726.448C519.655,-712.888 520.827,-696.476 521.875,-681.808"/>
<polygon fill="blue" stroke="blue" points="525.39,-681.724 522.611,-671.5 518.408,-681.225 525.39,-681.724"/>
</g>
<!-- locInterest -->
<g id="node26" class="node"><title>locInterest</title>
<ellipse fill="white" stroke="black" cx="1083.65" cy="-834" rx="80.1421" ry="29.5"/>
<text text-anchor="middle" x="1083.65" y="-838.2" font-family="Times,serif" font-size="14.00">locInterest </text>
<text text-anchor="middle" x="1083.65" y="-821.4" font-family="Times,serif" font-size="14.00">[S x SExtend set]</text>
</g>
<!-- locInterest&#45;&gt;fcall_kiqGf5 -->
<g id="edge32" class="edge"><title>locInterest&#45;&gt;fcall_kiqGf5:center</title>
<path fill="none" stroke="black" d="M1080.26,-804.508C1077.36,-777.609 1073.65,-736.123 1073.65,-700 1073.65,-700 1073.65,-700 1073.65,-429 1073.65,-404.603 1073.65,-377.217 1073.65,-355.633"/>
<polygon fill="none" stroke="black" points="1077.15,-355.541 1073.65,-345.541 1070.15,-355.541 1077.15,-355.541"/>
<text text-anchor="middle" x="1110.57" y="-580.8" font-family="Times,serif" font-size="14.00">locOfInterest</text>
</g>
<!-- fcall_c2mU6B -->
<g id="node27" class="node"><title>fcall_c2mU6B</title>
<ellipse fill="orange" stroke="black" cx="1106.65" cy="-1026" rx="176.5" ry="29.5"/>
<text text-anchor="middle" x="1106.65" y="-1030.2" font-family="Times,serif" font-size="14.00">SFieldData</text>
<text text-anchor="middle" x="1106.65" y="-1013.4" font-family="Times,serif" font-size="14.00">[bool &#45;&gt; S set &#45;&gt; S set &#45;&gt; S x SExtend set]</text>
</g>
<!-- fcall_c2mU6B&#45;&gt;locInterest -->
<g id="edge33" class="edge"><title>fcall_c2mU6B&#45;&gt;locInterest:center</title>
<path fill="none" stroke="red" d="M1103.15,-996.143C1099.2,-963.451 1092.73,-910.013 1088.33,-873.717"/>
<polygon fill="red" stroke="red" points="1091.77,-873.013 1087.1,-863.506 1084.82,-873.854 1091.77,-873.013"/>
</g>
<!-- fcall_Wuosi4&#45;&gt;fcall_c2mU6B -->
<g id="edge34" class="edge"><title>fcall_Wuosi4&#45;&gt;fcall_c2mU6B:center</title>
<path fill="none" stroke="black" d="M1150.01,-1110.74C1142.79,-1096.78 1133.97,-1079.76 1126.18,-1064.71"/>
<polygon fill="none" stroke="black" points="1129.19,-1062.91 1121.48,-1055.64 1122.97,-1066.13 1129.19,-1062.91"/>
<text text-anchor="middle" x="1174.03" y="-1078.8" font-family="Times,serif" font-size="14.00">observations</text>
</g>
<!-- fcall_MxPqv8&#45;&gt;fcall_c2mU6B -->
<g id="edge35" class="edge"><title>fcall_MxPqv8&#45;&gt;fcall_c2mU6B:center</title>
<path fill="none" stroke="black" d="M941.171,-1114.84C971.845,-1098.55 1012.65,-1076.89 1046.06,-1059.16"/>
<polygon fill="none" stroke="black" points="1048.08,-1062.05 1055.28,-1054.27 1044.8,-1055.87 1048.08,-1062.05"/>
<text text-anchor="middle" x="1034.64" y="-1078.8" font-family="Times,serif" font-size="14.00">domain</text>
</g>
<!-- lt_0ukpim -->
<g id="node30" class="node"><title>lt_0ukpim</title>
<ellipse fill="white" stroke="black" cx="1362.65" cy="-1140" rx="36.3712" ry="18"/>
<text text-anchor="middle" x="1362.65" y="-1135.8" font-family="Times,serif" font-size="14.00">TRUE</text>
</g>
<!-- lt_0ukpim&#45;&gt;fcall_c2mU6B -->
<g id="edge36" class="edge"><title>lt_0ukpim&#45;&gt;fcall_c2mU6B:center</title>
<path fill="none" stroke="black" d="M1336.21,-1127.44C1298.98,-1111.14 1229.73,-1080.85 1176.99,-1057.77"/>
<polygon fill="none" stroke="black" points="1178.24,-1054.5 1167.68,-1053.7 1175.44,-1060.92 1178.24,-1054.5"/>
<text text-anchor="middle" x="1290.47" y="-1078.8" font-family="Times,serif" font-size="14.00">cellsArePoints</text>
</g>
<!-- intZincPointData -->
<g id="node31" class="node"><title>intZincPointData</title>
<ellipse fill="white" stroke="black" cx="1073.65" cy="-218" rx="97.1383" ry="29.5"/>
<text text-anchor="middle" x="1073.65" y="-222.2" font-family="Times,serif" font-size="14.00">intZincPointData </text>
<text text-anchor="middle" x="1073.65" y="-205.4" font-family="Times,serif" font-size="14.00">[S x Q x SExtend set]</text>
</g>
<!-- intZincPointData@observations -->
<g id="node35" class="node"><title>intZincPointData@observations</title>
<ellipse fill="white" stroke="black" cx="1073.65" cy="-120" rx="141" ry="29.5"/>
<text text-anchor="middle" x="1073.65" y="-124.2" font-family="Times,serif" font-size="14.00">intZincPointData@observations </text>
<text text-anchor="middle" x="1073.65" y="-107.4" font-family="Times,serif" font-size="14.00">[S x Q set]</text>
</g>
<!-- intZincPointData&#45;&gt;intZincPointData@observations -->
<g id="edge37" class="edge"><title>intZincPointData&#45;&gt;intZincPointData@observations:center</title>
<path fill="none" stroke="black" d="M1073.65,-188.457C1073.65,-179.446 1073.65,-169.334 1073.65,-159.736"/>
<polygon fill="none" stroke="black" points="1077.15,-159.599 1073.65,-149.599 1070.15,-159.599 1077.15,-159.599"/>
</g>
<!-- fcall_kiqGf5&#45;&gt;intZincPointData -->
<g id="edge38" class="edge"><title>fcall_kiqGf5&#45;&gt;intZincPointData:center</title>
<path fill="none" stroke="red" d="M1073.65,-286.457C1073.65,-277.446 1073.65,-267.334 1073.65,-257.736"/>
<polygon fill="red" stroke="red" points="1077.15,-257.599 1073.65,-247.599 1070.15,-257.599 1077.15,-257.599"/>
</g>
<!-- lt_TZEeLg -->
<g id="node33" class="node"><title>lt_TZEeLg</title>
<ellipse fill="white" stroke="black" cx="1222.65" cy="-430" rx="78.2561" ry="18"/>
<text text-anchor="middle" x="1222.65" y="-425.8" font-family="Times,serif" font-size="14.00">S set &#45;&gt; S x Q set</text>
</g>
<!-- lt_TZEeLg&#45;&gt;fcall_kiqGf5 -->
<g id="edge39" class="edge"><title>lt_TZEeLg&#45;&gt;fcall_kiqGf5:center</title>
<path fill="none" stroke="black" d="M1200.66,-412.474C1179.39,-396.482 1146.49,-371.752 1119.5,-351.468"/>
<polygon fill="none" stroke="black" points="1121.43,-348.541 1111.34,-345.33 1117.23,-354.137 1121.43,-348.541"/>
<text text-anchor="middle" x="1184.25" y="-368.8" font-family="Times,serif" font-size="14.00">semantics</text>
</g>
<!-- fcall_kLTEyF -->
<g id="node34" class="node"><title>fcall_kLTEyF</title>
<ellipse fill="orange" stroke="black" cx="1279.65" cy="-18" rx="34.4665" ry="18"/>
<text text-anchor="middle" x="1279.65" y="-13.8" font-family="Times,serif" font-size="14.00">spplot</text>
</g>
<!-- intZincPointData@observations&#45;&gt;fcall_kLTEyF -->
<g id="edge40" class="edge"><title>intZincPointData@observations&#45;&gt;fcall_kLTEyF:center</title>
<path fill="none" stroke="black" d="M1127.77,-92.7262C1165.26,-74.5286 1213.99,-50.8725 1246.01,-35.3279"/>
<polygon fill="none" stroke="black" points="1247.91,-38.2949 1255.38,-30.7792 1244.86,-31.9976 1247.91,-38.2949"/>
<text text-anchor="middle" x="1215.59" y="-58.8" font-family="Times,serif" font-size="14.00">obj</text>
</g>
<!-- lt_DTLvmi -->
<g id="node36" class="node"><title>lt_DTLvmi</title>
<ellipse fill="white" stroke="black" cx="1364.65" cy="-120" rx="47.1545" ry="18"/>
<text text-anchor="middle" x="1364.65" y="-115.8" font-family="Times,serif" font-size="14.00">var1.pred</text>
</g>
<!-- lt_DTLvmi&#45;&gt;fcall_kLTEyF -->
<g id="edge41" class="edge"><title>lt_DTLvmi&#45;&gt;fcall_kLTEyF:center</title>
<path fill="none" stroke="black" d="M1350.61,-102.487C1336.79,-86.227 1315.54,-61.2226 1299.89,-42.8148"/>
<polygon fill="none" stroke="black" points="1302.29,-40.229 1293.14,-34.8764 1296.95,-44.7626 1302.29,-40.229"/>
</g>
</g>
</svg>
