<?xml version="1.0" encoding="UTF-8" standalone="no"?>
<!DOCTYPE svg PUBLIC "-//W3C//DTD SVG 1.1//EN"
 "http://www.w3.org/Graphics/SVG/1.1/DTD/svg11.dtd">
<!-- Generated by graphviz version 2.28.0 (20160728.0200)
 -->
<!-- Title: f Pages: 1 -->
<svg width="366pt" height="397pt"
 viewBox="0.00 0.00 366.00 396.78" xmlns="http://www.w3.org/2000/svg" xmlns:xlink="http://www.w3.org/1999/xlink">
<g id="graph1" class="graph" transform="scale(0.323112 0.323112) rotate(0) translate(4 1224)">
<title>f</title>
<!-- init_model -->
<g id="node1" class="node"><title>init_model</title>
<ellipse fill="white" stroke="black" cx="473.471" cy="-584" rx="52.3271" ry="18"/>
<text text-anchor="middle" x="473.471" y="-579.8" font-family="Times,serif" font-size="14.00">init_model</text>
</g>
<!-- 622 -->
<g id="node23" class="node"><title>622</title>
<ellipse fill="orange" stroke="black" cx="721.471" cy="-494" rx="94.5662" ry="18"/>
<text text-anchor="middle" x="721.471" y="-489.8" font-family="Times,serif" font-size="14.00">modelSemivariogram</text>
</g>
<!-- init_model&#45;&gt;622 -->
<g id="edge1" class="edge"><title>init_model&#45;&gt;622:center</title>
<path fill="none" stroke="blue" stroke-dasharray="5,2" d="M508.477,-570.578C550.323,-555.73 620.747,-530.741 669.083,-513.589"/>
<polygon fill="blue" stroke="blue" points="670.489,-516.804 678.742,-510.162 668.148,-510.207 670.489,-516.804"/>
</g>
<!-- def10692 -->
<g id="node2" class="node"><title>def10692</title>
<ellipse fill="orange" stroke="black" cx="473.471" cy="-658" rx="47.2632" ry="18"/>
<text text-anchor="middle" x="473.471" y="-653.8" font-family="Times,serif" font-size="14.00">def10692</text>
</g>
<!-- def10692&#45;&gt;init_model -->
<g id="edge2" class="edge"><title>def10692&#45;&gt;init_model:center</title>
<path fill="none" stroke="red" d="M473.471,-639.937C473.471,-631.807 473.471,-621.876 473.471,-612.705"/>
<polygon fill="red" stroke="red" points="476.971,-612.441 473.471,-602.441 469.971,-612.441 476.971,-612.441"/>
</g>
<!-- modelSemivariogram -->
<g id="node3" class="node"><title>modelSemivariogram</title>
<ellipse fill="white" stroke="black" cx="737.471" cy="-584" rx="94.5662" ry="18"/>
<text text-anchor="middle" x="737.471" y="-579.8" font-family="Times,serif" font-size="14.00">modelSemivariogram</text>
</g>
<!-- modelSemivariogram&#45;&gt;622 -->
<g id="edge3" class="edge"><title>modelSemivariogram&#45;&gt;622:center</title>
<path fill="none" stroke="blue" d="M734.31,-565.614C732.06,-553.24 728.993,-536.369 726.42,-522.22"/>
<polygon fill="blue" stroke="blue" points="729.804,-521.263 724.571,-512.05 722.917,-522.515 729.804,-521.263"/>
</g>
<!-- def89428 -->
<g id="node4" class="node"><title>def89428</title>
<ellipse fill="orange" stroke="black" cx="737.471" cy="-658" rx="47.2632" ry="18"/>
<text text-anchor="middle" x="737.471" y="-653.8" font-family="Times,serif" font-size="14.00">def89428</text>
</g>
<!-- def89428&#45;&gt;modelSemivariogram -->
<g id="edge4" class="edge"><title>def89428&#45;&gt;modelSemivariogram:center</title>
<path fill="none" stroke="red" d="M737.471,-639.937C737.471,-631.807 737.471,-621.876 737.471,-612.705"/>
<polygon fill="red" stroke="red" points="740.971,-612.441 737.471,-602.441 733.971,-612.441 740.971,-612.441"/>
</g>
<!-- getInterpolator -->
<g id="node5" class="node"><title>getInterpolator</title>
<ellipse fill="white" stroke="black" cx="428.471" cy="-494" rx="68.1275" ry="18"/>
<text text-anchor="middle" x="428.471" y="-489.8" font-family="Times,serif" font-size="14.00">getInterpolator</text>
</g>
<!-- 453 -->
<g id="node22" class="node"><title>453</title>
<ellipse fill="orange" stroke="black" cx="557.471" cy="-404" rx="68.1275" ry="18"/>
<text text-anchor="middle" x="557.471" y="-399.8" font-family="Times,serif" font-size="14.00">getInterpolator</text>
</g>
<!-- getInterpolator&#45;&gt;453 -->
<g id="edge5" class="edge"><title>getInterpolator&#45;&gt;453:center</title>
<path fill="none" stroke="blue" d="M451.832,-477.064C472.434,-463.01 502.646,-442.4 525.489,-426.817"/>
<polygon fill="blue" stroke="blue" points="527.56,-429.642 533.848,-421.115 523.615,-423.859 527.56,-429.642"/>
</g>
<!-- def77229 -->
<g id="node6" class="node"><title>def77229</title>
<ellipse fill="orange" stroke="black" cx="285.471" cy="-584" rx="47.2632" ry="18"/>
<text text-anchor="middle" x="285.471" y="-579.8" font-family="Times,serif" font-size="14.00">def77229</text>
</g>
<!-- def77229&#45;&gt;getInterpolator -->
<g id="edge6" class="edge"><title>def77229&#45;&gt;getInterpolator:center</title>
<path fill="none" stroke="red" d="M309.406,-568.271C332.45,-554.09 367.558,-532.485 393.687,-516.406"/>
<polygon fill="red" stroke="red" points="395.838,-519.191 402.52,-510.97 392.17,-513.23 395.838,-519.191"/>
</g>
<!-- 661 -->
<g id="node7" class="node"><title>661</title>
<ellipse fill="orange" stroke="black" cx="769.471" cy="-1112" rx="32.2385" ry="18"/>
<text text-anchor="middle" x="769.471" y="-1107.8" font-family="Times,serif" font-size="14.00">demo</text>
</g>
<!-- crs -->
<g id="node11" class="node"><title>crs</title>
<ellipse fill="white" stroke="black" cx="403.471" cy="-1038" rx="27" ry="18"/>
<text text-anchor="middle" x="403.471" y="-1033.8" font-family="Times,serif" font-size="14.00">crs</text>
</g>
<!-- 661&#45;&gt;crs -->
<g id="edge7" class="edge"><title>661&#45;&gt;crs:center</title>
<path fill="none" stroke="red" stroke-dasharray="5,2" d="M739.52,-1105.11C672.641,-1091.95 511.382,-1060.23 439.315,-1046.05"/>
<polygon fill="red" stroke="red" points="439.839,-1042.59 429.351,-1044.09 438.487,-1049.46 439.839,-1042.59"/>
</g>
<!-- meuse -->
<g id="node12" class="node"><title>meuse</title>
<ellipse fill="white" stroke="black" cx="882.471" cy="-1038" rx="35.5584" ry="18"/>
<text text-anchor="middle" x="882.471" y="-1033.8" font-family="Times,serif" font-size="14.00">meuse</text>
</g>
<!-- 661&#45;&gt;meuse -->
<g id="edge8" class="edge"><title>661&#45;&gt;meuse:center</title>
<path fill="none" stroke="red" stroke-dasharray="5,2" d="M789.935,-1097.96C807.363,-1086.86 832.643,-1070.75 852.378,-1058.17"/>
<polygon fill="red" stroke="red" points="854.454,-1061 861.007,-1052.68 850.693,-1055.1 854.454,-1061"/>
</g>
<!-- meuse.area -->
<g id="node13" class="node"><title>meuse.area</title>
<ellipse fill="white" stroke="black" cx="769.471" cy="-984" rx="54.2933" ry="18"/>
<text text-anchor="middle" x="769.471" y="-979.8" font-family="Times,serif" font-size="14.00">meuse.area</text>
</g>
<!-- 661&#45;&gt;meuse.area -->
<g id="edge9" class="edge"><title>661&#45;&gt;meuse.area:center</title>
<path fill="none" stroke="red" stroke-dasharray="5,2" d="M769.471,-1093.74C769.471,-1072.73 769.471,-1036.97 769.471,-1012.23"/>
<polygon fill="red" stroke="red" points="772.971,-1012.05 769.471,-1002.05 765.971,-1012.05 772.971,-1012.05"/>
</g>
<!-- meuse.grid -->
<g id="node14" class="node"><title>meuse.grid</title>
<ellipse fill="white" stroke="black" cx="560.471" cy="-1038" rx="53.5131" ry="18"/>
<text text-anchor="middle" x="560.471" y="-1033.8" font-family="Times,serif" font-size="14.00">meuse.grid</text>
</g>
<!-- 661&#45;&gt;meuse.grid -->
<g id="edge10" class="edge"><title>661&#45;&gt;meuse.grid:center</title>
<path fill="none" stroke="red" stroke-dasharray="5,2" d="M742.576,-1101.73C708.077,-1089.85 647.728,-1069.06 606.011,-1054.69"/>
<polygon fill="red" stroke="red" points="606.955,-1051.31 596.36,-1051.36 604.675,-1057.93 606.955,-1051.31"/>
</g>
<!-- meuse.riv -->
<g id="node15" class="node"><title>meuse.riv</title>
<ellipse fill="white" stroke="black" cx="1046.47" cy="-1038" rx="48.2728" ry="18"/>
<text text-anchor="middle" x="1046.47" y="-1033.8" font-family="Times,serif" font-size="14.00">meuse.riv</text>
</g>
<!-- 661&#45;&gt;meuse.riv -->
<g id="edge11" class="edge"><title>661&#45;&gt;meuse.riv:center</title>
<path fill="none" stroke="red" stroke-dasharray="5,2" d="M798.072,-1103.57C845.276,-1091.3 940.016,-1066.67 997.881,-1051.63"/>
<polygon fill="red" stroke="red" points="999.089,-1054.93 1007.89,-1049.03 997.328,-1048.16 999.089,-1054.93"/>
</g>
<!-- 71119 -->
<g id="node8" class="node"><title>71119</title>
<ellipse fill="white" stroke="black" cx="619.471" cy="-1202" rx="35.5584" ry="18"/>
<text text-anchor="middle" x="619.471" y="-1197.8" font-family="Times,serif" font-size="14.00">meuse</text>
</g>
<!-- 71119&#45;&gt;661 -->
<g id="edge12" class="edge"><title>71119&#45;&gt;661:center</title>
<path fill="none" stroke="black" d="M641.928,-1187.83C667.739,-1172.68 710.236,-1147.75 739.014,-1130.87"/>
<polygon fill="none" stroke="black" points="740.982,-1133.77 747.836,-1125.69 737.44,-1127.73 740.982,-1133.77"/>
<text text-anchor="middle" x="721.469" y="-1152.8" font-family="Times,serif" font-size="14.00">topic</text>
</g>
<!-- 67723 -->
<g id="node9" class="node"><title>67723</title>
<ellipse fill="white" stroke="black" cx="769.471" cy="-1202" rx="40.3147" ry="18"/>
<text text-anchor="middle" x="769.471" y="-1197.8" font-family="Times,serif" font-size="14.00">FALSE</text>
</g>
<!-- 67723&#45;&gt;661 -->
<g id="edge13" class="edge"><title>67723&#45;&gt;661:center</title>
<path fill="none" stroke="black" d="M769.471,-1183.61C769.471,-1171.24 769.471,-1154.37 769.471,-1140.22"/>
<polygon fill="none" stroke="black" points="772.971,-1140.05 769.471,-1130.05 765.971,-1140.05 772.971,-1140.05"/>
<text text-anchor="middle" x="782.686" y="-1152.8" font-family="Times,serif" font-size="14.00">echo</text>
</g>
<!-- 79613 -->
<g id="node10" class="node"><title>79613</title>
<ellipse fill="white" stroke="black" cx="927.471" cy="-1202" rx="40.3147" ry="18"/>
<text text-anchor="middle" x="927.471" y="-1197.8" font-family="Times,serif" font-size="14.00">FALSE</text>
</g>
<!-- 79613&#45;&gt;661 -->
<g id="edge14" class="edge"><title>79613&#45;&gt;661:center</title>
<path fill="none" stroke="black" d="M903.13,-1187.44C875.516,-1172.06 830.427,-1146.95 800.358,-1130.2"/>
<polygon fill="none" stroke="black" points="801.984,-1127.1 791.544,-1125.29 798.578,-1133.22 801.984,-1127.1"/>
<text text-anchor="middle" x="871.801" y="-1152.8" font-family="Times,serif" font-size="14.00">ask</text>
</g>
<!-- meuse_lzinc -->
<g id="node16" class="node"><title>meuse_lzinc</title>
<ellipse fill="white" stroke="black" cx="930.471" cy="-766" rx="58.9569" ry="18"/>
<text text-anchor="middle" x="930.471" y="-761.8" font-family="Times,serif" font-size="14.00">meuse_lzinc</text>
</g>
<!-- meuse&#45;&gt;meuse_lzinc -->
<g id="edge15" class="edge"><title>meuse&#45;&gt;meuse_lzinc:center</title>
<path fill="none" stroke="black" d="M903.311,-1023.21C924.542,-1007.78 956.178,-980.615 969.471,-948 991.021,-895.125 963.89,-828.486 945.258,-792.638"/>
<polygon fill="none" stroke="black" points="948.324,-790.95 940.508,-783.798 942.158,-794.263 948.324,-790.95"/>
</g>
<!-- meuse_zinc -->
<g id="node18" class="node"><title>meuse_zinc</title>
<ellipse fill="white" stroke="black" cx="904.471" cy="-930" rx="56.4299" ry="18"/>
<text text-anchor="middle" x="904.471" y="-925.8" font-family="Times,serif" font-size="14.00">meuse_zinc</text>
</g>
<!-- meuse&#45;&gt;meuse_zinc -->
<g id="edge16" class="edge"><title>meuse&#45;&gt;meuse_zinc:center</title>
<path fill="none" stroke="black" d="M886.006,-1019.97C889.486,-1003.2 894.853,-977.341 898.906,-957.814"/>
<polygon fill="none" stroke="black" points="902.34,-958.491 900.945,-947.988 895.486,-957.069 902.34,-958.491"/>
</g>
<!-- 251 -->
<g id="node20" class="node"><title>251</title>
<ellipse fill="orange" stroke="black" cx="930.471" cy="-658" rx="35.8859" ry="18"/>
<text text-anchor="middle" x="930.471" y="-653.8" font-family="Times,serif" font-size="14.00">SField</text>
</g>
<!-- meuse.area&#45;&gt;251 -->
<g id="edge17" class="edge"><title>meuse.area&#45;&gt;251:center</title>
<path fill="none" stroke="black" d="M769.471,-965.828C769.471,-946.441 769.471,-913.955 769.471,-886 769.471,-886 769.471,-886 769.471,-765 769.471,-708.45 839.62,-680.37 887.31,-667.815"/>
<polygon fill="none" stroke="black" points="888.258,-671.185 897.112,-665.366 886.562,-664.394 888.258,-671.185"/>
<text text-anchor="middle" x="790.469" y="-835.8" font-family="Times,serif" font-size="14.00">domain</text>
</g>
<!-- 855 -->
<g id="node26" class="node"><title>855</title>
<ellipse fill="orange" stroke="black" cx="481.471" cy="-930" rx="47.2589" ry="18"/>
<text text-anchor="middle" x="481.471" y="-925.8" font-family="Times,serif" font-size="14.00">geometry</text>
</g>
<!-- meuse.grid&#45;&gt;855 -->
<g id="edge18" class="edge"><title>meuse.grid&#45;&gt;855:center</title>
<path fill="none" stroke="black" d="M548.127,-1020.44C535.141,-1003.01 514.565,-975.404 499.707,-955.468"/>
<polygon fill="none" stroke="black" points="502.51,-953.373 493.728,-947.446 496.898,-957.556 502.51,-953.373"/>
<text text-anchor="middle" x="542.416" y="-979.8" font-family="Times,serif" font-size="14.00">obj</text>
</g>
<!-- 266 -->
<g id="node27" class="node"><title>266</title>
<ellipse fill="orange" stroke="black" cx="301.471" cy="-930" rx="47.2589" ry="18"/>
<text text-anchor="middle" x="301.471" y="-925.8" font-family="Times,serif" font-size="14.00">geometry</text>
</g>
<!-- meuse.grid&#45;&gt;266 -->
<g id="edge19" class="edge"><title>meuse.grid&#45;&gt;266:center</title>
<path fill="none" stroke="black" d="M527.931,-1023.68C480.705,-1004.35 393.226,-968.552 341.916,-947.553"/>
<polygon fill="none" stroke="black" points="343.047,-944.234 332.466,-943.685 340.396,-950.712 343.047,-944.234"/>
<text text-anchor="middle" x="478.416" y="-979.8" font-family="Times,serif" font-size="14.00">obj</text>
</g>
<!-- meuse_lzinc&#45;&gt;251 -->
<g id="edge20" class="edge"><title>meuse_lzinc&#45;&gt;251:center</title>
<path fill="none" stroke="black" d="M930.471,-747.969C930.471,-731.378 930.471,-705.883 930.471,-686.431"/>
<polygon fill="none" stroke="black" points="933.971,-686.341 930.471,-676.341 926.971,-686.341 933.971,-686.341"/>
<text text-anchor="middle" x="965.851" y="-707.8" font-family="Times,serif" font-size="14.00">observations</text>
</g>
<!-- 134 -->
<g id="node17" class="node"><title>134</title>
<ellipse fill="orange" stroke="black" cx="914.471" cy="-840" rx="27" ry="18"/>
<text text-anchor="middle" x="914.471" y="-835.8" font-family="Times,serif" font-size="14.00">log</text>
</g>
<!-- 134&#45;&gt;meuse_lzinc -->
<g id="edge21" class="edge"><title>134&#45;&gt;meuse_lzinc:center</title>
<path fill="none" stroke="red" d="M918.263,-821.937C920.089,-813.719 922.324,-803.66 924.381,-794.406"/>
<polygon fill="red" stroke="red" points="927.843,-794.962 926.595,-784.441 921.009,-793.443 927.843,-794.962"/>
</g>
<!-- meuse_zinc&#45;&gt;134 -->
<g id="edge22" class="edge"><title>meuse_zinc&#45;&gt;134:center</title>
<path fill="none" stroke="black" d="M906.447,-911.614C907.853,-899.24 909.77,-882.369 911.378,-868.22"/>
<polygon fill="none" stroke="black" points="914.882,-868.382 912.534,-858.05 907.927,-867.591 914.882,-868.382"/>
</g>
<!-- zincPointData -->
<g id="node19" class="node"><title>zincPointData</title>
<ellipse fill="white" stroke="black" cx="1021.47" cy="-584" rx="65.6142" ry="18"/>
<text text-anchor="middle" x="1021.47" y="-579.8" font-family="Times,serif" font-size="14.00">zincPointData</text>
</g>
<!-- zincPointData&#45;&gt;453 -->
<g id="edge24" class="edge"><title>zincPointData&#45;&gt;453:center</title>
<path fill="none" stroke="black" d="M1004.32,-566.63C991.792,-555.288 973.995,-540.414 956.471,-530 849.391,-466.367 706.596,-431.878 624.073,-416.053"/>
<polygon fill="none" stroke="black" points="624.544,-412.58 614.069,-414.169 623.249,-419.459 624.544,-412.58"/>
<text text-anchor="middle" x="951.075" y="-489.8" font-family="Times,serif" font-size="14.00">pointData</text>
</g>
<!-- zincPointData&#45;&gt;622 -->
<g id="edge23" class="edge"><title>zincPointData&#45;&gt;622:center</title>
<path fill="none" stroke="black" d="M978.488,-570.392C926.492,-555.139 838.696,-529.386 780.411,-512.289"/>
<polygon fill="none" stroke="black" points="781.186,-508.869 770.605,-509.412 779.215,-515.586 781.186,-508.869"/>
<text text-anchor="middle" x="925.075" y="-534.8" font-family="Times,serif" font-size="14.00">pointData</text>
</g>
<!-- 251&#45;&gt;zincPointData -->
<g id="edge25" class="edge"><title>251&#45;&gt;zincPointData:center</title>
<path fill="none" stroke="red" d="M948.886,-642.43C961.476,-632.468 978.416,-619.065 992.765,-607.713"/>
<polygon fill="red" stroke="red" points="995.19,-610.257 1000.86,-601.307 990.847,-604.767 995.19,-610.257"/>
</g>
<!-- interpolator -->
<g id="node21" class="node"><title>interpolator</title>
<ellipse fill="white" stroke="black" cx="363.471" cy="-330" rx="56.1322" ry="18"/>
<text text-anchor="middle" x="363.471" y="-325.8" font-family="Times,serif" font-size="14.00">interpolator</text>
</g>
<!-- 467 -->
<g id="node30" class="node"><title>467</title>
<ellipse fill="orange" stroke="black" cx="223.471" cy="-256" rx="56.1322" ry="18"/>
<text text-anchor="middle" x="223.471" y="-251.8" font-family="Times,serif" font-size="14.00">interpolator</text>
</g>
<!-- interpolator&#45;&gt;467 -->
<g id="edge26" class="edge"><title>interpolator&#45;&gt;467:center</title>
<path fill="none" stroke="blue" d="M335.14,-314.43C313.697,-303.402 284.052,-288.156 260.695,-276.144"/>
<polygon fill="blue" stroke="blue" points="262.254,-273.01 251.76,-271.549 259.052,-279.235 262.254,-273.01"/>
</g>
<!-- 453&#45;&gt;interpolator -->
<g id="edge27" class="edge"><title>453&#45;&gt;interpolator:center</title>
<path fill="none" stroke="red" d="M519.605,-388.947C487.69,-377.102 441.964,-360.132 408.241,-347.615"/>
<polygon fill="red" stroke="red" points="409.222,-344.247 398.629,-344.048 406.787,-350.809 409.222,-344.247"/>
</g>
<!-- 622&#45;&gt;453 -->
<g id="edge28" class="edge"><title>622&#45;&gt;453:center</title>
<path fill="none" stroke="black" d="M691.391,-476.859C664.356,-462.353 624.53,-440.983 595.336,-425.318"/>
<polygon fill="none" stroke="black" points="596.727,-422.092 586.261,-420.448 593.417,-428.26 596.727,-422.092"/>
<text text-anchor="middle" x="673.684" y="-444.8" font-family="Times,serif" font-size="14.00">params</text>
</g>
<!-- locInterest -->
<g id="node24" class="node"><title>locInterest</title>
<ellipse fill="white" stroke="black" cx="232.471" cy="-712" rx="51.1871" ry="18"/>
<text text-anchor="middle" x="232.471" y="-707.8" font-family="Times,serif" font-size="14.00">locInterest</text>
</g>
<!-- locInterest&#45;&gt;467 -->
<g id="edge29" class="edge"><title>locInterest&#45;&gt;467:center</title>
<path fill="none" stroke="black" d="M210.581,-695.667C190.703,-679.762 164.471,-652.918 164.471,-622 164.471,-622 164.471,-622 164.471,-329 164.471,-309.092 178.133,-291.672 192.308,-278.954"/>
<polygon fill="none" stroke="black" points="194.732,-281.49 200.153,-272.387 190.238,-276.123 194.732,-281.49"/>
<text text-anchor="middle" x="201.395" y="-489.8" font-family="Times,serif" font-size="14.00">locOfInterest</text>
</g>
<!-- 715 -->
<g id="node25" class="node"><title>715</title>
<ellipse fill="orange" stroke="black" cx="385.471" cy="-840" rx="35.8859" ry="18"/>
<text text-anchor="middle" x="385.471" y="-835.8" font-family="Times,serif" font-size="14.00">SField</text>
</g>
<!-- 715&#45;&gt;locInterest -->
<g id="edge30" class="edge"><title>715&#45;&gt;locInterest:center</title>
<path fill="none" stroke="red" d="M367.621,-824.3C340.992,-802.37 290.668,-760.927 259.509,-735.267"/>
<polygon fill="red" stroke="red" points="261.59,-732.446 251.645,-728.791 257.14,-737.849 261.59,-732.446"/>
</g>
<!-- 855&#45;&gt;715 -->
<g id="edge31" class="edge"><title>855&#45;&gt;715:center</title>
<path fill="none" stroke="black" d="M463.863,-912.859C448.698,-898.958 426.658,-878.755 409.807,-863.308"/>
<polygon fill="none" stroke="black" points="411.741,-860.333 402.005,-856.156 407.011,-865.493 411.741,-860.333"/>
<text text-anchor="middle" x="477.851" y="-880.8" font-family="Times,serif" font-size="14.00">observations</text>
</g>
<!-- 266&#45;&gt;715 -->
<g id="edge32" class="edge"><title>266&#45;&gt;715:center</title>
<path fill="none" stroke="black" d="M316.878,-912.859C329.946,-899.169 348.849,-879.366 363.503,-864.014"/>
<polygon fill="none" stroke="black" points="366.352,-866.098 370.725,-856.448 361.289,-861.265 366.352,-866.098"/>
<text text-anchor="middle" x="372.469" y="-880.8" font-family="Times,serif" font-size="14.00">domain</text>
</g>
<!-- 23608 -->
<g id="node28" class="node"><title>23608</title>
<ellipse fill="white" stroke="black" cx="643.471" cy="-930" rx="36.3712" ry="18"/>
<text text-anchor="middle" x="643.471" y="-925.8" font-family="Times,serif" font-size="14.00">TRUE</text>
</g>
<!-- 23608&#45;&gt;715 -->
<g id="edge33" class="edge"><title>23608&#45;&gt;715:center</title>
<path fill="none" stroke="black" d="M617.596,-916.995C592.207,-905.505 552.205,-888.168 516.471,-876 487.159,-866.018 453.383,-857.054 427.47,-850.696"/>
<polygon fill="none" stroke="black" points="428.138,-847.257 417.595,-848.306 426.491,-854.061 428.138,-847.257"/>
<text text-anchor="middle" x="603.294" y="-880.8" font-family="Times,serif" font-size="14.00">cellsArePoints</text>
</g>
<!-- intZincPointData -->
<g id="node29" class="node"><title>intZincPointData</title>
<ellipse fill="white" stroke="black" cx="223.471" cy="-182" rx="77.3273" ry="18"/>
<text text-anchor="middle" x="223.471" y="-177.8" font-family="Times,serif" font-size="14.00">intZincPointData</text>
</g>
<!-- intZincPointData_observations_1 -->
<g id="node32" class="node"><title>intZincPointData_observations_1</title>
<ellipse fill="white" stroke="black" cx="223.471" cy="-108" rx="140.27" ry="18"/>
<text text-anchor="middle" x="223.471" y="-103.8" font-family="Times,serif" font-size="14.00">intZincPointData_observations_1</text>
</g>
<!-- intZincPointData&#45;&gt;intZincPointData_observations_1 -->
<g id="edge34" class="edge"><title>intZincPointData&#45;&gt;intZincPointData_observations_1:center</title>
<path fill="none" stroke="black" d="M223.471,-163.937C223.471,-155.807 223.471,-145.876 223.471,-136.705"/>
<polygon fill="none" stroke="black" points="226.971,-136.441 223.471,-126.441 219.971,-136.441 226.971,-136.441"/>
</g>
<!-- 467&#45;&gt;intZincPointData -->
<g id="edge35" class="edge"><title>467&#45;&gt;intZincPointData:center</title>
<path fill="none" stroke="red" d="M223.471,-237.937C223.471,-229.807 223.471,-219.876 223.471,-210.705"/>
<polygon fill="red" stroke="red" points="226.971,-210.441 223.471,-200.441 219.971,-210.441 226.971,-210.441"/>
</g>
<!-- 880 -->
<g id="node31" class="node"><title>880</title>
<ellipse fill="orange" stroke="black" cx="223.471" cy="-18" rx="34.4665" ry="18"/>
<text text-anchor="middle" x="223.471" y="-13.8" font-family="Times,serif" font-size="14.00">spplot</text>
</g>
<!-- intZincPointData_observations_1&#45;&gt;880 -->
<g id="edge36" class="edge"><title>intZincPointData_observations_1&#45;&gt;880:center</title>
<path fill="none" stroke="black" d="M223.471,-89.614C223.471,-77.2403 223.471,-60.3686 223.471,-46.2198"/>
<polygon fill="none" stroke="black" points="226.971,-46.0504 223.471,-36.0504 219.971,-46.0504 226.971,-46.0504"/>
<text text-anchor="middle" x="232.416" y="-58.8" font-family="Times,serif" font-size="14.00">obj</text>
</g>
</g>
</svg>
