<?xml version="1.0" encoding="UTF-8" standalone="no"?>
<!DOCTYPE svg PUBLIC "-//W3C//DTD SVG 1.1//EN"
 "http://www.w3.org/Graphics/SVG/1.1/DTD/svg11.dtd">
<!-- Generated by graphviz version 2.28.0 (20160728.0200)
 -->
<!-- Title: f Pages: 1 -->
<svg width="397pt" height="370pt"
 viewBox="0.00 0.00 396.83 370.00" xmlns="http://www.w3.org/2000/svg" xmlns:xlink="http://www.w3.org/1999/xlink">
<g id="graph1" class="graph" transform="scale(0.291798 0.291798) rotate(0) translate(4 1264)">
<title>f</title>
<!-- t -->
<g id="node1" class="node"><title>t</title>
<ellipse fill="white" stroke="black" cx="904.295" cy="-1156" rx="27" ry="29.5"/>
<text text-anchor="middle" x="904.295" y="-1160.2" font-family="Times,serif" font-size="14.00">t </text>
<text text-anchor="middle" x="904.295" y="-1143.4" font-family="Times,serif" font-size="14.00">[Q]</text>
</g>
<!-- expr_ZSIVFe -->
<g id="node4" class="node"><title>expr_ZSIVFe</title>
<ellipse fill="orange" stroke="black" cx="904.295" cy="-1058" rx="162.25" ry="29.5"/>
<text text-anchor="middle" x="904.295" y="-1062.2" font-family="Times,serif" font-size="14.00">`attr&lt;&#45;`(t, which = &quot;semantics&quot;, &quot;test&quot;)</text>
<text text-anchor="middle" x="904.295" y="-1045.4" font-family="Times,serif" font-size="14.00">[Q &#45;&gt; ( test )]</text>
</g>
<!-- t&#45;&gt;expr_ZSIVFe -->
<g id="edge1" class="edge"><title>t&#45;&gt;expr_ZSIVFe:center</title>
<path fill="none" stroke="black" d="M904.295,-1126.46C904.295,-1117.45 904.295,-1107.33 904.295,-1097.74"/>
<polygon fill="none" stroke="black" points="907.795,-1097.6 904.295,-1087.6 900.795,-1097.6 907.795,-1097.6"/>
</g>
<!-- lt_pIlIKe -->
<g id="node2" class="node"><title>lt_pIlIKe</title>
<ellipse fill="white" stroke="black" cx="904.295" cy="-1242" rx="27" ry="18"/>
<text text-anchor="middle" x="904.295" y="-1237.8" font-family="Times,serif" font-size="14.00">1</text>
</g>
<!-- lt_pIlIKe&#45;&gt;t -->
<g id="edge2" class="edge"><title>lt_pIlIKe&#45;&gt;t:center</title>
<path fill="none" stroke="red" d="M904.295,-1223.6C904.295,-1215.46 904.295,-1205.43 904.295,-1195.65"/>
<polygon fill="red" stroke="red" points="907.795,-1195.63 904.295,-1185.63 900.795,-1195.63 907.795,-1195.63"/>
</g>
<!-- t~2 -->
<g id="node3" class="node"><title>t~2</title>
<ellipse fill="white" stroke="black" cx="904.295" cy="-960" rx="31.3414" ry="29.5"/>
<text text-anchor="middle" x="904.295" y="-964.2" font-family="Times,serif" font-size="14.00">t~2 </text>
<text text-anchor="middle" x="904.295" y="-947.4" font-family="Times,serif" font-size="14.00">[test]</text>
</g>
<!-- expr_S6jrY3 -->
<g id="node6" class="node"><title>expr_S6jrY3</title>
<ellipse fill="orange" stroke="black" cx="904.295" cy="-862" rx="70.3472" ry="29.5"/>
<text text-anchor="middle" x="904.295" y="-866.2" font-family="Times,serif" font-size="14.00">t + 2</text>
<text text-anchor="middle" x="904.295" y="-849.4" font-family="Times,serif" font-size="14.00">[test &#45;&gt; ( test )]</text>
</g>
<!-- t~2&#45;&gt;expr_S6jrY3 -->
<g id="edge3" class="edge"><title>t~2&#45;&gt;expr_S6jrY3:center</title>
<path fill="none" stroke="black" d="M904.295,-930.457C904.295,-921.446 904.295,-911.334 904.295,-901.736"/>
<polygon fill="none" stroke="black" points="907.795,-901.599 904.295,-891.599 900.795,-901.599 907.795,-901.599"/>
</g>
<!-- expr_ZSIVFe&#45;&gt;t~2 -->
<g id="edge4" class="edge"><title>expr_ZSIVFe&#45;&gt;t~2:center</title>
<path fill="none" stroke="red" d="M904.295,-1028.46C904.295,-1019.45 904.295,-1009.33 904.295,-999.736"/>
<polygon fill="red" stroke="red" points="907.795,-999.599 904.295,-989.599 900.795,-999.599 907.795,-999.599"/>
</g>
<!-- t~3 -->
<g id="node5" class="node"><title>t~3</title>
<ellipse fill="white" stroke="black" cx="904.295" cy="-764" rx="31.3414" ry="29.5"/>
<text text-anchor="middle" x="904.295" y="-768.2" font-family="Times,serif" font-size="14.00">t~3 </text>
<text text-anchor="middle" x="904.295" y="-751.4" font-family="Times,serif" font-size="14.00">[test]</text>
</g>
<!-- fcall_bUHECY -->
<g id="node10" class="node"><title>fcall_bUHECY</title>
<ellipse fill="orange" stroke="black" cx="904.295" cy="-650" rx="108" ry="29.5"/>
<text text-anchor="middle" x="904.295" y="-654.2" font-family="Times,serif" font-size="14.00">rnorm</text>
<text text-anchor="middle" x="904.295" y="-637.4" font-family="Times,serif" font-size="14.00">[Q &#45;&gt; test &#45;&gt; Q &#45;&gt; Q set]</text>
</g>
<!-- t~3&#45;&gt;fcall_bUHECY -->
<g id="edge5" class="edge"><title>t~3&#45;&gt;fcall_bUHECY:center</title>
<path fill="none" stroke="black" d="M904.295,-734.448C904.295,-720.993 904.295,-704.729 904.295,-690.146"/>
<polygon fill="none" stroke="black" points="907.795,-689.889 904.295,-679.889 900.795,-689.889 907.795,-689.889"/>
<text text-anchor="middle" x="907.795" y="-702.8" font-family="Times,serif" font-size="14.00">n</text>
</g>
<!-- expr_S6jrY3&#45;&gt;t~3 -->
<g id="edge6" class="edge"><title>expr_S6jrY3&#45;&gt;t~3:center</title>
<path fill="none" stroke="red" d="M904.295,-832.457C904.295,-823.446 904.295,-813.334 904.295,-803.736"/>
<polygon fill="red" stroke="red" points="907.795,-803.599 904.295,-793.599 900.795,-803.599 907.795,-803.599"/>
</g>
<!-- t~4 -->
<g id="node7" class="node"><title>t~4</title>
<ellipse fill="white" stroke="black" cx="904.295" cy="-356" rx="38.25" ry="29.5"/>
<text text-anchor="middle" x="904.295" y="-360.2" font-family="Times,serif" font-size="14.00">t~4 </text>
<text text-anchor="middle" x="904.295" y="-343.4" font-family="Times,serif" font-size="14.00">[Q set]</text>
</g>
<!-- fcall_8EIwrP -->
<g id="node13" class="node"><title>fcall_8EIwrP</title>
<ellipse fill="orange" stroke="black" cx="904.295" cy="-242" rx="138.325" ry="29.5"/>
<text text-anchor="middle" x="904.295" y="-246.2" font-family="Times,serif" font-size="14.00">sum</text>
<text text-anchor="middle" x="904.295" y="-229.4" font-family="Times,serif" font-size="14.00">[Q set &#45;&gt; Q: INCONSISTENT!]</text>
</g>
<!-- t~4&#45;&gt;fcall_8EIwrP -->
<g id="edge7" class="edge"><title>t~4&#45;&gt;fcall_8EIwrP:center</title>
<path fill="none" stroke="black" d="M904.295,-326.448C904.295,-312.993 904.295,-296.729 904.295,-282.146"/>
<polygon fill="none" stroke="black" points="907.795,-281.889 904.295,-271.889 900.795,-281.889 907.795,-281.889"/>
<text text-anchor="middle" x="907.795" y="-294.8" font-family="Times,serif" font-size="14.00">x</text>
</g>
<!-- fcall_WwR39Q -->
<g id="node8" class="node"><title>fcall_WwR39Q</title>
<ellipse fill="orange" stroke="black" cx="904.295" cy="-454" rx="68.1353" ry="29.5"/>
<text text-anchor="middle" x="904.295" y="-458.2" font-family="Times,serif" font-size="14.00">round</text>
<text text-anchor="middle" x="904.295" y="-441.4" font-family="Times,serif" font-size="14.00">[? &#45;&gt; ( Q set )]</text>
</g>
<!-- fcall_WwR39Q&#45;&gt;t~4 -->
<g id="edge8" class="edge"><title>fcall_WwR39Q&#45;&gt;t~4:center</title>
<path fill="none" stroke="red" d="M904.295,-424.457C904.295,-415.446 904.295,-405.334 904.295,-395.736"/>
<polygon fill="red" stroke="red" points="907.795,-395.599 904.295,-385.599 900.795,-395.599 907.795,-395.599"/>
</g>
<!-- fcall_nqQ7YP -->
<g id="node9" class="node"><title>fcall_nqQ7YP</title>
<ellipse fill="orange" stroke="black" cx="904.295" cy="-552" rx="68.1353" ry="29.5"/>
<text text-anchor="middle" x="904.295" y="-556.2" font-family="Times,serif" font-size="14.00">abs</text>
<text text-anchor="middle" x="904.295" y="-539.4" font-family="Times,serif" font-size="14.00">[? &#45;&gt; ( Q set )]</text>
</g>
<!-- fcall_nqQ7YP&#45;&gt;fcall_WwR39Q -->
<g id="edge9" class="edge"><title>fcall_nqQ7YP&#45;&gt;fcall_WwR39Q:center</title>
<path fill="none" stroke="black" d="M904.295,-522.457C904.295,-513.446 904.295,-503.334 904.295,-493.736"/>
<polygon fill="none" stroke="black" points="907.795,-493.599 904.295,-483.599 900.795,-493.599 907.795,-493.599"/>
</g>
<!-- fcall_bUHECY&#45;&gt;fcall_nqQ7YP -->
<g id="edge10" class="edge"><title>fcall_bUHECY&#45;&gt;fcall_nqQ7YP:center</title>
<path fill="none" stroke="black" d="M904.295,-620.457C904.295,-611.446 904.295,-601.334 904.295,-591.736"/>
<polygon fill="none" stroke="black" points="907.795,-591.599 904.295,-581.599 900.795,-591.599 907.795,-591.599"/>
</g>
<!-- t~5 -->
<g id="node11" class="node"><title>t~5</title>
<ellipse fill="white" stroke="black" cx="497.295" cy="-30" rx="38.25" ry="29.5"/>
<text text-anchor="middle" x="497.295" y="-34.2" font-family="Times,serif" font-size="14.00">t~5 </text>
<text text-anchor="middle" x="497.295" y="-17.4" font-family="Times,serif" font-size="14.00">[Q set]</text>
</g>
<!-- fcall_XnMfJr -->
<g id="node12" class="node"><title>fcall_XnMfJr</title>
<ellipse fill="orange" stroke="black" cx="497.295" cy="-128" rx="180.25" ry="29.5"/>
<text text-anchor="middle" x="497.295" y="-132.2" font-family="Times,serif" font-size="14.00">rnorm</text>
<text text-anchor="middle" x="497.295" y="-115.4" font-family="Times,serif" font-size="14.00">[Q &#45;&gt; Q &#45;&gt; Q &#45;&gt; Q set: INCONSISTENT!]</text>
</g>
<!-- fcall_XnMfJr&#45;&gt;t~5 -->
<g id="edge11" class="edge"><title>fcall_XnMfJr&#45;&gt;t~5:center</title>
<path fill="none" stroke="red" d="M497.295,-98.4568C497.295,-89.446 497.295,-79.3342 497.295,-69.736"/>
<polygon fill="red" stroke="red" points="500.795,-69.599 497.295,-59.599 493.795,-69.5991 500.795,-69.599"/>
</g>
<!-- fcall_8EIwrP&#45;&gt;fcall_XnMfJr -->
<g id="edge12" class="edge"><title>fcall_8EIwrP&#45;&gt;fcall_XnMfJr:center</title>
<path fill="none" stroke="black" d="M821.442,-218.2C756.423,-200.308 665.689,-175.339 596.748,-156.368"/>
<polygon fill="none" stroke="black" points="597.311,-152.893 586.74,-153.614 595.453,-159.642 597.311,-152.893"/>
<text text-anchor="middle" x="727.795" y="-180.8" font-family="Times,serif" font-size="14.00">n</text>
</g>
<!-- lt_MXVhrB -->
<g id="node14" class="node"><title>lt_MXVhrB</title>
<ellipse fill="white" stroke="black" cx="290.295" cy="-242" rx="65.3291" ry="18"/>
<text text-anchor="middle" x="290.295" y="-237.8" font-family="Times,serif" font-size="14.00">any &#45;&gt; any set</text>
</g>
<!-- lt_MXVhrB&#45;&gt;fcall_XnMfJr -->
<g id="edge13" class="edge"><title>lt_MXVhrB&#45;&gt;fcall_XnMfJr:center</title>
<path fill="none" stroke="black" d="M318.644,-225.662C349.089,-209.189 398.357,-182.532 437.451,-161.38"/>
<polygon fill="none" stroke="black" points="439.512,-164.244 446.642,-156.407 436.181,-158.087 439.512,-164.244"/>
<text text-anchor="middle" x="432.898" y="-180.8" font-family="Times,serif" font-size="14.00">semantics</text>
</g>
</g>
</svg>
