<?xml version="1.0" encoding="UTF-8" standalone="no"?>
<!DOCTYPE svg PUBLIC "-//W3C//DTD SVG 1.1//EN"
 "http://www.w3.org/Graphics/SVG/1.1/DTD/svg11.dtd">
<!-- Generated by graphviz version 2.28.0 (20160728.0200)
 -->
<!-- Title: f Pages: 1 -->
<svg width="503pt" height="503pt"
 viewBox="0.00 0.00 503.00 503.00" xmlns="http://www.w3.org/2000/svg" xmlns:xlink="http://www.w3.org/1999/xlink">
<g id="graph1" class="graph" transform="scale(0.746291 0.746291) rotate(0) translate(4 670)">
<title>f</title>
<!-- t -->
<g id="node1" class="node"><title>t</title>
<ellipse fill="white" stroke="black" cx="595.4" cy="-562" rx="27" ry="29.5"/>
<text text-anchor="middle" x="595.4" y="-566.2" font-family="Times,serif" font-size="14.00">t </text>
<text text-anchor="middle" x="595.4" y="-549.4" font-family="Times,serif" font-size="14.00">[Q]</text>
</g>
<!-- 243 -->
<g id="node4" class="node"><title>243</title>
<ellipse fill="orange" stroke="black" cx="407.4" cy="-460" rx="32.3481" ry="18"/>
<text text-anchor="middle" x="407.4" y="-455.8" font-family="Times,serif" font-size="14.00">attr&lt;&#45;</text>
</g>
<!-- t&#45;&gt;243 -->
<g id="edge1" class="edge"><title>t&#45;&gt;243:center</title>
<path fill="none" stroke="black" d="M571.207,-548.131C537.472,-530.187 476.255,-497.625 438.966,-477.79"/>
<polygon fill="none" stroke="black" points="440.505,-474.645 430.033,-473.039 437.218,-480.825 440.505,-474.645"/>
</g>
<!-- 43633 -->
<g id="node2" class="node"><title>43633</title>
<ellipse fill="white" stroke="black" cx="595.4" cy="-648" rx="27" ry="18"/>
<text text-anchor="middle" x="595.4" y="-643.8" font-family="Times,serif" font-size="14.00">1</text>
</g>
<!-- 43633&#45;&gt;t -->
<g id="edge2" class="edge"><title>43633&#45;&gt;t:center</title>
<path fill="none" stroke="red" d="M595.4,-629.595C595.4,-621.463 595.4,-611.432 595.4,-601.646"/>
<polygon fill="red" stroke="red" points="598.9,-601.625 595.4,-591.625 591.9,-601.625 598.9,-601.625"/>
</g>
<!-- t~2 -->
<g id="node3" class="node"><title>t~2</title>
<ellipse fill="white" stroke="black" cx="407.4" cy="-374" rx="31.3414" ry="29.5"/>
<text text-anchor="middle" x="407.4" y="-378.2" font-family="Times,serif" font-size="14.00">t~2 </text>
<text text-anchor="middle" x="407.4" y="-361.4" font-family="Times,serif" font-size="14.00">[test]</text>
</g>
<!-- 850 -->
<g id="node8" class="node"><title>850</title>
<ellipse fill="orange" stroke="black" cx="271.4" cy="-288" rx="27" ry="18"/>
<text text-anchor="middle" x="271.4" y="-283.8" font-family="Times,serif" font-size="14.00">+</text>
</g>
<!-- t~2&#45;&gt;850 -->
<g id="edge3" class="edge"><title>t~2&#45;&gt;850:center</title>
<path fill="none" stroke="black" d="M381.499,-357.003C357.991,-342.483 323.415,-321.127 299.303,-306.234"/>
<polygon fill="none" stroke="black" points="300.967,-303.148 290.62,-300.871 297.288,-309.104 300.967,-303.148"/>
</g>
<!-- 243&#45;&gt;t~2 -->
<g id="edge4" class="edge"><title>243&#45;&gt;t~2:center</title>
<path fill="none" stroke="red" d="M407.4,-441.595C407.4,-433.463 407.4,-423.432 407.4,-413.646"/>
<polygon fill="red" stroke="red" points="410.9,-413.625 407.4,-403.625 403.9,-413.625 410.9,-413.625"/>
</g>
<!-- 33844 -->
<g id="node5" class="node"><title>33844</title>
<ellipse fill="white" stroke="black" cx="162.4" cy="-562" rx="49.1738" ry="18"/>
<text text-anchor="middle" x="162.4" y="-557.8" font-family="Times,serif" font-size="14.00">semantics</text>
</g>
<!-- 33844&#45;&gt;243 -->
<g id="edge5" class="edge"><title>33844&#45;&gt;243:center</title>
<path fill="none" stroke="black" d="M193.928,-548.131C239.874,-529.378 324.934,-494.659 372.639,-475.188"/>
<polygon fill="none" stroke="black" points="374.006,-478.41 381.942,-471.391 371.361,-471.929 374.006,-478.41"/>
<text text-anchor="middle" x="337.506" y="-500.8" font-family="Times,serif" font-size="14.00">which</text>
</g>
<!-- 54707 -->
<g id="node6" class="node"><title>54707</title>
<ellipse fill="white" stroke="black" cx="407.4" cy="-562" rx="27" ry="18"/>
<text text-anchor="middle" x="407.4" y="-557.8" font-family="Times,serif" font-size="14.00">test</text>
</g>
<!-- 54707&#45;&gt;243 -->
<g id="edge6" class="edge"><title>54707&#45;&gt;243:center</title>
<path fill="none" stroke="black" d="M407.4,-543.581C407.4,-528.382 407.4,-506.067 407.4,-488.464"/>
<polygon fill="none" stroke="black" points="410.9,-488.219 407.4,-478.219 403.9,-488.219 410.9,-488.219"/>
</g>
<!-- t~3 -->
<g id="node7" class="node"><title>t~3</title>
<ellipse fill="white" stroke="black" cx="271.4" cy="-202" rx="31.3414" ry="29.5"/>
<text text-anchor="middle" x="271.4" y="-206.2" font-family="Times,serif" font-size="14.00">t~3 </text>
<text text-anchor="middle" x="271.4" y="-189.4" font-family="Times,serif" font-size="14.00">[test]</text>
</g>
<!-- 267 -->
<g id="node11" class="node"><title>267</title>
<ellipse fill="orange" stroke="black" cx="135.4" cy="-116" rx="27" ry="18"/>
<text text-anchor="middle" x="135.4" y="-111.8" font-family="Times,serif" font-size="14.00">+</text>
</g>
<!-- t~3&#45;&gt;267 -->
<g id="edge7" class="edge"><title>t~3&#45;&gt;267:center</title>
<path fill="none" stroke="black" d="M245.499,-185.003C221.991,-170.483 187.415,-149.127 163.303,-134.234"/>
<polygon fill="none" stroke="black" points="164.967,-131.148 154.62,-128.871 161.288,-137.104 164.967,-131.148"/>
</g>
<!-- 850&#45;&gt;t~3 -->
<g id="edge8" class="edge"><title>850&#45;&gt;t~3:center</title>
<path fill="none" stroke="red" d="M271.4,-269.595C271.4,-261.463 271.4,-251.432 271.4,-241.646"/>
<polygon fill="red" stroke="red" points="274.9,-241.625 271.4,-231.625 267.9,-241.625 274.9,-241.625"/>
</g>
<!-- 91564 -->
<g id="node9" class="node"><title>91564</title>
<ellipse fill="white" stroke="black" cx="206.4" cy="-374" rx="27" ry="18"/>
<text text-anchor="middle" x="206.4" y="-369.8" font-family="Times,serif" font-size="14.00">2</text>
</g>
<!-- 91564&#45;&gt;850 -->
<g id="edge9" class="edge"><title>91564&#45;&gt;850:center</title>
<path fill="none" stroke="black" d="M218.322,-357.593C228.126,-344.923 242.174,-326.769 253.355,-312.319"/>
<polygon fill="none" stroke="black" points="256.202,-314.36 259.554,-304.309 250.666,-310.076 256.202,-314.36"/>
</g>
<!-- t~4 -->
<g id="node10" class="node"><title>t~4</title>
<ellipse fill="white" stroke="black" cx="135.4" cy="-30" rx="31.3414" ry="29.5"/>
<text text-anchor="middle" x="135.4" y="-34.2" font-family="Times,serif" font-size="14.00">t~4 </text>
<text text-anchor="middle" x="135.4" y="-17.4" font-family="Times,serif" font-size="14.00">[test]</text>
</g>
<!-- 267&#45;&gt;t~4 -->
<g id="edge10" class="edge"><title>267&#45;&gt;t~4:center</title>
<path fill="none" stroke="red" d="M135.4,-97.5951C135.4,-89.4634 135.4,-79.4323 135.4,-69.6457"/>
<polygon fill="red" stroke="red" points="138.9,-69.6254 135.4,-59.6254 131.9,-69.6255 138.9,-69.6254"/>
</g>
<!-- 47784 -->
<g id="node12" class="node"><title>47784</title>
<ellipse fill="white" stroke="black" cx="70.4" cy="-202" rx="27" ry="18"/>
<text text-anchor="middle" x="70.4" y="-197.8" font-family="Times,serif" font-size="14.00">3</text>
</g>
<!-- 47784&#45;&gt;267 -->
<g id="edge11" class="edge"><title>47784&#45;&gt;267:center</title>
<path fill="none" stroke="black" d="M82.322,-185.593C92.126,-172.923 106.174,-154.769 117.355,-140.319"/>
<polygon fill="none" stroke="black" points="120.202,-142.36 123.554,-132.309 114.666,-138.076 120.202,-142.36"/>
</g>
</g>
</svg>
