<?xml version="1.0" encoding="UTF-8" standalone="no"?>
<!DOCTYPE svg PUBLIC "-//W3C//DTD SVG 1.1//EN"
 "http://www.w3.org/Graphics/SVG/1.1/DTD/svg11.dtd">
<!-- Generated by graphviz version 2.28.0 (20160728.0200)
 -->
<!-- Title: f Pages: 1 -->
<svg width="544pt" height="373pt"
 viewBox="0.00 0.00 543.85 373.00" xmlns="http://www.w3.org/2000/svg" xmlns:xlink="http://www.w3.org/1999/xlink">
<g id="graph1" class="graph" transform="scale(0.579193 0.579193) rotate(0) translate(4 640)">
<title>f</title>
<!-- t -->
<g id="node1" class="node"><title>t</title>
<ellipse fill="white" stroke="black" cx="465.491" cy="-534" rx="27" ry="29.5"/>
<text text-anchor="middle" x="465.491" y="-538.2" font-family="Times,serif" font-size="14.00">t </text>
<text text-anchor="middle" x="465.491" y="-521.4" font-family="Times,serif" font-size="14.00">[Q]</text>
</g>
<!-- fcall_LJe4bf -->
<g id="node4" class="node"><title>fcall_LJe4bf</title>
<ellipse fill="orange" stroke="black" cx="465.491" cy="-450" rx="158.325" ry="18"/>
<text text-anchor="middle" x="465.491" y="-445.8" font-family="Times,serif" font-size="14.00">`attr&lt;&#45;`(t, which = &quot;semantics&quot;, &quot;test&quot;)</text>
</g>
<!-- t&#45;&gt;fcall_LJe4bf -->
<g id="edge1" class="edge"><title>t&#45;&gt;fcall_LJe4bf:center</title>
<path fill="none" stroke="black" d="M465.491,-504.32C465.491,-495.877 465.491,-486.666 465.491,-478.311"/>
<polygon fill="none" stroke="black" points="468.991,-478.309 465.491,-468.309 461.991,-478.309 468.991,-478.309"/>
</g>
<!-- lt_rNxDDq -->
<g id="node2" class="node"><title>lt_rNxDDq</title>
<ellipse fill="white" stroke="black" cx="465.491" cy="-618" rx="27" ry="18"/>
<text text-anchor="middle" x="465.491" y="-613.8" font-family="Times,serif" font-size="14.00">1</text>
</g>
<!-- lt_rNxDDq&#45;&gt;t -->
<g id="edge2" class="edge"><title>lt_rNxDDq&#45;&gt;t:center</title>
<path fill="none" stroke="red" d="M465.491,-599.61C465.491,-592.027 465.491,-582.809 465.491,-573.74"/>
<polygon fill="red" stroke="red" points="468.991,-573.658 465.491,-563.658 461.991,-573.658 468.991,-573.658"/>
</g>
<!-- t~2 -->
<g id="node3" class="node"><title>t~2</title>
<ellipse fill="white" stroke="black" cx="465.491" cy="-366" rx="31.3414" ry="29.5"/>
<text text-anchor="middle" x="465.491" y="-370.2" font-family="Times,serif" font-size="14.00">t~2 </text>
<text text-anchor="middle" x="465.491" y="-353.4" font-family="Times,serif" font-size="14.00">[test]</text>
</g>
<!-- fcall_TQnWHx -->
<g id="node6" class="node"><title>fcall_TQnWHx</title>
<ellipse fill="orange" stroke="black" cx="465.491" cy="-282" rx="28.2376" ry="18"/>
<text text-anchor="middle" x="465.491" y="-277.8" font-family="Times,serif" font-size="14.00">t + 2</text>
</g>
<!-- t~2&#45;&gt;fcall_TQnWHx -->
<g id="edge3" class="edge"><title>t~2&#45;&gt;fcall_TQnWHx:center</title>
<path fill="none" stroke="black" d="M465.491,-336.32C465.491,-327.877 465.491,-318.666 465.491,-310.311"/>
<polygon fill="none" stroke="black" points="468.991,-310.309 465.491,-300.309 461.991,-310.309 468.991,-310.309"/>
</g>
<!-- fcall_LJe4bf&#45;&gt;t~2 -->
<g id="edge4" class="edge"><title>fcall_LJe4bf&#45;&gt;t~2:center</title>
<path fill="none" stroke="red" d="M465.491,-431.61C465.491,-424.027 465.491,-414.809 465.491,-405.74"/>
<polygon fill="red" stroke="red" points="468.991,-405.658 465.491,-395.658 461.991,-405.658 468.991,-405.658"/>
</g>
<!-- t~3 -->
<g id="node5" class="node"><title>t~3</title>
<ellipse fill="white" stroke="black" cx="465.491" cy="-198" rx="31.3414" ry="29.5"/>
<text text-anchor="middle" x="465.491" y="-202.2" font-family="Times,serif" font-size="14.00">t~3 </text>
<text text-anchor="middle" x="465.491" y="-185.4" font-family="Times,serif" font-size="14.00">[test]</text>
</g>
<!-- fcall_2DBbb5 -->
<g id="node8" class="node"><title>fcall_2DBbb5</title>
<ellipse fill="orange" stroke="black" cx="465.491" cy="-114" rx="28.2376" ry="18"/>
<text text-anchor="middle" x="465.491" y="-109.8" font-family="Times,serif" font-size="14.00">t + 3</text>
</g>
<!-- t~3&#45;&gt;fcall_2DBbb5 -->
<g id="edge5" class="edge"><title>t~3&#45;&gt;fcall_2DBbb5:center</title>
<path fill="none" stroke="black" d="M465.491,-168.32C465.491,-159.877 465.491,-150.666 465.491,-142.311"/>
<polygon fill="none" stroke="black" points="468.991,-142.309 465.491,-132.309 461.991,-142.309 468.991,-142.309"/>
</g>
<!-- fcall_TQnWHx&#45;&gt;t~3 -->
<g id="edge6" class="edge"><title>fcall_TQnWHx&#45;&gt;t~3:center</title>
<path fill="none" stroke="red" d="M465.491,-263.61C465.491,-256.027 465.491,-246.809 465.491,-237.74"/>
<polygon fill="red" stroke="red" points="468.991,-237.658 465.491,-227.658 461.991,-237.658 468.991,-237.658"/>
</g>
<!-- t~4 -->
<g id="node7" class="node"><title>t~4</title>
<ellipse fill="white" stroke="black" cx="465.491" cy="-30" rx="31.3414" ry="29.5"/>
<text text-anchor="middle" x="465.491" y="-34.2" font-family="Times,serif" font-size="14.00">t~4 </text>
<text text-anchor="middle" x="465.491" y="-17.4" font-family="Times,serif" font-size="14.00">[test]</text>
</g>
<!-- fcall_2DBbb5&#45;&gt;t~4 -->
<g id="edge7" class="edge"><title>fcall_2DBbb5&#45;&gt;t~4:center</title>
<path fill="none" stroke="red" d="M465.491,-95.6099C465.491,-88.027 465.491,-78.8095 465.491,-69.74"/>
<polygon fill="red" stroke="red" points="468.991,-69.658 465.491,-59.658 461.991,-69.6581 468.991,-69.658"/>
</g>
</g>
</svg>
