<?xml version="1.0" encoding="UTF-8" standalone="no"?>
<!DOCTYPE svg PUBLIC "-//W3C//DTD SVG 1.1//EN"
 "http://www.w3.org/Graphics/SVG/1.1/DTD/svg11.dtd">
<!-- Generated by graphviz version 2.28.0 (20160728.0200)
 -->
<!-- Title: f Pages: 1 -->
<svg width="503pt" height="503pt"
 viewBox="0.00 0.00 503.00 503.00" xmlns="http://www.w3.org/2000/svg" xmlns:xlink="http://www.w3.org/1999/xlink">
<g id="graph1" class="graph" transform="scale(0.785937 0.785937) rotate(0) translate(4 636)">
<title>f</title>
<!-- fcall_ikeuwj -->
<g id="node1" class="node"><title>fcall_ikeuwj</title>
<ellipse fill="orange" stroke="black" cx="283.986" cy="-524" rx="32.2385" ry="18"/>
<text text-anchor="middle" x="283.986" y="-519.8" font-family="Times,serif" font-size="14.00">demo</text>
</g>
<!-- crs -->
<g id="node5" class="node"><title>crs</title>
<ellipse fill="white" stroke="black" cx="29.986" cy="-438" rx="27" ry="29.3315"/>
<text text-anchor="middle" x="29.986" y="-442.2" font-family="Times,serif" font-size="14.00">crs </text>
<text text-anchor="middle" x="29.986" y="-425.4" font-family="Times,serif" font-size="14.00">[&#39;a]</text>
</g>
<!-- fcall_ikeuwj&#45;&gt;crs -->
<g id="edge1" class="edge"><title>fcall_ikeuwj&#45;&gt;crs:center</title>
<path fill="none" stroke="red" stroke-dasharray="5,2" d="M253.588,-517.821C212.399,-510.16 137.103,-493.863 76.986,-468 71.8115,-465.774 66.5368,-463.042 61.4802,-460.154"/>
<polygon fill="red" stroke="red" points="63.0562,-457.018 52.6829,-454.863 59.448,-463.016 63.0562,-457.018"/>
</g>
<!-- meuse -->
<g id="node6" class="node"><title>meuse</title>
<ellipse fill="white" stroke="black" cx="139.986" cy="-438" rx="53.3869" ry="29.3315"/>
<text text-anchor="middle" x="139.986" y="-442.2" font-family="Times,serif" font-size="14.00">meuse </text>
<text text-anchor="middle" x="139.986" y="-425.4" font-family="Times,serif" font-size="14.00">[S x Q set]</text>
</g>
<!-- fcall_ikeuwj&#45;&gt;meuse -->
<g id="edge2" class="edge"><title>fcall_ikeuwj&#45;&gt;meuse:center</title>
<path fill="none" stroke="red" stroke-dasharray="5,2" d="M262.428,-510.424C242.004,-498.511 210.698,-480.249 184.855,-465.174"/>
<polygon fill="red" stroke="red" points="186.37,-462.005 175.968,-459.99 182.843,-468.052 186.37,-462.005"/>
</g>
<!-- meuse.area -->
<g id="node7" class="node"><title>meuse.area</title>
<ellipse fill="white" stroke="black" cx="283.986" cy="-438" rx="58.0471" ry="29.3315"/>
<text text-anchor="middle" x="283.986" y="-442.2" font-family="Times,serif" font-size="14.00">meuse.area </text>
<text text-anchor="middle" x="283.986" y="-425.4" font-family="Times,serif" font-size="14.00">[R set]</text>
</g>
<!-- fcall_ikeuwj&#45;&gt;meuse.area -->
<g id="edge3" class="edge"><title>fcall_ikeuwj&#45;&gt;meuse.area:center</title>
<path fill="none" stroke="red" stroke-dasharray="5,2" d="M283.986,-505.595C283.986,-497.463 283.986,-487.432 283.986,-477.646"/>
<polygon fill="red" stroke="red" points="287.486,-477.625 283.986,-467.625 280.486,-477.625 287.486,-477.625"/>
</g>
<!-- meuse.grid -->
<g id="node8" class="node"><title>meuse.grid</title>
<ellipse fill="white" stroke="black" cx="431.986" cy="-438" rx="57.2482" ry="29.3315"/>
<text text-anchor="middle" x="431.986" y="-442.2" font-family="Times,serif" font-size="14.00">meuse.grid </text>
<text text-anchor="middle" x="431.986" y="-425.4" font-family="Times,serif" font-size="14.00">[S x Q set]</text>
</g>
<!-- fcall_ikeuwj&#45;&gt;meuse.grid -->
<g id="edge4" class="edge"><title>fcall_ikeuwj&#45;&gt;meuse.grid:center</title>
<path fill="none" stroke="red" stroke-dasharray="5,2" d="M305.824,-510.606C326.702,-498.756 358.85,-480.51 385.468,-465.402"/>
<polygon fill="red" stroke="red" points="387.29,-468.392 394.259,-460.412 383.835,-462.305 387.29,-468.392"/>
</g>
<!-- meuse.riv -->
<g id="node9" class="node"><title>meuse.riv</title>
<ellipse fill="white" stroke="black" cx="573.986" cy="-438" rx="52.3234" ry="29.3315"/>
<text text-anchor="middle" x="573.986" y="-442.2" font-family="Times,serif" font-size="14.00">meuse.riv </text>
<text text-anchor="middle" x="573.986" y="-425.4" font-family="Times,serif" font-size="14.00">[R set]</text>
</g>
<!-- fcall_ikeuwj&#45;&gt;meuse.riv -->
<g id="edge5" class="edge"><title>fcall_ikeuwj&#45;&gt;meuse.riv:center</title>
<path fill="none" stroke="red" stroke-dasharray="5,2" d="M313.358,-516.559C354.875,-507.206 432.919,-488.703 497.986,-468 506.014,-465.446 514.428,-462.507 522.611,-459.502"/>
<polygon fill="red" stroke="red" points="523.935,-462.744 532.076,-455.962 521.483,-456.187 523.935,-462.744"/>
</g>
<!-- lt_qWLTyV -->
<g id="node2" class="node"><title>lt_qWLTyV</title>
<ellipse fill="white" stroke="black" cx="179.986" cy="-614" rx="35.5584" ry="18"/>
<text text-anchor="middle" x="179.986" y="-609.8" font-family="Times,serif" font-size="14.00">meuse</text>
</g>
<!-- lt_qWLTyV&#45;&gt;fcall_ikeuwj -->
<g id="edge6" class="edge"><title>lt_qWLTyV&#45;&gt;fcall_ikeuwj:center</title>
<path fill="none" stroke="black" d="M197.628,-598.072C214.565,-583.741 240.303,-561.962 259.277,-545.908"/>
<polygon fill="none" stroke="black" points="261.576,-548.547 266.949,-539.416 257.054,-543.204 261.576,-548.547"/>
<text text-anchor="middle" x="255.984" y="-564.8" font-family="Times,serif" font-size="14.00">topic</text>
</g>
<!-- lt_JWWXvH -->
<g id="node3" class="node"><title>lt_JWWXvH</title>
<ellipse fill="white" stroke="black" cx="283.986" cy="-614" rx="40.3147" ry="18"/>
<text text-anchor="middle" x="283.986" y="-609.8" font-family="Times,serif" font-size="14.00">FALSE</text>
</g>
<!-- lt_JWWXvH&#45;&gt;fcall_ikeuwj -->
<g id="edge7" class="edge"><title>lt_JWWXvH&#45;&gt;fcall_ikeuwj:center</title>
<path fill="none" stroke="black" d="M283.986,-595.614C283.986,-583.24 283.986,-566.369 283.986,-552.22"/>
<polygon fill="none" stroke="black" points="287.486,-552.05 283.986,-542.05 280.486,-552.05 287.486,-552.05"/>
<text text-anchor="middle" x="297.201" y="-564.8" font-family="Times,serif" font-size="14.00">echo</text>
</g>
<!-- lt_E2gO18 -->
<g id="node4" class="node"><title>lt_E2gO18</title>
<ellipse fill="white" stroke="black" cx="393.986" cy="-614" rx="40.3147" ry="18"/>
<text text-anchor="middle" x="393.986" y="-609.8" font-family="Times,serif" font-size="14.00">FALSE</text>
</g>
<!-- lt_E2gO18&#45;&gt;fcall_ikeuwj -->
<g id="edge8" class="edge"><title>lt_E2gO18&#45;&gt;fcall_ikeuwj:center</title>
<path fill="none" stroke="black" d="M374.825,-597.672C356.836,-583.28 329.787,-561.641 309.881,-545.716"/>
<polygon fill="none" stroke="black" points="311.83,-542.793 301.835,-539.279 307.457,-548.259 311.83,-542.793"/>
<text text-anchor="middle" x="358.316" y="-564.8" font-family="Times,serif" font-size="14.00">ask</text>
</g>
<!-- meuse~2 -->
<g id="node10" class="node"><title>meuse~2</title>
<ellipse fill="white" stroke="black" cx="158.986" cy="-30" rx="53.3869" ry="29.3315"/>
<text text-anchor="middle" x="158.986" y="-34.2" font-family="Times,serif" font-size="14.00">meuse~2 </text>
<text text-anchor="middle" x="158.986" y="-17.4" font-family="Times,serif" font-size="14.00">[S x Q set]</text>
</g>
<!-- meuse&#45;&gt;meuse~2 -->
<g id="edge9" class="edge"><title>meuse&#45;&gt;meuse~2:center</title>
<path fill="none" stroke="black" stroke-dasharray="5,2" d="M133.641,-408.594C129.937,-389.569 125.986,-363.906 125.986,-341 125.986,-341 125.986,-341 125.986,-127 125.986,-106.628 132.714,-85.0802 140.095,-67.5722"/>
<polygon fill="black" stroke="black" points="143.355,-68.8535 144.223,-58.2943 136.96,-66.0075 143.355,-68.8535"/>
</g>
<!-- meuse$zinc -->
<g id="node13" class="node"><title>meuse$zinc</title>
<ellipse fill="white" stroke="black" cx="231.986" cy="-340" rx="60.2757" ry="29.3315"/>
<text text-anchor="middle" x="231.986" y="-344.2" font-family="Times,serif" font-size="14.00">meuse$zinc </text>
<text text-anchor="middle" x="231.986" y="-327.4" font-family="Times,serif" font-size="14.00">[Q set]</text>
</g>
<!-- meuse&#45;&gt;meuse$zinc -->
<g id="edge10" class="edge"><title>meuse&#45;&gt;meuse$zinc:center</title>
<path fill="none" stroke="black" d="M164.399,-411.526C175.332,-400.118 188.368,-386.514 200.062,-374.312"/>
<polygon fill="none" stroke="black" points="202.747,-376.569 207.139,-366.928 197.693,-371.726 202.747,-376.569"/>
</g>
<!-- meuse$lzinc -->
<g id="node11" class="node"><title>meuse$lzinc</title>
<ellipse fill="white" stroke="black" cx="229.986" cy="-128" rx="62.9037" ry="29.3315"/>
<text text-anchor="middle" x="229.986" y="-132.2" font-family="Times,serif" font-size="14.00">meuse$lzinc </text>
<text text-anchor="middle" x="229.986" y="-115.4" font-family="Times,serif" font-size="14.00">[Q set]</text>
</g>
<!-- meuse$lzinc&#45;&gt;meuse~2 -->
<g id="edge11" class="edge"><title>meuse$lzinc&#45;&gt;meuse~2:center</title>
<path fill="none" stroke="red" d="M210.02,-100.003C202.175,-89.3969 193.071,-77.0863 184.742,-65.8246"/>
<polygon fill="red" stroke="red" points="187.318,-63.4215 178.557,-57.4627 181.69,-67.5839 187.318,-63.4215"/>
</g>
<!-- fcall_POaq1y -->
<g id="node12" class="node"><title>fcall_POaq1y</title>
<ellipse fill="orange" stroke="black" cx="237.986" cy="-226" rx="72.4489" ry="29.3315"/>
<text text-anchor="middle" x="237.986" y="-230.2" font-family="Times,serif" font-size="14.00">log</text>
<text text-anchor="middle" x="237.986" y="-213.4" font-family="Times,serif" font-size="14.00">[Q set &#45;&gt; Q set]</text>
</g>
<!-- fcall_POaq1y&#45;&gt;meuse$lzinc -->
<g id="edge12" class="edge"><title>fcall_POaq1y&#45;&gt;meuse$lzinc:center</title>
<path fill="none" stroke="red" d="M235.607,-196.457C234.856,-187.446 234.014,-177.334 233.214,-167.736"/>
<polygon fill="red" stroke="red" points="236.688,-167.274 232.369,-157.599 229.712,-167.855 236.688,-167.274"/>
</g>
<!-- meuse$zinc&#45;&gt;fcall_POaq1y -->
<g id="edge13" class="edge"><title>meuse$zinc&#45;&gt;fcall_POaq1y:center</title>
<path fill="none" stroke="black" d="M233.516,-310.448C234.242,-296.888 235.121,-280.476 235.907,-265.808"/>
<polygon fill="none" stroke="black" points="239.419,-265.673 236.459,-255.5 232.429,-265.298 239.419,-265.673"/>
<text text-anchor="middle" x="239.486" y="-278.8" font-family="Times,serif" font-size="14.00">x</text>
</g>
</g>
</svg>
